<?xml version="1.0" encoding="utf-8" standalone="no"?>
<!DOCTYPE svg PUBLIC "-//W3C//DTD SVG 1.1//EN"
  "http://www.w3.org/Graphics/SVG/1.1/DTD/svg11.dtd">
<svg xmlns:xlink="http://www.w3.org/1999/xlink" width="864pt" height="648pt" viewBox="0 0 864 648" xmlns="http://www.w3.org/2000/svg" version="1.1">
 <metadata>
  <rdf:RDF xmlns:dc="http://purl.org/dc/elements/1.1/" xmlns:cc="http://creativecommons.org/ns#" xmlns:rdf="http://www.w3.org/1999/02/22-rdf-syntax-ns#">
   <cc:Work>
    <dc:type rdf:resource="http://purl.org/dc/dcmitype/StillImage"/>
    <dc:date>2023-12-06T12:35:49.663065</dc:date>
    <dc:format>image/svg+xml</dc:format>
    <dc:creator>
     <cc:Agent>
      <dc:title>Matplotlib v3.5.2, https://matplotlib.org/</dc:title>
     </cc:Agent>
    </dc:creator>
   </cc:Work>
  </rdf:RDF>
 </metadata>
 <defs>
  <style type="text/css">*{stroke-linejoin: round; stroke-linecap: butt}</style>
 </defs>
 <g id="figure_1">
  <g id="patch_1">
   <path d="M 0 648 
L 864 648 
L 864 0 
L 0 0 
L 0 648 
z
" style="fill: none"/>
  </g>
  <g id="axes_1">
   <g id="patch_2">
    <path d="M 108 567 
L 777.6 567 
L 777.6 77.76 
L 108 77.76 
z
" style="fill: #ffffff"/>
   </g>
   <g id="matplotlib.axis_1">
    <g id="xtick_1">
     <g id="line2d_1">
      <defs>
       <path id="m63150a8a52" d="M 0 0 
L 0 3.5 
" style="stroke: #000000; stroke-width: 0.8"/>
      </defs>
      <g>
       <use xlink:href="#m63150a8a52" x="138.436364" y="567" style="stroke: #000000; stroke-width: 0.8"/>
      </g>
     </g>
     <g id="text_1">
      <!-- 0 -->
      <g transform="translate(132.710114 587.677187)scale(0.18 -0.18)">
       <defs>
        <path id="DejaVuSans-30" d="M 2034 4250 
Q 1547 4250 1301 3770 
Q 1056 3291 1056 2328 
Q 1056 1369 1301 889 
Q 1547 409 2034 409 
Q 2525 409 2770 889 
Q 3016 1369 3016 2328 
Q 3016 3291 2770 3770 
Q 2525 4250 2034 4250 
z
M 2034 4750 
Q 2819 4750 3233 4129 
Q 3647 3509 3647 2328 
Q 3647 1150 3233 529 
Q 2819 -91 2034 -91 
Q 1250 -91 836 529 
Q 422 1150 422 2328 
Q 422 3509 836 4129 
Q 1250 4750 2034 4750 
z
" transform="scale(0.015625)"/>
       </defs>
       <use xlink:href="#DejaVuSans-30"/>
      </g>
     </g>
    </g>
    <g id="xtick_2">
     <g id="line2d_2">
      <g>
       <use xlink:href="#m63150a8a52" x="286.978848" y="567" style="stroke: #000000; stroke-width: 0.8"/>
      </g>
     </g>
     <g id="text_2">
      <!-- 5 -->
      <g transform="translate(281.252598 587.677187)scale(0.18 -0.18)">
       <defs>
        <path id="DejaVuSans-35" d="M 691 4666 
L 3169 4666 
L 3169 4134 
L 1269 4134 
L 1269 2991 
Q 1406 3038 1543 3061 
Q 1681 3084 1819 3084 
Q 2600 3084 3056 2656 
Q 3513 2228 3513 1497 
Q 3513 744 3044 326 
Q 2575 -91 1722 -91 
Q 1428 -91 1123 -41 
Q 819 9 494 109 
L 494 744 
Q 775 591 1075 516 
Q 1375 441 1709 441 
Q 2250 441 2565 725 
Q 2881 1009 2881 1497 
Q 2881 1984 2565 2268 
Q 2250 2553 1709 2553 
Q 1456 2553 1204 2497 
Q 953 2441 691 2322 
L 691 4666 
z
" transform="scale(0.015625)"/>
       </defs>
       <use xlink:href="#DejaVuSans-35"/>
      </g>
     </g>
    </g>
    <g id="xtick_3">
     <g id="line2d_3">
      <g>
       <use xlink:href="#m63150a8a52" x="435.521333" y="567" style="stroke: #000000; stroke-width: 0.8"/>
      </g>
     </g>
     <g id="text_3">
      <!-- 10 -->
      <g transform="translate(424.068833 587.677187)scale(0.18 -0.18)">
       <defs>
        <path id="DejaVuSans-31" d="M 794 531 
L 1825 531 
L 1825 4091 
L 703 3866 
L 703 4441 
L 1819 4666 
L 2450 4666 
L 2450 531 
L 3481 531 
L 3481 0 
L 794 0 
L 794 531 
z
" transform="scale(0.015625)"/>
       </defs>
       <use xlink:href="#DejaVuSans-31"/>
       <use xlink:href="#DejaVuSans-30" x="63.623047"/>
      </g>
     </g>
    </g>
    <g id="xtick_4">
     <g id="line2d_4">
      <g>
       <use xlink:href="#m63150a8a52" x="584.063818" y="567" style="stroke: #000000; stroke-width: 0.8"/>
      </g>
     </g>
     <g id="text_4">
      <!-- 15 -->
      <g transform="translate(572.611318 587.677187)scale(0.18 -0.18)">
       <use xlink:href="#DejaVuSans-31"/>
       <use xlink:href="#DejaVuSans-35" x="63.623047"/>
      </g>
     </g>
    </g>
    <g id="xtick_5">
     <g id="line2d_5">
      <g>
       <use xlink:href="#m63150a8a52" x="732.606303" y="567" style="stroke: #000000; stroke-width: 0.8"/>
      </g>
     </g>
     <g id="text_5">
      <!-- 20 -->
      <g transform="translate(721.153803 587.677187)scale(0.18 -0.18)">
       <defs>
        <path id="DejaVuSans-32" d="M 1228 531 
L 3431 531 
L 3431 0 
L 469 0 
L 469 531 
Q 828 903 1448 1529 
Q 2069 2156 2228 2338 
Q 2531 2678 2651 2914 
Q 2772 3150 2772 3378 
Q 2772 3750 2511 3984 
Q 2250 4219 1831 4219 
Q 1534 4219 1204 4116 
Q 875 4013 500 3803 
L 500 4441 
Q 881 4594 1212 4672 
Q 1544 4750 1819 4750 
Q 2544 4750 2975 4387 
Q 3406 4025 3406 3419 
Q 3406 3131 3298 2873 
Q 3191 2616 2906 2266 
Q 2828 2175 2409 1742 
Q 1991 1309 1228 531 
z
" transform="scale(0.015625)"/>
       </defs>
       <use xlink:href="#DejaVuSans-32"/>
       <use xlink:href="#DejaVuSans-30" x="63.623047"/>
      </g>
     </g>
    </g>
    <g id="text_6">
     <!-- Time (ns) -->
     <g transform="translate(400.504219 609.097813)scale(0.18 -0.18)">
      <defs>
       <path id="DejaVuSans-54" d="M -19 4666 
L 3928 4666 
L 3928 4134 
L 2272 4134 
L 2272 0 
L 1638 0 
L 1638 4134 
L -19 4134 
L -19 4666 
z
" transform="scale(0.015625)"/>
       <path id="DejaVuSans-69" d="M 603 3500 
L 1178 3500 
L 1178 0 
L 603 0 
L 603 3500 
z
M 603 4863 
L 1178 4863 
L 1178 4134 
L 603 4134 
L 603 4863 
z
" transform="scale(0.015625)"/>
       <path id="DejaVuSans-6d" d="M 3328 2828 
Q 3544 3216 3844 3400 
Q 4144 3584 4550 3584 
Q 5097 3584 5394 3201 
Q 5691 2819 5691 2113 
L 5691 0 
L 5113 0 
L 5113 2094 
Q 5113 2597 4934 2840 
Q 4756 3084 4391 3084 
Q 3944 3084 3684 2787 
Q 3425 2491 3425 1978 
L 3425 0 
L 2847 0 
L 2847 2094 
Q 2847 2600 2669 2842 
Q 2491 3084 2119 3084 
Q 1678 3084 1418 2786 
Q 1159 2488 1159 1978 
L 1159 0 
L 581 0 
L 581 3500 
L 1159 3500 
L 1159 2956 
Q 1356 3278 1631 3431 
Q 1906 3584 2284 3584 
Q 2666 3584 2933 3390 
Q 3200 3197 3328 2828 
z
" transform="scale(0.015625)"/>
       <path id="DejaVuSans-65" d="M 3597 1894 
L 3597 1613 
L 953 1613 
Q 991 1019 1311 708 
Q 1631 397 2203 397 
Q 2534 397 2845 478 
Q 3156 559 3463 722 
L 3463 178 
Q 3153 47 2828 -22 
Q 2503 -91 2169 -91 
Q 1331 -91 842 396 
Q 353 884 353 1716 
Q 353 2575 817 3079 
Q 1281 3584 2069 3584 
Q 2775 3584 3186 3129 
Q 3597 2675 3597 1894 
z
M 3022 2063 
Q 3016 2534 2758 2815 
Q 2500 3097 2075 3097 
Q 1594 3097 1305 2825 
Q 1016 2553 972 2059 
L 3022 2063 
z
" transform="scale(0.015625)"/>
       <path id="DejaVuSans-20" transform="scale(0.015625)"/>
       <path id="DejaVuSans-28" d="M 1984 4856 
Q 1566 4138 1362 3434 
Q 1159 2731 1159 2009 
Q 1159 1288 1364 580 
Q 1569 -128 1984 -844 
L 1484 -844 
Q 1016 -109 783 600 
Q 550 1309 550 2009 
Q 550 2706 781 3412 
Q 1013 4119 1484 4856 
L 1984 4856 
z
" transform="scale(0.015625)"/>
       <path id="DejaVuSans-6e" d="M 3513 2113 
L 3513 0 
L 2938 0 
L 2938 2094 
Q 2938 2591 2744 2837 
Q 2550 3084 2163 3084 
Q 1697 3084 1428 2787 
Q 1159 2491 1159 1978 
L 1159 0 
L 581 0 
L 581 3500 
L 1159 3500 
L 1159 2956 
Q 1366 3272 1645 3428 
Q 1925 3584 2291 3584 
Q 2894 3584 3203 3211 
Q 3513 2838 3513 2113 
z
" transform="scale(0.015625)"/>
       <path id="DejaVuSans-73" d="M 2834 3397 
L 2834 2853 
Q 2591 2978 2328 3040 
Q 2066 3103 1784 3103 
Q 1356 3103 1142 2972 
Q 928 2841 928 2578 
Q 928 2378 1081 2264 
Q 1234 2150 1697 2047 
L 1894 2003 
Q 2506 1872 2764 1633 
Q 3022 1394 3022 966 
Q 3022 478 2636 193 
Q 2250 -91 1575 -91 
Q 1294 -91 989 -36 
Q 684 19 347 128 
L 347 722 
Q 666 556 975 473 
Q 1284 391 1588 391 
Q 1994 391 2212 530 
Q 2431 669 2431 922 
Q 2431 1156 2273 1281 
Q 2116 1406 1581 1522 
L 1381 1569 
Q 847 1681 609 1914 
Q 372 2147 372 2553 
Q 372 3047 722 3315 
Q 1072 3584 1716 3584 
Q 2034 3584 2315 3537 
Q 2597 3491 2834 3397 
z
" transform="scale(0.015625)"/>
       <path id="DejaVuSans-29" d="M 513 4856 
L 1013 4856 
Q 1481 4119 1714 3412 
Q 1947 2706 1947 2009 
Q 1947 1309 1714 600 
Q 1481 -109 1013 -844 
L 513 -844 
Q 928 -128 1133 580 
Q 1338 1288 1338 2009 
Q 1338 2731 1133 3434 
Q 928 4138 513 4856 
z
" transform="scale(0.015625)"/>
      </defs>
      <use xlink:href="#DejaVuSans-54"/>
      <use xlink:href="#DejaVuSans-69" x="57.958984"/>
      <use xlink:href="#DejaVuSans-6d" x="85.742188"/>
      <use xlink:href="#DejaVuSans-65" x="183.154297"/>
      <use xlink:href="#DejaVuSans-20" x="244.677734"/>
      <use xlink:href="#DejaVuSans-28" x="276.464844"/>
      <use xlink:href="#DejaVuSans-6e" x="315.478516"/>
      <use xlink:href="#DejaVuSans-73" x="378.857422"/>
      <use xlink:href="#DejaVuSans-29" x="430.957031"/>
     </g>
    </g>
   </g>
   <g id="matplotlib.axis_2">
    <g id="ytick_1">
     <g id="line2d_6">
      <defs>
       <path id="mb1c91039c4" d="M 0 0 
L -3.5 0 
" style="stroke: #000000; stroke-width: 0.8"/>
      </defs>
      <g>
       <use xlink:href="#mb1c91039c4" x="108" y="544.761818" style="stroke: #000000; stroke-width: 0.8"/>
      </g>
     </g>
     <g id="text_7">
      <!-- −1.00 -->
      <g transform="translate(45.838438 551.600412)scale(0.18 -0.18)">
       <defs>
        <path id="DejaVuSans-2212" d="M 678 2272 
L 4684 2272 
L 4684 1741 
L 678 1741 
L 678 2272 
z
" transform="scale(0.015625)"/>
        <path id="DejaVuSans-2e" d="M 684 794 
L 1344 794 
L 1344 0 
L 684 0 
L 684 794 
z
" transform="scale(0.015625)"/>
       </defs>
       <use xlink:href="#DejaVuSans-2212"/>
       <use xlink:href="#DejaVuSans-31" x="83.789062"/>
       <use xlink:href="#DejaVuSans-2e" x="147.412109"/>
       <use xlink:href="#DejaVuSans-30" x="179.199219"/>
       <use xlink:href="#DejaVuSans-30" x="242.822266"/>
      </g>
     </g>
    </g>
    <g id="ytick_2">
     <g id="line2d_7">
      <g>
       <use xlink:href="#mb1c91039c4" x="108" y="489.166364" style="stroke: #000000; stroke-width: 0.8"/>
      </g>
     </g>
     <g id="text_8">
      <!-- −0.75 -->
      <g transform="translate(45.838438 496.004957)scale(0.18 -0.18)">
       <defs>
        <path id="DejaVuSans-37" d="M 525 4666 
L 3525 4666 
L 3525 4397 
L 1831 0 
L 1172 0 
L 2766 4134 
L 525 4134 
L 525 4666 
z
" transform="scale(0.015625)"/>
       </defs>
       <use xlink:href="#DejaVuSans-2212"/>
       <use xlink:href="#DejaVuSans-30" x="83.789062"/>
       <use xlink:href="#DejaVuSans-2e" x="147.412109"/>
       <use xlink:href="#DejaVuSans-37" x="179.199219"/>
       <use xlink:href="#DejaVuSans-35" x="242.822266"/>
      </g>
     </g>
    </g>
    <g id="ytick_3">
     <g id="line2d_8">
      <g>
       <use xlink:href="#mb1c91039c4" x="108" y="433.570909" style="stroke: #000000; stroke-width: 0.8"/>
      </g>
     </g>
     <g id="text_9">
      <!-- −0.50 -->
      <g transform="translate(45.838438 440.409503)scale(0.18 -0.18)">
       <use xlink:href="#DejaVuSans-2212"/>
       <use xlink:href="#DejaVuSans-30" x="83.789062"/>
       <use xlink:href="#DejaVuSans-2e" x="147.412109"/>
       <use xlink:href="#DejaVuSans-35" x="179.199219"/>
       <use xlink:href="#DejaVuSans-30" x="242.822266"/>
      </g>
     </g>
    </g>
    <g id="ytick_4">
     <g id="line2d_9">
      <g>
       <use xlink:href="#mb1c91039c4" x="108" y="377.975455" style="stroke: #000000; stroke-width: 0.8"/>
      </g>
     </g>
     <g id="text_10">
      <!-- −0.25 -->
      <g transform="translate(45.838438 384.814048)scale(0.18 -0.18)">
       <use xlink:href="#DejaVuSans-2212"/>
       <use xlink:href="#DejaVuSans-30" x="83.789062"/>
       <use xlink:href="#DejaVuSans-2e" x="147.412109"/>
       <use xlink:href="#DejaVuSans-32" x="179.199219"/>
       <use xlink:href="#DejaVuSans-35" x="242.822266"/>
      </g>
     </g>
    </g>
    <g id="ytick_5">
     <g id="line2d_10">
      <g>
       <use xlink:href="#mb1c91039c4" x="108" y="322.38" style="stroke: #000000; stroke-width: 0.8"/>
      </g>
     </g>
     <g id="text_11">
      <!-- 0.00 -->
      <g transform="translate(60.921875 329.218594)scale(0.18 -0.18)">
       <use xlink:href="#DejaVuSans-30"/>
       <use xlink:href="#DejaVuSans-2e" x="63.623047"/>
       <use xlink:href="#DejaVuSans-30" x="95.410156"/>
       <use xlink:href="#DejaVuSans-30" x="159.033203"/>
      </g>
     </g>
    </g>
    <g id="ytick_6">
     <g id="line2d_11">
      <g>
       <use xlink:href="#mb1c91039c4" x="108" y="266.784545" style="stroke: #000000; stroke-width: 0.8"/>
      </g>
     </g>
     <g id="text_12">
      <!-- 0.25 -->
      <g transform="translate(60.921875 273.623139)scale(0.18 -0.18)">
       <use xlink:href="#DejaVuSans-30"/>
       <use xlink:href="#DejaVuSans-2e" x="63.623047"/>
       <use xlink:href="#DejaVuSans-32" x="95.410156"/>
       <use xlink:href="#DejaVuSans-35" x="159.033203"/>
      </g>
     </g>
    </g>
    <g id="ytick_7">
     <g id="line2d_12">
      <g>
       <use xlink:href="#mb1c91039c4" x="108" y="211.189091" style="stroke: #000000; stroke-width: 0.8"/>
      </g>
     </g>
     <g id="text_13">
      <!-- 0.50 -->
      <g transform="translate(60.921875 218.027685)scale(0.18 -0.18)">
       <use xlink:href="#DejaVuSans-30"/>
       <use xlink:href="#DejaVuSans-2e" x="63.623047"/>
       <use xlink:href="#DejaVuSans-35" x="95.410156"/>
       <use xlink:href="#DejaVuSans-30" x="159.033203"/>
      </g>
     </g>
    </g>
    <g id="ytick_8">
     <g id="line2d_13">
      <g>
       <use xlink:href="#mb1c91039c4" x="108" y="155.593636" style="stroke: #000000; stroke-width: 0.8"/>
      </g>
     </g>
     <g id="text_14">
      <!-- 0.75 -->
      <g transform="translate(60.921875 162.43223)scale(0.18 -0.18)">
       <use xlink:href="#DejaVuSans-30"/>
       <use xlink:href="#DejaVuSans-2e" x="63.623047"/>
       <use xlink:href="#DejaVuSans-37" x="95.410156"/>
       <use xlink:href="#DejaVuSans-35" x="159.033203"/>
      </g>
     </g>
    </g>
    <g id="ytick_9">
     <g id="line2d_14">
      <g>
       <use xlink:href="#mb1c91039c4" x="108" y="99.998182" style="stroke: #000000; stroke-width: 0.8"/>
      </g>
     </g>
     <g id="text_15">
      <!-- 1.00 -->
      <g transform="translate(60.921875 106.836776)scale(0.18 -0.18)">
       <use xlink:href="#DejaVuSans-31"/>
       <use xlink:href="#DejaVuSans-2e" x="63.623047"/>
       <use xlink:href="#DejaVuSans-30" x="95.410156"/>
       <use xlink:href="#DejaVuSans-30" x="159.033203"/>
      </g>
     </g>
    </g>
    <g id="text_16">
     <!-- Magnetization -->
     <g transform="translate(38.095 386.1225)rotate(-90)scale(0.18 -0.18)">
      <defs>
       <path id="DejaVuSans-4d" d="M 628 4666 
L 1569 4666 
L 2759 1491 
L 3956 4666 
L 4897 4666 
L 4897 0 
L 4281 0 
L 4281 4097 
L 3078 897 
L 2444 897 
L 1241 4097 
L 1241 0 
L 628 0 
L 628 4666 
z
" transform="scale(0.015625)"/>
       <path id="DejaVuSans-61" d="M 2194 1759 
Q 1497 1759 1228 1600 
Q 959 1441 959 1056 
Q 959 750 1161 570 
Q 1363 391 1709 391 
Q 2188 391 2477 730 
Q 2766 1069 2766 1631 
L 2766 1759 
L 2194 1759 
z
M 3341 1997 
L 3341 0 
L 2766 0 
L 2766 531 
Q 2569 213 2275 61 
Q 1981 -91 1556 -91 
Q 1019 -91 701 211 
Q 384 513 384 1019 
Q 384 1609 779 1909 
Q 1175 2209 1959 2209 
L 2766 2209 
L 2766 2266 
Q 2766 2663 2505 2880 
Q 2244 3097 1772 3097 
Q 1472 3097 1187 3025 
Q 903 2953 641 2809 
L 641 3341 
Q 956 3463 1253 3523 
Q 1550 3584 1831 3584 
Q 2591 3584 2966 3190 
Q 3341 2797 3341 1997 
z
" transform="scale(0.015625)"/>
       <path id="DejaVuSans-67" d="M 2906 1791 
Q 2906 2416 2648 2759 
Q 2391 3103 1925 3103 
Q 1463 3103 1205 2759 
Q 947 2416 947 1791 
Q 947 1169 1205 825 
Q 1463 481 1925 481 
Q 2391 481 2648 825 
Q 2906 1169 2906 1791 
z
M 3481 434 
Q 3481 -459 3084 -895 
Q 2688 -1331 1869 -1331 
Q 1566 -1331 1297 -1286 
Q 1028 -1241 775 -1147 
L 775 -588 
Q 1028 -725 1275 -790 
Q 1522 -856 1778 -856 
Q 2344 -856 2625 -561 
Q 2906 -266 2906 331 
L 2906 616 
Q 2728 306 2450 153 
Q 2172 0 1784 0 
Q 1141 0 747 490 
Q 353 981 353 1791 
Q 353 2603 747 3093 
Q 1141 3584 1784 3584 
Q 2172 3584 2450 3431 
Q 2728 3278 2906 2969 
L 2906 3500 
L 3481 3500 
L 3481 434 
z
" transform="scale(0.015625)"/>
       <path id="DejaVuSans-74" d="M 1172 4494 
L 1172 3500 
L 2356 3500 
L 2356 3053 
L 1172 3053 
L 1172 1153 
Q 1172 725 1289 603 
Q 1406 481 1766 481 
L 2356 481 
L 2356 0 
L 1766 0 
Q 1100 0 847 248 
Q 594 497 594 1153 
L 594 3053 
L 172 3053 
L 172 3500 
L 594 3500 
L 594 4494 
L 1172 4494 
z
" transform="scale(0.015625)"/>
       <path id="DejaVuSans-7a" d="M 353 3500 
L 3084 3500 
L 3084 2975 
L 922 459 
L 3084 459 
L 3084 0 
L 275 0 
L 275 525 
L 2438 3041 
L 353 3041 
L 353 3500 
z
" transform="scale(0.015625)"/>
       <path id="DejaVuSans-6f" d="M 1959 3097 
Q 1497 3097 1228 2736 
Q 959 2375 959 1747 
Q 959 1119 1226 758 
Q 1494 397 1959 397 
Q 2419 397 2687 759 
Q 2956 1122 2956 1747 
Q 2956 2369 2687 2733 
Q 2419 3097 1959 3097 
z
M 1959 3584 
Q 2709 3584 3137 3096 
Q 3566 2609 3566 1747 
Q 3566 888 3137 398 
Q 2709 -91 1959 -91 
Q 1206 -91 779 398 
Q 353 888 353 1747 
Q 353 2609 779 3096 
Q 1206 3584 1959 3584 
z
" transform="scale(0.015625)"/>
      </defs>
      <use xlink:href="#DejaVuSans-4d"/>
      <use xlink:href="#DejaVuSans-61" x="86.279297"/>
      <use xlink:href="#DejaVuSans-67" x="147.558594"/>
      <use xlink:href="#DejaVuSans-6e" x="211.035156"/>
      <use xlink:href="#DejaVuSans-65" x="274.414062"/>
      <use xlink:href="#DejaVuSans-74" x="335.9375"/>
      <use xlink:href="#DejaVuSans-69" x="375.146484"/>
      <use xlink:href="#DejaVuSans-7a" x="402.929688"/>
      <use xlink:href="#DejaVuSans-61" x="455.419922"/>
      <use xlink:href="#DejaVuSans-74" x="516.699219"/>
      <use xlink:href="#DejaVuSans-69" x="555.908203"/>
      <use xlink:href="#DejaVuSans-6f" x="583.691406"/>
      <use xlink:href="#DejaVuSans-6e" x="644.873047"/>
     </g>
    </g>
   </g>
   <g id="line2d_15">
    <path d="M 138.436364 309.142353 
L 153.290612 309.142081 
L 153.290612 309.142081 
L 153.885348 418.512805 
L 154.182128 421.862246 
L 154.479249 393.356286 
L 155.370487 241.376778 
L 155.667659 244.372784 
L 156.558646 453.874836 
L 156.855643 455.785303 
L 157.450347 401.182741 
L 158.638195 269.450465 
L 159.232691 180.048854 
L 159.529558 165.547068 
L 159.826998 235.915736 
L 160.420929 471.742297 
L 160.718077 516.817862 
L 161.015317 532.157795 
L 161.31194 540.079627 
L 161.609478 529.611379 
L 161.906323 460.974538 
L 162.500636 236.399266 
L 162.79755 187.102805 
L 163.094444 190.63206 
L 163.392059 238.694911 
L 163.985924 384.564183 
L 164.282983 429.957249 
L 164.580014 444.34654 
L 164.877099 431.733079 
L 166.065512 317.260629 
L 166.362355 311.946014 
L 166.659614 316.80045 
L 168.442068 389.34799 
L 168.739276 386.417713 
L 169.333719 327.734521 
L 169.630881 311.32658 
L 169.927478 310.727385 
L 170.224891 321.363408 
L 170.819102 356.396984 
L 171.115948 365.581404 
L 171.413279 362.556502 
L 172.007238 345.388691 
L 172.304176 342.280442 
L 172.601504 343.627335 
L 172.898327 346.317988 
L 173.195801 346.693507 
L 173.492903 343.604054 
L 173.789837 339.265825 
L 174.086605 336.786793 
L 174.384076 336.800981 
L 174.977819 340.87673 
L 175.275287 340.182803 
L 175.572524 338.687697 
L 175.869134 339.314155 
L 176.46324 345.418893 
L 177.057836 350.694858 
L 177.354784 351.786406 
L 177.6518 352.121211 
L 178.246287 353.752862 
L 178.542836 354.150781 
L 178.840521 354.299221 
L 179.137179 353.702819 
L 179.731283 352.018153 
L 180.622964 350.991478 
L 181.513773 348.82545 
L 181.811363 348.68588 
L 182.999229 349.448648 
L 183.296369 349.506251 
L 183.890828 350.124872 
L 184.48491 350.864531 
L 184.781956 350.97004 
L 185.970344 351.005684 
L 186.564413 350.94496 
L 187.455529 350.465098 
L 189.535289 350.281275 
L 190.723372 350.467869 
L 191.911879 350.554902 
L 192.803355 350.541546 
L 195.17979 350.463188 
L 204.092388 350.49113 
L 235.583183 350.490652 
L 450.375582 350.490659 
L 450.375582 350.490659 
L 450.673 348.823495 
L 450.970301 358.400013 
L 451.267372 381.54996 
L 452.158103 478.121815 
L 452.455558 491.05274 
L 452.752752 483.616632 
L 453.049691 465.264343 
L 453.346504 457.802744 
L 453.941044 474.635157 
L 454.238281 464.788291 
L 454.831973 406.641305 
L 455.426469 355.155006 
L 455.723698 344.898592 
L 456.020335 344.643818 
L 456.317783 346.35 
L 456.614945 348.92632 
L 456.911469 353.715702 
L 457.505686 372.452578 
L 458.39747 400.855793 
L 459.28823 466.976372 
L 459.585295 476.430112 
L 459.882818 476.187716 
L 460.476574 468.885195 
L 460.774096 460.426909 
L 461.071143 442.005429 
L 461.962238 369.068482 
L 462.259167 355.612468 
L 462.853513 342.18029 
L 463.150445 335.300389 
L 463.447845 331.063474 
L 463.744917 329.913968 
L 464.041505 335.115663 
L 464.636011 365.097146 
L 465.527175 422.930691 
L 466.121254 468.000062 
L 466.418612 483.470098 
L 466.715518 489.689828 
L 467.012406 486.176091 
L 467.904152 460.157845 
L 468.200764 455.748972 
L 468.497902 447.304536 
L 469.092256 413.276222 
L 469.686552 376.641208 
L 469.983355 365.734565 
L 470.280341 359.727181 
L 470.874632 354.84884 
L 471.172066 355.253092 
L 471.468794 358.426042 
L 471.76607 364.096603 
L 472.359911 384.09727 
L 472.954491 414.209685 
L 473.548486 444.802192 
L 474.439649 471.293292 
L 475.03395 487.029036 
L 475.330752 488.550935 
L 475.628144 482.878651 
L 476.222466 454.640386 
L 477.113349 410.501104 
L 478.302148 362.447649 
L 478.599116 356.562265 
L 478.895993 354.984355 
L 479.192944 355.755241 
L 479.490162 358.82045 
L 479.787323 364.918795 
L 480.381328 384.406723 
L 481.272569 418.475146 
L 482.460888 479.021861 
L 482.758106 484.993057 
L 483.055009 483.598679 
L 483.352286 476.012246 
L 483.649218 462.730414 
L 484.243445 416.467984 
L 485.13489 330.675011 
L 485.431923 312.743491 
L 485.729042 302.778591 
L 486.026055 299.584216 
L 486.323413 300.989443 
L 486.620302 303.623252 
L 486.917613 304.464727 
L 487.214433 306.852052 
L 487.51162 316.909458 
L 487.808685 336.506079 
L 488.700094 418.29886 
L 489.294237 452.326665 
L 489.888209 491.819846 
L 490.185182 491.760803 
L 490.482199 471.132408 
L 491.670556 346.881611 
L 492.265039 312.719443 
L 492.562039 300.071195 
L 492.858837 293.495775 
L 493.155901 291.963451 
L 493.453286 291.48821 
L 493.750205 291.918924 
L 494.047637 295.901729 
L 494.344369 307.883327 
L 495.532964 379.841194 
L 495.829721 391.649179 
L 496.127226 415.262203 
L 496.721028 483.104313 
L 497.018407 504.224826 
L 497.315571 504.115817 
L 497.61223 482.759944 
L 498.503685 387.338952 
L 499.097713 356.569243 
L 500.286121 266.812917 
L 500.583215 263.281325 
L 500.880375 266.91344 
L 501.177179 268.563137 
L 501.474341 267.190848 
L 501.77136 268.374498 
L 502.068841 277.420298 
L 502.663073 320.173416 
L 504.148499 468.782364 
L 504.445286 480.142866 
L 504.742724 481.67589 
L 505.03943 474.2613 
L 505.336679 458.03848 
L 506.821769 351.037896 
L 507.415939 332.437934 
L 508.010657 321.438995 
L 508.30759 319.830011 
L 508.604326 320.164132 
L 508.901535 323.161545 
L 509.198608 329.081681 
L 509.792675 349.419892 
L 510.387331 375.560217 
L 510.981471 417.333069 
L 511.575412 473.664305 
L 511.872538 492.195884 
L 512.169769 495.340988 
L 512.46647 481.28883 
L 513.952052 354.225314 
L 514.84329 308.453629 
L 515.140645 299.293756 
L 515.437223 295.46552 
L 516.031904 294.726269 
L 516.328509 293.802882 
L 516.625609 297.184889 
L 516.922719 306.48286 
L 518.408393 376.399746 
L 519.596824 496.252282 
L 519.893802 496.774542 
L 520.19057 477.602538 
L 521.08236 383.481273 
L 521.676003 347.839584 
L 522.864487 288.358588 
L 523.16178 284.615753 
L 523.45855 284.559151 
L 523.756107 284.182654 
L 524.052913 282.079767 
L 524.349748 282.436263 
L 524.64686 288.896446 
L 526.132437 351.533589 
L 526.429574 375.553174 
L 527.32115 483.029004 
L 527.618131 499.045765 
L 527.914846 492.755384 
L 528.212201 466.85851 
L 529.103189 367.020555 
L 529.697338 335.046593 
L 530.885842 284.558501 
L 531.182835 280.492652 
L 531.480297 280.058323 
L 531.777045 280.429872 
L 532.074249 279.89265 
L 532.371151 280.797513 
L 532.6687 285.842367 
L 532.965475 296.049134 
L 534.153887 355.355448 
L 534.450954 376.646089 
L 535.639036 489.153265 
L 535.936431 481.987647 
L 536.530342 411.933425 
L 538.312815 202.789396 
L 538.610318 188.536354 
L 538.9075 190.269113 
L 539.204377 202.243458 
L 539.501432 207.629503 
L 540.39269 169.16084 
L 540.689895 170.802107 
L 540.986713 182.139043 
L 541.878281 235.849753 
L 542.174854 238.939002 
L 542.472381 249.27065 
L 542.769311 280.262756 
L 543.95751 471.380644 
L 544.254652 466.588605 
L 544.848638 431.347647 
L 545.14618 414.582335 
L 545.442892 379.381742 
L 546.33425 224.810395 
L 546.631477 196.799224 
L 546.928698 187.930495 
L 547.225332 194.701814 
L 547.522653 197.345369 
L 547.819791 186.169246 
L 548.414078 148.245283 
L 548.711139 139.808297 
L 549.008032 140.264626 
L 549.305195 150.025307 
L 549.899355 179.678019 
L 550.196709 173.093084 
L 550.790865 145.981961 
L 551.087938 144.505136 
L 551.384924 152.751474 
L 552.572907 203.989168 
L 552.869967 213.499024 
L 553.167258 230.366698 
L 553.761272 295.096343 
L 554.652565 406.30205 
L 555.246735 465.41434 
L 555.543864 481.321845 
L 555.840767 467.025563 
L 556.138328 418.300406 
L 557.029291 226.920834 
L 557.326714 198.136679 
L 557.623747 192.075774 
L 557.920355 190.854598 
L 558.217998 174.626992 
L 558.811823 133.272871 
L 559.108923 128.013198 
L 559.406211 136.583489 
L 560.000415 174.211931 
L 560.594602 193.363556 
L 560.891201 216.115849 
L 561.18865 257.013417 
L 562.079702 426.927488 
L 562.376917 457.318085 
L 562.673953 464.804591 
L 562.971238 460.493141 
L 563.268157 443.969276 
L 563.565246 412.394129 
L 565.050439 203.587547 
L 565.347702 177.32433 
L 565.645 160.935928 
L 565.942146 155.73426 
L 566.536108 161.260715 
L 566.83296 158.312165 
L 567.427199 139.341786 
L 567.724652 136.294186 
L 568.021693 142.111249 
L 568.6159 176.692676 
L 569.20987 213.048826 
L 569.507016 229.360821 
L 569.80396 259.381799 
L 570.398404 375.120116 
L 570.695305 434.043648 
L 570.992666 466.781219 
L 571.289675 468.951412 
L 571.586637 454.209076 
L 571.883801 428.858654 
L 572.477647 332.276947 
L 573.072184 219.911206 
L 573.36882 186.680762 
L 573.665954 170.924884 
L 574.260133 159.080441 
L 574.557518 150.523231 
L 574.854362 147.415545 
L 575.151663 155.043175 
L 575.448884 175.087682 
L 576.042971 241.19003 
L 577.528091 446.591616 
L 577.825601 466.750599 
L 578.122231 466.632576 
L 578.419268 431.24892 
L 579.607788 158.846282 
L 579.904716 132.362956 
L 580.202173 133.037462 
L 580.499012 157.726234 
L 581.093359 228.148782 
L 581.390578 251.710607 
L 581.687283 290.167682 
L 582.578455 480.443748 
L 582.875925 487.517656 
L 583.172613 442.788569 
L 584.063982 230.181196 
L 584.361426 196.925899 
L 584.955627 169.575515 
L 585.252688 160.229519 
L 585.549578 158.508328 
L 585.846895 172.118525 
L 586.143641 204.661778 
L 586.737991 309.036852 
L 587.332165 423.072819 
L 587.628859 464.673052 
L 587.926316 477.013197 
L 588.223088 446.841322 
L 589.411793 177.917658 
L 589.708816 160.252713 
L 590.005979 163.801238 
L 590.599886 187.990909 
L 590.896918 205.853958 
L 591.19395 243.672937 
L 592.382778 475.085992 
L 592.679477 467.842571 
L 592.97669 414.549987 
L 593.570809 271.836994 
L 594.164742 185.264228 
L 594.462382 159.782518 
L 594.75917 147.120889 
L 595.056182 151.725127 
L 595.353319 176.939578 
L 595.947333 288.887648 
L 596.54182 410.571368 
L 596.838872 442.541547 
L 597.135997 454.898068 
L 597.432719 441.386952 
L 597.730157 394.881565 
L 598.62146 194.366229 
L 598.918457 156.578774 
L 599.21572 144.326206 
L 599.512476 158.76429 
L 599.809574 195.634617 
L 601.295056 446.358397 
L 601.591857 461.81976 
L 601.889422 432.472574 
L 603.077304 163.203275 
L 603.37451 158.819551 
L 603.671992 176.408543 
L 603.969099 202.404266 
L 604.265744 239.477148 
L 605.45422 461.320813 
L 605.751176 447.418781 
L 606.345586 320.184247 
L 606.939611 207.208087 
L 607.236752 176.815867 
L 607.533694 159.177017 
L 607.831032 165.157789 
L 608.128097 208.234726 
L 609.019424 448.294854 
L 609.31605 464.498438 
L 609.613345 431.733397 
L 610.801762 173.27219 
L 611.09911 150.172412 
L 611.395923 164.147442 
L 611.693264 212.514131 
L 612.584113 432.99488 
L 612.881399 461.006866 
L 613.178711 439.525369 
L 613.772771 298.186205 
L 614.366626 165.921857 
L 614.664008 148.947889 
L 614.960859 176.64073 
L 615.55529 326.038568 
L 615.852064 402.88563 
L 616.149359 447.950206 
L 616.446468 448.69028 
L 616.743716 408.804186 
L 617.931805 152.963874 
L 618.229184 161.172996 
L 618.525978 215.853865 
L 619.417172 449.327706 
L 619.714519 456.775029 
L 620.011248 409.649379 
L 620.902757 174.594333 
L 621.199552 155.219434 
L 621.496903 182.182243 
L 622.090833 332.648688 
L 622.388185 412.319102 
L 622.685438 456.63564 
L 622.982248 442.344072 
L 623.576323 276.907875 
L 623.873765 199.598052 
L 624.17034 164.306934 
L 624.46745 174.379385 
L 624.76484 220.707824 
L 625.65573 441.178026 
L 625.953078 452.091979 
L 626.249903 398.260228 
L 626.844333 225.999031 
L 627.141496 177.824864 
L 627.43842 170.774164 
L 627.735748 204.697299 
L 628.627099 432.803525 
L 628.923939 449.374962 
L 629.221203 403.612155 
L 630.112472 181.847158 
L 630.409144 170.557008 
L 630.706515 206.633986 
L 631.597893 434.847285 
L 631.89457 443.903302 
L 632.191705 391.579529 
L 632.785776 225.310281 
L 633.083018 178.59938 
L 633.380421 178.507481 
L 633.677078 225.364924 
L 634.568415 442.19088 
L 634.865591 429.024673 
L 636.053707 174.062144 
L 636.350948 197.050099 
L 637.242204 424.281794 
L 637.539434 439.465615 
L 637.836794 392.359929 
L 638.430702 226.112686 
L 638.727515 180.954739 
L 639.024621 187.932022 
L 639.3219 243.806955 
L 639.915845 406.273352 
L 640.213172 438.9641 
L 640.510503 406.733075 
L 641.401728 188.826953 
L 641.698897 186.656373 
L 641.995677 234.348312 
L 642.589613 397.852715 
L 642.88696 436.522027 
L 643.184162 408.399983 
L 644.075262 193.512894 
L 644.372622 188.488253 
L 644.669414 236.000602 
L 645.263322 399.623762 
L 645.56056 432.517224 
L 645.857756 401.159684 
L 646.748992 191.111437 
L 647.046333 195.090642 
L 647.343507 251.670961 
L 647.937392 406.987809 
L 648.23459 428.983065 
L 648.531276 386.499759 
L 649.125834 225.547765 
L 649.423035 190.799829 
L 649.71969 209.68112 
L 650.610941 419.473519 
L 650.908135 418.651896 
L 651.502563 274.15669 
L 651.799741 210.905176 
L 652.096446 193.766018 
L 652.393777 231.808851 
L 652.987693 389.218872 
L 653.284823 423.474379 
L 653.582027 394.458717 
L 654.473282 197.143268 
L 654.770479 210.254031 
L 655.661539 412.268503 
L 655.958758 413.345652 
L 656.25598 354.197127 
L 656.849762 212.334758 
L 657.146971 201.854281 
L 657.444233 244.18615 
L 658.038158 394.828776 
L 658.335249 417.74605 
L 658.632427 377.19396 
L 659.226765 229.637019 
L 659.523511 200.868982 
L 659.820749 228.56247 
L 660.415143 376.148777 
L 660.712272 414.669268 
L 661.008841 391.36433 
L 661.603243 244.317717 
L 661.900465 205.681881 
L 662.197651 221.421301 
L 663.088653 409.733991 
L 663.385744 397.359784 
L 664.27723 211.339059 
L 664.573909 217.629484 
L 665.465416 403.935263 
L 665.762506 398.982611 
L 666.653453 215.210088 
L 666.950644 218.431222 
L 667.247778 271.246388 
L 667.842127 400.193924 
L 668.139193 398.232185 
L 669.030593 218.589936 
L 669.327226 220.499488 
L 669.624401 272.143754 
L 670.218678 398.317489 
L 670.515719 394.706678 
L 671.407158 219.484071 
L 671.704346 224.774852 
L 672.595723 397.738611 
L 672.892804 389.558518 
L 673.783527 220.284903 
L 674.080732 230.910756 
L 674.972053 397.718953 
L 675.269129 381.516151 
L 675.863334 253.520226 
L 676.160468 220.643 
L 676.457619 239.830704 
L 677.051852 366.274824 
L 677.348928 396.650006 
L 677.645999 370.62926 
L 678.240228 244.888965 
L 678.537297 223.016979 
L 678.834422 251.894831 
L 679.428656 375.924151 
L 679.725715 393.095023 
L 680.022756 355.83034 
L 680.617003 236.901566 
L 680.91411 227.988369 
L 681.211172 267.935031 
L 681.805349 383.800324 
L 682.101858 385.585027 
L 682.99366 231.330813 
L 683.290792 237.577251 
L 684.181982 388.200201 
L 684.479077 372.574418 
L 685.073219 256.205798 
L 685.370306 229.967857 
L 685.667392 252.366932 
L 686.261556 367.534668 
L 686.5586 386.622549 
L 686.855651 354.124602 
L 687.449827 243.224809 
L 687.746898 235.016538 
L 688.043965 272.603873 
L 688.638109 378.984941 
L 688.935156 377.462437 
L 689.826355 236.150538 
L 690.123439 247.351942 
L 691.014619 382.653174 
L 691.311648 360.310951 
L 691.905797 252.622326 
L 692.202852 237.366549 
L 692.49995 267.263571 
L 693.094055 371.466212 
L 693.391682 376.457447 
L 693.688741 335.997522 
L 694.282866 241.79583 
L 694.579917 248.099425 
L 695.471101 378.136277 
L 695.768108 359.993236 
L 696.362224 257.659877 
L 696.659278 241.198883 
L 696.956361 268.218977 
L 697.550436 367.349289 
L 697.847461 372.865143 
L 698.144502 334.958501 
L 698.739212 245.57991 
L 699.036259 252.04285 
L 699.927409 374.330741 
L 700.224409 355.520577 
L 700.818491 258.853024 
L 701.115551 245.548932 
L 701.41262 273.518687 
L 702.006676 365.991676 
L 702.303687 367.560825 
L 703.195412 247.976425 
L 703.492461 258.460445 
L 704.086544 350.796189 
L 704.383559 370.666774 
L 704.680568 347.7643 
L 705.274627 257.677772 
L 705.571684 250.846607 
L 705.868743 282.361938 
L 706.463376 365.894625 
L 706.760384 360.182945 
L 707.651486 250.386977 
L 707.948522 267.482277 
L 708.542571 355.109004 
L 708.83958 365.818541 
L 709.137185 336.849942 
L 709.731228 255.985075 
L 710.028285 258.182706 
L 710.919337 365.012024 
L 711.216348 350.122708 
L 711.81038 266.114718 
L 712.108036 254.51301 
L 712.405053 279.488652 
L 712.999091 358.963813 
L 713.296086 358.290038 
L 714.187138 255.902336 
L 714.484174 268.494299 
L 715.078803 349.094071 
L 715.3758 361.411274 
L 715.6728 336.867978 
L 716.26684 261.417454 
L 716.563868 261.854763 
L 717.4555 360.028219 
L 717.752498 347.06593 
L 718.346517 270.035381 
L 718.643546 259.283362 
L 718.940571 282.302198 
L 719.534577 354.896209 
L 719.832173 353.546787 
L 720.723207 260.366613 
L 721.020222 273.354505 
L 721.614238 347.061078 
L 721.91183 356.381998 
L 722.208824 332.099769 
L 722.802838 264.478608 
L 723.099866 267.478788 
L 723.990867 355.896305 
L 724.288455 340.889739 
L 724.88247 270.892015 
L 725.179482 264.619269 
L 725.476492 288.814304 
L 726.070488 352.627908 
L 726.368077 347.014578 
L 726.962071 278.922488 
L 727.259085 264.461529 
L 727.556106 280.722597 
L 728.150094 347.189071 
L 728.447684 350.496527 
L 728.744669 324.304757 
L 729.041665 287.849352 
L 729.338681 266.650505 
L 729.63569 274.827398 
L 730.229689 340.242705 
L 730.52727 351.504164 
L 730.824258 332.367672 
L 731.418254 270.723855 
L 731.715275 271.107946 
L 732.606848 350.336437 
L 732.903837 338.628735 
L 733.497832 276.219494 
L 733.794835 269.45802 
L 734.091842 290.177554 
L 734.686414 347.364651 
L 734.983403 342.997837 
L 735.577385 282.694781 
L 735.874392 269.64088 
L 736.171401 284.058013 
L 736.765976 342.977393 
L 737.062959 345.541818 
L 737.953941 271.42468 
L 738.250945 279.473274 
L 738.845524 337.586636 
L 739.142509 346.371745 
L 739.439491 328.356287 
L 740.033481 274.499947 
L 740.331085 276.447022 
L 741.22205 345.698169 
L 741.519031 333.441788 
L 742.113613 278.561706 
L 742.410611 274.819547 
L 742.707613 295.072382 
L 743.0046 325.203985 
L 743.301583 343.732616 
L 743.598562 337.223913 
L 744.193135 283.370506 
L 744.49014 274.504606 
L 744.787132 289.920676 
L 745.381105 340.729338 
L 745.678082 339.731624 
L 746.569651 275.351725 
L 746.866646 285.815981 
L 747.163636 312.67886 
L 747.163636 312.67886 
" clip-path="url(#p673f53093b)" style="fill: none; stroke: #ff0000; stroke-opacity: 0.3; stroke-width: 1.5; stroke-linecap: square"/>
   </g>
   <g id="line2d_16">
    <path d="M 138.436364 322.38 
L 153.290612 322.379839 
L 153.290612 322.379839 
L 153.587703 323.80372 
L 154.776137 157.503429 
L 155.073525 167.547415 
L 155.370487 218.973182 
L 155.964756 360.705967 
L 156.261506 344.252288 
L 157.152852 163.540664 
L 157.450347 132.451339 
L 157.74724 115.396989 
L 158.044065 107.496463 
L 158.341393 106.624626 
L 158.638195 114.05934 
L 158.935685 136.694051 
L 159.232691 190.479628 
L 159.826998 400.936844 
L 160.123594 431.118113 
L 161.015317 267.82356 
L 161.31194 279.854892 
L 161.609478 351.376143 
L 161.906323 451.765026 
L 162.203748 509.764577 
L 162.500636 508.767577 
L 162.79755 494.906674 
L 163.094444 500.812966 
L 163.392059 521.588432 
L 163.688681 533.112776 
L 163.985924 525.232076 
L 164.282983 510.345563 
L 164.580014 503.878128 
L 164.877099 509.13952 
L 165.174238 518.233191 
L 165.471452 522.525778 
L 165.768741 521.141022 
L 166.065512 518.771166 
L 166.362355 518.283851 
L 166.659614 517.570504 
L 166.956712 512.145266 
L 167.253667 497.477201 
L 167.847957 437.524911 
L 168.144904 434.108339 
L 168.739276 488.929047 
L 169.036697 500.221395 
L 169.333719 496.345967 
L 170.224891 458.962132 
L 170.521873 465.333215 
L 170.819102 480.109003 
L 171.115948 487.980321 
L 171.413279 485.016652 
L 172.007238 464.64771 
L 172.304176 461.992929 
L 172.898327 474.611207 
L 173.195801 474.416912 
L 173.492903 466.618924 
L 174.086605 448.42563 
L 174.384076 448.261532 
L 174.681224 451.058081 
L 174.977819 450.319476 
L 175.275287 446.050243 
L 175.572524 443.410348 
L 175.869134 447.216947 
L 176.46324 462.720229 
L 176.760894 464.542412 
L 177.057836 461.640409 
L 177.354784 457.277367 
L 177.6518 454.701643 
L 177.949017 455.08824 
L 178.246287 456.947241 
L 178.542836 458.077808 
L 178.840521 457.46181 
L 179.137179 456.154812 
L 179.434571 455.693741 
L 179.731283 456.776485 
L 180.325383 459.919588 
L 180.622964 459.698202 
L 181.2168 457.209089 
L 181.513773 457.062435 
L 182.405307 459.478435 
L 182.702315 458.991499 
L 182.999229 458.137451 
L 183.296369 457.641673 
L 183.59387 457.834656 
L 184.187715 458.83305 
L 184.48491 458.709951 
L 185.078875 457.744762 
L 185.375958 457.687973 
L 186.26721 458.580346 
L 187.158403 457.917137 
L 187.455529 458.039492 
L 188.049781 458.512498 
L 188.347147 458.491661 
L 188.940985 458.13267 
L 189.238245 458.111187 
L 190.129493 458.437177 
L 191.317497 458.176145 
L 191.911879 458.345533 
L 192.506019 458.254417 
L 193.100578 458.17987 
L 194.288758 458.289382 
L 195.17979 458.232399 
L 196.0714 458.296765 
L 197.259285 458.255238 
L 198.44778 458.252066 
L 201.121852 458.258658 
L 204.389227 458.257782 
L 281.928493 458.261784 
L 450.375582 458.261784 
L 450.375582 458.261784 
L 450.673 457.510801 
L 451.267372 497.162791 
L 451.564309 495.76441 
L 451.861105 474.68268 
L 452.455558 389.102674 
L 453.049691 315.772886 
L 453.346504 300.214298 
L 453.643798 278.411861 
L 454.831973 145.127603 
L 455.129219 143.026506 
L 455.426469 158.023158 
L 455.723698 180.026558 
L 456.020335 185.167002 
L 456.911469 130.882558 
L 457.2088 132.466781 
L 457.505686 146.035844 
L 458.099996 184.370589 
L 458.39747 189.902325 
L 458.694338 192.53855 
L 458.991477 205.555681 
L 459.585295 266.554796 
L 461.071143 435.500672 
L 461.368104 459.630278 
L 461.665238 473.3781 
L 461.962238 477.575801 
L 462.259167 477.287003 
L 462.556331 476.143137 
L 462.853513 477.052248 
L 463.150445 482.517025 
L 464.041505 506.313018 
L 464.33893 505.897237 
L 464.636011 499.931948 
L 465.229922 474.064392 
L 465.824093 435.621714 
L 466.418612 379.467236 
L 467.30985 289.640166 
L 469.092256 168.624112 
L 469.389162 160.662274 
L 469.686552 161.359841 
L 469.983355 165.336146 
L 470.280341 166.598445 
L 470.577466 162.896871 
L 470.874632 156.777811 
L 471.172066 153.44495 
L 471.468794 154.022656 
L 472.657364 168.527576 
L 472.954491 177.193371 
L 473.548486 209.565117 
L 475.03395 314.928563 
L 475.925345 400.19356 
L 476.519582 436.921958 
L 477.410805 477.769022 
L 477.707785 485.7488 
L 478.004534 488.164431 
L 478.302148 485.812512 
L 478.599116 481.929726 
L 478.895993 480.735077 
L 479.192944 484.12857 
L 479.490162 489.473746 
L 479.787323 492.435843 
L 480.084623 490.496073 
L 480.381328 483.02211 
L 481.866973 427.355671 
L 482.460888 377.416676 
L 484.243445 175.068613 
L 484.540683 154.249129 
L 484.837565 144.437417 
L 485.13489 143.882365 
L 485.431923 148.812014 
L 486.323413 171.699628 
L 486.620302 173.304131 
L 486.917613 164.694879 
L 487.51162 135.976491 
L 487.808685 130.998354 
L 488.105743 137.851103 
L 488.402846 157.515794 
L 489.591278 273.57787 
L 490.779413 454.979905 
L 491.076626 470.249374 
L 491.37338 475.282244 
L 491.670556 482.498283 
L 492.265039 501.72084 
L 492.562039 501.823759 
L 492.858837 492.37093 
L 493.155901 478.697273 
L 493.453286 473.391389 
L 493.750205 483.773938 
L 494.344369 511.443662 
L 494.641326 512.168078 
L 494.938564 501.242719 
L 495.532964 461.628312 
L 495.829721 453.665775 
L 496.127226 451.526395 
L 496.423863 438.698144 
L 496.721028 404.848474 
L 497.909362 204.748744 
L 498.206479 191.497372 
L 498.503685 189.038361 
L 498.800597 179.31865 
L 499.394849 138.393693 
L 499.691688 128.644996 
L 499.988914 130.148308 
L 500.286121 140.882468 
L 500.880375 176.336234 
L 501.177179 182.078722 
L 501.474341 171.887041 
L 501.77136 157.659141 
L 502.068841 149.012335 
L 502.365494 147.731105 
L 502.663073 152.809283 
L 503.257076 172.540272 
L 503.554236 190.48312 
L 504.148499 256.994933 
L 505.336679 419.899064 
L 505.931053 468.301123 
L 506.228114 478.227524 
L 507.415939 492.833091 
L 507.713178 494.784284 
L 508.010657 493.250664 
L 508.30759 490.008301 
L 508.604326 488.795689 
L 508.901535 490.854019 
L 509.198608 494.119163 
L 509.495759 494.6488 
L 509.792675 490.602795 
L 510.684024 467.614919 
L 510.981471 456.880905 
L 511.278108 436.841512 
L 511.575412 403.182574 
L 512.763718 212.036588 
L 513.060718 187.616431 
L 513.358005 176.537067 
L 513.655067 171.202896 
L 513.952052 163.526819 
L 514.545947 143.698522 
L 514.84329 141.387953 
L 515.140645 147.003236 
L 515.734862 167.13213 
L 516.031904 165.128479 
L 516.625609 142.994292 
L 516.922719 138.797458 
L 517.219847 143.374467 
L 517.81423 166.942759 
L 518.1115 171.698372 
L 518.408393 170.850221 
L 518.705377 175.17494 
L 519.002629 194.888682 
L 519.299617 233.680561 
L 520.487812 440.260532 
L 520.784949 461.355038 
L 521.08236 469.494899 
L 521.379436 473.899307 
L 521.973564 493.514818 
L 522.270513 502.128259 
L 522.567786 503.826316 
L 522.864487 497.919481 
L 523.45855 476.652659 
L 523.756107 476.382536 
L 524.64686 504.651888 
L 524.944234 503.590482 
L 525.241144 494.927031 
L 525.538174 482.756728 
L 525.835647 475.463418 
L 526.132437 476.960204 
L 526.429574 479.824326 
L 526.726714 472.032868 
L 527.023787 445.611979 
L 527.618131 339.241984 
L 528.212201 224.17495 
L 528.509508 189.279701 
L 528.806286 172.641858 
L 529.103189 168.339673 
L 529.400779 167.139345 
L 529.697338 162.099328 
L 530.291968 146.267995 
L 530.588886 144.138449 
L 530.885842 147.718362 
L 531.480297 163.104671 
L 531.777045 165.778746 
L 532.074249 161.480337 
L 532.6687 146.860569 
L 532.965475 144.689286 
L 533.262338 147.897758 
L 534.153887 167.148218 
L 534.450954 170.455146 
L 534.74777 179.563654 
L 535.045072 202.652309 
L 535.639036 300.313479 
L 536.233365 409.864614 
L 536.530342 438.245241 
L 537.124892 473.134534 
L 537.421953 494.078845 
L 537.719095 503.825884 
L 538.015849 498.574938 
L 538.610318 461.483928 
L 539.204377 419.342467 
L 539.501432 414.052957 
L 539.798566 423.730465 
L 540.39269 448.671079 
L 540.689895 456.049419 
L 540.986713 459.543291 
L 541.283718 456.991651 
L 541.581137 447.626207 
L 541.878281 443.070164 
L 542.174854 456.011049 
L 542.769311 502.815871 
L 543.066345 511.147325 
L 543.363506 496.088465 
L 543.660334 452.292834 
L 544.552049 281.012541 
L 545.14618 208.446383 
L 545.740371 139.116033 
L 546.037034 137.401358 
L 546.33425 154.219279 
L 547.225332 229.80131 
L 547.522653 240.369299 
L 547.819791 236.409173 
L 548.116956 230.700093 
L 548.414078 233.587472 
L 548.711139 239.161639 
L 549.899355 269.595243 
L 550.196709 269.030806 
L 551.384924 229.463317 
L 551.978887 220.052163 
L 552.276162 216.748814 
L 552.572907 209.452342 
L 553.464549 166.03006 
L 553.761272 161.636587 
L 554.058283 169.139691 
L 554.652565 212.816181 
L 554.949723 241.450869 
L 555.246735 282.788738 
L 556.435075 509.636601 
L 556.732299 507.84657 
L 557.029291 481.895657 
L 557.623747 413.526973 
L 557.920355 398.29135 
L 558.217998 389.89061 
L 558.514568 377.475333 
L 559.108923 326.468342 
L 559.703071 271.479951 
L 560.297235 236.989503 
L 561.18865 146.68829 
L 561.48569 136.877193 
L 561.782923 152.153768 
L 562.079702 191.357592 
L 563.268157 403.382777 
L 563.862455 470.977497 
L 564.15954 482.775977 
L 564.456242 483.313274 
L 564.75348 475.403006 
L 565.050439 459.092914 
L 566.536108 351.309355 
L 567.130287 330.997861 
L 567.724652 289.18461 
L 568.318796 242.765575 
L 568.912743 218.174357 
L 569.20987 207.868019 
L 570.101359 148.292085 
L 570.398404 157.537765 
L 570.695305 199.372506 
L 571.586637 383.579765 
L 572.180779 471.787313 
L 572.477647 495.081831 
L 572.774942 495.277763 
L 573.072184 472.384876 
L 574.260133 340.769233 
L 576.042971 181.141516 
L 576.339795 171.100587 
L 576.637072 170.680811 
L 576.934048 185.257125 
L 577.528091 259.661149 
L 578.122231 381.57905 
L 578.716405 497.626969 
L 579.013378 507.29215 
L 579.310858 482.136341 
L 579.904716 374.224892 
L 580.499012 264.715527 
L 580.795923 234.227574 
L 581.093359 219.693599 
L 581.984469 160.839192 
L 582.281842 190.020979 
L 582.875925 360.63881 
L 583.172613 445.549483 
L 583.470004 490.982867 
L 583.766988 492.418186 
L 584.063982 464.372468 
L 584.955627 360.066582 
L 585.549578 281.958791 
L 586.143641 193.260091 
L 586.440606 166.068821 
L 586.737991 157.706361 
L 587.034758 171.088356 
L 587.332165 206.938587 
L 587.926316 347.215657 
L 588.52031 485.329076 
L 588.817641 497.126143 
L 589.114331 471.198002 
L 590.599886 254.352054 
L 591.19395 180.379246 
L 591.49101 160.118373 
L 591.788082 168.39121 
L 592.085611 214.950108 
L 592.97669 453.033454 
L 593.273681 482.708062 
L 593.570809 476.380734 
L 594.164742 416.385649 
L 594.75917 327.853855 
L 595.650547 180.920301 
L 595.947333 162.356646 
L 596.244894 174.162007 
L 596.54182 213.389697 
L 597.135997 329.36482 
L 597.730157 454.06693 
L 598.027302 483.038366 
L 598.324376 476.378586 
L 598.62146 440.71557 
L 600.106626 186.486285 
L 600.404048 180.462382 
L 600.70068 192.106943 
L 600.997887 221.204752 
L 601.295056 271.733199 
L 602.186024 478.992151 
L 602.483661 485.230348 
L 602.780477 447.273854 
L 603.671992 271.381178 
L 604.265744 197.251577 
L 604.562796 174.869514 
L 604.860142 182.901221 
L 605.157404 229.075267 
L 606.048436 449.560784 
L 606.345586 472.089553 
L 606.642402 457.970653 
L 607.236752 379.516487 
L 607.831032 258.628603 
L 608.128097 194.378026 
L 608.424881 158.67012 
L 608.722267 174.144772 
L 609.31605 332.640122 
L 609.613345 411.964389 
L 609.910534 460.479198 
L 610.207759 474.188915 
L 610.504744 452.991736 
L 610.801762 401.984747 
L 611.693264 198.204528 
L 611.989998 169.075023 
L 612.287395 179.094667 
L 612.584113 232.177491 
L 613.475451 458.066867 
L 613.772771 476.800082 
L 614.06967 452.325257 
L 614.664008 311.785329 
L 615.258135 180.24555 
L 615.55529 169.732961 
L 615.852064 205.557338 
L 617.040606 466.919954 
L 617.337399 465.845138 
L 617.634874 422.850838 
L 618.525978 194.115869 
L 618.823325 165.781779 
L 619.119896 190.741003 
L 619.714519 356.69997 
L 620.011248 437.062081 
L 620.308616 474.892097 
L 620.605427 459.284185 
L 620.902757 399.273664 
L 621.496903 237.501988 
L 621.794057 184.733803 
L 622.090833 175.088783 
L 622.388185 215.012817 
L 623.279614 461.321276 
L 623.576323 471.096929 
L 623.873765 425.227432 
L 624.76484 210.807128 
L 625.061606 180.585296 
L 625.358962 195.772305 
L 625.65573 261.002056 
L 626.249903 439.508726 
L 626.547275 468.408349 
L 626.844333 440.0274 
L 628.032421 185.081361 
L 628.3298 190.66405 
L 628.627099 251.42941 
L 629.221203 427.950887 
L 629.518321 462.884569 
L 629.815037 442.356481 
L 630.409144 300.857532 
L 630.706515 226.77267 
L 631.003784 185.14154 
L 631.300465 196.346083 
L 631.597893 262.40985 
L 632.191705 433.40894 
L 632.489117 460.040528 
L 632.785776 431.096169 
L 633.974348 185.675003 
L 634.271229 214.085087 
L 635.163025 447.209684 
L 635.459603 452.429723 
L 635.756838 405.359567 
L 636.648174 194.859905 
L 636.945018 196.227376 
L 637.242204 255.148172 
L 637.836794 425.411224 
L 638.133388 454.839239 
L 638.430702 425.533203 
L 639.3219 209.325347 
L 639.618714 193.77051 
L 639.915845 236.197359 
L 640.510503 408.374667 
L 640.807105 451.032241 
L 641.104487 432.518861 
L 642.292961 194.874027 
L 642.589613 230.332636 
L 643.184162 401.655527 
L 643.480839 446.315422 
L 643.778142 431.323674 
L 644.372622 288.447368 
L 644.669414 220.012327 
L 644.966616 197.362468 
L 645.263322 236.855017 
L 645.857756 403.375408 
L 646.154989 444.06625 
L 646.451679 425.810769 
L 647.343507 214.740586 
L 647.64013 204.370375 
L 647.937392 251.928977 
L 648.531276 415.689505 
L 648.828601 443.352996 
L 649.125834 408.884415 
L 650.016973 209.299357 
L 650.31427 214.398919 
L 650.610941 278.005894 
L 651.205371 429.078641 
L 651.502563 433.191942 
L 651.799741 384.093361 
L 652.393777 234.517299 
L 652.690476 205.90251 
L 652.987693 239.248917 
L 653.582027 397.691404 
L 653.879235 436.07206 
L 654.175917 414.367696 
L 655.067691 216.293303 
L 655.364364 219.617288 
L 655.661539 278.507801 
L 656.25598 424.976541 
L 656.552581 427.139867 
L 656.849762 375.078576 
L 657.444233 233.494508 
L 657.740939 212.835526 
L 658.038158 253.368495 
L 658.632427 406.597046 
L 658.929593 429.98403 
L 659.226765 395.756878 
L 659.820749 250.23043 
L 660.117947 215.608752 
L 660.415143 239.752505 
L 661.306028 427.89204 
L 661.603243 405.971153 
L 662.494278 221.62478 
L 662.791527 232.174987 
L 663.682895 422.146415 
L 663.980018 410.408571 
L 664.871094 226.50893 
L 665.168295 230.535093 
L 666.059648 417.437366 
L 666.356832 411.984893 
L 667.247778 231.372516 
L 667.544982 231.367764 
L 667.842127 285.641908 
L 668.43631 414.353829 
L 668.733474 409.713114 
L 669.624401 233.31775 
L 669.921549 233.954489 
L 670.218678 288.418007 
L 670.812822 412.33892 
L 671.109978 406.541369 
L 672.001476 234.281986 
L 672.298603 238.89972 
L 673.189894 411.99591 
L 673.486428 400.343107 
L 674.377896 234.061061 
L 674.674966 245.610327 
L 675.566227 411.109478 
L 675.863334 392.25601 
L 676.75477 234.665439 
L 677.051852 255.634203 
L 677.645999 384.469875 
L 677.943103 409.305423 
L 678.240228 380.404762 
L 678.834422 258.228343 
L 679.131568 236.812035 
L 679.428656 269.100474 
L 680.022756 392.963064 
L 680.31983 404.491762 
L 680.617003 365.557093 
L 681.211172 249.762734 
L 681.508254 242.890611 
L 681.805349 286.527341 
L 682.399514 399.647819 
L 682.696546 395.570293 
L 683.587297 244.34622 
L 683.884922 253.56299 
L 684.776163 401.780939 
L 685.073219 381.680104 
L 685.667392 267.521772 
L 685.964496 243.847595 
L 686.261556 270.307585 
L 686.855651 385.743812 
L 687.152734 398.061136 
L 687.449827 362.260797 
L 688.043965 255.159447 
L 688.341058 250.167985 
L 688.638109 292.576113 
L 689.232214 394.500218 
L 689.529275 386.870812 
L 690.420498 249.122657 
L 690.717567 264.78838 
L 691.311648 374.91122 
L 691.608726 395.281546 
L 691.905797 368.133558 
L 692.49995 263.595257 
L 692.797035 252.020608 
L 693.094055 287.044445 
L 693.688741 388.112819 
L 693.985808 386.20557 
L 694.876972 254.21313 
L 695.174055 265.383513 
L 695.768108 369.225177 
L 696.065151 391.253573 
L 696.362224 367.641047 
L 696.956361 268.027253 
L 697.253426 255.786212 
L 697.550436 288.13932 
L 698.144502 384.129293 
L 698.441557 382.592737 
L 699.333306 257.889384 
L 699.630374 269.620467 
L 700.224409 368.098715 
L 700.521444 387.157629 
L 700.818491 362.879007 
L 701.41262 269.108264 
L 701.70967 260.541478 
L 702.006676 293.912065 
L 702.601311 382.218019 
L 702.898355 376.720412 
L 703.789504 260.720978 
L 704.086544 276.747947 
L 704.680568 369.988307 
L 704.977592 382.55119 
L 705.274627 354.696884 
L 705.868743 268.338836 
L 706.165762 266.7583 
L 707.057392 380.80267 
L 707.354425 368.535039 
L 707.948522 281.141118 
L 708.245555 264.112643 
L 708.542571 286.792458 
L 709.137185 372.951596 
L 709.434211 376.271294 
L 709.731228 343.381846 
L 710.325333 267.612664 
L 710.622337 275.466278 
L 711.216348 360.550672 
L 711.513355 378.10825 
L 711.81038 357.538501 
L 712.405053 275.932822 
L 712.702075 269.720521 
L 712.999091 299.908128 
L 713.593086 374.710903 
L 713.890111 367.205866 
L 714.484174 287.556277 
L 714.781795 269.05608 
L 715.078803 287.419575 
L 715.6728 367.111898 
L 715.969814 372.398741 
L 716.26684 343.551623 
L 716.860892 272.811004 
L 717.157907 278.88195 
L 717.752498 356.679164 
L 718.049506 373.272849 
L 718.346517 354.621594 
L 718.940571 279.850393 
L 719.237574 274.450841 
L 719.534577 302.562293 
L 719.832173 344.593753 
L 720.129167 370.397819 
L 720.426181 362.515133 
L 721.020222 289.156236 
L 721.317234 273.786437 
L 721.614238 292.249719 
L 722.208824 364.55537 
L 722.505828 367.054935 
L 722.802838 338.850134 
L 723.099866 299.745523 
L 723.396877 276.260964 
L 723.69387 284.858301 
L 724.288455 356.514797 
L 724.585455 368.486876 
L 724.88247 348.347067 
L 725.476492 281.290723 
L 725.773498 280.39522 
L 726.665071 367.114778 
L 726.962071 355.54789 
L 727.556106 288.122268 
L 727.853097 278.683834 
L 728.150094 300.023271 
L 728.744669 363.421817 
L 729.041665 360.399245 
L 729.932695 279.428197 
L 730.229689 292.902058 
L 730.824258 357.945513 
L 731.12125 362.914439 
L 731.418254 339.627743 
L 732.012278 282.181515 
L 732.309263 287.885809 
L 732.903837 351.195765 
L 733.200827 363.325009 
L 733.497832 346.610056 
L 734.091842 286.554322 
L 734.388835 284.895272 
L 735.280393 361.856102 
L 735.577385 351.949732 
L 736.171401 292.068122 
L 736.468987 283.80891 
L 736.765976 302.973179 
L 737.359942 358.847336 
L 737.656939 355.628779 
L 738.548542 284.36983 
L 738.845524 297.388331 
L 739.439491 354.619671 
L 739.73648 357.690795 
L 740.033481 335.963406 
L 740.331085 304.948466 
L 740.628078 286.337242 
L 740.925068 293.264723 
L 741.519031 349.508687 
L 741.816019 358.279257 
L 742.113613 341.570677 
L 742.707613 289.45693 
L 743.0046 290.547484 
L 743.895545 357.532085 
L 744.193135 346.117814 
L 744.787132 293.438679 
L 745.084123 289.171888 
L 745.381105 308.645216 
L 745.678082 337.884549 
L 745.975661 355.678946 
L 746.272654 349.504718 
L 746.866646 298.045079 
L 747.163636 288.999244 
L 747.163636 288.999244 
" clip-path="url(#p673f53093b)" style="fill: none; stroke: #008000; stroke-opacity: 0.3; stroke-width: 1.5; stroke-linecap: square"/>
   </g>
   <g id="line2d_17">
    <path d="M 138.436364 544.366379 
L 153.290612 544.366379 
L 153.290612 544.366379 
L 153.587703 538.378984 
L 154.479249 476.428289 
L 154.776137 469.599588 
L 155.073525 478.030025 
L 155.964756 541.33129 
L 156.261506 527.018951 
L 157.450347 406.779733 
L 158.044065 377.19755 
L 158.341393 373.322993 
L 158.638195 378.772404 
L 158.935685 396.720143 
L 159.826998 511.235268 
L 160.123594 510.63836 
L 160.420929 477.42318 
L 161.015317 371.449338 
L 161.906323 207.750912 
L 162.203748 205.396727 
L 162.500636 237.819007 
L 163.392059 372.80709 
L 163.688681 389.67212 
L 163.985924 384.295208 
L 164.580014 337.078032 
L 164.877099 313.37152 
L 165.174238 298.71078 
L 165.471452 295.477829 
L 165.768741 301.778196 
L 166.956712 347.868948 
L 167.253667 351.987648 
L 167.550955 351.427317 
L 167.847957 345.916396 
L 168.144904 336.010127 
L 168.739276 309.025553 
L 169.036697 305.195006 
L 169.333719 311.171775 
L 169.927478 331.941597 
L 170.224891 338.382808 
L 170.521873 340.232334 
L 170.819102 337.598622 
L 171.413279 328.599909 
L 171.710171 327.086104 
L 172.007238 327.171512 
L 172.304176 327.655413 
L 172.601504 327.747952 
L 172.898327 327.5771 
L 173.195801 327.658483 
L 173.492903 328.576179 
L 174.681224 335.441682 
L 174.977819 336.491859 
L 175.572524 340.03811 
L 176.46324 345.52169 
L 177.057836 347.525006 
L 177.354784 347.867176 
L 177.6518 347.945883 
L 177.949017 347.642578 
L 178.542836 346.130754 
L 179.434571 343.452712 
L 180.028746 342.183471 
L 180.622964 341.519029 
L 180.920047 341.435782 
L 181.2168 341.552552 
L 181.811363 342.180481 
L 183.59387 344.305113 
L 184.187715 344.523886 
L 184.781956 344.422959 
L 185.673247 344.022588 
L 186.861503 343.476814 
L 187.752828 343.3828 
L 188.940985 343.532202 
L 190.42648 343.753244 
L 191.911879 343.750535 
L 194.882811 343.649869 
L 202.013098 343.676221 
L 280.443462 343.678143 
L 450.375582 343.678156 
L 450.375582 343.678156 
L 451.267372 368.293128 
L 452.158103 394.884307 
L 452.455558 400.2562 
L 452.752752 402.56049 
L 453.049691 402.469171 
L 453.346504 401.803855 
L 453.643798 400.795828 
L 453.941044 397.755806 
L 454.534832 384.358658 
L 458.694338 261.674754 
L 459.28823 249.277225 
L 459.585295 245.494462 
L 459.882818 243.715132 
L 460.179451 243.537867 
L 460.476574 244.758511 
L 460.774096 247.808829 
L 461.368104 259.252046 
L 463.150445 306.675807 
L 464.33893 346.003148 
L 465.229922 373.726941 
L 465.824093 387.169586 
L 466.418612 396.083864 
L 466.715518 398.349023 
L 467.012406 398.916183 
L 467.30985 398.310166 
L 467.607057 396.38802 
L 468.200764 389.716192 
L 468.795354 379.267835 
L 469.983355 349.125888 
L 472.657364 280.178676 
L 473.548486 261.354693 
L 474.142457 252.384455 
L 474.439649 249.203386 
L 474.736802 247.313145 
L 475.03395 246.553649 
L 475.330752 247.23874 
L 475.628144 249.427482 
L 476.222466 256.929628 
L 476.816462 267.339035 
L 477.707785 287.088648 
L 479.787323 342.416482 
L 480.975633 372.792488 
L 481.866973 390.173638 
L 482.460888 398.955026 
L 482.758106 401.335086 
L 483.055009 401.859128 
L 483.352286 400.652362 
L 483.649218 397.432632 
L 484.243445 385.87946 
L 485.13489 358.920615 
L 486.323413 322.67153 
L 487.808685 283.154354 
L 488.700094 256.691242 
L 489.591278 239.745329 
L 489.888209 236.888632 
L 490.185182 236.957373 
L 490.482199 240.127303 
L 491.076626 253.035251 
L 491.967496 279.126554 
L 493.453286 325.508689 
L 494.344369 352.798982 
L 495.235959 380.390548 
L 496.423863 407.072098 
L 496.721028 412.11474 
L 497.018407 415.091796 
L 497.315571 415.271198 
L 497.61223 412.637842 
L 498.206479 401.558771 
L 499.394849 374.452255 
L 502.960204 259.337023 
L 503.554236 241.11598 
L 503.851006 234.873288 
L 504.148499 230.972409 
L 504.445286 229.201958 
L 504.742724 229.43145 
L 505.03943 231.849047 
L 505.336679 236.199698 
L 505.931053 249.773181 
L 507.415939 294.583986 
L 510.387331 383.772564 
L 511.278108 407.243179 
L 511.575412 413.136833 
L 511.872538 416.688037 
L 512.169769 417.327518 
L 512.46647 414.85967 
L 513.060718 402.94269 
L 514.249027 371.837189 
L 518.705377 242.141584 
L 519.299617 228.083077 
L 519.596824 224.254806 
L 519.893802 223.78634 
L 520.19057 226.746923 
L 520.784949 239.176621 
L 521.973564 270.652057 
L 523.756107 321.552101 
L 524.64686 347.070611 
L 526.132437 391.061535 
L 527.32115 420.784221 
L 527.618131 423.791306 
L 527.914846 423.117007 
L 528.212201 419.089289 
L 528.806286 405.35938 
L 529.99461 372.298131 
L 531.480297 329.311672 
L 532.6687 297.239153 
L 534.74777 235.395358 
L 535.342304 222.131077 
L 535.639036 218.560804 
L 535.936431 217.768813 
L 536.233365 219.646065 
L 536.530342 224.075372 
L 537.124892 239.319597 
L 539.204377 302.001931 
L 539.798566 314.916238 
L 542.174854 378.78536 
L 543.95751 434.14799 
L 544.254652 435.519463 
L 544.552049 434.806434 
L 544.848638 433.10139 
L 545.14618 428.125561 
L 545.740371 410.356293 
L 546.928698 373.48587 
L 548.116956 349.314768 
L 549.008032 333.342636 
L 549.899355 321.163462 
L 550.790865 309.049287 
L 551.681736 292.662542 
L 553.167258 257.577749 
L 554.058283 228.714884 
L 554.652565 211.361624 
L 555.246735 203.742956 
L 555.543864 202.519714 
L 555.840767 204.671836 
L 556.138328 210.877214 
L 557.623747 255.253904 
L 558.217998 262.846839 
L 558.811823 269.176093 
L 559.108923 270.336481 
L 559.406211 269.972729 
L 560.000415 265.948819 
L 560.297235 262.412808 
L 560.594602 256.631648 
L 561.18865 239.215109 
L 562.079702 209.74223 
L 562.376917 204.432976 
L 562.673953 202.352002 
L 562.971238 202.348368 
L 563.268157 204.477732 
L 563.565246 209.402342 
L 564.75348 241.600794 
L 565.347702 256.265314 
L 565.942146 265.711019 
L 566.536108 270.45457 
L 566.83296 271.471456 
L 567.427199 272.375331 
L 567.724652 270.806301 
L 568.021693 267.817656 
L 568.6159 258.155137 
L 569.20987 245.947591 
L 569.80396 229.535168 
L 570.695305 200.192726 
L 570.992666 195.623587 
L 571.289675 194.722184 
L 571.586637 196.44491 
L 571.883801 200.361222 
L 572.180779 206.403901 
L 573.36882 240.977158 
L 573.665954 246.207527 
L 573.962945 249.190912 
L 574.260133 250.858087 
L 574.557518 251.808515 
L 574.854362 250.733377 
L 575.151663 247.82549 
L 575.745886 237.267667 
L 576.339795 222.208577 
L 577.230936 197.72666 
L 577.528091 193.77764 
L 577.825601 191.389459 
L 578.122231 191.587348 
L 578.419268 195.948153 
L 579.607788 229.743843 
L 579.904716 233.780537 
L 580.202173 234.6884 
L 580.499012 232.475252 
L 581.093359 224.290077 
L 581.687283 209.186276 
L 582.281842 192.39438 
L 582.578455 186.554111 
L 582.875925 185.626568 
L 583.172613 189.397607 
L 583.766988 205.922845 
L 584.361426 221.137742 
L 584.955627 228.376192 
L 585.252688 230.895478 
L 585.549578 230.831752 
L 585.846895 227.916867 
L 586.143641 222.132171 
L 587.332165 188.873402 
L 587.628859 183.99066 
L 587.926316 182.161881 
L 588.223088 184.948659 
L 588.817641 201.487339 
L 589.411793 216.351876 
L 589.708816 219.972808 
L 590.005979 221.351724 
L 590.302774 221.33704 
L 590.599886 219.888401 
L 590.896918 215.323892 
L 592.085611 182.611426 
L 592.382778 178.504145 
L 592.679477 178.608049 
L 592.97669 182.834017 
L 594.164742 212.62411 
L 594.462382 216.316771 
L 594.75917 218.0297 
L 595.056182 216.994431 
L 595.353319 213.52458 
L 595.947333 198.009217 
L 596.54182 180.979277 
L 596.838872 176.836362 
L 597.135997 175.294248 
L 597.432719 176.538757 
L 597.730157 181.799546 
L 598.62146 205.265329 
L 598.918457 209.270988 
L 599.21572 210.869884 
L 599.512476 209.262086 
L 599.809574 205.303534 
L 600.404048 190.580523 
L 600.997887 177.168598 
L 601.295056 172.693375 
L 601.591857 170.855033 
L 601.889422 174.050229 
L 603.077304 200.845912 
L 603.37451 202.548946 
L 603.671992 201.870425 
L 603.969099 197.751329 
L 605.45422 166.116433 
L 605.751176 167.754408 
L 607.236752 197.23392 
L 607.533694 197.995896 
L 607.831032 195.624779 
L 608.128097 190.329187 
L 609.019424 166.546328 
L 609.31605 164.673026 
L 609.613345 167.302072 
L 609.910534 172.481467 
L 610.801762 193.433215 
L 611.09911 194.763103 
L 611.395923 192.582215 
L 611.693264 187.667953 
L 612.584113 164.324287 
L 612.881399 161.855152 
L 613.178711 163.846922 
L 613.475451 168.644425 
L 614.366626 189.034582 
L 614.664008 189.890806 
L 614.960859 186.726477 
L 615.55529 172.180373 
L 615.852064 164.19464 
L 616.149359 159.465829 
L 616.446468 159.407218 
L 616.743716 162.668952 
L 617.931805 185.882096 
L 618.229184 184.765296 
L 618.525978 179.384199 
L 619.417172 157.420236 
L 619.714519 156.571683 
L 620.011248 159.963839 
L 620.902757 179.971887 
L 621.199552 181.453046 
L 621.496903 179.150284 
L 622.685438 153.253415 
L 622.982248 154.039966 
L 623.279614 159.446437 
L 623.873765 173.465707 
L 624.17034 176.667761 
L 624.46745 175.853999 
L 624.76484 171.091343 
L 625.65573 150.90963 
L 625.953078 149.596755 
L 626.249903 153.860081 
L 627.141496 171.833513 
L 627.43842 172.184877 
L 627.735748 168.31332 
L 628.627099 148.293651 
L 628.923939 146.711173 
L 629.221203 150.272618 
L 630.112472 168.063474 
L 630.409144 168.289792 
L 630.706515 164.684305 
L 631.597893 145.096614 
L 631.89457 144.507814 
L 632.191705 147.836856 
L 632.785776 161.17204 
L 633.083018 164.580264 
L 633.380421 164.130579 
L 633.677078 160.233322 
L 634.271229 145.777667 
L 634.568415 142.052163 
L 634.865591 142.433503 
L 635.163025 147.297961 
L 635.756838 159.49678 
L 636.053707 161.52496 
L 636.350948 159.742156 
L 637.242204 140.931091 
L 637.539434 139.053366 
L 637.836794 142.535287 
L 638.430702 154.646623 
L 638.727515 158.258645 
L 639.024621 157.485296 
L 639.618714 145.744813 
L 639.915845 139.577876 
L 640.213172 136.633274 
L 640.510503 139.065633 
L 641.401728 154.95589 
L 641.698897 154.531852 
L 641.995677 150.565561 
L 642.589613 137.490333 
L 642.88696 134.638509 
L 643.184162 136.266179 
L 644.075262 151.663861 
L 644.372622 151.768002 
L 644.669414 147.991727 
L 645.263322 135.254662 
L 645.56056 132.542805 
L 645.857756 134.363769 
L 646.748992 149.272389 
L 647.046333 148.839689 
L 647.64013 137.814054 
L 647.937392 132.330942 
L 648.23459 130.442697 
L 648.531276 133.381718 
L 649.125834 144.480127 
L 649.423035 146.906913 
L 649.71969 145.11277 
L 650.610941 129.232909 
L 650.908135 129.061128 
L 651.205371 132.924356 
L 651.799741 143.228207 
L 652.096446 144.243802 
L 652.393777 141.240647 
L 652.987693 129.553826 
L 653.284823 126.797915 
L 653.582027 128.596328 
L 654.473282 141.990963 
L 654.770479 140.786499 
L 655.661539 125.768721 
L 655.958758 125.533256 
L 656.25598 129.284695 
L 656.849762 138.955585 
L 657.146971 139.466018 
L 657.444233 136.207154 
L 658.038158 125.282038 
L 658.335249 123.47791 
L 658.632427 125.945715 
L 659.226765 135.846954 
L 659.523511 137.696481 
L 659.820749 135.508511 
L 660.415143 124.871143 
L 660.712272 121.989375 
L 661.008841 123.432911 
L 661.900465 135.589258 
L 662.197651 134.270533 
L 663.088653 120.825907 
L 663.385744 121.344701 
L 664.27723 133.496787 
L 664.573909 132.916577 
L 665.465416 119.611867 
L 665.762506 119.78075 
L 666.653453 131.673788 
L 666.950644 131.215445 
L 667.247778 127.461625 
L 667.842127 118.442952 
L 668.139193 118.380886 
L 669.030593 129.886876 
L 669.327226 129.623547 
L 670.218678 117.172207 
L 670.515719 117.225523 
L 671.407158 128.418712 
L 671.704346 127.862423 
L 672.595723 115.887216 
L 672.892804 116.274009 
L 673.783527 126.975854 
L 674.080732 126.127289 
L 674.972053 114.650809 
L 675.269129 115.519121 
L 676.160468 125.688308 
L 676.457619 124.221744 
L 677.051852 115.62135 
L 677.348928 113.528092 
L 677.645999 115.057467 
L 678.240228 122.992595 
L 678.537297 124.27496 
L 678.834422 122.250018 
L 679.428656 113.89451 
L 679.725715 112.616549 
L 680.022756 114.874569 
L 680.617003 122.342262 
L 680.91411 122.821606 
L 681.211172 120.022428 
L 681.805349 112.272102 
L 682.101858 112.065762 
L 682.399514 114.955605 
L 682.696546 119.06946 
L 682.99366 121.615638 
L 683.290792 121.094077 
L 684.181982 111.015466 
L 684.479077 111.83942 
L 685.073219 119.069847 
L 685.370306 120.694628 
L 685.667392 119.0823 
L 686.261556 111.451659 
L 686.5586 110.148666 
L 686.855651 112.066932 
L 687.449827 118.962917 
L 687.746898 119.367794 
L 688.043965 116.833833 
L 688.638109 109.844381 
L 688.935156 109.794234 
L 689.826355 118.501483 
L 690.123439 117.652785 
L 691.014619 108.73632 
L 691.311648 110.033177 
L 691.905797 116.667789 
L 692.202852 117.536368 
L 692.49995 115.528127 
L 693.094055 108.739122 
L 693.391682 108.305099 
L 693.688741 110.744174 
L 694.282866 116.539831 
L 694.579917 116.0316 
L 695.471101 107.538593 
L 695.768108 108.579821 
L 696.362224 114.842324 
L 696.659278 115.795928 
L 696.956361 113.989356 
L 697.550436 107.586027 
L 697.847461 107.137928 
L 698.144502 109.411449 
L 698.739212 114.878906 
L 699.036259 114.378547 
L 699.927409 106.457862 
L 700.224409 107.538891 
L 700.818491 113.430722 
L 701.115551 114.188677 
L 701.41262 112.341151 
L 702.006676 106.413786 
L 702.303687 106.226038 
L 703.195412 113.469081 
L 703.492461 112.726021 
L 704.086544 106.806833 
L 704.383559 105.51016 
L 704.680568 106.843548 
L 705.274627 112.317845 
L 705.571684 112.674457 
L 705.868743 110.621951 
L 706.463376 105.304288 
L 706.760384 105.575378 
L 707.651486 112.2016 
L 707.948522 111.054857 
L 708.542571 105.483441 
L 708.83958 104.764869 
L 709.137185 106.47056 
L 709.731228 111.370699 
L 710.028285 111.170057 
L 710.919337 104.368251 
L 711.216348 105.211012 
L 711.81038 110.285418 
L 712.108036 110.9542 
L 712.405053 109.330902 
L 712.999091 104.311846 
L 713.296086 104.298735 
L 714.187138 110.443113 
L 714.484174 109.603927 
L 715.078803 104.520016 
L 715.3758 103.709401 
L 715.6728 105.151992 
L 716.26684 109.702924 
L 716.563868 109.621622 
L 717.4555 103.422083 
L 717.752498 104.15859 
L 718.346517 108.79304 
L 718.643546 109.409758 
L 718.940571 107.932009 
L 719.534577 103.383767 
L 719.832173 103.411787 
L 720.723207 108.992993 
L 721.020222 108.137957 
L 721.614238 103.522511 
L 721.91183 102.914074 
L 722.208824 104.338621 
L 722.802838 108.404993 
L 723.099866 108.17688 
L 723.990867 102.629648 
L 724.288455 103.496306 
L 724.88247 107.697701 
L 725.179482 108.043 
L 725.476492 106.509588 
L 726.070488 102.534749 
L 726.368077 102.833119 
L 726.962071 106.90944 
L 727.259085 107.761298 
L 727.556106 106.719748 
L 728.150094 102.587291 
L 728.447684 102.346303 
L 728.744669 103.896446 
L 729.041665 106.083534 
L 729.338681 107.352282 
L 729.63569 106.810137 
L 730.229689 102.743383 
L 730.52727 102.028861 
L 730.824258 103.146486 
L 731.418254 106.841115 
L 731.715275 106.784274 
L 732.606848 101.852668 
L 732.903837 102.526783 
L 733.497832 106.261054 
L 733.794835 106.642403 
L 734.091842 105.340416 
L 734.686414 101.803411 
L 734.983403 102.032864 
L 735.577385 105.634124 
L 735.874392 106.404446 
L 736.171401 105.488744 
L 736.765976 101.849466 
L 737.062959 101.664811 
L 737.359942 103.05502 
L 737.656939 104.989631 
L 737.953941 106.079889 
L 738.250945 105.558119 
L 738.845524 101.969543 
L 739.142509 101.412375 
L 739.439491 102.468739 
L 740.033481 105.689477 
L 740.331085 105.543195 
L 741.22205 101.260844 
L 741.519031 101.972777 
L 742.113613 105.251352 
L 742.410611 105.453882 
L 742.707613 104.193293 
L 743.0046 102.340018 
L 743.301583 101.200302 
L 743.598562 101.564884 
L 744.193135 104.778355 
L 744.49014 105.296466 
L 744.787132 104.330669 
L 745.381105 101.209562 
L 745.678082 101.247056 
L 746.569651 105.076537 
L 746.866646 104.416975 
L 747.163636 102.762299 
L 747.163636 102.762299 
" clip-path="url(#p673f53093b)" style="fill: none; stroke: #0000ff; stroke-opacity: 0.3; stroke-width: 1.5; stroke-linecap: square"/>
   </g>
   <g id="line2d_18">
    <path d="M 153.290612 567 
L 153.290612 77.76 
" clip-path="url(#p673f53093b)" style="fill: none; stroke-dasharray: 5.55,2.4; stroke-dashoffset: 0; stroke: #ff0000; stroke-width: 1.5"/>
   </g>
   <g id="line2d_19">
    <path d="M 450.375582 567 
L 450.375582 77.76 
" clip-path="url(#p673f53093b)" style="fill: none; stroke-dasharray: 5.55,2.4; stroke-dashoffset: 0; stroke: #000000; stroke-width: 1.5"/>
   </g>
   <g id="patch_3">
    <path d="M 108 567 
L 108 77.76 
" style="fill: none; stroke: #000000; stroke-width: 0.8; stroke-linejoin: miter; stroke-linecap: square"/>
   </g>
   <g id="patch_4">
    <path d="M 777.6 567 
L 777.6 77.76 
" style="fill: none; stroke: #000000; stroke-width: 0.8; stroke-linejoin: miter; stroke-linecap: square"/>
   </g>
   <g id="patch_5">
    <path d="M 108 567 
L 777.6 567 
" style="fill: none; stroke: #000000; stroke-width: 0.8; stroke-linejoin: miter; stroke-linecap: square"/>
   </g>
   <g id="patch_6">
    <path d="M 108 77.76 
L 777.6 77.76 
" style="fill: none; stroke: #000000; stroke-width: 0.8; stroke-linejoin: miter; stroke-linecap: square"/>
   </g>
   <g id="text_17">
    <!-- Pulse Start -->
    <g style="fill: #ff0000" transform="translate(153.290612 96.254744)scale(0.18 -0.18)">
     <defs>
      <path id="DejaVuSans-50" d="M 1259 4147 
L 1259 2394 
L 2053 2394 
Q 2494 2394 2734 2622 
Q 2975 2850 2975 3272 
Q 2975 3691 2734 3919 
Q 2494 4147 2053 4147 
L 1259 4147 
z
M 628 4666 
L 2053 4666 
Q 2838 4666 3239 4311 
Q 3641 3956 3641 3272 
Q 3641 2581 3239 2228 
Q 2838 1875 2053 1875 
L 1259 1875 
L 1259 0 
L 628 0 
L 628 4666 
z
" transform="scale(0.015625)"/>
      <path id="DejaVuSans-75" d="M 544 1381 
L 544 3500 
L 1119 3500 
L 1119 1403 
Q 1119 906 1312 657 
Q 1506 409 1894 409 
Q 2359 409 2629 706 
Q 2900 1003 2900 1516 
L 2900 3500 
L 3475 3500 
L 3475 0 
L 2900 0 
L 2900 538 
Q 2691 219 2414 64 
Q 2138 -91 1772 -91 
Q 1169 -91 856 284 
Q 544 659 544 1381 
z
M 1991 3584 
L 1991 3584 
z
" transform="scale(0.015625)"/>
      <path id="DejaVuSans-6c" d="M 603 4863 
L 1178 4863 
L 1178 0 
L 603 0 
L 603 4863 
z
" transform="scale(0.015625)"/>
      <path id="DejaVuSans-53" d="M 3425 4513 
L 3425 3897 
Q 3066 4069 2747 4153 
Q 2428 4238 2131 4238 
Q 1616 4238 1336 4038 
Q 1056 3838 1056 3469 
Q 1056 3159 1242 3001 
Q 1428 2844 1947 2747 
L 2328 2669 
Q 3034 2534 3370 2195 
Q 3706 1856 3706 1288 
Q 3706 609 3251 259 
Q 2797 -91 1919 -91 
Q 1588 -91 1214 -16 
Q 841 59 441 206 
L 441 856 
Q 825 641 1194 531 
Q 1563 422 1919 422 
Q 2459 422 2753 634 
Q 3047 847 3047 1241 
Q 3047 1584 2836 1778 
Q 2625 1972 2144 2069 
L 1759 2144 
Q 1053 2284 737 2584 
Q 422 2884 422 3419 
Q 422 4038 858 4394 
Q 1294 4750 2059 4750 
Q 2388 4750 2728 4690 
Q 3069 4631 3425 4513 
z
" transform="scale(0.015625)"/>
      <path id="DejaVuSans-72" d="M 2631 2963 
Q 2534 3019 2420 3045 
Q 2306 3072 2169 3072 
Q 1681 3072 1420 2755 
Q 1159 2438 1159 1844 
L 1159 0 
L 581 0 
L 581 3500 
L 1159 3500 
L 1159 2956 
Q 1341 3275 1631 3429 
Q 1922 3584 2338 3584 
Q 2397 3584 2469 3576 
Q 2541 3569 2628 3553 
L 2631 2963 
z
" transform="scale(0.015625)"/>
     </defs>
     <use xlink:href="#DejaVuSans-50"/>
     <use xlink:href="#DejaVuSans-75" x="58.552734"/>
     <use xlink:href="#DejaVuSans-6c" x="121.931641"/>
     <use xlink:href="#DejaVuSans-73" x="149.714844"/>
     <use xlink:href="#DejaVuSans-65" x="201.814453"/>
     <use xlink:href="#DejaVuSans-20" x="263.337891"/>
     <use xlink:href="#DejaVuSans-53" x="295.125"/>
     <use xlink:href="#DejaVuSans-74" x="358.601562"/>
     <use xlink:href="#DejaVuSans-61" x="397.810547"/>
     <use xlink:href="#DejaVuSans-72" x="459.089844"/>
     <use xlink:href="#DejaVuSans-74" x="500.203125"/>
    </g>
   </g>
   <g id="text_18">
    <!-- Pulse End -->
    <g transform="translate(450.375582 96.254744)scale(0.18 -0.18)">
     <defs>
      <path id="DejaVuSans-45" d="M 628 4666 
L 3578 4666 
L 3578 4134 
L 1259 4134 
L 1259 2753 
L 3481 2753 
L 3481 2222 
L 1259 2222 
L 1259 531 
L 3634 531 
L 3634 0 
L 628 0 
L 628 4666 
z
" transform="scale(0.015625)"/>
      <path id="DejaVuSans-64" d="M 2906 2969 
L 2906 4863 
L 3481 4863 
L 3481 0 
L 2906 0 
L 2906 525 
Q 2725 213 2448 61 
Q 2172 -91 1784 -91 
Q 1150 -91 751 415 
Q 353 922 353 1747 
Q 353 2572 751 3078 
Q 1150 3584 1784 3584 
Q 2172 3584 2448 3432 
Q 2725 3281 2906 2969 
z
M 947 1747 
Q 947 1113 1208 752 
Q 1469 391 1925 391 
Q 2381 391 2643 752 
Q 2906 1113 2906 1747 
Q 2906 2381 2643 2742 
Q 2381 3103 1925 3103 
Q 1469 3103 1208 2742 
Q 947 2381 947 1747 
z
" transform="scale(0.015625)"/>
     </defs>
     <use xlink:href="#DejaVuSans-50"/>
     <use xlink:href="#DejaVuSans-75" x="58.552734"/>
     <use xlink:href="#DejaVuSans-6c" x="121.931641"/>
     <use xlink:href="#DejaVuSans-73" x="149.714844"/>
     <use xlink:href="#DejaVuSans-65" x="201.814453"/>
     <use xlink:href="#DejaVuSans-20" x="263.337891"/>
     <use xlink:href="#DejaVuSans-45" x="295.125"/>
     <use xlink:href="#DejaVuSans-6e" x="358.308594"/>
     <use xlink:href="#DejaVuSans-64" x="421.6875"/>
    </g>
   </g>
   <g id="legend_1">
    <g id="patch_7">
     <path d="M 120.6 224.263125 
L 275.290312 224.263125 
Q 278.890312 224.263125 278.890312 220.663125 
L 278.890312 90.36 
Q 278.890312 86.76 275.290312 86.76 
L 120.6 86.76 
Q 117 86.76 117 90.36 
L 117 220.663125 
Q 117 224.263125 120.6 224.263125 
z
" style="fill: #ffffff; opacity: 0.8; stroke: #cccccc; stroke-linejoin: miter"/>
    </g>
    <g id="line2d_20">
     <path d="M 124.2 101.337187 
L 142.2 101.337187 
L 160.2 101.337187 
" style="fill: none; stroke: #ff0000; stroke-opacity: 0.3; stroke-width: 1.5; stroke-linecap: square"/>
    </g>
    <g id="text_19">
     <!-- mx -->
     <g transform="translate(174.6 107.637187)scale(0.18 -0.18)">
      <defs>
       <path id="DejaVuSans-78" d="M 3513 3500 
L 2247 1797 
L 3578 0 
L 2900 0 
L 1881 1375 
L 863 0 
L 184 0 
L 1544 1831 
L 300 3500 
L 978 3500 
L 1906 2253 
L 2834 3500 
L 3513 3500 
z
" transform="scale(0.015625)"/>
      </defs>
      <use xlink:href="#DejaVuSans-6d"/>
      <use xlink:href="#DejaVuSans-78" x="97.412109"/>
     </g>
    </g>
    <g id="line2d_21">
     <path d="M 124.2 127.757812 
L 142.2 127.757812 
L 160.2 127.757812 
" style="fill: none; stroke: #008000; stroke-opacity: 0.3; stroke-width: 1.5; stroke-linecap: square"/>
    </g>
    <g id="text_20">
     <!-- my -->
     <g transform="translate(174.6 134.057812)scale(0.18 -0.18)">
      <defs>
       <path id="DejaVuSans-79" d="M 2059 -325 
Q 1816 -950 1584 -1140 
Q 1353 -1331 966 -1331 
L 506 -1331 
L 506 -850 
L 844 -850 
Q 1081 -850 1212 -737 
Q 1344 -625 1503 -206 
L 1606 56 
L 191 3500 
L 800 3500 
L 1894 763 
L 2988 3500 
L 3597 3500 
L 2059 -325 
z
" transform="scale(0.015625)"/>
      </defs>
      <use xlink:href="#DejaVuSans-6d"/>
      <use xlink:href="#DejaVuSans-79" x="97.412109"/>
     </g>
    </g>
    <g id="line2d_22">
     <path d="M 124.2 154.178437 
L 142.2 154.178437 
L 160.2 154.178437 
" style="fill: none; stroke: #0000ff; stroke-opacity: 0.3; stroke-width: 1.5; stroke-linecap: square"/>
    </g>
    <g id="text_21">
     <!-- mz -->
     <g transform="translate(174.6 160.478437)scale(0.18 -0.18)">
      <use xlink:href="#DejaVuSans-6d"/>
      <use xlink:href="#DejaVuSans-7a" x="97.412109"/>
     </g>
    </g>
    <g id="line2d_23">
     <path d="M 124.2 180.599062 
L 142.2 180.599062 
L 160.2 180.599062 
" style="fill: none; stroke-dasharray: 5.55,2.4; stroke-dashoffset: 0; stroke: #ff0000; stroke-width: 1.5"/>
    </g>
    <g id="text_22">
     <!-- Pulse Start -->
     <g transform="translate(174.6 186.899062)scale(0.18 -0.18)">
      <use xlink:href="#DejaVuSans-50"/>
      <use xlink:href="#DejaVuSans-75" x="58.552734"/>
      <use xlink:href="#DejaVuSans-6c" x="121.931641"/>
      <use xlink:href="#DejaVuSans-73" x="149.714844"/>
      <use xlink:href="#DejaVuSans-65" x="201.814453"/>
      <use xlink:href="#DejaVuSans-20" x="263.337891"/>
      <use xlink:href="#DejaVuSans-53" x="295.125"/>
      <use xlink:href="#DejaVuSans-74" x="358.601562"/>
      <use xlink:href="#DejaVuSans-61" x="397.810547"/>
      <use xlink:href="#DejaVuSans-72" x="459.089844"/>
      <use xlink:href="#DejaVuSans-74" x="500.203125"/>
     </g>
    </g>
    <g id="line2d_24">
     <path d="M 124.2 207.019687 
L 142.2 207.019687 
L 160.2 207.019687 
" style="fill: none; stroke-dasharray: 5.55,2.4; stroke-dashoffset: 0; stroke: #000000; stroke-width: 1.5"/>
    </g>
    <g id="text_23">
     <!-- Pulse End -->
     <g transform="translate(174.6 213.319687)scale(0.18 -0.18)">
      <use xlink:href="#DejaVuSans-50"/>
      <use xlink:href="#DejaVuSans-75" x="58.552734"/>
      <use xlink:href="#DejaVuSans-6c" x="121.931641"/>
      <use xlink:href="#DejaVuSans-73" x="149.714844"/>
      <use xlink:href="#DejaVuSans-65" x="201.814453"/>
      <use xlink:href="#DejaVuSans-20" x="263.337891"/>
      <use xlink:href="#DejaVuSans-45" x="295.125"/>
      <use xlink:href="#DejaVuSans-6e" x="358.308594"/>
      <use xlink:href="#DejaVuSans-64" x="421.6875"/>
     </g>
    </g>
   </g>
  </g>
 </g>
 <defs>
  <clipPath id="p673f53093b">
   <rect x="108" y="77.76" width="669.6" height="489.24"/>
  </clipPath>
 </defs>
</svg>
