<?xml version="1.0" encoding="utf-8" standalone="no"?>
<!DOCTYPE svg PUBLIC "-//W3C//DTD SVG 1.1//EN"
  "http://www.w3.org/Graphics/SVG/1.1/DTD/svg11.dtd">
<svg xmlns:xlink="http://www.w3.org/1999/xlink" width="864pt" height="648pt" viewBox="0 0 864 648" xmlns="http://www.w3.org/2000/svg" version="1.1">
 <metadata>
  <rdf:RDF xmlns:dc="http://purl.org/dc/elements/1.1/" xmlns:cc="http://creativecommons.org/ns#" xmlns:rdf="http://www.w3.org/1999/02/22-rdf-syntax-ns#">
   <cc:Work>
    <dc:type rdf:resource="http://purl.org/dc/dcmitype/StillImage"/>
    <dc:date>2023-12-06T11:06:17.533281</dc:date>
    <dc:format>image/svg+xml</dc:format>
    <dc:creator>
     <cc:Agent>
      <dc:title>Matplotlib v3.5.2, https://matplotlib.org/</dc:title>
     </cc:Agent>
    </dc:creator>
   </cc:Work>
  </rdf:RDF>
 </metadata>
 <defs>
  <style type="text/css">*{stroke-linejoin: round; stroke-linecap: butt}</style>
 </defs>
 <g id="figure_1">
  <g id="patch_1">
   <path d="M 0 648 
L 864 648 
L 864 0 
L 0 0 
L 0 648 
z
" style="fill: none"/>
  </g>
  <g id="axes_1">
   <g id="patch_2">
    <path d="M 108 567 
L 777.6 567 
L 777.6 77.76 
L 108 77.76 
z
" style="fill: #ffffff"/>
   </g>
   <g id="matplotlib.axis_1">
    <g id="xtick_1">
     <g id="line2d_1">
      <defs>
       <path id="mfa1d630b52" d="M 0 0 
L 0 3.5 
" style="stroke: #000000; stroke-width: 0.8"/>
      </defs>
      <g>
       <use xlink:href="#mfa1d630b52" x="138.436364" y="567" style="stroke: #000000; stroke-width: 0.8"/>
      </g>
     </g>
     <g id="text_1">
      <!-- 0 -->
      <g transform="translate(132.710114 587.677187)scale(0.18 -0.18)">
       <defs>
        <path id="DejaVuSans-30" d="M 2034 4250 
Q 1547 4250 1301 3770 
Q 1056 3291 1056 2328 
Q 1056 1369 1301 889 
Q 1547 409 2034 409 
Q 2525 409 2770 889 
Q 3016 1369 3016 2328 
Q 3016 3291 2770 3770 
Q 2525 4250 2034 4250 
z
M 2034 4750 
Q 2819 4750 3233 4129 
Q 3647 3509 3647 2328 
Q 3647 1150 3233 529 
Q 2819 -91 2034 -91 
Q 1250 -91 836 529 
Q 422 1150 422 2328 
Q 422 3509 836 4129 
Q 1250 4750 2034 4750 
z
" transform="scale(0.015625)"/>
       </defs>
       <use xlink:href="#DejaVuSans-30"/>
      </g>
     </g>
    </g>
    <g id="xtick_2">
     <g id="line2d_2">
      <g>
       <use xlink:href="#mfa1d630b52" x="286.978776" y="567" style="stroke: #000000; stroke-width: 0.8"/>
      </g>
     </g>
     <g id="text_2">
      <!-- 5 -->
      <g transform="translate(281.252526 587.677187)scale(0.18 -0.18)">
       <defs>
        <path id="DejaVuSans-35" d="M 691 4666 
L 3169 4666 
L 3169 4134 
L 1269 4134 
L 1269 2991 
Q 1406 3038 1543 3061 
Q 1681 3084 1819 3084 
Q 2600 3084 3056 2656 
Q 3513 2228 3513 1497 
Q 3513 744 3044 326 
Q 2575 -91 1722 -91 
Q 1428 -91 1123 -41 
Q 819 9 494 109 
L 494 744 
Q 775 591 1075 516 
Q 1375 441 1709 441 
Q 2250 441 2565 725 
Q 2881 1009 2881 1497 
Q 2881 1984 2565 2268 
Q 2250 2553 1709 2553 
Q 1456 2553 1204 2497 
Q 953 2441 691 2322 
L 691 4666 
z
" transform="scale(0.015625)"/>
       </defs>
       <use xlink:href="#DejaVuSans-35"/>
      </g>
     </g>
    </g>
    <g id="xtick_3">
     <g id="line2d_3">
      <g>
       <use xlink:href="#mfa1d630b52" x="435.521188" y="567" style="stroke: #000000; stroke-width: 0.8"/>
      </g>
     </g>
     <g id="text_3">
      <!-- 10 -->
      <g transform="translate(424.068688 587.677187)scale(0.18 -0.18)">
       <defs>
        <path id="DejaVuSans-31" d="M 794 531 
L 1825 531 
L 1825 4091 
L 703 3866 
L 703 4441 
L 1819 4666 
L 2450 4666 
L 2450 531 
L 3481 531 
L 3481 0 
L 794 0 
L 794 531 
z
" transform="scale(0.015625)"/>
       </defs>
       <use xlink:href="#DejaVuSans-31"/>
       <use xlink:href="#DejaVuSans-30" x="63.623047"/>
      </g>
     </g>
    </g>
    <g id="xtick_4">
     <g id="line2d_4">
      <g>
       <use xlink:href="#mfa1d630b52" x="584.0636" y="567" style="stroke: #000000; stroke-width: 0.8"/>
      </g>
     </g>
     <g id="text_4">
      <!-- 15 -->
      <g transform="translate(572.6111 587.677187)scale(0.18 -0.18)">
       <use xlink:href="#DejaVuSans-31"/>
       <use xlink:href="#DejaVuSans-35" x="63.623047"/>
      </g>
     </g>
    </g>
    <g id="xtick_5">
     <g id="line2d_5">
      <g>
       <use xlink:href="#mfa1d630b52" x="732.606012" y="567" style="stroke: #000000; stroke-width: 0.8"/>
      </g>
     </g>
     <g id="text_5">
      <!-- 20 -->
      <g transform="translate(721.153512 587.677187)scale(0.18 -0.18)">
       <defs>
        <path id="DejaVuSans-32" d="M 1228 531 
L 3431 531 
L 3431 0 
L 469 0 
L 469 531 
Q 828 903 1448 1529 
Q 2069 2156 2228 2338 
Q 2531 2678 2651 2914 
Q 2772 3150 2772 3378 
Q 2772 3750 2511 3984 
Q 2250 4219 1831 4219 
Q 1534 4219 1204 4116 
Q 875 4013 500 3803 
L 500 4441 
Q 881 4594 1212 4672 
Q 1544 4750 1819 4750 
Q 2544 4750 2975 4387 
Q 3406 4025 3406 3419 
Q 3406 3131 3298 2873 
Q 3191 2616 2906 2266 
Q 2828 2175 2409 1742 
Q 1991 1309 1228 531 
z
" transform="scale(0.015625)"/>
       </defs>
       <use xlink:href="#DejaVuSans-32"/>
       <use xlink:href="#DejaVuSans-30" x="63.623047"/>
      </g>
     </g>
    </g>
    <g id="text_6">
     <!-- Time (ns) -->
     <g transform="translate(400.504219 609.097813)scale(0.18 -0.18)">
      <defs>
       <path id="DejaVuSans-54" d="M -19 4666 
L 3928 4666 
L 3928 4134 
L 2272 4134 
L 2272 0 
L 1638 0 
L 1638 4134 
L -19 4134 
L -19 4666 
z
" transform="scale(0.015625)"/>
       <path id="DejaVuSans-69" d="M 603 3500 
L 1178 3500 
L 1178 0 
L 603 0 
L 603 3500 
z
M 603 4863 
L 1178 4863 
L 1178 4134 
L 603 4134 
L 603 4863 
z
" transform="scale(0.015625)"/>
       <path id="DejaVuSans-6d" d="M 3328 2828 
Q 3544 3216 3844 3400 
Q 4144 3584 4550 3584 
Q 5097 3584 5394 3201 
Q 5691 2819 5691 2113 
L 5691 0 
L 5113 0 
L 5113 2094 
Q 5113 2597 4934 2840 
Q 4756 3084 4391 3084 
Q 3944 3084 3684 2787 
Q 3425 2491 3425 1978 
L 3425 0 
L 2847 0 
L 2847 2094 
Q 2847 2600 2669 2842 
Q 2491 3084 2119 3084 
Q 1678 3084 1418 2786 
Q 1159 2488 1159 1978 
L 1159 0 
L 581 0 
L 581 3500 
L 1159 3500 
L 1159 2956 
Q 1356 3278 1631 3431 
Q 1906 3584 2284 3584 
Q 2666 3584 2933 3390 
Q 3200 3197 3328 2828 
z
" transform="scale(0.015625)"/>
       <path id="DejaVuSans-65" d="M 3597 1894 
L 3597 1613 
L 953 1613 
Q 991 1019 1311 708 
Q 1631 397 2203 397 
Q 2534 397 2845 478 
Q 3156 559 3463 722 
L 3463 178 
Q 3153 47 2828 -22 
Q 2503 -91 2169 -91 
Q 1331 -91 842 396 
Q 353 884 353 1716 
Q 353 2575 817 3079 
Q 1281 3584 2069 3584 
Q 2775 3584 3186 3129 
Q 3597 2675 3597 1894 
z
M 3022 2063 
Q 3016 2534 2758 2815 
Q 2500 3097 2075 3097 
Q 1594 3097 1305 2825 
Q 1016 2553 972 2059 
L 3022 2063 
z
" transform="scale(0.015625)"/>
       <path id="DejaVuSans-20" transform="scale(0.015625)"/>
       <path id="DejaVuSans-28" d="M 1984 4856 
Q 1566 4138 1362 3434 
Q 1159 2731 1159 2009 
Q 1159 1288 1364 580 
Q 1569 -128 1984 -844 
L 1484 -844 
Q 1016 -109 783 600 
Q 550 1309 550 2009 
Q 550 2706 781 3412 
Q 1013 4119 1484 4856 
L 1984 4856 
z
" transform="scale(0.015625)"/>
       <path id="DejaVuSans-6e" d="M 3513 2113 
L 3513 0 
L 2938 0 
L 2938 2094 
Q 2938 2591 2744 2837 
Q 2550 3084 2163 3084 
Q 1697 3084 1428 2787 
Q 1159 2491 1159 1978 
L 1159 0 
L 581 0 
L 581 3500 
L 1159 3500 
L 1159 2956 
Q 1366 3272 1645 3428 
Q 1925 3584 2291 3584 
Q 2894 3584 3203 3211 
Q 3513 2838 3513 2113 
z
" transform="scale(0.015625)"/>
       <path id="DejaVuSans-73" d="M 2834 3397 
L 2834 2853 
Q 2591 2978 2328 3040 
Q 2066 3103 1784 3103 
Q 1356 3103 1142 2972 
Q 928 2841 928 2578 
Q 928 2378 1081 2264 
Q 1234 2150 1697 2047 
L 1894 2003 
Q 2506 1872 2764 1633 
Q 3022 1394 3022 966 
Q 3022 478 2636 193 
Q 2250 -91 1575 -91 
Q 1294 -91 989 -36 
Q 684 19 347 128 
L 347 722 
Q 666 556 975 473 
Q 1284 391 1588 391 
Q 1994 391 2212 530 
Q 2431 669 2431 922 
Q 2431 1156 2273 1281 
Q 2116 1406 1581 1522 
L 1381 1569 
Q 847 1681 609 1914 
Q 372 2147 372 2553 
Q 372 3047 722 3315 
Q 1072 3584 1716 3584 
Q 2034 3584 2315 3537 
Q 2597 3491 2834 3397 
z
" transform="scale(0.015625)"/>
       <path id="DejaVuSans-29" d="M 513 4856 
L 1013 4856 
Q 1481 4119 1714 3412 
Q 1947 2706 1947 2009 
Q 1947 1309 1714 600 
Q 1481 -109 1013 -844 
L 513 -844 
Q 928 -128 1133 580 
Q 1338 1288 1338 2009 
Q 1338 2731 1133 3434 
Q 928 4138 513 4856 
z
" transform="scale(0.015625)"/>
      </defs>
      <use xlink:href="#DejaVuSans-54"/>
      <use xlink:href="#DejaVuSans-69" x="57.958984"/>
      <use xlink:href="#DejaVuSans-6d" x="85.742188"/>
      <use xlink:href="#DejaVuSans-65" x="183.154297"/>
      <use xlink:href="#DejaVuSans-20" x="244.677734"/>
      <use xlink:href="#DejaVuSans-28" x="276.464844"/>
      <use xlink:href="#DejaVuSans-6e" x="315.478516"/>
      <use xlink:href="#DejaVuSans-73" x="378.857422"/>
      <use xlink:href="#DejaVuSans-29" x="430.957031"/>
     </g>
    </g>
   </g>
   <g id="matplotlib.axis_2">
    <g id="ytick_1">
     <g id="line2d_6">
      <defs>
       <path id="mc2cdbf1301" d="M 0 0 
L -3.5 0 
" style="stroke: #000000; stroke-width: 0.8"/>
      </defs>
      <g>
       <use xlink:href="#mc2cdbf1301" x="108" y="544.761818" style="stroke: #000000; stroke-width: 0.8"/>
      </g>
     </g>
     <g id="text_7">
      <!-- −1.00 -->
      <g transform="translate(45.838438 551.600412)scale(0.18 -0.18)">
       <defs>
        <path id="DejaVuSans-2212" d="M 678 2272 
L 4684 2272 
L 4684 1741 
L 678 1741 
L 678 2272 
z
" transform="scale(0.015625)"/>
        <path id="DejaVuSans-2e" d="M 684 794 
L 1344 794 
L 1344 0 
L 684 0 
L 684 794 
z
" transform="scale(0.015625)"/>
       </defs>
       <use xlink:href="#DejaVuSans-2212"/>
       <use xlink:href="#DejaVuSans-31" x="83.789062"/>
       <use xlink:href="#DejaVuSans-2e" x="147.412109"/>
       <use xlink:href="#DejaVuSans-30" x="179.199219"/>
       <use xlink:href="#DejaVuSans-30" x="242.822266"/>
      </g>
     </g>
    </g>
    <g id="ytick_2">
     <g id="line2d_7">
      <g>
       <use xlink:href="#mc2cdbf1301" x="108" y="489.166364" style="stroke: #000000; stroke-width: 0.8"/>
      </g>
     </g>
     <g id="text_8">
      <!-- −0.75 -->
      <g transform="translate(45.838438 496.004957)scale(0.18 -0.18)">
       <defs>
        <path id="DejaVuSans-37" d="M 525 4666 
L 3525 4666 
L 3525 4397 
L 1831 0 
L 1172 0 
L 2766 4134 
L 525 4134 
L 525 4666 
z
" transform="scale(0.015625)"/>
       </defs>
       <use xlink:href="#DejaVuSans-2212"/>
       <use xlink:href="#DejaVuSans-30" x="83.789062"/>
       <use xlink:href="#DejaVuSans-2e" x="147.412109"/>
       <use xlink:href="#DejaVuSans-37" x="179.199219"/>
       <use xlink:href="#DejaVuSans-35" x="242.822266"/>
      </g>
     </g>
    </g>
    <g id="ytick_3">
     <g id="line2d_8">
      <g>
       <use xlink:href="#mc2cdbf1301" x="108" y="433.570909" style="stroke: #000000; stroke-width: 0.8"/>
      </g>
     </g>
     <g id="text_9">
      <!-- −0.50 -->
      <g transform="translate(45.838438 440.409503)scale(0.18 -0.18)">
       <use xlink:href="#DejaVuSans-2212"/>
       <use xlink:href="#DejaVuSans-30" x="83.789062"/>
       <use xlink:href="#DejaVuSans-2e" x="147.412109"/>
       <use xlink:href="#DejaVuSans-35" x="179.199219"/>
       <use xlink:href="#DejaVuSans-30" x="242.822266"/>
      </g>
     </g>
    </g>
    <g id="ytick_4">
     <g id="line2d_9">
      <g>
       <use xlink:href="#mc2cdbf1301" x="108" y="377.975455" style="stroke: #000000; stroke-width: 0.8"/>
      </g>
     </g>
     <g id="text_10">
      <!-- −0.25 -->
      <g transform="translate(45.838438 384.814048)scale(0.18 -0.18)">
       <use xlink:href="#DejaVuSans-2212"/>
       <use xlink:href="#DejaVuSans-30" x="83.789062"/>
       <use xlink:href="#DejaVuSans-2e" x="147.412109"/>
       <use xlink:href="#DejaVuSans-32" x="179.199219"/>
       <use xlink:href="#DejaVuSans-35" x="242.822266"/>
      </g>
     </g>
    </g>
    <g id="ytick_5">
     <g id="line2d_10">
      <g>
       <use xlink:href="#mc2cdbf1301" x="108" y="322.38" style="stroke: #000000; stroke-width: 0.8"/>
      </g>
     </g>
     <g id="text_11">
      <!-- 0.00 -->
      <g transform="translate(60.921875 329.218594)scale(0.18 -0.18)">
       <use xlink:href="#DejaVuSans-30"/>
       <use xlink:href="#DejaVuSans-2e" x="63.623047"/>
       <use xlink:href="#DejaVuSans-30" x="95.410156"/>
       <use xlink:href="#DejaVuSans-30" x="159.033203"/>
      </g>
     </g>
    </g>
    <g id="ytick_6">
     <g id="line2d_11">
      <g>
       <use xlink:href="#mc2cdbf1301" x="108" y="266.784545" style="stroke: #000000; stroke-width: 0.8"/>
      </g>
     </g>
     <g id="text_12">
      <!-- 0.25 -->
      <g transform="translate(60.921875 273.623139)scale(0.18 -0.18)">
       <use xlink:href="#DejaVuSans-30"/>
       <use xlink:href="#DejaVuSans-2e" x="63.623047"/>
       <use xlink:href="#DejaVuSans-32" x="95.410156"/>
       <use xlink:href="#DejaVuSans-35" x="159.033203"/>
      </g>
     </g>
    </g>
    <g id="ytick_7">
     <g id="line2d_12">
      <g>
       <use xlink:href="#mc2cdbf1301" x="108" y="211.189091" style="stroke: #000000; stroke-width: 0.8"/>
      </g>
     </g>
     <g id="text_13">
      <!-- 0.50 -->
      <g transform="translate(60.921875 218.027685)scale(0.18 -0.18)">
       <use xlink:href="#DejaVuSans-30"/>
       <use xlink:href="#DejaVuSans-2e" x="63.623047"/>
       <use xlink:href="#DejaVuSans-35" x="95.410156"/>
       <use xlink:href="#DejaVuSans-30" x="159.033203"/>
      </g>
     </g>
    </g>
    <g id="ytick_8">
     <g id="line2d_13">
      <g>
       <use xlink:href="#mc2cdbf1301" x="108" y="155.593636" style="stroke: #000000; stroke-width: 0.8"/>
      </g>
     </g>
     <g id="text_14">
      <!-- 0.75 -->
      <g transform="translate(60.921875 162.43223)scale(0.18 -0.18)">
       <use xlink:href="#DejaVuSans-30"/>
       <use xlink:href="#DejaVuSans-2e" x="63.623047"/>
       <use xlink:href="#DejaVuSans-37" x="95.410156"/>
       <use xlink:href="#DejaVuSans-35" x="159.033203"/>
      </g>
     </g>
    </g>
    <g id="ytick_9">
     <g id="line2d_14">
      <g>
       <use xlink:href="#mc2cdbf1301" x="108" y="99.998182" style="stroke: #000000; stroke-width: 0.8"/>
      </g>
     </g>
     <g id="text_15">
      <!-- 1.00 -->
      <g transform="translate(60.921875 106.836776)scale(0.18 -0.18)">
       <use xlink:href="#DejaVuSans-31"/>
       <use xlink:href="#DejaVuSans-2e" x="63.623047"/>
       <use xlink:href="#DejaVuSans-30" x="95.410156"/>
       <use xlink:href="#DejaVuSans-30" x="159.033203"/>
      </g>
     </g>
    </g>
    <g id="text_16">
     <!-- Magnetization -->
     <g transform="translate(38.095 386.1225)rotate(-90)scale(0.18 -0.18)">
      <defs>
       <path id="DejaVuSans-4d" d="M 628 4666 
L 1569 4666 
L 2759 1491 
L 3956 4666 
L 4897 4666 
L 4897 0 
L 4281 0 
L 4281 4097 
L 3078 897 
L 2444 897 
L 1241 4097 
L 1241 0 
L 628 0 
L 628 4666 
z
" transform="scale(0.015625)"/>
       <path id="DejaVuSans-61" d="M 2194 1759 
Q 1497 1759 1228 1600 
Q 959 1441 959 1056 
Q 959 750 1161 570 
Q 1363 391 1709 391 
Q 2188 391 2477 730 
Q 2766 1069 2766 1631 
L 2766 1759 
L 2194 1759 
z
M 3341 1997 
L 3341 0 
L 2766 0 
L 2766 531 
Q 2569 213 2275 61 
Q 1981 -91 1556 -91 
Q 1019 -91 701 211 
Q 384 513 384 1019 
Q 384 1609 779 1909 
Q 1175 2209 1959 2209 
L 2766 2209 
L 2766 2266 
Q 2766 2663 2505 2880 
Q 2244 3097 1772 3097 
Q 1472 3097 1187 3025 
Q 903 2953 641 2809 
L 641 3341 
Q 956 3463 1253 3523 
Q 1550 3584 1831 3584 
Q 2591 3584 2966 3190 
Q 3341 2797 3341 1997 
z
" transform="scale(0.015625)"/>
       <path id="DejaVuSans-67" d="M 2906 1791 
Q 2906 2416 2648 2759 
Q 2391 3103 1925 3103 
Q 1463 3103 1205 2759 
Q 947 2416 947 1791 
Q 947 1169 1205 825 
Q 1463 481 1925 481 
Q 2391 481 2648 825 
Q 2906 1169 2906 1791 
z
M 3481 434 
Q 3481 -459 3084 -895 
Q 2688 -1331 1869 -1331 
Q 1566 -1331 1297 -1286 
Q 1028 -1241 775 -1147 
L 775 -588 
Q 1028 -725 1275 -790 
Q 1522 -856 1778 -856 
Q 2344 -856 2625 -561 
Q 2906 -266 2906 331 
L 2906 616 
Q 2728 306 2450 153 
Q 2172 0 1784 0 
Q 1141 0 747 490 
Q 353 981 353 1791 
Q 353 2603 747 3093 
Q 1141 3584 1784 3584 
Q 2172 3584 2450 3431 
Q 2728 3278 2906 2969 
L 2906 3500 
L 3481 3500 
L 3481 434 
z
" transform="scale(0.015625)"/>
       <path id="DejaVuSans-74" d="M 1172 4494 
L 1172 3500 
L 2356 3500 
L 2356 3053 
L 1172 3053 
L 1172 1153 
Q 1172 725 1289 603 
Q 1406 481 1766 481 
L 2356 481 
L 2356 0 
L 1766 0 
Q 1100 0 847 248 
Q 594 497 594 1153 
L 594 3053 
L 172 3053 
L 172 3500 
L 594 3500 
L 594 4494 
L 1172 4494 
z
" transform="scale(0.015625)"/>
       <path id="DejaVuSans-7a" d="M 353 3500 
L 3084 3500 
L 3084 2975 
L 922 459 
L 3084 459 
L 3084 0 
L 275 0 
L 275 525 
L 2438 3041 
L 353 3041 
L 353 3500 
z
" transform="scale(0.015625)"/>
       <path id="DejaVuSans-6f" d="M 1959 3097 
Q 1497 3097 1228 2736 
Q 959 2375 959 1747 
Q 959 1119 1226 758 
Q 1494 397 1959 397 
Q 2419 397 2687 759 
Q 2956 1122 2956 1747 
Q 2956 2369 2687 2733 
Q 2419 3097 1959 3097 
z
M 1959 3584 
Q 2709 3584 3137 3096 
Q 3566 2609 3566 1747 
Q 3566 888 3137 398 
Q 2709 -91 1959 -91 
Q 1206 -91 779 398 
Q 353 888 353 1747 
Q 353 2609 779 3096 
Q 1206 3584 1959 3584 
z
" transform="scale(0.015625)"/>
      </defs>
      <use xlink:href="#DejaVuSans-4d"/>
      <use xlink:href="#DejaVuSans-61" x="86.279297"/>
      <use xlink:href="#DejaVuSans-67" x="147.558594"/>
      <use xlink:href="#DejaVuSans-6e" x="211.035156"/>
      <use xlink:href="#DejaVuSans-65" x="274.414062"/>
      <use xlink:href="#DejaVuSans-74" x="335.9375"/>
      <use xlink:href="#DejaVuSans-69" x="375.146484"/>
      <use xlink:href="#DejaVuSans-7a" x="402.929688"/>
      <use xlink:href="#DejaVuSans-61" x="455.419922"/>
      <use xlink:href="#DejaVuSans-74" x="516.699219"/>
      <use xlink:href="#DejaVuSans-69" x="555.908203"/>
      <use xlink:href="#DejaVuSans-6f" x="583.691406"/>
      <use xlink:href="#DejaVuSans-6e" x="644.873047"/>
     </g>
    </g>
   </g>
   <g id="line2d_15">
    <path d="M 138.436364 309.142353 
L 153.290605 309.142081 
L 153.290605 309.142081 
L 153.587985 463.05788 
L 153.885128 540.312336 
L 154.182286 494.032033 
L 154.479144 314.193767 
L 154.776115 212.798757 
L 155.073674 249.174656 
L 155.370489 341.351759 
L 155.667886 387.86499 
L 155.964738 372.22696 
L 156.261699 334.341572 
L 156.558595 315.815957 
L 156.856168 323.236842 
L 157.153142 338.431319 
L 157.450074 345.17181 
L 157.746967 341.87788 
L 158.044486 335.899644 
L 158.341413 332.609221 
L 158.638376 331.980798 
L 158.935331 333.305711 
L 159.23279 335.741834 
L 159.529666 336.856065 
L 160.420997 334.938049 
L 160.717906 334.870009 
L 161.014818 334.994177 
L 161.609221 335.431594 
L 163.094959 335.222362 
L 164.876985 335.250419 
L 190.129572 335.252219 
L 450.375429 335.252226 
L 450.375429 335.252226 
L 450.672788 339.409295 
L 451.564184 388.759861 
L 451.860887 418.421337 
L 452.158523 461.182948 
L 452.455586 482.364473 
L 452.752589 487.970379 
L 453.049305 508.449158 
L 453.346716 514.283761 
L 455.129183 351.837994 
L 455.723404 327.396701 
L 456.02007 323.273421 
L 456.317156 325.057761 
L 456.614346 336.241789 
L 457.505798 405.206782 
L 458.099839 482.439469 
L 458.396953 499.5903 
L 458.694333 496.581563 
L 458.991327 505.416239 
L 459.288526 499.578781 
L 459.8823 424.973835 
L 460.476758 369.636953 
L 460.77376 336.867344 
L 461.070955 316.555757 
L 461.367785 304.503562 
L 461.664676 297.906387 
L 461.962253 301.088214 
L 462.25896 311.636818 
L 462.556083 327.63531 
L 462.85307 353.40704 
L 463.447247 419.986175 
L 463.744353 444.494226 
L 464.338432 512.859736 
L 464.636027 508.284239 
L 465.230109 481.049627 
L 465.527152 450.640448 
L 466.120953 366.467785 
L 467.012441 299.446015 
L 467.309625 293.524173 
L 467.606835 295.532817 
L 467.903911 300.893722 
L 468.794951 343.824721 
L 469.092187 368.514069 
L 469.6864 430.995245 
L 469.983462 463.073816 
L 470.280574 479.90107 
L 470.874539 490.330866 
L 471.171729 473.585322 
L 471.468634 448.569384 
L 472.063058 388.325433 
L 472.657319 336.506518 
L 473.251311 281.927936 
L 473.548175 274.608945 
L 473.845658 275.96438 
L 474.142373 270.006409 
L 474.439447 277.922243 
L 474.736921 277.55508 
L 475.033586 275.777228 
L 475.33076 290.203875 
L 475.627783 298.130769 
L 475.924895 326.397858 
L 476.816233 438.28535 
L 477.113228 465.153753 
L 477.410415 473.77812 
L 477.70727 471.142273 
L 478.301775 456.916962 
L 478.598591 436.106885 
L 479.193212 366.183832 
L 479.787412 301.471882 
L 480.678217 238.766571 
L 480.975755 222.415981 
L 481.272782 213.520453 
L 481.569552 215.257306 
L 481.866689 222.356906 
L 482.461108 247.033631 
L 482.75799 262.118319 
L 483.352171 277.391983 
L 483.6491 296.279887 
L 484.837498 422.460722 
L 485.4319 460.365101 
L 485.729077 482.52095 
L 486.025777 477.92792 
L 486.323011 440.056575 
L 487.214297 260.207354 
L 487.511282 223.0764 
L 487.808236 210.741659 
L 488.105532 214.327648 
L 488.402699 210.907244 
L 489.293861 162.170868 
L 489.591068 158.403348 
L 489.888193 160.485205 
L 490.185331 165.460629 
L 490.481927 167.571788 
L 490.779464 164.894743 
L 491.076317 160.374327 
L 491.373544 159.334232 
L 491.670812 162.315494 
L 491.967658 170.732888 
L 492.264947 185.998063 
L 493.156222 248.096694 
L 493.453319 256.32396 
L 493.749991 276.118037 
L 494.344338 368.721722 
L 494.64155 422.311346 
L 494.938618 455.770472 
L 495.235723 461.748175 
L 495.829809 446.935856 
L 496.126977 432.506672 
L 496.423857 395.528612 
L 497.314852 247.74787 
L 497.612188 221.708205 
L 497.909074 209.384418 
L 498.206253 206.317795 
L 499.09738 165.637829 
L 499.394887 152.98552 
L 499.692051 148.647118 
L 499.989034 149.94009 
L 500.285942 156.833726 
L 500.58317 168.151271 
L 500.880005 171.17046 
L 501.474583 153.336127 
L 501.771312 144.122137 
L 502.06876 143.374565 
L 502.365391 150.263166 
L 502.662634 160.8382 
L 502.959548 176.14722 
L 503.256678 184.591881 
L 503.850958 180.132743 
L 504.148226 185.759632 
L 504.445114 202.705536 
L 505.039254 271.726775 
L 506.227745 436.129136 
L 506.524791 458.102403 
L 506.821744 465.629412 
L 507.119065 459.895646 
L 507.416185 438.004091 
L 508.010201 356.778013 
L 508.604633 260.795825 
L 508.901697 223.666397 
L 509.495365 185.24408 
L 510.387072 140.053513 
L 510.683765 133.447997 
L 510.98101 134.764199 
L 511.278262 142.415566 
L 511.872428 164.781964 
L 512.16913 169.952208 
L 512.466536 169.135544 
L 512.763356 170.846094 
L 513.060522 183.162844 
L 513.357418 205.800461 
L 513.951894 283.515159 
L 514.843235 401.974095 
L 515.437202 461.108672 
L 515.734421 468.836018 
L 516.031733 452.710013 
L 516.625389 385.729753 
L 518.110869 163.791253 
L 518.408233 149.549632 
L 518.705482 149.193821 
L 519.002268 156.76759 
L 519.299519 159.922877 
L 519.893551 148.608615 
L 520.19072 151.313216 
L 520.487691 167.186489 
L 521.082018 229.564516 
L 522.864454 459.772491 
L 523.161463 467.518886 
L 523.458313 458.440277 
L 523.755614 422.310005 
L 524.944087 188.455242 
L 525.241238 165.132364 
L 525.538423 160.563181 
L 525.83505 165.058018 
L 526.132632 162.860941 
L 526.429171 157.701631 
L 526.726319 162.016566 
L 527.023654 186.21121 
L 527.320531 231.410843 
L 528.509132 479.96685 
L 528.805977 481.974758 
L 529.103472 447.066172 
L 529.994578 301.405145 
L 531.182693 138.352085 
L 531.479681 125.419315 
L 531.777226 134.383637 
L 532.074006 162.274631 
L 532.965325 308.777788 
L 533.856423 438.449699 
L 534.153604 461.588906 
L 534.451 460.459173 
L 534.748024 430.37256 
L 535.342175 302.61514 
L 535.93626 174.904695 
L 536.233146 139.514008 
L 536.530577 129.281807 
L 536.827453 144.414703 
L 537.421494 229.932743 
L 538.906937 462.901158 
L 539.204317 473.768002 
L 539.501277 443.78405 
L 540.689732 184.906696 
L 540.986832 168.21106 
L 541.283809 165.240193 
L 541.580831 166.218677 
L 541.878104 169.232358 
L 542.17475 185.305106 
L 542.47209 225.128455 
L 543.660643 457.963014 
L 543.957695 465.505107 
L 544.254408 438.761708 
L 545.44258 208.602937 
L 546.036754 158.69226 
L 546.333831 150.070495 
L 546.630967 158.022148 
L 546.928094 188.587969 
L 547.52255 305.806909 
L 548.116525 423.740539 
L 548.413619 455.329291 
L 548.710648 460.348682 
L 549.007824 431.043251 
L 550.196433 179.31953 
L 550.493275 151.261654 
L 550.79024 145.380229 
L 551.087206 160.984594 
L 551.384395 198.569174 
L 551.978844 327.747537 
L 552.572702 450.035725 
L 552.869953 463.055736 
L 553.166842 439.737624 
L 553.761472 319.976277 
L 554.35568 184.60674 
L 554.652314 147.307401 
L 554.949291 142.244145 
L 555.246901 170.408001 
L 555.84057 298.051349 
L 556.435014 439.592373 
L 556.732173 469.168345 
L 557.029141 450.164262 
L 557.623625 314.024253 
L 558.21744 185.039813 
L 558.514703 152.727749 
L 558.811727 148.522473 
L 559.108777 177.12439 
L 559.702781 324.276624 
L 560.297019 463.498721 
L 560.594158 467.559513 
L 560.891032 419.279704 
L 561.782588 185.829393 
L 562.079363 152.511971 
L 562.376838 154.097629 
L 562.673563 186.756801 
L 563.26767 326.618871 
L 563.862004 464.673875 
L 564.159291 464.055965 
L 564.456108 403.544144 
L 565.050195 227.56626 
L 565.347397 173.898698 
L 565.644623 157.512336 
L 565.941999 172.696755 
L 566.238684 213.5731 
L 567.426997 459.089378 
L 567.724374 446.243337 
L 568.021192 382.211021 
L 568.615452 210.473322 
L 568.91271 164.372181 
L 569.209366 161.410111 
L 569.506605 195.336149 
L 570.69501 435.104877 
L 570.991936 449.744894 
L 571.289345 413.737111 
L 572.180751 180.443706 
L 572.477482 164.291012 
L 572.77477 187.831261 
L 573.369087 302.788476 
L 573.963203 429.284633 
L 574.260082 446.822575 
L 574.556918 410.038438 
L 575.448141 188.908581 
L 575.745815 173.2087 
L 576.0428 194.410183 
L 576.339943 240.973257 
L 577.231042 440.016386 
L 577.527794 440.825324 
L 577.825185 380.409297 
L 578.419294 227.719568 
L 578.716514 190.366881 
L 579.013298 182.788531 
L 579.310742 206.201676 
L 579.607401 267.080771 
L 580.201812 423.571288 
L 580.499037 441.69296 
L 580.796032 401.481893 
L 581.687148 204.079446 
L 581.984077 178.340783 
L 582.281353 193.175029 
L 582.578204 252.897868 
L 583.172685 415.362364 
L 583.469938 440.399743 
L 583.766782 408.622282 
L 584.657927 197.667298 
L 584.955377 173.799458 
L 585.252201 204.799661 
L 586.143594 418.869576 
L 586.440364 433.42299 
L 586.737517 395.906745 
L 587.628935 183.225022 
L 587.926232 186.977804 
L 588.223313 235.871133 
L 589.11453 433.016062 
L 589.41132 420.984216 
L 590.302924 206.668669 
L 590.599766 188.264461 
L 590.896882 211.78326 
L 591.491073 354.909279 
L 591.788285 420.370756 
L 592.085123 429.173349 
L 592.38226 376.853002 
L 592.97662 226.595021 
L 593.273338 189.063256 
L 593.570601 199.073182 
L 593.867975 258.366593 
L 594.461796 412.486191 
L 594.759157 427.39264 
L 595.056186 384.637614 
L 595.650186 230.849839 
L 595.947477 189.075398 
L 596.244394 202.95725 
L 597.135831 407.734025 
L 597.432534 424.624473 
L 597.729726 380.802717 
L 598.323756 224.591721 
L 598.620878 194.344491 
L 598.918221 213.19139 
L 599.51221 353.439272 
L 599.809375 415.56182 
L 600.106644 418.516185 
L 600.403308 361.466471 
L 600.99753 218.647065 
L 601.294887 195.354627 
L 601.591678 224.267521 
L 602.483268 419.271858 
L 602.780479 401.765025 
L 603.671695 203.759523 
L 603.968323 204.074896 
L 604.265442 255.28948 
L 604.859956 397.992231 
L 605.157065 417.611077 
L 605.453707 375.12023 
L 606.048121 227.856097 
L 606.345302 202.143077 
L 606.642508 226.461033 
L 607.533623 414.859681 
L 607.830756 396.796139 
L 608.721679 207.851193 
L 609.019114 211.973641 
L 609.316268 267.072848 
L 609.910027 402.702147 
L 610.207139 407.651819 
L 610.504319 355.301636 
L 611.098747 218.479608 
L 611.3959 209.050676 
L 611.692564 250.187648 
L 612.286989 390.230679 
L 612.584053 410.150056 
L 612.881196 368.704577 
L 613.475503 230.766803 
L 613.772101 209.261441 
L 614.06942 240.068683 
L 614.663702 379.858266 
L 614.960841 407.706325 
L 615.257961 376.49251 
L 615.852271 238.898461 
L 616.148838 211.196752 
L 616.446147 237.083448 
L 617.040398 372.333465 
L 617.337543 405.329744 
L 617.63464 379.250087 
L 618.228913 243.983618 
L 618.526033 214.497465 
L 618.822719 236.695369 
L 619.41693 369.897222 
L 619.714122 402.536161 
L 620.011172 377.428375 
L 620.605431 245.565793 
L 620.902553 216.378015 
L 621.199219 240.053255 
L 621.793416 370.308103 
L 622.09056 400.173147 
L 622.387635 373.124967 
L 622.981894 243.512079 
L 623.27898 219.348498 
L 623.57614 246.238522 
L 624.170387 374.215667 
L 624.467519 397.484353 
L 624.764549 364.70449 
L 625.35881 239.815998 
L 625.655923 222.227408 
L 625.953056 255.551528 
L 626.54727 379.301206 
L 626.84437 393.330843 
L 627.141416 353.6199 
L 627.735071 234.881152 
L 628.032166 227.56531 
L 628.329256 268.09572 
L 628.923447 384.790123 
L 629.220569 386.617297 
L 630.111801 230.952757 
L 630.408959 235.324056 
L 631.300156 388.218023 
L 631.597254 376.070029 
L 632.488489 229.364579 
L 632.785592 247.67909 
L 633.379791 363.409021 
L 633.676828 388.188822 
L 633.973883 360.673084 
L 634.568063 247.003111 
L 634.865139 232.121247 
L 635.162227 264.422746 
L 635.756374 375.367005 
L 636.054035 382.107069 
L 636.351078 340.637759 
L 636.94524 238.097455 
L 637.242324 241.087953 
L 638.133526 382.14281 
L 638.43057 369.194375 
L 639.024693 260.611386 
L 639.321766 235.630158 
L 639.618863 256.594866 
L 640.212974 364.283744 
L 640.510024 380.782398 
L 640.807073 349.278108 
L 641.401219 246.452376 
L 641.698266 241.238979 
L 641.995329 278.811706 
L 642.589456 375.746459 
L 642.886477 370.197608 
L 643.777663 240.366475 
L 644.075325 255.783528 
L 644.669432 357.838209 
L 644.966483 377.213901 
L 645.263502 350.298076 
L 645.85761 251.5801 
L 646.154674 244.395166 
L 646.451731 278.634665 
L 647.045824 371.438857 
L 647.342835 367.223142 
L 648.233987 244.298564 
L 648.531052 259.20266 
L 649.125723 355.97586 
L 649.42276 373.144741 
L 649.719775 346.344756 
L 650.313858 253.619373 
L 650.610915 249.032245 
L 650.907971 283.47137 
L 651.502046 369.101477 
L 651.799053 361.627696 
L 652.690774 247.628891 
L 652.987831 265.932283 
L 653.581885 357.267033 
L 653.878904 368.432088 
L 654.175913 338.571573 
L 654.769985 253.852932 
L 655.067035 255.282317 
L 655.958718 367.387885 
L 656.255734 353.387922 
L 656.849762 265.707777 
L 657.146823 251.568726 
L 657.443872 275.563223 
L 658.037911 359.743203 
L 658.334913 362.042682 
L 659.226581 254.068553 
L 659.523614 263.966085 
L 660.117672 347.663531 
L 660.41467 364.40295 
L 660.711683 342.318594 
L 661.305706 261.546564 
L 661.602762 257.572766 
L 661.900392 288.221143 
L 662.494411 361.261742 
L 662.791415 352.738267 
L 663.385433 272.448575 
L 663.682472 256.290903 
L 663.979491 275.643928 
L 664.57412 353.91476 
L 664.871116 358.401007 
L 665.168118 328.267092 
L 665.465134 285.402138 
L 665.762153 259.28867 
L 666.059185 266.957387 
L 666.653212 343.525428 
L 666.950807 359.612251 
L 667.247805 339.898421 
L 667.841829 265.702442 
L 668.138855 262.196571 
L 668.435877 290.481886 
L 668.732885 331.620831 
L 669.029885 356.947399 
L 669.327481 348.20449 
L 669.921481 274.553819 
L 670.218504 261.009868 
L 670.515526 280.244507 
L 671.109535 351.182108 
L 671.407127 353.145075 
L 672.298141 263.007568 
L 672.595155 272.76129 
L 673.189171 343.291079 
L 673.486161 354.816245 
L 673.783749 333.743278 
L 674.37776 267.52976 
L 674.674778 268.079953 
L 675.565779 353.602358 
L 675.863363 341.300863 
L 676.45737 273.97443 
L 676.754378 266.083731 
L 677.051388 287.770304 
L 677.645381 350.027914 
L 677.942967 346.40211 
L 678.833965 266.443779 
L 679.130976 280.68195 
L 679.724966 344.623441 
L 680.02255 349.171044 
L 680.319534 325.063284 
L 680.61653 290.09525 
L 680.913536 268.855298 
L 681.210548 275.568323 
L 681.80454 337.998135 
L 682.102121 349.726705 
L 682.399107 332.282077 
L 682.993102 272.860857 
L 683.290116 272.422445 
L 684.181686 348.402574 
L 684.478671 337.852963 
L 685.072661 278.104767 
L 685.369659 271.099889 
L 685.666666 290.531459 
L 686.26124 345.494827 
L 686.558224 341.717805 
L 687.152202 284.151565 
L 687.449209 271.406649 
L 687.746208 284.985772 
L 688.340786 341.364858 
L 688.637768 343.966681 
L 688.93475 321.556471 
L 689.231744 290.668571 
L 689.528742 273.126908 
L 689.826341 280.844015 
L 690.420322 336.359903 
L 690.717304 344.678309 
L 691.014284 327.3877 
L 691.608869 275.959016 
L 691.905869 278.036719 
L 692.796829 344.066664 
L 693.093808 332.078546 
L 693.688385 279.723267 
L 693.985384 276.4974 
L 694.282382 296.163926 
L 694.579368 324.950294 
L 694.876347 342.288755 
L 695.173325 335.614886 
L 695.767898 284.120231 
L 696.064893 276.1505 
L 696.361887 291.356435 
L 696.955857 339.592471 
L 697.25343 337.977476 
L 698.144393 276.836059 
L 698.441388 287.482513 
L 699.03595 336.186444 
L 699.332928 339.291925 
L 699.629903 320.633947 
L 699.926889 294.005799 
L 700.223886 278.418372 
L 700.520879 284.568001 
L 701.115441 332.247169 
L 701.41242 339.614296 
L 701.709396 324.904377 
L 702.303366 280.739609 
L 702.600958 282.586706 
L 703.491902 339.041996 
L 703.788878 328.413585 
L 704.383442 283.616292 
L 704.680433 281.455848 
L 704.977422 298.85431 
L 705.274402 323.518208 
L 705.571378 337.714687 
L 705.868946 331.08458 
L 706.462913 286.954645 
L 706.759906 281.112466 
L 707.056896 295.127053 
L 707.651445 335.752721 
L 707.948419 333.03162 
L 708.542383 290.584188 
L 708.839372 281.500934 
L 709.13636 292.030399 
L 709.730912 333.282632 
L 710.027885 334.223927 
L 710.918832 282.506375 
L 711.216419 289.617672 
L 711.810375 330.411704 
L 712.107347 334.731827 
L 712.404323 320.479238 
L 712.998885 284.047561 
L 713.295873 287.798524 
L 713.889833 327.278573 
L 714.186804 334.602613 
L 714.484375 323.373028 
L 715.078337 286.027089 
L 715.375324 286.590913 
L 716.266853 333.919833 
L 716.563825 325.778976 
L 717.157788 288.365331 
L 717.454772 285.957679 
L 717.752354 300.093733 
L 718.049329 320.633803 
L 718.346304 332.752617 
L 718.643273 327.643778 
L 719.237231 290.961045 
L 719.534814 285.857438 
L 719.831795 297.388491 
L 720.425745 331.178259 
L 720.722717 328.991208 
L 721.317268 293.71131 
L 721.614253 286.224926 
L 721.911236 295.112062 
L 722.505186 329.271486 
L 722.802753 329.815011 
L 723.69369 287.010748 
L 723.99067 293.284261 
L 724.585218 327.126941 
L 724.882189 330.19826 
L 725.179159 317.956634 
L 725.476138 299.50666 
L 725.773119 288.166898 
L 726.070698 291.906655 
L 726.664651 324.778124 
L 726.96162 330.142317 
L 727.258591 320.211989 
L 727.853145 289.612897 
L 728.150127 290.928797 
L 729.041049 329.703527 
L 729.338616 322.068735 
L 729.932571 291.325117 
L 730.229554 290.343964 
L 731.121072 328.918559 
L 731.418042 323.593015 
L 732.011994 293.228285 
L 732.308975 290.137892 
L 732.606549 300.691138 
L 733.200495 327.8419 
L 733.497464 324.750919 
L 734.092009 295.258391 
L 734.388992 290.274368 
L 734.685971 298.831545 
L 735.279913 326.509102 
L 735.576884 325.558909 
L 736.468408 290.716372 
L 736.765386 297.276818 
L 737.359929 324.993293 
L 737.656897 326.017749 
L 738.547824 291.43086 
L 738.844802 296.025468 
L 739.439344 323.301582 
L 739.736313 326.178531 
L 740.033281 316.646692 
L 740.627831 292.379992 
L 740.924811 295.092547 
L 741.518757 321.497617 
L 741.815726 326.048679 
L 742.113291 318.239719 
L 742.707243 293.534817 
L 743.004222 294.426118 
L 743.895734 325.654778 
L 744.192704 319.608718 
L 744.786654 294.858967 
L 745.083632 294.037784 
L 745.975145 325.030112 
L 746.272113 320.717391 
L 746.866659 296.299063 
L 747.163636 293.913602 
L 747.163636 293.913602 
" clip-path="url(#pc570f72e8f)" style="fill: none; stroke: #ff0000; stroke-opacity: 0.3; stroke-width: 1.5; stroke-linecap: square"/>
   </g>
   <g id="line2d_16">
    <path d="M 138.436364 322.38 
L 153.290605 322.379839 
L 153.290605 322.379839 
L 153.587985 334.944197 
L 153.885128 324.55049 
L 154.479144 506.514525 
L 154.776115 509.484579 
L 155.073674 527.35807 
L 155.370489 536.091129 
L 155.667886 532.175096 
L 156.261699 542.50024 
L 156.558595 542.34286 
L 156.856168 540.81113 
L 157.153142 537.559085 
L 157.746967 526.572431 
L 158.638376 498.160988 
L 158.935331 497.668043 
L 159.529666 509.299871 
L 159.826567 511.017868 
L 160.12409 509.67119 
L 160.717906 505.305691 
L 161.014818 504.95922 
L 161.906129 507.418707 
L 162.203636 507.317457 
L 162.797447 506.49629 
L 163.094959 506.3718 
L 164.283177 506.813035 
L 165.471402 506.645575 
L 166.659621 506.702482 
L 169.036666 506.689517 
L 186.861204 506.68905 
L 450.375429 506.689035 
L 450.375429 506.689035 
L 450.672788 507.590506 
L 450.969885 525.542292 
L 451.267117 512.310351 
L 451.564184 485.936652 
L 451.860887 484.510854 
L 452.158523 466.85633 
L 453.940979 203.13302 
L 454.535077 136.036401 
L 454.832257 135.006357 
L 455.129183 142.123532 
L 455.425914 122.333611 
L 455.723404 111.850116 
L 456.317156 136.136584 
L 456.614346 119.345467 
L 456.911443 115.513828 
L 457.505798 158.820752 
L 457.802873 168.911372 
L 458.099839 202.208875 
L 459.288526 410.266213 
L 459.58545 452.335122 
L 459.8823 469.622106 
L 460.476758 524.126498 
L 460.77376 524.937146 
L 461.070955 512.051819 
L 461.367785 519.872965 
L 461.664676 534.364579 
L 461.962253 531.414083 
L 462.25896 516.045476 
L 462.556083 515.316286 
L 462.85307 526.027295 
L 463.150209 516.230998 
L 464.041461 428.896881 
L 465.527152 165.721594 
L 465.824094 139.363611 
L 466.120953 136.880773 
L 466.418487 127.398891 
L 466.715464 111.219435 
L 467.012441 110.349855 
L 467.309625 124.263694 
L 467.606835 130.231257 
L 467.903911 118.143115 
L 468.200911 114.566326 
L 468.497734 129.44189 
L 468.794951 138.347326 
L 469.092187 134.181169 
L 469.389272 155.475329 
L 472.063058 483.18069 
L 472.359848 494.309512 
L 472.657319 500.049161 
L 473.548175 489.918926 
L 473.845658 491.936074 
L 474.142373 490.890545 
L 474.439447 487.292663 
L 474.736921 481.079415 
L 475.033586 478.882205 
L 475.924895 501.589168 
L 476.222052 502.190611 
L 476.518937 488.252074 
L 476.816233 460.470425 
L 477.410415 366.669407 
L 478.004742 275.223931 
L 479.193212 143.200778 
L 479.490242 135.122033 
L 479.787412 139.778406 
L 480.678217 163.976275 
L 480.975755 166.271869 
L 481.272782 165.143259 
L 481.569552 159.292847 
L 481.866689 155.874571 
L 482.163591 157.088945 
L 482.461108 166.707866 
L 482.75799 180.827546 
L 483.054891 185.453813 
L 483.352171 174.94657 
L 483.6491 158.847683 
L 483.94613 148.93548 
L 484.243465 160.133472 
L 485.4319 285.152129 
L 485.729077 334.439495 
L 486.323011 465.978934 
L 486.620346 507.662787 
L 486.917434 519.26452 
L 487.214297 506.402734 
L 488.105532 427.930877 
L 488.402699 419.433443 
L 488.996789 436.002054 
L 489.293861 435.43796 
L 489.591068 433.239111 
L 489.888193 426.686124 
L 490.481927 400.292753 
L 490.779464 401.504307 
L 491.076317 411.160359 
L 491.670812 443.553607 
L 491.967658 452.207328 
L 492.264947 457.446232 
L 492.561877 456.280907 
L 492.858807 450.465078 
L 493.156222 454.13549 
L 493.453319 467.035159 
L 494.046966 500.744495 
L 494.344338 495.127769 
L 494.64155 464.516273 
L 495.532577 302.198677 
L 496.721146 149.796053 
L 497.018138 145.00872 
L 497.314852 159.062335 
L 497.909074 200.127828 
L 498.503397 221.490313 
L 499.09738 224.871984 
L 499.394887 234.151292 
L 499.692051 239.863616 
L 499.989034 248.554925 
L 500.285942 260.705887 
L 500.58317 263.815686 
L 500.880005 269.814467 
L 501.177288 269.20555 
L 501.474583 259.383848 
L 502.06876 249.098215 
L 502.365391 243.817352 
L 502.662634 244.50762 
L 503.256678 242.749194 
L 503.553733 237.942491 
L 504.148226 198.146953 
L 504.742163 156.440008 
L 505.039254 147.76842 
L 505.336579 149.470019 
L 505.633441 166.192856 
L 506.227745 227.086713 
L 507.119065 375.444681 
L 507.713185 468.350914 
L 508.010201 494.200276 
L 508.307544 500.823914 
L 508.604633 491.53324 
L 510.387072 364.943389 
L 511.278262 298.254998 
L 511.57527 283.062534 
L 511.872428 274.217337 
L 512.466536 245.363323 
L 513.654535 158.480397 
L 513.951894 150.370866 
L 514.24921 156.218685 
L 514.546277 172.137265 
L 515.140348 231.454584 
L 516.625389 464.150611 
L 516.922442 487.639579 
L 517.220036 497.368777 
L 517.516796 490.231283 
L 517.813933 466.655535 
L 519.002268 336.593556 
L 519.596476 300.367665 
L 520.19072 248.604062 
L 520.785049 194.718026 
L 521.082018 178.259536 
L 521.378961 169.914558 
L 521.676014 167.185845 
L 521.973441 172.033813 
L 522.270139 193.050918 
L 522.864454 282.443228 
L 524.05258 495.167448 
L 524.349878 506.664032 
L 524.646758 490.006922 
L 525.241238 412.54737 
L 525.83505 336.080882 
L 526.429171 277.066431 
L 527.320531 157.334944 
L 527.617864 138.629477 
L 527.915005 148.89007 
L 528.211691 193.427188 
L 529.103472 415.436194 
L 529.400027 450.912942 
L 529.697363 461.376086 
L 529.994578 464.606605 
L 530.291815 465.806777 
L 530.588782 455.778013 
L 530.885881 425.886617 
L 531.479681 324.274664 
L 532.074006 219.198988 
L 532.37098 184.815572 
L 532.668328 170.898109 
L 532.965325 174.552407 
L 533.26213 185.111087 
L 533.559495 205.983688 
L 533.856423 245.878775 
L 535.044865 482.173892 
L 535.342175 499.669346 
L 535.638966 484.881873 
L 535.93626 445.318117 
L 537.124686 217.373605 
L 537.421494 192.607511 
L 537.718853 186.209297 
L 538.01568 185.69584 
L 538.312903 189.959331 
L 538.609849 214.661772 
L 539.204317 350.333779 
L 539.798439 482.551116 
L 540.095636 494.92233 
L 540.392648 470.756196 
L 541.283809 339.107285 
L 541.878104 269.735085 
L 542.47209 181.060758 
L 542.769253 157.049526 
L 543.066371 164.776811 
L 543.363137 206.292021 
L 544.551741 466.675134 
L 544.848958 481.045787 
L 545.145739 464.617857 
L 545.73994 401.279595 
L 546.333831 314.582917 
L 547.22516 173.892591 
L 547.52255 160.949502 
L 547.819833 178.424266 
L 548.116525 221.43097 
L 549.304748 472.172381 
L 549.602231 484.53552 
L 549.899131 464.783042 
L 550.493275 368.882104 
L 551.384395 203.077209 
L 551.68172 169.984386 
L 551.978844 162.282081 
L 552.275637 190.837396 
L 552.869953 330.964362 
L 553.464126 456.044691 
L 553.761472 482.134393 
L 554.058521 474.099217 
L 554.35568 433.515947 
L 555.543945 180.998758 
L 555.84057 160.994045 
L 556.137677 176.640941 
L 556.435014 229.216811 
L 557.326517 459.32537 
L 557.623625 481.971155 
L 557.92057 466.401448 
L 558.21744 423.382435 
L 559.406076 171.258092 
L 559.702781 157.288155 
L 559.999755 191.066116 
L 561.188541 483.269392 
L 561.48527 475.718935 
L 561.782588 428.469063 
L 562.970797 176.697182 
L 563.26767 163.654688 
L 563.565287 196.606181 
L 564.753502 484.774959 
L 565.050195 460.261115 
L 566.53596 178.823174 
L 566.832896 180.423042 
L 567.130298 223.430194 
L 568.021192 459.501392 
L 568.318612 478.209843 
L 568.615452 444.095542 
L 569.506605 231.918018 
L 569.803812 193.414134 
L 570.101068 186.907487 
L 570.39829 211.571503 
L 570.69501 266.751117 
L 571.289345 427.034807 
L 571.586216 471.868861 
L 571.883681 458.721314 
L 572.477482 321.704177 
L 573.071775 208.028623 
L 573.369087 189.757888 
L 573.665963 204.882187 
L 573.963203 259.128584 
L 574.556918 422.975354 
L 574.8542 464.471299 
L 575.151081 449.27876 
L 575.745815 322.01192 
L 576.339943 210.820217 
L 576.637051 190.597771 
L 576.934019 209.387665 
L 577.231042 276.391929 
L 577.825185 441.649885 
L 578.122252 456.689625 
L 578.419294 424.360299 
L 579.607401 194.620925 
L 579.904947 192.674481 
L 580.201812 248.204589 
L 580.796032 414.024937 
L 581.092758 447.935607 
L 581.389883 438.413051 
L 581.687148 395.086419 
L 582.578204 198.527924 
L 582.875732 189.786166 
L 583.172685 239.951277 
L 583.766782 404.704955 
L 584.063844 447.089255 
L 584.360914 443.26423 
L 584.657927 395.423821 
L 585.252201 236.951217 
L 585.54933 193.953112 
L 585.846287 205.181913 
L 586.143594 262.00284 
L 586.737517 417.031466 
L 587.034835 453.433586 
L 587.331756 431.279916 
L 588.223313 219.566926 
L 588.520467 198.190015 
L 588.817297 223.528453 
L 589.708723 442.695578 
L 590.005846 440.587 
L 590.302924 389.953437 
L 590.896882 250.968261 
L 591.19417 205.666387 
L 591.491073 206.673028 
L 591.788285 265.521761 
L 592.38226 424.749445 
L 592.679281 442.892621 
L 592.97662 410.555185 
L 593.867975 208.744648 
L 594.164735 203.457253 
L 594.461796 258.116067 
L 595.056186 414.569399 
L 595.352937 441.966274 
L 595.650186 415.421853 
L 596.541455 212.037464 
L 596.838596 211.362162 
L 597.135831 261.338163 
L 597.729726 416.84469 
L 598.02661 440.772293 
L 598.323756 404.343062 
L 599.215322 213.495664 
L 599.51221 215.296361 
L 599.809375 274.038589 
L 600.403308 424.33577 
L 600.700375 432.218283 
L 600.99753 389.743011 
L 601.591678 244.659071 
L 601.888905 207.842712 
L 602.18614 231.877134 
L 603.077058 429.970874 
L 603.374267 422.256425 
L 604.265442 226.099547 
L 604.562711 215.981559 
L 604.859956 259.484996 
L 605.453707 410.253152 
L 605.750997 431.154591 
L 606.048121 393.838735 
L 606.642508 254.058979 
L 606.939205 215.788154 
L 607.236464 233.93075 
L 608.127882 425.744866 
L 608.425086 413.509323 
L 609.316268 224.92892 
L 609.613391 223.861683 
L 609.910027 276.982851 
L 610.504319 415.558102 
L 610.80158 421.855328 
L 611.098747 373.243029 
L 611.692564 238.649234 
L 611.989737 221.384352 
L 612.286989 260.543426 
L 612.881196 404.351246 
L 613.17842 421.967611 
L 613.475503 384.969385 
L 614.06942 249.704599 
L 614.366563 222.276526 
L 614.663702 252.880545 
L 615.257961 393.940897 
L 615.55514 420.358978 
L 615.852271 391.362173 
L 616.446147 257.070367 
L 616.743226 225.744759 
L 617.040398 249.757292 
L 617.63464 388.330989 
L 617.931783 418.049503 
L 618.228913 391.877538 
L 618.822719 261.570457 
L 619.119838 228.201843 
L 619.41693 250.333532 
L 620.011172 385.944912 
L 620.308251 415.131636 
L 620.605431 390.091634 
L 621.199219 261.204089 
L 621.496301 230.647309 
L 621.793416 254.603059 
L 622.387635 387.096214 
L 622.684706 413.023236 
L 622.981894 384.380545 
L 623.57614 258.75585 
L 623.873297 233.075849 
L 624.170387 261.512644 
L 624.764549 390.929271 
L 625.061616 409.468354 
L 625.35881 376.004389 
L 625.953056 253.618968 
L 626.250151 236.39617 
L 626.54727 272.244742 
L 627.141416 395.722427 
L 627.438467 404.941358 
L 627.735071 364.091446 
L 628.329256 248.61 
L 628.626364 241.911611 
L 628.923447 285.930039 
L 629.517613 400.164214 
L 629.815241 397.015185 
L 630.706056 244.08024 
L 631.003085 250.973696 
L 631.894349 402.347755 
L 632.191392 385.765438 
L 632.785592 271.364492 
L 633.082714 243.025243 
L 633.379791 264.500433 
L 633.973883 381.886857 
L 634.270966 400.25395 
L 634.568063 369.62556 
L 635.162227 258.917829 
L 635.459319 246.655722 
L 635.756374 283.325612 
L 636.351078 391.944902 
L 636.648151 392.520649 
L 637.539392 250.800221 
L 637.836472 257.189531 
L 638.727635 396.097616 
L 639.024693 377.865098 
L 639.618863 271.253212 
L 639.915942 249.371693 
L 640.212974 275.003117 
L 640.807073 382.27577 
L 641.104136 392.117241 
L 641.401219 357.020571 
L 641.995329 258.169398 
L 642.292428 256.978757 
L 643.183527 390.769903 
L 643.480596 379.027054 
L 644.372378 253.587686 
L 644.669432 274.099924 
L 645.263502 376.50632 
L 645.560545 388.904743 
L 645.85761 357.71563 
L 646.451731 262.766475 
L 646.748803 260.085782 
L 647.045824 299.211882 
L 647.342835 354.060621 
L 647.639877 386.685514 
L 647.936933 375.944135 
L 648.531052 280.533757 
L 648.828093 257.521827 
L 649.125723 277.877707 
L 649.719775 374.540783 
L 650.016808 384.573801 
L 650.313858 353.425674 
L 650.907971 264.776438 
L 651.205032 265.157629 
L 652.096077 383.768866 
L 652.393123 369.897012 
L 652.987831 278.855348 
L 653.284868 261.398758 
L 653.581885 285.201703 
L 654.175913 375.01191 
L 654.472941 379.034495 
L 654.769985 345.280358 
L 655.364076 265.505194 
L 655.661112 272.335209 
L 656.255734 360.824933 
L 656.552741 380.764496 
L 656.849762 360.995504 
L 657.443872 275.466772 
L 657.740893 266.387538 
L 658.037911 295.742735 
L 658.631918 376.027007 
L 658.929545 371.365711 
L 659.820656 266.804878 
L 660.117672 282.300567 
L 660.711683 366.405489 
L 661.008695 376.051732 
L 661.305706 349.25966 
L 661.900392 272.342868 
L 662.197396 273.947966 
L 663.088409 375.494561 
L 663.385433 360.796517 
L 663.979491 281.719542 
L 664.276517 270.631133 
L 664.57412 295.425887 
L 665.168118 370.52863 
L 665.465134 368.16207 
L 666.35621 271.758328 
L 666.653212 285.067493 
L 667.247805 362.193984 
L 667.544814 371.452184 
L 667.841829 346.937411 
L 668.435877 276.539495 
L 668.732885 278.525878 
L 669.624479 370.94355 
L 669.921481 356.304104 
L 670.515526 283.978423 
L 670.812533 275.594179 
L 671.109535 299.970126 
L 671.704119 367.260302 
L 672.001129 362.679824 
L 672.892175 275.944433 
L 673.189171 291.133914 
L 673.783749 361.111192 
L 674.08075 366.04095 
L 674.37776 340.780864 
L 674.971787 278.978003 
L 675.268786 284.9846 
L 675.863363 353.204032 
L 676.160359 366.657403 
L 676.45737 349.104771 
L 677.051388 284.137339 
L 677.348387 281.473389 
L 677.645381 307.701693 
L 677.942967 344.322614 
L 678.239954 364.832469 
L 678.536951 355.319397 
L 679.130976 290.786171 
L 679.427972 280.38226 
L 679.724966 299.618337 
L 680.319534 361.027071 
L 680.61653 359.398785 
L 681.507549 281.43594 
L 681.80454 293.343555 
L 682.399107 355.715662 
L 682.696097 361.397515 
L 682.993102 339.780164 
L 683.587112 284.235027 
L 683.884104 288.957863 
L 684.478671 349.336833 
L 684.775661 361.5402 
L 685.072661 346.066777 
L 685.666666 288.422061 
L 685.964255 286.41255 
L 686.85521 360.027801 
L 687.152202 350.869277 
L 687.746208 293.594444 
L 688.0438 285.501978 
L 688.340786 303.681246 
L 688.93475 357.164068 
L 689.231744 354.184959 
L 690.123336 286.075661 
L 690.420322 298.572601 
L 691.014284 353.235955 
L 691.311271 356.051287 
L 691.608869 335.110788 
L 691.905869 305.517488 
L 692.20286 287.897606 
L 692.499849 294.76907 
L 693.093808 348.523456 
L 693.391393 356.598649 
L 693.688385 340.35621 
L 694.282382 290.749088 
L 694.579368 292.221534 
L 695.470904 355.970542 
L 695.767898 344.597007 
L 696.361887 294.370854 
L 696.658877 290.876696 
L 696.955857 309.939741 
L 697.25343 337.896892 
L 697.550408 354.336078 
L 697.847398 347.806514 
L 698.441388 298.568703 
L 698.73837 290.609695 
L 699.03595 305.442667 
L 699.629903 351.85214 
L 699.926889 350.002347 
L 700.818461 291.300831 
L 701.115441 301.771552 
L 701.709396 348.713422 
L 702.006377 351.239896 
L 702.303366 333.283088 
L 702.600958 307.791372 
L 702.897945 292.804819 
L 703.194925 298.968935 
L 703.788878 345.079829 
L 704.086452 351.575831 
L 704.383442 337.204913 
L 704.977422 294.978301 
L 705.274402 297.035547 
L 706.165927 351.138986 
L 706.462913 340.475996 
L 707.056896 297.691675 
L 707.353874 295.902474 
L 707.651445 313.226152 
L 707.948419 337.030777 
L 708.245397 349.995543 
L 708.542383 343.052803 
L 709.13636 300.797373 
L 709.433937 295.535935 
L 709.730912 309.621605 
L 710.324862 348.27226 
L 710.621844 344.928218 
L 711.216419 304.149358 
L 711.513399 295.816344 
L 711.810375 306.604109 
L 712.404323 346.056486 
L 712.7019 346.123399 
L 713.592857 296.694484 
L 713.889833 304.183672 
L 714.484375 343.497593 
L 714.781353 346.7153 
L 715.078337 332.525416 
L 715.375324 311.283201 
L 715.672309 298.070524 
L 715.969287 302.353499 
L 716.563825 340.635618 
L 716.860804 346.733055 
L 717.157788 335.333027 
L 717.752354 299.853959 
L 718.049329 301.117285 
L 718.940248 346.232558 
L 719.237231 337.658127 
L 719.831795 301.979744 
L 720.128774 300.389797 
L 720.425745 314.693268 
L 720.722717 334.462551 
L 721.020287 345.282278 
L 721.317268 339.481813 
L 721.911236 304.360684 
L 722.208213 300.167373 
L 722.505186 312.0223 
L 723.099726 343.942979 
L 723.396704 340.859558 
L 723.99067 306.920358 
L 724.287649 300.393094 
L 724.585218 309.790136 
L 725.179159 342.275963 
L 725.476138 341.788818 
L 726.367677 301.026366 
L 726.664651 307.923643 
L 727.258591 340.352605 
L 727.556164 342.268778 
L 727.853145 329.890482 
L 728.150127 312.271659 
L 728.447106 302.003187 
L 728.74408 306.467177 
L 729.338616 338.250165 
L 729.63559 342.371317 
L 729.932571 332.086593 
L 730.526531 303.285456 
L 730.823506 305.401026 
L 731.418042 335.993558 
L 731.715014 342.102536 
L 732.011994 333.958134 
L 732.606549 304.794646 
L 732.903524 304.731245 
L 733.794436 341.510102 
L 734.092009 335.472863 
L 734.685971 306.517316 
L 734.982944 304.395137 
L 735.279913 315.305281 
L 735.576884 331.275795 
L 735.874451 340.630978 
L 736.171427 336.686498 
L 736.765386 308.383856 
L 737.062363 304.390721 
L 737.359929 313.462027 
L 737.953868 339.505665 
L 738.250844 337.577677 
L 738.844802 310.357392 
L 739.142372 304.686632 
L 739.439344 311.864575 
L 740.033281 338.169869 
L 740.330256 338.15825 
L 741.221787 305.246621 
L 741.518757 310.552329 
L 742.113291 336.685974 
L 742.410266 338.436501 
L 742.707243 328.611878 
L 743.004222 314.415826 
L 743.301199 306.042233 
L 743.59817 309.517858 
L 744.192704 335.05892 
L 744.489677 338.451945 
L 744.786654 330.22821 
L 745.381203 307.032222 
L 745.678177 308.775203 
L 746.272113 333.342727 
L 746.569086 338.21667 
L 746.866659 331.588729 
L 747.163636 318.418678 
L 747.163636 318.418678 
" clip-path="url(#pc570f72e8f)" style="fill: none; stroke: #008000; stroke-opacity: 0.3; stroke-width: 1.5; stroke-linecap: square"/>
   </g>
   <g id="line2d_17">
    <path d="M 138.436364 544.366379 
L 153.290605 544.366379 
L 153.290605 544.366379 
L 153.587985 493.876537 
L 154.182286 224.187166 
L 154.479144 201.603211 
L 155.073674 363.657028 
L 155.370489 376.613333 
L 155.964738 309.154208 
L 156.261699 304.635826 
L 156.856168 332.690454 
L 157.153142 334.258505 
L 157.746967 323.417038 
L 158.044486 322.483112 
L 158.935331 328.076543 
L 159.23279 327.845191 
L 159.529666 326.666319 
L 159.826567 325.944973 
L 160.12409 325.929892 
L 161.014818 326.641415 
L 161.312331 326.624011 
L 161.906129 326.38252 
L 181.217001 326.448242 
L 450.375429 326.448241 
L 450.375429 326.448241 
L 451.267117 358.125106 
L 451.860887 376.887171 
L 452.455586 388.852972 
L 453.049305 396.370151 
L 453.346716 396.210274 
L 454.237607 378.196229 
L 454.832257 362.980211 
L 458.396953 246.752881 
L 458.694333 244.740058 
L 458.991327 245.038012 
L 459.288526 247.528513 
L 459.58545 251.48014 
L 459.8823 257.842328 
L 460.77376 288.343858 
L 463.744353 392.788979 
L 464.041461 398.522156 
L 464.338432 401.896933 
L 464.636027 403.404953 
L 464.932852 402.853798 
L 465.230109 398.689683 
L 465.824094 380.897783 
L 468.200911 297.435987 
L 469.389272 256.756037 
L 470.280574 236.855177 
L 470.577665 235.051623 
L 470.874539 235.388792 
L 471.171729 237.118222 
L 471.468634 241.525485 
L 473.548175 299.034097 
L 476.816233 404.527354 
L 477.113228 410.573371 
L 477.410415 413.397164 
L 477.70727 414.836804 
L 478.004742 412.188279 
L 478.598591 402.927428 
L 479.193212 388.136066 
L 479.787412 368.691683 
L 481.866689 311.95389 
L 482.461108 292.977492 
L 483.352171 269.020699 
L 483.94613 248.90937 
L 484.540654 228.430611 
L 484.837498 221.389734 
L 485.4319 214.286392 
L 485.729077 213.160586 
L 486.025777 214.053295 
L 486.323011 219.939755 
L 486.917434 239.264146 
L 487.808236 268.682285 
L 488.402699 282.588901 
L 490.185331 319.253769 
L 491.373544 336.191505 
L 491.967658 348.242819 
L 493.749991 397.895951 
L 494.64155 427.804749 
L 494.938618 435.131963 
L 495.235723 437.488076 
L 495.532577 438.138076 
L 495.829809 438.169254 
L 496.126977 434.168805 
L 497.018138 408.066267 
L 497.612188 388.02361 
L 499.394887 348.816028 
L 499.989034 338.026287 
L 500.58317 329.489003 
L 501.177288 322.336189 
L 502.662634 300.417405 
L 503.256678 289.420804 
L 503.850958 278.038804 
L 504.742163 253.92048 
L 505.930414 216.908631 
L 506.227745 209.638289 
L 506.524791 206.313748 
L 506.821744 206.113637 
L 507.119065 208.38748 
L 507.416185 212.640177 
L 508.010201 226.662867 
L 509.198534 258.312643 
L 509.792902 268.917581 
L 510.089702 272.92046 
L 510.387072 275.321819 
L 510.98101 277.916274 
L 511.278262 277.558395 
L 511.872428 275.352441 
L 512.16913 273.112485 
L 512.763356 265.900244 
L 513.357418 254.038807 
L 514.843235 212.920809 
L 515.437202 202.674847 
L 515.734421 199.463454 
L 516.031733 200.096626 
L 516.328461 205.152928 
L 517.220036 228.182782 
L 518.110869 252.617445 
L 518.408233 257.746486 
L 519.002268 262.424621 
L 519.299519 263.164694 
L 519.596476 263.097584 
L 519.893551 262.053257 
L 520.19072 258.686151 
L 520.785049 247.669334 
L 521.676014 223.688114 
L 522.567154 200.489612 
L 522.864454 197.547267 
L 523.161463 196.62813 
L 523.458313 198.242188 
L 523.755614 203.407106 
L 524.349878 220.843362 
L 524.944087 239.058243 
L 525.241238 244.656709 
L 525.538423 247.489164 
L 525.83505 247.88081 
L 526.132632 246.830025 
L 526.429171 244.385568 
L 526.726319 240.811181 
L 527.023654 235.230089 
L 527.617864 216.890705 
L 528.211691 198.580576 
L 528.509132 192.628382 
L 528.805977 191.739733 
L 529.103472 195.647582 
L 529.994578 213.967714 
L 530.885881 234.500229 
L 531.182693 237.921872 
L 531.479681 238.884523 
L 531.777226 237.468922 
L 532.074006 232.961836 
L 532.965325 209.865036 
L 533.559495 192.456994 
L 533.856423 187.685901 
L 534.153604 186.294959 
L 534.451 187.357543 
L 534.748024 191.208018 
L 535.342175 206.478332 
L 535.93626 223.631794 
L 536.233146 228.10188 
L 536.530577 229.201796 
L 536.827453 227.151631 
L 537.124686 222.429818 
L 538.906937 183.344361 
L 539.204317 182.657873 
L 539.501277 185.303011 
L 539.798439 191.608594 
L 540.689732 216.867648 
L 540.986832 220.408712 
L 541.580831 222.244407 
L 541.878104 221.146822 
L 542.17475 217.203303 
L 542.769253 200.845201 
L 543.363137 183.569167 
L 543.660643 179.604453 
L 543.957695 177.916879 
L 544.254408 180.124263 
L 544.551741 186.083429 
L 545.44258 210.608007 
L 546.036754 217.812451 
L 546.333831 218.782629 
L 546.630967 217.058307 
L 546.928094 212.7248 
L 547.52255 196.284121 
L 548.116525 180.639633 
L 548.413619 176.859543 
L 548.710648 175.682289 
L 549.007824 178.457867 
L 550.493275 211.721729 
L 550.79024 212.433635 
L 551.087206 210.042335 
L 551.384395 205.178695 
L 552.572702 173.789784 
L 552.869953 172.451201 
L 553.166842 174.784809 
L 553.464126 179.380072 
L 554.35568 202.774274 
L 554.652314 206.290398 
L 554.949291 205.943437 
L 555.246901 202.59958 
L 555.84057 188.324838 
L 556.435014 172.021617 
L 556.732173 168.901394 
L 557.029141 171.225708 
L 557.326517 176.308169 
L 558.21744 198.124671 
L 558.514703 201.418434 
L 558.811727 201.266963 
L 559.108777 197.220244 
L 560.297019 167.479989 
L 560.594158 166.610374 
L 560.891032 171.126317 
L 561.782588 192.764535 
L 562.079363 196.442152 
L 562.376838 196.451448 
L 562.673563 192.621944 
L 563.862004 163.983713 
L 564.159291 163.40003 
L 564.456108 168.404252 
L 565.347397 189.063955 
L 565.644623 191.273325 
L 565.941999 189.649966 
L 566.238684 184.533374 
L 567.130298 163.113055 
L 567.426997 159.142939 
L 567.724374 160.248457 
L 568.021192 165.665687 
L 568.615452 180.113967 
L 568.91271 184.66679 
L 569.209366 185.103059 
L 569.506605 181.438473 
L 570.69501 156.282008 
L 570.991936 155.319973 
L 571.289345 158.690592 
L 572.180751 178.142285 
L 572.477482 179.232601 
L 572.77477 176.902195 
L 573.071775 172.420535 
L 573.963203 152.663534 
L 574.260082 151.448695 
L 574.556918 153.713496 
L 575.448141 172.165218 
L 575.745815 173.602672 
L 576.0428 172.342167 
L 576.339943 167.17328 
L 576.934019 153.322073 
L 577.231042 148.386709 
L 577.527794 148.023566 
L 577.825185 152.489342 
L 578.419294 164.839614 
L 578.716514 168.581157 
L 579.013298 168.933632 
L 579.310742 165.868466 
L 580.201812 146.252688 
L 580.499037 144.814865 
L 580.796032 147.427901 
L 581.092758 152.50095 
L 581.687148 164.143172 
L 581.984077 165.697332 
L 582.281353 164.212853 
L 582.578204 158.619808 
L 583.172685 144.953067 
L 583.469938 142.330362 
L 583.766782 144.410366 
L 584.657927 161.229503 
L 584.955377 162.781172 
L 585.252201 160.197334 
L 586.143594 141.741284 
L 586.440364 140.15612 
L 586.737517 143.359634 
L 587.628935 159.184391 
L 587.926232 158.395369 
L 588.223313 154.520577 
L 588.817297 141.318814 
L 589.11453 137.844832 
L 589.41132 138.418533 
L 589.708723 143.043309 
L 590.302924 154.066927 
L 590.599766 155.53684 
L 590.896882 153.6418 
L 591.788285 136.353851 
L 592.085123 135.133998 
L 592.38226 138.827315 
L 592.97662 149.769501 
L 593.273338 152.832143 
L 593.570601 151.561309 
L 594.461796 134.368826 
L 594.759157 133.139055 
L 595.056186 136.029752 
L 595.947477 149.773637 
L 596.244394 148.655842 
L 597.432534 130.965917 
L 597.729726 133.891786 
L 598.323756 144.766021 
L 598.620878 146.962375 
L 598.918221 145.440972 
L 599.809375 129.716385 
L 600.106644 129.080542 
L 600.403308 132.894559 
L 600.99753 143.041272 
L 601.294887 144.667853 
L 601.591678 141.943649 
L 602.483268 127.287722 
L 602.780479 128.281702 
L 603.671695 141.703217 
L 603.968323 141.67106 
L 604.265442 137.677201 
L 604.859956 127.013347 
L 605.157065 125.279185 
L 605.453707 128.138922 
L 606.048121 138.001576 
L 606.345302 139.863383 
L 606.642508 137.641308 
L 607.533623 123.766706 
L 607.830756 124.789262 
L 608.721679 137.439452 
L 609.019114 136.895246 
L 609.316268 132.818569 
L 609.910027 122.972234 
L 610.207139 122.390319 
L 610.504319 125.738842 
L 611.098747 134.798824 
L 611.3959 135.412687 
L 611.692564 132.19987 
L 612.286989 122.159442 
L 612.584053 120.618069 
L 612.881196 123.202835 
L 613.475503 132.347109 
L 613.772101 133.607213 
L 614.06942 131.263229 
L 614.663702 121.289106 
L 614.960841 119.286682 
L 615.257961 121.068059 
L 615.852271 130.058457 
L 616.148838 131.893983 
L 616.446147 129.902577 
L 617.040398 120.380498 
L 617.337543 117.894392 
L 617.63464 119.559298 
L 618.228913 128.244286 
L 618.526033 130.13183 
L 618.822719 128.356901 
L 619.41693 119.031775 
L 619.714122 116.770832 
L 620.011172 118.185419 
L 620.605431 126.688972 
L 620.902553 128.502149 
L 621.199219 126.757564 
L 621.793416 117.736261 
L 622.09056 115.545495 
L 622.387635 117.208956 
L 622.981894 125.43407 
L 623.27898 126.966959 
L 623.57614 124.921379 
L 624.170387 116.138454 
L 624.467519 114.513748 
L 624.764549 116.443686 
L 625.35881 124.415476 
L 625.655923 125.416413 
L 625.953056 123.072719 
L 626.54727 114.665219 
L 626.84437 113.541268 
L 627.141416 116.011309 
L 627.735071 123.489721 
L 628.032166 123.87087 
L 628.329256 120.980671 
L 628.923447 113.108502 
L 629.220569 112.901833 
L 629.517613 115.773648 
L 630.111801 122.578565 
L 630.408959 122.179679 
L 631.300156 111.861874 
L 631.597254 112.447481 
L 632.488489 121.618064 
L 632.785592 120.252073 
L 633.379791 112.512185 
L 633.676828 110.833625 
L 633.973883 112.438332 
L 634.568063 119.545911 
L 634.865139 120.352122 
L 635.162227 118.170281 
L 635.756374 110.813988 
L 636.054035 110.230225 
L 636.351078 112.761597 
L 636.94524 119.13009 
L 637.242324 118.81324 
L 638.133526 109.438512 
L 638.43057 110.171016 
L 639.024693 116.861922 
L 639.321766 118.348151 
L 639.618863 116.904257 
L 640.212974 109.833107 
L 640.510024 108.670317 
L 640.807073 110.544795 
L 641.401219 116.880831 
L 641.698266 117.133212 
L 641.995329 114.600773 
L 642.589456 108.277368 
L 642.886477 108.542114 
L 643.777663 116.453191 
L 644.075325 115.377853 
L 644.669432 108.729315 
L 644.966483 107.427313 
L 645.263502 109.002164 
L 645.85761 115.051607 
L 646.154674 115.435512 
L 646.451731 113.144817 
L 647.045824 107.145987 
L 647.342835 107.332356 
L 648.233987 114.789517 
L 648.531052 113.76415 
L 649.125723 107.513589 
L 649.42276 106.367324 
L 649.719775 107.932752 
L 650.313858 113.592127 
L 650.610915 113.810828 
L 650.907971 111.54268 
L 651.502046 106.045533 
L 651.799053 106.442518 
L 652.690774 113.327426 
L 652.987831 112.099789 
L 653.581885 106.25505 
L 653.878904 105.485765 
L 654.175913 107.250133 
L 654.769985 112.397627 
L 655.067035 112.242425 
L 655.958718 105.049963 
L 656.255734 105.848974 
L 656.849762 111.156879 
L 657.146823 111.969491 
L 657.443872 110.402071 
L 658.037911 105.057568 
L 658.334913 104.8386 
L 659.226581 111.343446 
L 659.523614 110.659344 
L 660.117672 105.344145 
L 660.41467 104.25944 
L 660.711683 105.548054 
L 661.305706 110.433248 
L 661.602762 110.615522 
L 661.900392 108.648612 
L 662.494411 104.037692 
L 662.791415 104.489768 
L 663.385433 109.325075 
L 663.682472 110.285193 
L 663.979491 109.01624 
L 664.57412 104.084219 
L 664.871116 103.763373 
L 665.168118 105.539292 
L 665.465134 108.133198 
L 665.762153 109.700478 
L 666.059185 109.172588 
L 666.653212 104.350661 
L 666.950807 103.316105 
L 667.247805 104.464876 
L 667.841829 108.930917 
L 668.138855 109.101915 
L 668.435877 107.29732 
L 668.732885 104.722962 
L 669.029885 103.130674 
L 669.327481 103.615854 
L 669.921481 108.038041 
L 670.218504 108.826073 
L 670.515526 107.591787 
L 671.109535 103.1567 
L 671.407127 102.985141 
L 672.298141 108.379997 
L 672.595155 107.728974 
L 673.189171 103.319988 
L 673.486161 102.583548 
L 673.783749 103.812964 
L 674.37776 107.790432 
L 674.674778 107.717077 
L 675.565779 102.364251 
L 675.863363 103.069297 
L 676.45737 107.104315 
L 676.754378 107.552403 
L 677.051388 106.178653 
L 677.645381 102.308773 
L 677.942967 102.490526 
L 678.833965 107.25966 
L 679.130976 106.347574 
L 679.724966 102.379944 
L 680.02255 102.066021 
L 680.319534 103.492023 
L 680.61653 105.586208 
L 680.913536 106.857949 
L 681.210548 106.409227 
L 681.80454 102.534402 
L 682.102121 101.796383 
L 682.399107 102.812313 
L 682.993102 106.370711 
L 683.290116 106.367531 
L 684.181686 101.646743 
L 684.478671 102.253623 
L 685.072661 105.825608 
L 685.369659 106.22296 
L 685.666666 105.005331 
L 686.26124 101.611562 
L 686.558224 101.807449 
L 687.152202 105.242623 
L 687.449209 105.995813 
L 687.746208 105.134246 
L 688.340786 101.658195 
L 688.637768 101.473841 
L 688.93475 102.79768 
L 689.231744 104.646629 
L 689.528742 105.691223 
L 689.826341 105.193117 
L 690.420322 101.770565 
L 690.717304 101.244254 
L 691.014284 102.258315 
L 691.608869 105.332043 
L 691.905869 105.180034 
L 692.796829 101.103635 
L 693.093808 101.801285 
L 693.688385 104.927408 
L 693.985384 105.099948 
L 694.282382 103.879011 
L 694.579368 102.111 
L 694.876347 101.046156 
L 695.173325 101.422115 
L 695.767898 104.49393 
L 696.064893 104.958688 
L 696.361887 104.008704 
L 696.955857 101.049859 
L 697.25343 101.126658 
L 698.144393 104.761945 
L 698.441388 104.094121 
L 699.03595 101.109068 
L 699.332928 100.900452 
L 699.629903 102.003065 
L 699.926889 103.592873 
L 700.223886 104.522051 
L 700.520879 104.126611 
L 701.115441 101.205248 
L 701.41242 100.745118 
L 701.709396 101.608531 
L 702.303366 104.243504 
L 702.600958 104.11412 
L 703.491902 100.649471 
L 703.788878 101.269614 
L 704.383442 103.941834 
L 704.680433 104.054582 
L 704.977422 102.983035 
L 705.274402 101.476696 
L 705.571378 100.607897 
L 705.868946 100.988237 
L 706.462913 103.617946 
L 706.759906 103.957341 
L 707.056896 103.090067 
L 707.651445 100.611053 
L 707.948419 100.757949 
L 708.542383 103.285512 
L 708.839372 103.820827 
L 709.13636 103.167198 
L 709.730912 100.651006 
L 710.027885 100.580088 
L 710.918832 103.65453 
L 711.216419 103.209019 
L 711.810375 100.722413 
L 712.107347 100.448718 
L 712.404323 101.29002 
L 712.998885 103.46183 
L 713.295873 103.22065 
L 713.889833 100.813867 
L 714.186804 100.362786 
L 714.484375 101.021872 
L 715.078337 103.248279 
L 715.375324 103.202014 
L 716.266853 100.313942 
L 716.563825 100.789817 
L 717.157788 103.019483 
L 717.454772 103.152601 
L 717.752354 102.287147 
L 718.049329 101.03801 
L 718.346304 100.301088 
L 718.643273 100.59455 
L 719.237231 102.779436 
L 719.534814 103.077859 
L 719.831795 102.368461 
L 720.425745 100.31581 
L 720.722717 100.43643 
L 721.317268 102.536492 
L 721.614253 102.977698 
L 721.911236 102.431095 
L 722.505186 100.356684 
L 722.802753 100.313239 
L 723.69369 102.858821 
L 723.99067 102.468844 
L 724.585218 100.41477 
L 724.882189 100.221809 
L 725.179159 100.945039 
L 725.773119 102.720053 
L 726.070698 102.485678 
L 726.664651 100.490379 
L 726.96162 100.159971 
L 727.258591 100.745674 
L 727.853145 102.569516 
L 728.150127 102.480652 
L 729.041049 100.125406 
L 729.338616 100.573595 
L 729.932571 102.405443 
L 730.229554 102.457035 
L 731.121072 100.114932 
L 731.418042 100.425495 
L 732.011994 102.234642 
L 732.308975 102.41307 
L 732.606549 101.769393 
L 733.200495 100.125244 
L 733.497464 100.302623 
L 734.092009 102.058816 
L 734.388992 102.352427 
L 734.685971 101.829274 
L 735.279913 100.154352 
L 735.576884 100.203938 
L 736.468408 102.276159 
L 736.765386 101.87383 
L 737.359929 100.196953 
L 737.656897 100.129314 
L 738.547824 102.186501 
L 738.844802 101.903394 
L 739.439344 100.253565 
L 739.736313 100.075008 
L 740.033281 100.639366 
L 740.627831 102.085671 
L 740.924811 101.915936 
L 741.518757 100.318812 
L 741.815726 100.041222 
L 742.113291 100.502255 
L 742.707243 101.974727 
L 743.004222 101.915736 
L 743.895734 100.025112 
L 744.192704 100.381424 
L 744.786654 101.856598 
L 745.083632 101.900405 
L 745.975145 100.025735 
L 746.272113 100.278205 
L 746.866659 101.733249 
L 747.163636 101.872318 
L 747.163636 101.872318 
" clip-path="url(#pc570f72e8f)" style="fill: none; stroke: #0000ff; stroke-opacity: 0.3; stroke-width: 1.5; stroke-linecap: square"/>
   </g>
   <g id="line2d_18">
    <path d="M 153.290605 567 
L 153.290605 77.76 
" clip-path="url(#pc570f72e8f)" style="fill: none; stroke-dasharray: 5.55,2.4; stroke-dashoffset: 0; stroke: #ff0000; stroke-width: 1.5"/>
   </g>
   <g id="line2d_19">
    <path d="M 450.375429 567 
L 450.375429 77.76 
" clip-path="url(#pc570f72e8f)" style="fill: none; stroke-dasharray: 5.55,2.4; stroke-dashoffset: 0; stroke: #000000; stroke-width: 1.5"/>
   </g>
   <g id="patch_3">
    <path d="M 108 567 
L 108 77.76 
" style="fill: none; stroke: #000000; stroke-width: 0.8; stroke-linejoin: miter; stroke-linecap: square"/>
   </g>
   <g id="patch_4">
    <path d="M 777.6 567 
L 777.6 77.76 
" style="fill: none; stroke: #000000; stroke-width: 0.8; stroke-linejoin: miter; stroke-linecap: square"/>
   </g>
   <g id="patch_5">
    <path d="M 108 567 
L 777.6 567 
" style="fill: none; stroke: #000000; stroke-width: 0.8; stroke-linejoin: miter; stroke-linecap: square"/>
   </g>
   <g id="patch_6">
    <path d="M 108 77.76 
L 777.6 77.76 
" style="fill: none; stroke: #000000; stroke-width: 0.8; stroke-linejoin: miter; stroke-linecap: square"/>
   </g>
   <g id="text_17">
    <!-- Pulse Start -->
    <g style="fill: #ff0000" transform="translate(153.290605 96.254744)scale(0.18 -0.18)">
     <defs>
      <path id="DejaVuSans-50" d="M 1259 4147 
L 1259 2394 
L 2053 2394 
Q 2494 2394 2734 2622 
Q 2975 2850 2975 3272 
Q 2975 3691 2734 3919 
Q 2494 4147 2053 4147 
L 1259 4147 
z
M 628 4666 
L 2053 4666 
Q 2838 4666 3239 4311 
Q 3641 3956 3641 3272 
Q 3641 2581 3239 2228 
Q 2838 1875 2053 1875 
L 1259 1875 
L 1259 0 
L 628 0 
L 628 4666 
z
" transform="scale(0.015625)"/>
      <path id="DejaVuSans-75" d="M 544 1381 
L 544 3500 
L 1119 3500 
L 1119 1403 
Q 1119 906 1312 657 
Q 1506 409 1894 409 
Q 2359 409 2629 706 
Q 2900 1003 2900 1516 
L 2900 3500 
L 3475 3500 
L 3475 0 
L 2900 0 
L 2900 538 
Q 2691 219 2414 64 
Q 2138 -91 1772 -91 
Q 1169 -91 856 284 
Q 544 659 544 1381 
z
M 1991 3584 
L 1991 3584 
z
" transform="scale(0.015625)"/>
      <path id="DejaVuSans-6c" d="M 603 4863 
L 1178 4863 
L 1178 0 
L 603 0 
L 603 4863 
z
" transform="scale(0.015625)"/>
      <path id="DejaVuSans-53" d="M 3425 4513 
L 3425 3897 
Q 3066 4069 2747 4153 
Q 2428 4238 2131 4238 
Q 1616 4238 1336 4038 
Q 1056 3838 1056 3469 
Q 1056 3159 1242 3001 
Q 1428 2844 1947 2747 
L 2328 2669 
Q 3034 2534 3370 2195 
Q 3706 1856 3706 1288 
Q 3706 609 3251 259 
Q 2797 -91 1919 -91 
Q 1588 -91 1214 -16 
Q 841 59 441 206 
L 441 856 
Q 825 641 1194 531 
Q 1563 422 1919 422 
Q 2459 422 2753 634 
Q 3047 847 3047 1241 
Q 3047 1584 2836 1778 
Q 2625 1972 2144 2069 
L 1759 2144 
Q 1053 2284 737 2584 
Q 422 2884 422 3419 
Q 422 4038 858 4394 
Q 1294 4750 2059 4750 
Q 2388 4750 2728 4690 
Q 3069 4631 3425 4513 
z
" transform="scale(0.015625)"/>
      <path id="DejaVuSans-72" d="M 2631 2963 
Q 2534 3019 2420 3045 
Q 2306 3072 2169 3072 
Q 1681 3072 1420 2755 
Q 1159 2438 1159 1844 
L 1159 0 
L 581 0 
L 581 3500 
L 1159 3500 
L 1159 2956 
Q 1341 3275 1631 3429 
Q 1922 3584 2338 3584 
Q 2397 3584 2469 3576 
Q 2541 3569 2628 3553 
L 2631 2963 
z
" transform="scale(0.015625)"/>
     </defs>
     <use xlink:href="#DejaVuSans-50"/>
     <use xlink:href="#DejaVuSans-75" x="58.552734"/>
     <use xlink:href="#DejaVuSans-6c" x="121.931641"/>
     <use xlink:href="#DejaVuSans-73" x="149.714844"/>
     <use xlink:href="#DejaVuSans-65" x="201.814453"/>
     <use xlink:href="#DejaVuSans-20" x="263.337891"/>
     <use xlink:href="#DejaVuSans-53" x="295.125"/>
     <use xlink:href="#DejaVuSans-74" x="358.601562"/>
     <use xlink:href="#DejaVuSans-61" x="397.810547"/>
     <use xlink:href="#DejaVuSans-72" x="459.089844"/>
     <use xlink:href="#DejaVuSans-74" x="500.203125"/>
    </g>
   </g>
   <g id="text_18">
    <!-- Pulse End -->
    <g transform="translate(450.375429 96.254744)scale(0.18 -0.18)">
     <defs>
      <path id="DejaVuSans-45" d="M 628 4666 
L 3578 4666 
L 3578 4134 
L 1259 4134 
L 1259 2753 
L 3481 2753 
L 3481 2222 
L 1259 2222 
L 1259 531 
L 3634 531 
L 3634 0 
L 628 0 
L 628 4666 
z
" transform="scale(0.015625)"/>
      <path id="DejaVuSans-64" d="M 2906 2969 
L 2906 4863 
L 3481 4863 
L 3481 0 
L 2906 0 
L 2906 525 
Q 2725 213 2448 61 
Q 2172 -91 1784 -91 
Q 1150 -91 751 415 
Q 353 922 353 1747 
Q 353 2572 751 3078 
Q 1150 3584 1784 3584 
Q 2172 3584 2448 3432 
Q 2725 3281 2906 2969 
z
M 947 1747 
Q 947 1113 1208 752 
Q 1469 391 1925 391 
Q 2381 391 2643 752 
Q 2906 1113 2906 1747 
Q 2906 2381 2643 2742 
Q 2381 3103 1925 3103 
Q 1469 3103 1208 2742 
Q 947 2381 947 1747 
z
" transform="scale(0.015625)"/>
     </defs>
     <use xlink:href="#DejaVuSans-50"/>
     <use xlink:href="#DejaVuSans-75" x="58.552734"/>
     <use xlink:href="#DejaVuSans-6c" x="121.931641"/>
     <use xlink:href="#DejaVuSans-73" x="149.714844"/>
     <use xlink:href="#DejaVuSans-65" x="201.814453"/>
     <use xlink:href="#DejaVuSans-20" x="263.337891"/>
     <use xlink:href="#DejaVuSans-45" x="295.125"/>
     <use xlink:href="#DejaVuSans-6e" x="358.308594"/>
     <use xlink:href="#DejaVuSans-64" x="421.6875"/>
    </g>
   </g>
   <g id="legend_1">
    <g id="patch_7">
     <path d="M 610.309687 558 
L 765 558 
Q 768.6 558 768.6 554.4 
L 768.6 424.096875 
Q 768.6 420.496875 765 420.496875 
L 610.309687 420.496875 
Q 606.709687 420.496875 606.709687 424.096875 
L 606.709687 554.4 
Q 606.709687 558 610.309687 558 
z
" style="fill: #ffffff; opacity: 0.8; stroke: #cccccc; stroke-linejoin: miter"/>
    </g>
    <g id="line2d_20">
     <path d="M 613.909688 435.074063 
L 631.909688 435.074063 
L 649.909688 435.074063 
" style="fill: none; stroke: #ff0000; stroke-opacity: 0.3; stroke-width: 1.5; stroke-linecap: square"/>
    </g>
    <g id="text_19">
     <!-- mx -->
     <g transform="translate(664.309687 441.374063)scale(0.18 -0.18)">
      <defs>
       <path id="DejaVuSans-78" d="M 3513 3500 
L 2247 1797 
L 3578 0 
L 2900 0 
L 1881 1375 
L 863 0 
L 184 0 
L 1544 1831 
L 300 3500 
L 978 3500 
L 1906 2253 
L 2834 3500 
L 3513 3500 
z
" transform="scale(0.015625)"/>
      </defs>
      <use xlink:href="#DejaVuSans-6d"/>
      <use xlink:href="#DejaVuSans-78" x="97.412109"/>
     </g>
    </g>
    <g id="line2d_21">
     <path d="M 613.909688 461.494687 
L 631.909688 461.494687 
L 649.909688 461.494687 
" style="fill: none; stroke: #008000; stroke-opacity: 0.3; stroke-width: 1.5; stroke-linecap: square"/>
    </g>
    <g id="text_20">
     <!-- my -->
     <g transform="translate(664.309687 467.794688)scale(0.18 -0.18)">
      <defs>
       <path id="DejaVuSans-79" d="M 2059 -325 
Q 1816 -950 1584 -1140 
Q 1353 -1331 966 -1331 
L 506 -1331 
L 506 -850 
L 844 -850 
Q 1081 -850 1212 -737 
Q 1344 -625 1503 -206 
L 1606 56 
L 191 3500 
L 800 3500 
L 1894 763 
L 2988 3500 
L 3597 3500 
L 2059 -325 
z
" transform="scale(0.015625)"/>
      </defs>
      <use xlink:href="#DejaVuSans-6d"/>
      <use xlink:href="#DejaVuSans-79" x="97.412109"/>
     </g>
    </g>
    <g id="line2d_22">
     <path d="M 613.909688 487.915313 
L 631.909688 487.915313 
L 649.909688 487.915313 
" style="fill: none; stroke: #0000ff; stroke-opacity: 0.3; stroke-width: 1.5; stroke-linecap: square"/>
    </g>
    <g id="text_21">
     <!-- mz -->
     <g transform="translate(664.309687 494.215313)scale(0.18 -0.18)">
      <use xlink:href="#DejaVuSans-6d"/>
      <use xlink:href="#DejaVuSans-7a" x="97.412109"/>
     </g>
    </g>
    <g id="line2d_23">
     <path d="M 613.909688 514.335938 
L 631.909688 514.335938 
L 649.909688 514.335938 
" style="fill: none; stroke-dasharray: 5.55,2.4; stroke-dashoffset: 0; stroke: #ff0000; stroke-width: 1.5"/>
    </g>
    <g id="text_22">
     <!-- Pulse Start -->
     <g transform="translate(664.309687 520.635938)scale(0.18 -0.18)">
      <use xlink:href="#DejaVuSans-50"/>
      <use xlink:href="#DejaVuSans-75" x="58.552734"/>
      <use xlink:href="#DejaVuSans-6c" x="121.931641"/>
      <use xlink:href="#DejaVuSans-73" x="149.714844"/>
      <use xlink:href="#DejaVuSans-65" x="201.814453"/>
      <use xlink:href="#DejaVuSans-20" x="263.337891"/>
      <use xlink:href="#DejaVuSans-53" x="295.125"/>
      <use xlink:href="#DejaVuSans-74" x="358.601562"/>
      <use xlink:href="#DejaVuSans-61" x="397.810547"/>
      <use xlink:href="#DejaVuSans-72" x="459.089844"/>
      <use xlink:href="#DejaVuSans-74" x="500.203125"/>
     </g>
    </g>
    <g id="line2d_24">
     <path d="M 613.909688 540.756563 
L 631.909688 540.756563 
L 649.909688 540.756563 
" style="fill: none; stroke-dasharray: 5.55,2.4; stroke-dashoffset: 0; stroke: #000000; stroke-width: 1.5"/>
    </g>
    <g id="text_23">
     <!-- Pulse End -->
     <g transform="translate(664.309687 547.056563)scale(0.18 -0.18)">
      <use xlink:href="#DejaVuSans-50"/>
      <use xlink:href="#DejaVuSans-75" x="58.552734"/>
      <use xlink:href="#DejaVuSans-6c" x="121.931641"/>
      <use xlink:href="#DejaVuSans-73" x="149.714844"/>
      <use xlink:href="#DejaVuSans-65" x="201.814453"/>
      <use xlink:href="#DejaVuSans-20" x="263.337891"/>
      <use xlink:href="#DejaVuSans-45" x="295.125"/>
      <use xlink:href="#DejaVuSans-6e" x="358.308594"/>
      <use xlink:href="#DejaVuSans-64" x="421.6875"/>
     </g>
    </g>
   </g>
  </g>
 </g>
 <defs>
  <clipPath id="pc570f72e8f">
   <rect x="108" y="77.76" width="669.6" height="489.24"/>
  </clipPath>
 </defs>
</svg>
