<?xml version="1.0" encoding="utf-8" standalone="no"?>
<!DOCTYPE svg PUBLIC "-//W3C//DTD SVG 1.1//EN"
  "http://www.w3.org/Graphics/SVG/1.1/DTD/svg11.dtd">
<svg xmlns:xlink="http://www.w3.org/1999/xlink" width="864pt" height="648pt" viewBox="0 0 864 648" xmlns="http://www.w3.org/2000/svg" version="1.1">
 <metadata>
  <rdf:RDF xmlns:dc="http://purl.org/dc/elements/1.1/" xmlns:cc="http://creativecommons.org/ns#" xmlns:rdf="http://www.w3.org/1999/02/22-rdf-syntax-ns#">
   <cc:Work>
    <dc:type rdf:resource="http://purl.org/dc/dcmitype/StillImage"/>
    <dc:date>2023-12-06T10:34:44.692685</dc:date>
    <dc:format>image/svg+xml</dc:format>
    <dc:creator>
     <cc:Agent>
      <dc:title>Matplotlib v3.5.2, https://matplotlib.org/</dc:title>
     </cc:Agent>
    </dc:creator>
   </cc:Work>
  </rdf:RDF>
 </metadata>
 <defs>
  <style type="text/css">*{stroke-linejoin: round; stroke-linecap: butt}</style>
 </defs>
 <g id="figure_1">
  <g id="patch_1">
   <path d="M 0 648 
L 864 648 
L 864 0 
L 0 0 
L 0 648 
z
" style="fill: none"/>
  </g>
  <g id="axes_1">
   <g id="patch_2">
    <path d="M 108 567 
L 777.6 567 
L 777.6 77.76 
L 108 77.76 
z
" style="fill: #ffffff"/>
   </g>
   <g id="matplotlib.axis_1">
    <g id="xtick_1">
     <g id="line2d_1">
      <defs>
       <path id="m9b6e3babe2" d="M 0 0 
L 0 3.5 
" style="stroke: #000000; stroke-width: 0.8"/>
      </defs>
      <g>
       <use xlink:href="#m9b6e3babe2" x="138.436364" y="567" style="stroke: #000000; stroke-width: 0.8"/>
      </g>
     </g>
     <g id="text_1">
      <!-- 0 -->
      <g transform="translate(132.710114 587.677187)scale(0.18 -0.18)">
       <defs>
        <path id="DejaVuSans-30" d="M 2034 4250 
Q 1547 4250 1301 3770 
Q 1056 3291 1056 2328 
Q 1056 1369 1301 889 
Q 1547 409 2034 409 
Q 2525 409 2770 889 
Q 3016 1369 3016 2328 
Q 3016 3291 2770 3770 
Q 2525 4250 2034 4250 
z
M 2034 4750 
Q 2819 4750 3233 4129 
Q 3647 3509 3647 2328 
Q 3647 1150 3233 529 
Q 2819 -91 2034 -91 
Q 1250 -91 836 529 
Q 422 1150 422 2328 
Q 422 3509 836 4129 
Q 1250 4750 2034 4750 
z
" transform="scale(0.015625)"/>
       </defs>
       <use xlink:href="#DejaVuSans-30"/>
      </g>
     </g>
    </g>
    <g id="xtick_2">
     <g id="line2d_2">
      <g>
       <use xlink:href="#m9b6e3babe2" x="254.384416" y="567" style="stroke: #000000; stroke-width: 0.8"/>
      </g>
     </g>
     <g id="text_2">
      <!-- 2 -->
      <g transform="translate(248.658166 587.677187)scale(0.18 -0.18)">
       <defs>
        <path id="DejaVuSans-32" d="M 1228 531 
L 3431 531 
L 3431 0 
L 469 0 
L 469 531 
Q 828 903 1448 1529 
Q 2069 2156 2228 2338 
Q 2531 2678 2651 2914 
Q 2772 3150 2772 3378 
Q 2772 3750 2511 3984 
Q 2250 4219 1831 4219 
Q 1534 4219 1204 4116 
Q 875 4013 500 3803 
L 500 4441 
Q 881 4594 1212 4672 
Q 1544 4750 1819 4750 
Q 2544 4750 2975 4387 
Q 3406 4025 3406 3419 
Q 3406 3131 3298 2873 
Q 3191 2616 2906 2266 
Q 2828 2175 2409 1742 
Q 1991 1309 1228 531 
z
" transform="scale(0.015625)"/>
       </defs>
       <use xlink:href="#DejaVuSans-32"/>
      </g>
     </g>
    </g>
    <g id="xtick_3">
     <g id="line2d_3">
      <g>
       <use xlink:href="#m9b6e3babe2" x="370.332468" y="567" style="stroke: #000000; stroke-width: 0.8"/>
      </g>
     </g>
     <g id="text_3">
      <!-- 4 -->
      <g transform="translate(364.606218 587.677187)scale(0.18 -0.18)">
       <defs>
        <path id="DejaVuSans-34" d="M 2419 4116 
L 825 1625 
L 2419 1625 
L 2419 4116 
z
M 2253 4666 
L 3047 4666 
L 3047 1625 
L 3713 1625 
L 3713 1100 
L 3047 1100 
L 3047 0 
L 2419 0 
L 2419 1100 
L 313 1100 
L 313 1709 
L 2253 4666 
z
" transform="scale(0.015625)"/>
       </defs>
       <use xlink:href="#DejaVuSans-34"/>
      </g>
     </g>
    </g>
    <g id="xtick_4">
     <g id="line2d_4">
      <g>
       <use xlink:href="#m9b6e3babe2" x="486.280519" y="567" style="stroke: #000000; stroke-width: 0.8"/>
      </g>
     </g>
     <g id="text_4">
      <!-- 6 -->
      <g transform="translate(480.554269 587.677187)scale(0.18 -0.18)">
       <defs>
        <path id="DejaVuSans-36" d="M 2113 2584 
Q 1688 2584 1439 2293 
Q 1191 2003 1191 1497 
Q 1191 994 1439 701 
Q 1688 409 2113 409 
Q 2538 409 2786 701 
Q 3034 994 3034 1497 
Q 3034 2003 2786 2293 
Q 2538 2584 2113 2584 
z
M 3366 4563 
L 3366 3988 
Q 3128 4100 2886 4159 
Q 2644 4219 2406 4219 
Q 1781 4219 1451 3797 
Q 1122 3375 1075 2522 
Q 1259 2794 1537 2939 
Q 1816 3084 2150 3084 
Q 2853 3084 3261 2657 
Q 3669 2231 3669 1497 
Q 3669 778 3244 343 
Q 2819 -91 2113 -91 
Q 1303 -91 875 529 
Q 447 1150 447 2328 
Q 447 3434 972 4092 
Q 1497 4750 2381 4750 
Q 2619 4750 2861 4703 
Q 3103 4656 3366 4563 
z
" transform="scale(0.015625)"/>
       </defs>
       <use xlink:href="#DejaVuSans-36"/>
      </g>
     </g>
    </g>
    <g id="xtick_5">
     <g id="line2d_5">
      <g>
       <use xlink:href="#m9b6e3babe2" x="602.228571" y="567" style="stroke: #000000; stroke-width: 0.8"/>
      </g>
     </g>
     <g id="text_5">
      <!-- 8 -->
      <g transform="translate(596.502321 587.677187)scale(0.18 -0.18)">
       <defs>
        <path id="DejaVuSans-38" d="M 2034 2216 
Q 1584 2216 1326 1975 
Q 1069 1734 1069 1313 
Q 1069 891 1326 650 
Q 1584 409 2034 409 
Q 2484 409 2743 651 
Q 3003 894 3003 1313 
Q 3003 1734 2745 1975 
Q 2488 2216 2034 2216 
z
M 1403 2484 
Q 997 2584 770 2862 
Q 544 3141 544 3541 
Q 544 4100 942 4425 
Q 1341 4750 2034 4750 
Q 2731 4750 3128 4425 
Q 3525 4100 3525 3541 
Q 3525 3141 3298 2862 
Q 3072 2584 2669 2484 
Q 3125 2378 3379 2068 
Q 3634 1759 3634 1313 
Q 3634 634 3220 271 
Q 2806 -91 2034 -91 
Q 1263 -91 848 271 
Q 434 634 434 1313 
Q 434 1759 690 2068 
Q 947 2378 1403 2484 
z
M 1172 3481 
Q 1172 3119 1398 2916 
Q 1625 2713 2034 2713 
Q 2441 2713 2670 2916 
Q 2900 3119 2900 3481 
Q 2900 3844 2670 4047 
Q 2441 4250 2034 4250 
Q 1625 4250 1398 4047 
Q 1172 3844 1172 3481 
z
" transform="scale(0.015625)"/>
       </defs>
       <use xlink:href="#DejaVuSans-38"/>
      </g>
     </g>
    </g>
    <g id="xtick_6">
     <g id="line2d_6">
      <g>
       <use xlink:href="#m9b6e3babe2" x="718.176623" y="567" style="stroke: #000000; stroke-width: 0.8"/>
      </g>
     </g>
     <g id="text_6">
      <!-- 10 -->
      <g transform="translate(706.724123 587.677187)scale(0.18 -0.18)">
       <defs>
        <path id="DejaVuSans-31" d="M 794 531 
L 1825 531 
L 1825 4091 
L 703 3866 
L 703 4441 
L 1819 4666 
L 2450 4666 
L 2450 531 
L 3481 531 
L 3481 0 
L 794 0 
L 794 531 
z
" transform="scale(0.015625)"/>
       </defs>
       <use xlink:href="#DejaVuSans-31"/>
       <use xlink:href="#DejaVuSans-30" x="63.623047"/>
      </g>
     </g>
    </g>
    <g id="text_7">
     <!-- Time (ns) -->
     <g transform="translate(400.504219 609.097813)scale(0.18 -0.18)">
      <defs>
       <path id="DejaVuSans-54" d="M -19 4666 
L 3928 4666 
L 3928 4134 
L 2272 4134 
L 2272 0 
L 1638 0 
L 1638 4134 
L -19 4134 
L -19 4666 
z
" transform="scale(0.015625)"/>
       <path id="DejaVuSans-69" d="M 603 3500 
L 1178 3500 
L 1178 0 
L 603 0 
L 603 3500 
z
M 603 4863 
L 1178 4863 
L 1178 4134 
L 603 4134 
L 603 4863 
z
" transform="scale(0.015625)"/>
       <path id="DejaVuSans-6d" d="M 3328 2828 
Q 3544 3216 3844 3400 
Q 4144 3584 4550 3584 
Q 5097 3584 5394 3201 
Q 5691 2819 5691 2113 
L 5691 0 
L 5113 0 
L 5113 2094 
Q 5113 2597 4934 2840 
Q 4756 3084 4391 3084 
Q 3944 3084 3684 2787 
Q 3425 2491 3425 1978 
L 3425 0 
L 2847 0 
L 2847 2094 
Q 2847 2600 2669 2842 
Q 2491 3084 2119 3084 
Q 1678 3084 1418 2786 
Q 1159 2488 1159 1978 
L 1159 0 
L 581 0 
L 581 3500 
L 1159 3500 
L 1159 2956 
Q 1356 3278 1631 3431 
Q 1906 3584 2284 3584 
Q 2666 3584 2933 3390 
Q 3200 3197 3328 2828 
z
" transform="scale(0.015625)"/>
       <path id="DejaVuSans-65" d="M 3597 1894 
L 3597 1613 
L 953 1613 
Q 991 1019 1311 708 
Q 1631 397 2203 397 
Q 2534 397 2845 478 
Q 3156 559 3463 722 
L 3463 178 
Q 3153 47 2828 -22 
Q 2503 -91 2169 -91 
Q 1331 -91 842 396 
Q 353 884 353 1716 
Q 353 2575 817 3079 
Q 1281 3584 2069 3584 
Q 2775 3584 3186 3129 
Q 3597 2675 3597 1894 
z
M 3022 2063 
Q 3016 2534 2758 2815 
Q 2500 3097 2075 3097 
Q 1594 3097 1305 2825 
Q 1016 2553 972 2059 
L 3022 2063 
z
" transform="scale(0.015625)"/>
       <path id="DejaVuSans-20" transform="scale(0.015625)"/>
       <path id="DejaVuSans-28" d="M 1984 4856 
Q 1566 4138 1362 3434 
Q 1159 2731 1159 2009 
Q 1159 1288 1364 580 
Q 1569 -128 1984 -844 
L 1484 -844 
Q 1016 -109 783 600 
Q 550 1309 550 2009 
Q 550 2706 781 3412 
Q 1013 4119 1484 4856 
L 1984 4856 
z
" transform="scale(0.015625)"/>
       <path id="DejaVuSans-6e" d="M 3513 2113 
L 3513 0 
L 2938 0 
L 2938 2094 
Q 2938 2591 2744 2837 
Q 2550 3084 2163 3084 
Q 1697 3084 1428 2787 
Q 1159 2491 1159 1978 
L 1159 0 
L 581 0 
L 581 3500 
L 1159 3500 
L 1159 2956 
Q 1366 3272 1645 3428 
Q 1925 3584 2291 3584 
Q 2894 3584 3203 3211 
Q 3513 2838 3513 2113 
z
" transform="scale(0.015625)"/>
       <path id="DejaVuSans-73" d="M 2834 3397 
L 2834 2853 
Q 2591 2978 2328 3040 
Q 2066 3103 1784 3103 
Q 1356 3103 1142 2972 
Q 928 2841 928 2578 
Q 928 2378 1081 2264 
Q 1234 2150 1697 2047 
L 1894 2003 
Q 2506 1872 2764 1633 
Q 3022 1394 3022 966 
Q 3022 478 2636 193 
Q 2250 -91 1575 -91 
Q 1294 -91 989 -36 
Q 684 19 347 128 
L 347 722 
Q 666 556 975 473 
Q 1284 391 1588 391 
Q 1994 391 2212 530 
Q 2431 669 2431 922 
Q 2431 1156 2273 1281 
Q 2116 1406 1581 1522 
L 1381 1569 
Q 847 1681 609 1914 
Q 372 2147 372 2553 
Q 372 3047 722 3315 
Q 1072 3584 1716 3584 
Q 2034 3584 2315 3537 
Q 2597 3491 2834 3397 
z
" transform="scale(0.015625)"/>
       <path id="DejaVuSans-29" d="M 513 4856 
L 1013 4856 
Q 1481 4119 1714 3412 
Q 1947 2706 1947 2009 
Q 1947 1309 1714 600 
Q 1481 -109 1013 -844 
L 513 -844 
Q 928 -128 1133 580 
Q 1338 1288 1338 2009 
Q 1338 2731 1133 3434 
Q 928 4138 513 4856 
z
" transform="scale(0.015625)"/>
      </defs>
      <use xlink:href="#DejaVuSans-54"/>
      <use xlink:href="#DejaVuSans-69" x="57.958984"/>
      <use xlink:href="#DejaVuSans-6d" x="85.742188"/>
      <use xlink:href="#DejaVuSans-65" x="183.154297"/>
      <use xlink:href="#DejaVuSans-20" x="244.677734"/>
      <use xlink:href="#DejaVuSans-28" x="276.464844"/>
      <use xlink:href="#DejaVuSans-6e" x="315.478516"/>
      <use xlink:href="#DejaVuSans-73" x="378.857422"/>
      <use xlink:href="#DejaVuSans-29" x="430.957031"/>
     </g>
    </g>
   </g>
   <g id="matplotlib.axis_2">
    <g id="ytick_1">
     <g id="line2d_7">
      <defs>
       <path id="mb57679ddd5" d="M 0 0 
L -3.5 0 
" style="stroke: #000000; stroke-width: 0.8"/>
      </defs>
      <g>
       <use xlink:href="#mb57679ddd5" x="108" y="544.761818" style="stroke: #000000; stroke-width: 0.8"/>
      </g>
     </g>
     <g id="text_8">
      <!-- −1.00 -->
      <g transform="translate(45.838438 551.600412)scale(0.18 -0.18)">
       <defs>
        <path id="DejaVuSans-2212" d="M 678 2272 
L 4684 2272 
L 4684 1741 
L 678 1741 
L 678 2272 
z
" transform="scale(0.015625)"/>
        <path id="DejaVuSans-2e" d="M 684 794 
L 1344 794 
L 1344 0 
L 684 0 
L 684 794 
z
" transform="scale(0.015625)"/>
       </defs>
       <use xlink:href="#DejaVuSans-2212"/>
       <use xlink:href="#DejaVuSans-31" x="83.789062"/>
       <use xlink:href="#DejaVuSans-2e" x="147.412109"/>
       <use xlink:href="#DejaVuSans-30" x="179.199219"/>
       <use xlink:href="#DejaVuSans-30" x="242.822266"/>
      </g>
     </g>
    </g>
    <g id="ytick_2">
     <g id="line2d_8">
      <g>
       <use xlink:href="#mb57679ddd5" x="108" y="489.166364" style="stroke: #000000; stroke-width: 0.8"/>
      </g>
     </g>
     <g id="text_9">
      <!-- −0.75 -->
      <g transform="translate(45.838438 496.004957)scale(0.18 -0.18)">
       <defs>
        <path id="DejaVuSans-37" d="M 525 4666 
L 3525 4666 
L 3525 4397 
L 1831 0 
L 1172 0 
L 2766 4134 
L 525 4134 
L 525 4666 
z
" transform="scale(0.015625)"/>
        <path id="DejaVuSans-35" d="M 691 4666 
L 3169 4666 
L 3169 4134 
L 1269 4134 
L 1269 2991 
Q 1406 3038 1543 3061 
Q 1681 3084 1819 3084 
Q 2600 3084 3056 2656 
Q 3513 2228 3513 1497 
Q 3513 744 3044 326 
Q 2575 -91 1722 -91 
Q 1428 -91 1123 -41 
Q 819 9 494 109 
L 494 744 
Q 775 591 1075 516 
Q 1375 441 1709 441 
Q 2250 441 2565 725 
Q 2881 1009 2881 1497 
Q 2881 1984 2565 2268 
Q 2250 2553 1709 2553 
Q 1456 2553 1204 2497 
Q 953 2441 691 2322 
L 691 4666 
z
" transform="scale(0.015625)"/>
       </defs>
       <use xlink:href="#DejaVuSans-2212"/>
       <use xlink:href="#DejaVuSans-30" x="83.789062"/>
       <use xlink:href="#DejaVuSans-2e" x="147.412109"/>
       <use xlink:href="#DejaVuSans-37" x="179.199219"/>
       <use xlink:href="#DejaVuSans-35" x="242.822266"/>
      </g>
     </g>
    </g>
    <g id="ytick_3">
     <g id="line2d_9">
      <g>
       <use xlink:href="#mb57679ddd5" x="108" y="433.570909" style="stroke: #000000; stroke-width: 0.8"/>
      </g>
     </g>
     <g id="text_10">
      <!-- −0.50 -->
      <g transform="translate(45.838438 440.409503)scale(0.18 -0.18)">
       <use xlink:href="#DejaVuSans-2212"/>
       <use xlink:href="#DejaVuSans-30" x="83.789062"/>
       <use xlink:href="#DejaVuSans-2e" x="147.412109"/>
       <use xlink:href="#DejaVuSans-35" x="179.199219"/>
       <use xlink:href="#DejaVuSans-30" x="242.822266"/>
      </g>
     </g>
    </g>
    <g id="ytick_4">
     <g id="line2d_10">
      <g>
       <use xlink:href="#mb57679ddd5" x="108" y="377.975455" style="stroke: #000000; stroke-width: 0.8"/>
      </g>
     </g>
     <g id="text_11">
      <!-- −0.25 -->
      <g transform="translate(45.838438 384.814048)scale(0.18 -0.18)">
       <use xlink:href="#DejaVuSans-2212"/>
       <use xlink:href="#DejaVuSans-30" x="83.789062"/>
       <use xlink:href="#DejaVuSans-2e" x="147.412109"/>
       <use xlink:href="#DejaVuSans-32" x="179.199219"/>
       <use xlink:href="#DejaVuSans-35" x="242.822266"/>
      </g>
     </g>
    </g>
    <g id="ytick_5">
     <g id="line2d_11">
      <g>
       <use xlink:href="#mb57679ddd5" x="108" y="322.38" style="stroke: #000000; stroke-width: 0.8"/>
      </g>
     </g>
     <g id="text_12">
      <!-- 0.00 -->
      <g transform="translate(60.921875 329.218594)scale(0.18 -0.18)">
       <use xlink:href="#DejaVuSans-30"/>
       <use xlink:href="#DejaVuSans-2e" x="63.623047"/>
       <use xlink:href="#DejaVuSans-30" x="95.410156"/>
       <use xlink:href="#DejaVuSans-30" x="159.033203"/>
      </g>
     </g>
    </g>
    <g id="ytick_6">
     <g id="line2d_12">
      <g>
       <use xlink:href="#mb57679ddd5" x="108" y="266.784545" style="stroke: #000000; stroke-width: 0.8"/>
      </g>
     </g>
     <g id="text_13">
      <!-- 0.25 -->
      <g transform="translate(60.921875 273.623139)scale(0.18 -0.18)">
       <use xlink:href="#DejaVuSans-30"/>
       <use xlink:href="#DejaVuSans-2e" x="63.623047"/>
       <use xlink:href="#DejaVuSans-32" x="95.410156"/>
       <use xlink:href="#DejaVuSans-35" x="159.033203"/>
      </g>
     </g>
    </g>
    <g id="ytick_7">
     <g id="line2d_13">
      <g>
       <use xlink:href="#mb57679ddd5" x="108" y="211.189091" style="stroke: #000000; stroke-width: 0.8"/>
      </g>
     </g>
     <g id="text_14">
      <!-- 0.50 -->
      <g transform="translate(60.921875 218.027685)scale(0.18 -0.18)">
       <use xlink:href="#DejaVuSans-30"/>
       <use xlink:href="#DejaVuSans-2e" x="63.623047"/>
       <use xlink:href="#DejaVuSans-35" x="95.410156"/>
       <use xlink:href="#DejaVuSans-30" x="159.033203"/>
      </g>
     </g>
    </g>
    <g id="ytick_8">
     <g id="line2d_14">
      <g>
       <use xlink:href="#mb57679ddd5" x="108" y="155.593636" style="stroke: #000000; stroke-width: 0.8"/>
      </g>
     </g>
     <g id="text_15">
      <!-- 0.75 -->
      <g transform="translate(60.921875 162.43223)scale(0.18 -0.18)">
       <use xlink:href="#DejaVuSans-30"/>
       <use xlink:href="#DejaVuSans-2e" x="63.623047"/>
       <use xlink:href="#DejaVuSans-37" x="95.410156"/>
       <use xlink:href="#DejaVuSans-35" x="159.033203"/>
      </g>
     </g>
    </g>
    <g id="ytick_9">
     <g id="line2d_15">
      <g>
       <use xlink:href="#mb57679ddd5" x="108" y="99.998182" style="stroke: #000000; stroke-width: 0.8"/>
      </g>
     </g>
     <g id="text_16">
      <!-- 1.00 -->
      <g transform="translate(60.921875 106.836776)scale(0.18 -0.18)">
       <use xlink:href="#DejaVuSans-31"/>
       <use xlink:href="#DejaVuSans-2e" x="63.623047"/>
       <use xlink:href="#DejaVuSans-30" x="95.410156"/>
       <use xlink:href="#DejaVuSans-30" x="159.033203"/>
      </g>
     </g>
    </g>
    <g id="text_17">
     <!-- Magnetization -->
     <g transform="translate(38.095 386.1225)rotate(-90)scale(0.18 -0.18)">
      <defs>
       <path id="DejaVuSans-4d" d="M 628 4666 
L 1569 4666 
L 2759 1491 
L 3956 4666 
L 4897 4666 
L 4897 0 
L 4281 0 
L 4281 4097 
L 3078 897 
L 2444 897 
L 1241 4097 
L 1241 0 
L 628 0 
L 628 4666 
z
" transform="scale(0.015625)"/>
       <path id="DejaVuSans-61" d="M 2194 1759 
Q 1497 1759 1228 1600 
Q 959 1441 959 1056 
Q 959 750 1161 570 
Q 1363 391 1709 391 
Q 2188 391 2477 730 
Q 2766 1069 2766 1631 
L 2766 1759 
L 2194 1759 
z
M 3341 1997 
L 3341 0 
L 2766 0 
L 2766 531 
Q 2569 213 2275 61 
Q 1981 -91 1556 -91 
Q 1019 -91 701 211 
Q 384 513 384 1019 
Q 384 1609 779 1909 
Q 1175 2209 1959 2209 
L 2766 2209 
L 2766 2266 
Q 2766 2663 2505 2880 
Q 2244 3097 1772 3097 
Q 1472 3097 1187 3025 
Q 903 2953 641 2809 
L 641 3341 
Q 956 3463 1253 3523 
Q 1550 3584 1831 3584 
Q 2591 3584 2966 3190 
Q 3341 2797 3341 1997 
z
" transform="scale(0.015625)"/>
       <path id="DejaVuSans-67" d="M 2906 1791 
Q 2906 2416 2648 2759 
Q 2391 3103 1925 3103 
Q 1463 3103 1205 2759 
Q 947 2416 947 1791 
Q 947 1169 1205 825 
Q 1463 481 1925 481 
Q 2391 481 2648 825 
Q 2906 1169 2906 1791 
z
M 3481 434 
Q 3481 -459 3084 -895 
Q 2688 -1331 1869 -1331 
Q 1566 -1331 1297 -1286 
Q 1028 -1241 775 -1147 
L 775 -588 
Q 1028 -725 1275 -790 
Q 1522 -856 1778 -856 
Q 2344 -856 2625 -561 
Q 2906 -266 2906 331 
L 2906 616 
Q 2728 306 2450 153 
Q 2172 0 1784 0 
Q 1141 0 747 490 
Q 353 981 353 1791 
Q 353 2603 747 3093 
Q 1141 3584 1784 3584 
Q 2172 3584 2450 3431 
Q 2728 3278 2906 2969 
L 2906 3500 
L 3481 3500 
L 3481 434 
z
" transform="scale(0.015625)"/>
       <path id="DejaVuSans-74" d="M 1172 4494 
L 1172 3500 
L 2356 3500 
L 2356 3053 
L 1172 3053 
L 1172 1153 
Q 1172 725 1289 603 
Q 1406 481 1766 481 
L 2356 481 
L 2356 0 
L 1766 0 
Q 1100 0 847 248 
Q 594 497 594 1153 
L 594 3053 
L 172 3053 
L 172 3500 
L 594 3500 
L 594 4494 
L 1172 4494 
z
" transform="scale(0.015625)"/>
       <path id="DejaVuSans-7a" d="M 353 3500 
L 3084 3500 
L 3084 2975 
L 922 459 
L 3084 459 
L 3084 0 
L 275 0 
L 275 525 
L 2438 3041 
L 353 3041 
L 353 3500 
z
" transform="scale(0.015625)"/>
       <path id="DejaVuSans-6f" d="M 1959 3097 
Q 1497 3097 1228 2736 
Q 959 2375 959 1747 
Q 959 1119 1226 758 
Q 1494 397 1959 397 
Q 2419 397 2687 759 
Q 2956 1122 2956 1747 
Q 2956 2369 2687 2733 
Q 2419 3097 1959 3097 
z
M 1959 3584 
Q 2709 3584 3137 3096 
Q 3566 2609 3566 1747 
Q 3566 888 3137 398 
Q 2709 -91 1959 -91 
Q 1206 -91 779 398 
Q 353 888 353 1747 
Q 353 2609 779 3096 
Q 1206 3584 1959 3584 
z
" transform="scale(0.015625)"/>
      </defs>
      <use xlink:href="#DejaVuSans-4d"/>
      <use xlink:href="#DejaVuSans-61" x="86.279297"/>
      <use xlink:href="#DejaVuSans-67" x="147.558594"/>
      <use xlink:href="#DejaVuSans-6e" x="211.035156"/>
      <use xlink:href="#DejaVuSans-65" x="274.414062"/>
      <use xlink:href="#DejaVuSans-74" x="335.9375"/>
      <use xlink:href="#DejaVuSans-69" x="375.146484"/>
      <use xlink:href="#DejaVuSans-7a" x="402.929688"/>
      <use xlink:href="#DejaVuSans-61" x="455.419922"/>
      <use xlink:href="#DejaVuSans-74" x="516.699219"/>
      <use xlink:href="#DejaVuSans-69" x="555.908203"/>
      <use xlink:href="#DejaVuSans-6f" x="583.691406"/>
      <use xlink:href="#DejaVuSans-6e" x="644.873047"/>
     </g>
    </g>
   </g>
   <g id="line2d_16">
    <path d="M 138.436364 100.017918 
L 167.423377 100.017918 
L 167.423377 100.017907 
L 168.003915 101.192497 
L 168.58288 104.359192 
L 170.322683 116.670836 
L 170.902384 118.740833 
L 171.482059 119.066742 
L 172.061868 117.785747 
L 172.641432 115.266072 
L 174.381135 105.737567 
L 174.960364 103.569514 
L 175.540614 102.474506 
L 176.119614 102.565358 
L 176.699543 103.815646 
L 177.27944 106.029255 
L 179.019313 114.691682 
L 179.59874 116.598162 
L 180.178104 117.25808 
L 180.757436 116.390693 
L 181.338008 114.042194 
L 183.65646 100.647159 
L 184.23646 100.066142 
L 184.816646 101.383209 
L 185.395854 104.222569 
L 186.55586 111.477189 
L 187.135415 114.293219 
L 187.715059 115.830909 
L 188.294697 115.942211 
L 188.874337 114.735861 
L 189.453936 112.557239 
L 191.193368 104.685065 
L 191.772578 103.001815 
L 192.352797 102.24048 
L 192.932898 102.489659 
L 193.51285 103.691455 
L 194.091515 105.660143 
L 195.831503 112.792964 
L 196.410953 114.182228 
L 196.990374 114.459878 
L 197.570951 113.470117 
L 198.150393 111.286674 
L 199.88923 102.146501 
L 200.469102 100.395089 
L 201.049142 100.136125 
L 201.628174 101.403235 
L 202.208531 103.864112 
L 203.367292 109.863631 
L 203.947984 112.13418 
L 204.527555 113.343582 
L 205.107138 113.361094 
L 205.686705 112.313175 
L 206.266241 110.465819 
L 208.005529 103.964295 
L 208.585864 102.624233 
L 209.164899 102.076193 
L 209.744979 102.37394 
L 210.324928 103.464481 
L 210.90477 105.17159 
L 212.643681 111.025273 
L 213.223187 112.046133 
L 213.802661 112.116768 
L 214.383291 111.130358 
L 214.962795 109.19427 
L 216.701792 101.637056 
L 217.281701 100.294961 
L 217.861753 100.187518 
L 218.440784 101.313977 
L 219.021124 103.393143 
L 220.179821 108.365711 
L 220.760454 110.238953 
L 221.339979 111.230332 
L 221.919514 111.245654 
L 222.499022 110.370025 
L 223.078491 108.839527 
L 224.817667 103.455463 
L 225.397967 102.365814 
L 225.978166 101.942544 
L 226.557072 102.232283 
L 227.13703 103.177308 
L 228.296636 106.350252 
L 229.455893 109.433753 
L 230.035449 110.208354 
L 230.616142 110.174143 
L 231.195672 109.270925 
L 231.775226 107.598036 
L 233.514349 101.340812 
L 234.094275 100.270021 
L 234.674343 100.214277 
L 235.253371 101.16602 
L 235.833687 102.893504 
L 236.992316 107.025914 
L 237.572909 108.599288 
L 238.15237 109.453123 
L 238.731844 109.498333 
L 239.311309 108.803405 
L 239.89191 107.549323 
L 241.630974 103.085389 
L 242.210094 102.178495 
L 242.790277 101.828324 
L 243.37035 102.075862 
L 243.949155 102.870754 
L 245.108806 105.515786 
L 246.268142 108.041852 
L 246.848908 108.647116 
L 247.428487 108.57745 
L 248.008053 107.787327 
L 248.587669 106.373023 
L 250.326896 101.172389 
L 250.906836 100.283965 
L 251.485741 100.226435 
L 252.065922 100.998244 
L 252.646214 102.414427 
L 253.804768 105.854527 
L 254.385314 107.198649 
L 254.964729 107.958028 
L 255.544153 108.052518 
L 256.124743 107.520972 
L 256.70414 106.515673 
L 258.443112 102.809044 
L 259.023382 102.036289 
L 259.6024 101.727801 
L 260.18248 101.918894 
L 260.762456 102.570495 
L 261.922158 104.758725 
L 263.081573 106.841838 
L 263.661209 107.333113 
L 264.240836 107.263818 
L 264.820463 106.599021 
L 265.400106 105.418583 
L 267.139424 101.080636 
L 267.719371 100.318423 
L 268.298267 100.235708 
L 268.878435 100.838629 
L 269.458708 101.98483 
L 271.197685 106.010419 
L 271.777057 106.702616 
L 272.356443 106.845918 
L 272.936987 106.464164 
L 273.516341 105.669785 
L 275.255247 102.594901 
L 275.83551 101.926001 
L 276.415688 101.640105 
L 276.994609 101.771454 
L 277.574606 102.291866 
L 278.734356 104.087494 
L 279.893846 105.818448 
L 280.473526 106.231166 
L 281.053188 106.181344 
L 281.632856 105.637829 
L 282.212538 104.665131 
L 283.951928 101.035133 
L 284.531879 100.364956 
L 285.11077 100.248717 
L 285.690926 100.701242 
L 286.271174 101.617729 
L 288.010039 105.009614 
L 288.589367 105.647247 
L 289.169873 105.835282 
L 289.749222 105.580137 
L 290.328541 104.966636 
L 292.068542 102.420009 
L 292.647634 101.837146 
L 293.227807 101.565017 
L 293.807904 101.641139 
L 294.386755 102.04465 
L 295.546552 103.507345 
L 296.706115 104.952366 
L 297.285831 105.309961 
L 297.865535 105.286132 
L 298.44524 104.853259 
L 299.024955 104.059617 
L 300.764405 101.016246 
L 301.344367 100.417883 
L 301.923248 100.269459 
L 302.503386 100.593489 
L 303.08361 101.315505 
L 304.822369 104.171132 
L 305.401661 104.7605 
L 305.982136 104.984027 
L 306.561442 104.834831 
L 307.141899 104.371498 
L 309.45977 101.762826 
L 310.039946 101.501505 
L 310.620054 101.52896 
L 311.200081 101.834277 
L 312.358766 103.014673 
L 313.518387 104.225015 
L 314.098138 104.539766 
L 314.677876 104.542977 
L 315.257613 104.206535 
L 315.837365 103.565764 
L 317.576869 101.012599 
L 318.156833 100.47379 
L 318.735708 100.298633 
L 319.315827 100.515962 
L 319.896031 101.0758 
L 321.634695 103.47292 
L 322.215119 104.017177 
L 322.794392 104.264964 
L 323.373667 104.200887 
L 323.954094 103.864112 
L 326.273071 101.698202 
L 326.852089 101.448345 
L 327.432204 101.435747 
L 328.012249 101.657706 
L 329.170977 102.602228 
L 330.330666 103.616503 
L 330.910452 103.89698 
L 331.490218 103.923699 
L 332.069984 103.66895 
L 332.649764 103.156537 
L 334.969281 100.529734 
L 335.548151 100.335602 
L 336.128258 100.466547 
L 336.708438 100.891859 
L 339.027403 103.393899 
L 339.606645 103.656385 
L 340.187054 103.659091 
L 340.766291 103.425819 
L 341.925844 102.524439 
L 343.085221 101.640983 
L 343.665406 101.403301 
L 344.244361 101.360012 
L 344.824419 101.513781 
L 345.984359 102.261962 
L 347.142929 103.109993 
L 347.72275 103.36055 
L 348.30255 103.406239 
L 348.882344 103.219027 
L 349.462147 102.813369 
L 351.781712 100.583513 
L 352.36058 100.378077 
L 352.940675 100.441071 
L 353.520835 100.756415 
L 354.680173 101.849221 
L 355.839683 102.87369 
L 356.418896 103.141349 
L 356.999279 103.194743 
L 357.578489 103.045057 
L 358.738012 102.340974 
L 359.897372 101.588345 
L 360.477561 101.364996 
L 361.057689 101.299238 
L 361.636595 101.398267 
L 362.796575 101.982561 
L 363.956367 102.690558 
L 364.536218 102.914068 
L 365.11488 102.972906 
L 365.694699 102.840244 
L 366.274528 102.52258 
L 368.594137 100.63356 
L 369.172998 100.423954 
L 369.753081 100.434784 
L 370.333226 100.661058 
L 371.492516 101.542646 
L 372.651975 102.441202 
L 373.232322 102.706592 
L 373.811513 102.796203 
L 374.390702 102.712663 
L 375.550191 102.174143 
L 376.710707 101.537656 
L 377.28973 101.331394 
L 377.869863 101.250672 
L 378.449951 101.307099 
L 379.608801 101.756043 
L 380.768644 102.343687 
L 381.348514 102.542274 
L 381.928365 102.609865 
L 382.507046 102.520192 
L 383.086898 102.274304 
L 385.986568 100.470603 
L 386.565477 100.443139 
L 387.145607 100.598257 
L 388.304851 101.301562 
L 389.464258 102.083545 
L 390.044584 102.33994 
L 390.623752 102.4543 
L 391.204082 102.422032 
L 392.363539 102.020722 
L 394.101893 101.300828 
L 394.682042 101.211586 
L 395.84218 101.364996 
L 398.740676 102.305584 
L 399.320541 102.248886 
L 400.479129 101.763671 
L 402.218942 100.717994 
L 402.798961 100.516652 
L 403.377861 100.461748 
L 403.957975 100.560897 
L 405.117184 101.114828 
L 406.276543 101.78969 
L 407.435987 102.161579 
L 408.595439 102.064598 
L 411.494224 101.179665 
L 412.654387 101.26862 
L 415.552982 102.050899 
L 416.71276 101.877397 
L 417.871406 101.341546 
L 419.031325 100.751422 
L 419.611341 100.560325 
L 420.190235 100.487133 
L 420.77034 100.542928 
L 421.929515 100.972637 
L 423.669108 101.775235 
L 424.828522 101.947103 
L 425.987922 101.751218 
L 428.307573 101.152655 
L 429.466591 101.193351 
L 432.94519 101.824537 
L 434.105005 101.531527 
L 436.423712 100.600621 
L 437.582695 100.539223 
L 438.74184 100.866538 
L 440.481374 101.56186 
L 441.640755 101.754851 
L 442.800124 101.632777 
L 445.119763 101.129216 
L 446.278802 101.13462 
L 449.757494 101.659752 
L 450.917345 101.435513 
L 453.816124 100.546871 
L 454.97517 100.631983 
L 456.714568 101.200378 
L 457.873895 101.52069 
L 459.033249 101.586655 
L 460.772782 101.300419 
L 462.512086 101.072775 
L 463.671069 101.151645 
L 466.5698 101.520519 
L 467.729678 101.350664 
L 470.628473 100.577375 
L 471.787501 100.614913 
L 473.526858 101.076634 
L 474.686149 101.370055 
L 474.686149 101.370055 
" clip-path="url(#p2394ff8e1b)" style="fill: none; stroke: #ff0000; stroke-opacity: 0.3; stroke-width: 1.5; stroke-linecap: square"/>
   </g>
   <g id="line2d_17">
    <path d="M 138.436364 322.38 
L 167.423377 322.380039 
L 167.423377 322.380039 
L 168.58288 365.982619 
L 169.163592 383.643389 
L 169.74301 397.048276 
L 170.322683 405.977666 
L 170.902384 410.317212 
L 171.482059 410.409678 
L 172.061868 406.572756 
L 172.641432 399.29234 
L 173.221117 389.053676 
L 174.381135 361.782329 
L 177.859071 267.236047 
L 178.438693 255.663796 
L 179.019313 246.669031 
L 179.59874 240.818902 
L 180.178104 238.419086 
L 180.757436 239.916921 
L 181.338008 245.484793 
L 181.917406 255.264856 
L 182.496985 269.017541 
L 183.65646 305.830273 
L 185.395854 365.153326 
L 185.975191 380.52834 
L 186.55586 392.134798 
L 187.135415 399.668238 
L 187.715059 403.107987 
L 188.294697 402.678123 
L 188.874337 398.720972 
L 189.453936 391.612539 
L 190.03345 381.857285 
L 191.193368 356.253661 
L 194.671224 269.74429 
L 195.251986 259.508059 
L 195.831503 251.781794 
L 196.410953 247.005337 
L 196.990374 245.503766 
L 197.570951 247.59378 
L 198.150393 253.439886 
L 198.729899 263.01881 
L 199.309506 276.104943 
L 200.469102 309.987802 
L 202.208531 363.085956 
L 202.787854 376.660784 
L 203.367292 386.879689 
L 203.947984 393.432325 
L 204.527555 396.31114 
L 205.107138 395.650384 
L 205.686705 391.795299 
L 206.266241 385.060948 
L 206.846876 375.887601 
L 208.005529 352.097016 
L 210.90477 283.985512 
L 212.064121 263.787128 
L 212.643681 257.04222 
L 213.223187 253.046531 
L 213.802661 252.122632 
L 214.383291 254.490927 
L 214.962795 260.285637 
L 215.542365 269.409796 
L 216.122019 281.605128 
L 217.281701 312.537501 
L 219.021124 360.252173 
L 219.600424 372.403538 
L 220.179821 381.564501 
L 220.760454 387.431445 
L 221.339979 389.969556 
L 221.919514 389.30195 
L 222.499022 385.69008 
L 223.078491 379.460465 
L 223.659089 370.966834 
L 224.817667 349.015489 
L 227.71688 286.516562 
L 228.876298 268.240639 
L 229.455893 262.253923 
L 230.035449 258.810707 
L 230.616142 258.215989 
L 231.195672 260.633593 
L 231.775226 266.152708 
L 232.354846 274.662446 
L 232.934548 285.864661 
L 234.094275 313.951386 
L 235.833687 356.991299 
L 236.412954 368.000411 
L 236.992316 376.338337 
L 237.572909 381.732062 
L 238.15237 384.098902 
L 238.731844 383.554759 
L 239.311309 380.297565 
L 239.89191 374.619695 
L 240.471286 366.871744 
L 241.630974 346.725519 
L 244.529025 289.383033 
L 245.688508 272.710723 
L 246.268142 267.29261 
L 246.848908 264.230408 
L 247.428487 263.780389 
L 248.008053 266.091114 
L 248.587669 271.19512 
L 249.167332 278.997226 
L 250.326896 301.283082 
L 252.646214 353.540667 
L 253.225449 363.612215 
L 253.804768 371.300328 
L 254.385314 376.362321 
L 254.964729 378.676758 
L 255.544153 378.336536 
L 256.124743 375.491628 
L 256.70414 370.418424 
L 257.283482 363.417489 
L 258.443112 345.054079 
L 261.342344 292.393228 
L 262.501895 277.070007 
L 263.081573 272.090667 
L 263.661209 269.284853 
L 264.240836 268.856228 
L 264.820463 270.945814 
L 265.400106 275.56593 
L 265.979801 282.614041 
L 267.139424 302.710101 
L 269.458708 350.065999 
L 270.03791 359.339771 
L 270.617184 366.510173 
L 271.197685 371.32878 
L 271.777057 373.668848 
L 272.356443 373.576075 
L 272.936987 371.184648 
L 273.516341 366.715985 
L 274.09565 360.451925 
L 275.255247 343.80378 
L 278.734356 287.644431 
L 279.314127 281.272828 
L 279.893846 276.630107 
L 280.473526 273.97429 
L 281.053188 273.488534 
L 281.632856 275.290292 
L 282.212538 279.392056 
L 282.792266 285.685259 
L 283.951928 303.711518 
L 286.271174 346.673814 
L 286.850337 355.255289 
L 287.430744 362.005138 
L 288.010039 366.631411 
L 288.589367 369.034885 
L 289.169873 369.213002 
L 289.749222 367.277175 
L 290.328541 363.408734 
L 290.908981 357.842117 
L 292.068542 342.825899 
L 295.546552 291.214683 
L 296.126361 285.264114 
L 296.706115 280.888719 
L 297.285831 278.316697 
L 297.865535 277.724063 
L 298.44524 279.207132 
L 299.024955 282.782084 
L 299.604711 288.345241 
L 300.184526 295.681388 
L 301.344367 314.153596 
L 303.08361 343.432965 
L 303.662748 351.403291 
L 304.243113 357.775869 
L 304.822369 362.260207 
L 305.401661 364.741908 
L 305.982136 365.197217 
L 306.561442 363.701935 
L 307.141899 360.403143 
L 307.721147 355.524431 
L 308.880683 342.056866 
L 312.358766 294.609357 
L 312.9386 289.023105 
L 313.518387 284.862413 
L 314.098138 282.336346 
L 314.677876 281.607259 
L 315.257613 282.765512 
L 315.837365 285.82374 
L 316.417146 290.695979 
L 316.996974 297.187582 
L 318.156833 313.714495 
L 319.896031 340.388589 
L 321.055473 353.839802 
L 321.634695 358.201953 
L 322.215119 360.765893 
L 322.794392 361.482656 
L 323.373667 360.405316 
L 323.954094 357.652852 
L 324.533327 353.415059 
L 325.692831 341.402461 
L 329.170977 297.801505 
L 329.750843 292.538737 
L 330.330666 288.557516 
L 330.910452 286.054848 
L 331.490218 285.179349 
L 332.069984 286.019456 
L 332.649764 288.58731 
L 333.229568 292.812507 
L 333.809415 298.525456 
L 334.969281 313.272813 
L 336.708438 337.568955 
L 337.867829 350.197639 
L 338.447015 354.442057 
L 339.027403 357.077459 
L 339.606645 358.03544 
L 340.187054 357.343677 
L 340.766291 355.101176 
L 341.345502 351.462093 
L 341.925844 346.613105 
L 343.085221 334.280761 
L 345.984359 300.765799 
L 346.56425 295.798317 
L 347.142929 291.983888 
L 347.72275 289.49349 
L 348.30255 288.47438 
L 348.882344 289.012533 
L 349.462147 291.124275 
L 350.041973 294.751456 
L 350.621839 299.750637 
L 351.781712 312.872575 
L 354.099893 341.428902 
L 354.680173 346.843832 
L 355.259329 350.968201 
L 355.839683 353.65913 
L 356.418896 354.830818 
L 356.999279 354.492277 
L 357.578489 352.714984 
L 358.158852 349.620732 
L 358.738012 345.393617 
L 359.897372 334.36903 
L 362.796575 303.519083 
L 363.376489 298.82184 
L 363.956367 295.146547 
L 364.536218 292.66803 
L 365.11488 291.519884 
L 365.694699 291.779299 
L 366.274528 293.472854 
L 366.854377 296.553412 
L 367.434251 300.901334 
L 368.594137 312.541571 
L 370.912263 338.645191 
L 371.492516 343.769922 
L 372.07281 347.774852 
L 372.651975 350.494057 
L 373.232322 351.850646 
L 373.811513 351.825021 
L 374.390702 350.469775 
L 374.971044 347.882089 
L 375.550191 344.220472 
L 376.710707 334.397751 
L 379.608801 306.048938 
L 380.188741 301.605836 
L 380.768644 298.069544 
L 381.348514 295.60404 
L 381.928365 294.33669 
L 382.507046 294.346446 
L 383.086898 295.660858 
L 383.66676 298.246469 
L 384.246647 302.003017 
L 385.406549 312.295145 
L 387.72579 336.135166 
L 388.304851 340.965367 
L 388.885123 344.835793 
L 389.464258 347.568063 
L 390.044584 349.077113 
L 390.623752 349.32602 
L 391.204082 348.34576 
L 391.783234 346.221332 
L 392.363539 343.070304 
L 393.522871 334.377492 
L 397.000978 304.158799 
L 397.580901 300.758574 
L 398.160798 298.313642 
L 398.740676 296.945736 
L 399.320541 296.734784 
L 399.899251 297.708996 
L 400.479129 299.849214 
L 401.059032 303.071974 
L 402.218942 312.139666 
L 405.117184 338.418547 
L 405.697431 342.145048 
L 406.276543 344.868942 
L 406.856843 346.498616 
L 407.435987 346.98374 
L 408.0163 346.338839 
L 408.595439 344.628274 
L 409.175725 341.949691 
L 410.335049 334.289986 
L 413.813219 306.49009 
L 414.393166 303.225754 
L 414.973082 300.810785 
L 415.552982 299.361567 
L 416.132872 298.957708 
L 416.71276 299.634479 
L 417.291492 301.374094 
L 417.871406 304.117096 
L 418.451347 307.741087 
L 419.611341 316.904339 
L 421.35049 331.83759 
L 422.509738 339.690082 
L 423.089995 342.389591 
L 423.669108 344.105111 
L 424.249398 344.789689 
L 424.828522 344.438037 
L 425.408812 343.093444 
L 425.987922 340.84627 
L 426.568174 337.80721 
L 427.72742 329.980994 
L 430.625456 308.610293 
L 431.205421 305.483264 
L 431.78536 303.10826 
L 432.365278 301.597267 
L 432.94519 301.028852 
L 433.525093 301.442303 
L 434.105005 302.832735 
L 434.683767 305.142587 
L 435.263718 308.280651 
L 436.423712 316.404519 
L 438.74184 334.04523 
L 439.322046 337.458292 
L 439.902282 340.110102 
L 440.481374 341.887868 
L 441.061645 342.736918 
L 441.640755 342.638832 
L 442.221028 341.622363 
L 442.800124 339.759433 
L 443.380367 337.143856 
L 444.539609 330.206454 
L 447.438857 310.524142 
L 448.017674 307.542908 
L 448.597633 305.218018 
L 449.17757 303.663941 
L 449.757494 302.958162 
L 450.33742 303.14318 
L 450.917345 304.221685 
L 451.496119 306.149385 
L 452.076079 308.850914 
L 453.236076 316.029632 
L 455.555328 332.197294 
L 456.134349 335.436852 
L 456.714568 338.0242 
L 457.293642 339.838766 
L 457.873895 340.819786 
L 458.452988 340.938206 
L 459.033249 340.210003 
L 459.613496 338.686863 
L 460.192566 336.458642 
L 461.351804 330.337576 
L 464.251094 312.25699 
L 464.831093 309.411164 
L 465.409901 307.151291 
L 465.989856 305.57165 
L 466.5698 304.753866 
L 467.149738 304.742876 
L 467.729678 305.548071 
L 468.309626 307.140548 
L 468.888428 309.446986 
L 470.048429 315.767816 
L 472.946657 333.61279 
L 473.526858 336.121448 
L 474.10708 337.952947 
L 474.686149 339.033467 
L 474.686149 339.033467 
" clip-path="url(#p2394ff8e1b)" style="fill: none; stroke: #008000; stroke-opacity: 0.3; stroke-width: 1.5; stroke-linecap: square"/>
   </g>
   <g id="line2d_18">
    <path d="M 138.436364 322.380018 
L 167.423377 322.380013 
L 167.423377 322.380013 
L 168.003915 323.057369 
L 168.58288 324.650701 
L 169.163592 327.15002 
L 170.322683 333.752888 
L 172.061868 344.335948 
L 173.221117 349.798239 
L 173.800537 351.767428 
L 174.381135 353.237452 
L 174.960364 354.143751 
L 175.540614 354.542704 
L 176.119614 354.411766 
L 176.699543 353.764497 
L 177.27944 352.609497 
L 177.859071 350.935433 
L 178.438693 348.782297 
L 179.59874 343.172642 
L 181.917406 330.077724 
L 182.496985 327.484335 
L 183.076612 325.560091 
L 183.65646 324.473114 
L 184.23646 324.296919 
L 184.816646 325.039027 
L 185.395854 326.647444 
L 185.975191 328.955433 
L 187.135415 334.998132 
L 188.874337 344.507833 
L 190.03345 349.371386 
L 190.614061 351.134783 
L 191.193368 352.393678 
L 191.772578 353.180253 
L 192.352797 353.451615 
L 192.932898 353.264527 
L 193.51285 352.569146 
L 194.091515 351.421987 
L 194.671224 349.793634 
L 195.831503 345.269503 
L 197.570951 336.408577 
L 198.729899 330.726285 
L 199.309506 328.499654 
L 199.88923 326.883157 
L 200.469102 326.031994 
L 201.049142 325.98783 
L 201.628174 326.755225 
L 202.208531 328.276226 
L 202.787854 330.410368 
L 203.947984 335.893653 
L 205.686705 344.461086 
L 206.846876 348.848794 
L 207.426253 350.426428 
L 208.005529 351.552125 
L 208.585864 352.227781 
L 209.164899 352.44493 
L 209.744979 352.208073 
L 210.324928 351.528112 
L 210.90477 350.399504 
L 211.484494 348.857498 
L 212.643681 344.625023 
L 216.122019 329.538743 
L 216.701792 328.169718 
L 217.281701 327.456761 
L 217.861753 327.489505 
L 218.440784 328.219422 
L 219.021124 329.625306 
L 219.600424 331.566099 
L 220.760454 336.522919 
L 222.499022 344.269097 
L 223.659089 348.257992 
L 224.238428 349.696671 
L 224.817667 350.717166 
L 225.397967 351.323567 
L 225.978166 351.502863 
L 226.557072 351.26104 
L 227.13703 350.605203 
L 227.71688 349.539927 
L 228.296636 348.09115 
L 229.455893 344.17129 
L 232.354846 332.308255 
L 232.934548 330.577763 
L 233.514349 329.36911 
L 234.094275 328.764102 
L 234.674343 328.803152 
L 235.253371 329.483452 
L 235.833687 330.743326 
L 236.412954 332.498097 
L 237.572909 336.959743 
L 239.311309 343.987359 
L 240.471286 347.643624 
L 241.050593 348.961932 
L 241.630974 349.912884 
L 242.210094 350.465734 
L 242.790277 350.634811 
L 243.37035 350.403689 
L 243.949155 349.79445 
L 244.529025 348.805416 
L 245.108806 347.464154 
L 246.268142 343.863169 
L 249.167332 333.126021 
L 249.74707 331.573102 
L 250.326896 330.488427 
L 250.906836 329.94217 
L 251.485741 329.970062 
L 252.065922 330.569356 
L 252.646214 331.690405 
L 253.225449 333.253008 
L 254.385314 337.258509 
L 256.124743 343.653151 
L 257.283482 347.01852 
L 257.863923 348.249486 
L 258.443112 349.135908 
L 259.023382 349.665399 
L 259.6024 349.829207 
L 260.18248 349.631989 
L 260.762456 349.073208 
L 261.342344 348.172873 
L 261.922158 346.942985 
L 263.081573 343.656708 
L 265.979801 333.921403 
L 266.559568 332.515372 
L 267.139424 331.519099 
L 267.719371 331.008986 
L 268.298267 331.006511 
L 268.878435 331.518129 
L 269.458708 332.499075 
L 270.03791 333.880767 
L 271.197685 337.465942 
L 272.936987 343.286366 
L 274.09565 346.40365 
L 274.676068 347.558566 
L 275.255247 348.399387 
L 275.83551 348.912597 
L 276.415688 349.088061 
L 276.994609 348.927494 
L 277.574606 348.434047 
L 278.154521 347.621586 
L 278.734356 346.509837 
L 279.893846 343.526536 
L 282.792266 334.683283 
L 283.372055 333.391955 
L 283.951928 332.469164 
L 284.531879 331.972386 
L 285.11077 331.935638 
L 285.690926 332.353686 
L 286.271174 333.202241 
L 286.850337 334.41347 
L 288.010039 337.612472 
L 290.328541 344.466792 
L 291.488208 346.899866 
L 292.068542 347.704675 
L 292.647634 348.208985 
L 293.227807 348.401685 
L 293.807904 348.283338 
L 294.386755 347.857653 
L 294.966687 347.1357 
L 295.546552 346.13785 
L 296.706115 343.442645 
L 299.604711 335.398846 
L 300.184526 334.205354 
L 300.764405 333.337838 
L 301.344367 332.849003 
L 301.923248 332.769715 
L 302.503386 333.101441 
L 303.08361 333.821134 
L 303.662748 334.877655 
L 304.822369 337.721358 
L 307.141899 343.988541 
L 308.300365 346.275175 
L 308.880683 347.051515 
L 309.45977 347.550562 
L 310.039946 347.765932 
L 310.620054 347.690916 
L 311.200081 347.332481 
L 311.778875 346.699863 
L 312.358766 345.811827 
L 313.518387 343.387283 
L 316.996974 334.954633 
L 317.576869 334.132833 
L 318.156833 333.646274 
L 318.735708 333.52549 
L 319.315827 333.774723 
L 319.896031 334.376679 
L 320.475139 335.289422 
L 321.634695 337.80732 
L 323.954094 343.53293 
L 325.113683 345.690772 
L 325.692831 346.439004 
L 326.273071 346.937656 
L 326.852089 347.173888 
L 327.432204 347.144126 
L 328.012249 346.85038 
L 328.592225 346.302711 
L 329.170977 345.518933 
L 330.330666 343.347667 
L 333.809415 335.642279 
L 334.389313 334.858813 
L 334.969281 334.37357 
L 335.548151 334.21316 
L 336.128258 334.387107 
L 336.708438 334.881256 
L 337.287522 335.662936 
L 338.447015 337.883033 
L 341.345502 344.212692 
L 342.504977 345.867448 
L 343.085221 346.365371 
L 343.665406 346.62323 
L 344.244361 346.635814 
L 344.824419 346.404468 
L 345.404417 345.937458 
L 345.984359 345.249619 
L 347.142929 343.314766 
L 350.621839 336.269988 
L 351.201746 335.522133 
L 351.781712 335.036939 
L 352.36058 334.842254 
L 352.940675 334.947306 
L 353.520835 335.345136 
L 354.099893 336.007397 
L 355.259329 337.955972 
L 358.158852 343.753437 
L 359.318299 345.337013 
L 359.897372 345.832511 
L 360.477561 346.109819 
L 361.057689 346.161951 
L 361.636595 345.988837 
L 362.216611 345.597089 
L 362.796575 344.999874 
L 363.956367 343.279712 
L 365.694699 339.926475 
L 366.854377 337.746951 
L 368.01417 336.126793 
L 368.594137 335.643327 
L 369.172998 335.418597 
L 369.753081 335.463395 
L 370.333226 335.774423 
L 370.912263 336.32998 
L 372.07281 338.033518 
L 375.550191 344.167423 
L 376.130471 344.844632 
L 376.710707 345.337714 
L 377.28973 345.631505 
L 377.869863 345.719218 
L 378.449951 345.59922 
L 379.028819 345.27703 
L 379.608801 344.763518 
L 380.768644 343.242817 
L 382.507046 340.213953 
L 383.66676 338.208095 
L 384.826577 336.677251 
L 385.406549 336.197543 
L 385.986568 335.947638 
L 386.565477 335.940263 
L 387.145607 336.174624 
L 387.72579 336.635683 
L 388.885123 338.11376 
L 392.363539 343.738726 
L 393.522871 344.878046 
L 394.101893 345.18574 
L 394.682042 345.305242 
L 395.262138 345.23339 
L 395.84218 344.97377 
L 396.421015 344.537227 
L 397.580901 343.199484 
L 399.320541 340.466307 
L 401.059032 337.828787 
L 401.638966 337.177449 
L 402.218942 336.704018 
L 402.798961 336.434063 
L 403.377861 336.382039 
L 403.957975 336.54911 
L 404.538139 336.92502 
L 405.697431 338.200564 
L 407.435987 340.847952 
L 408.595439 342.595464 
L 409.754819 343.971733 
L 410.335049 344.452676 
L 410.91524 344.771365 
L 411.494224 344.917824 
L 412.074326 344.888947 
L 412.654387 344.686492 
L 413.234405 344.318431 
L 414.393166 343.148723 
L 415.552982 341.559369 
L 417.871406 338.25149 
L 419.031325 337.166276 
L 419.611341 336.881409 
L 420.190235 336.791633 
L 420.77034 336.900508 
L 421.35049 337.200992 
L 421.929515 337.674057 
L 423.089995 339.026693 
L 425.987922 342.989155 
L 427.147231 344.060096 
L 427.72742 344.385953 
L 428.307573 344.55564 
L 428.886522 344.564334 
L 429.466591 344.413038 
L 430.046625 344.107807 
L 431.205421 343.090116 
L 432.365278 341.669579 
L 434.683767 338.631221 
L 435.843699 337.587743 
L 436.423712 337.292512 
L 437.002601 337.171639 
L 437.582695 337.230393 
L 438.162831 337.464777 
L 438.74184 337.859843 
L 439.902282 339.038872 
L 443.380367 343.239894 
L 444.539609 344.028632 
L 445.119763 344.217112 
L 445.698718 344.258525 
L 446.278802 344.15253 
L 446.858848 343.903768 
L 448.017674 343.023991 
L 449.17757 341.757945 
L 451.496119 338.9712 
L 452.656062 337.971415 
L 453.236076 337.669942 
L 453.816124 337.523859 
L 454.395046 337.540102 
L 454.97517 337.716828 
L 455.555328 338.043535 
L 456.714568 339.064794 
L 460.192566 342.922077 
L 461.351804 343.698102 
L 461.931961 343.901379 
L 462.512086 343.970646 
L 463.091011 343.904514 
L 463.671069 343.706078 
L 464.831093 342.950029 
L 465.989856 341.826191 
L 468.888428 338.746826 
L 470.048429 338.015993 
L 470.628473 337.850194 
L 471.207386 337.830606 
L 471.787501 337.957389 
L 472.367646 338.222928 
L 473.526858 339.10285 
L 474.686149 340.285303 
L 474.686149 340.285303 
" clip-path="url(#p2394ff8e1b)" style="fill: none; stroke: #0000ff; stroke-opacity: 0.3; stroke-width: 1.5; stroke-linecap: square"/>
   </g>
   <g id="line2d_19">
    <path d="M 167.423377 567 
L 167.423377 77.76 
" clip-path="url(#p2394ff8e1b)" style="fill: none; stroke-dasharray: 5.55,2.4; stroke-dashoffset: 0; stroke: #ff0000; stroke-width: 1.5"/>
   </g>
   <g id="line2d_20">
    <path d="M 747.163636 567 
L 747.163636 77.76 
" clip-path="url(#p2394ff8e1b)" style="fill: none; stroke-dasharray: 5.55,2.4; stroke-dashoffset: 0; stroke: #000000; stroke-width: 1.5"/>
   </g>
   <g id="patch_3">
    <path d="M 108 567 
L 108 77.76 
" style="fill: none; stroke: #000000; stroke-width: 0.8; stroke-linejoin: miter; stroke-linecap: square"/>
   </g>
   <g id="patch_4">
    <path d="M 777.6 567 
L 777.6 77.76 
" style="fill: none; stroke: #000000; stroke-width: 0.8; stroke-linejoin: miter; stroke-linecap: square"/>
   </g>
   <g id="patch_5">
    <path d="M 108 567 
L 777.6 567 
" style="fill: none; stroke: #000000; stroke-width: 0.8; stroke-linejoin: miter; stroke-linecap: square"/>
   </g>
   <g id="patch_6">
    <path d="M 108 77.76 
L 777.6 77.76 
" style="fill: none; stroke: #000000; stroke-width: 0.8; stroke-linejoin: miter; stroke-linecap: square"/>
   </g>
   <g id="text_18">
    <!-- Pulse Start -->
    <g style="fill: #ff0000" transform="translate(167.423377 96.254744)scale(0.18 -0.18)">
     <defs>
      <path id="DejaVuSans-50" d="M 1259 4147 
L 1259 2394 
L 2053 2394 
Q 2494 2394 2734 2622 
Q 2975 2850 2975 3272 
Q 2975 3691 2734 3919 
Q 2494 4147 2053 4147 
L 1259 4147 
z
M 628 4666 
L 2053 4666 
Q 2838 4666 3239 4311 
Q 3641 3956 3641 3272 
Q 3641 2581 3239 2228 
Q 2838 1875 2053 1875 
L 1259 1875 
L 1259 0 
L 628 0 
L 628 4666 
z
" transform="scale(0.015625)"/>
      <path id="DejaVuSans-75" d="M 544 1381 
L 544 3500 
L 1119 3500 
L 1119 1403 
Q 1119 906 1312 657 
Q 1506 409 1894 409 
Q 2359 409 2629 706 
Q 2900 1003 2900 1516 
L 2900 3500 
L 3475 3500 
L 3475 0 
L 2900 0 
L 2900 538 
Q 2691 219 2414 64 
Q 2138 -91 1772 -91 
Q 1169 -91 856 284 
Q 544 659 544 1381 
z
M 1991 3584 
L 1991 3584 
z
" transform="scale(0.015625)"/>
      <path id="DejaVuSans-6c" d="M 603 4863 
L 1178 4863 
L 1178 0 
L 603 0 
L 603 4863 
z
" transform="scale(0.015625)"/>
      <path id="DejaVuSans-53" d="M 3425 4513 
L 3425 3897 
Q 3066 4069 2747 4153 
Q 2428 4238 2131 4238 
Q 1616 4238 1336 4038 
Q 1056 3838 1056 3469 
Q 1056 3159 1242 3001 
Q 1428 2844 1947 2747 
L 2328 2669 
Q 3034 2534 3370 2195 
Q 3706 1856 3706 1288 
Q 3706 609 3251 259 
Q 2797 -91 1919 -91 
Q 1588 -91 1214 -16 
Q 841 59 441 206 
L 441 856 
Q 825 641 1194 531 
Q 1563 422 1919 422 
Q 2459 422 2753 634 
Q 3047 847 3047 1241 
Q 3047 1584 2836 1778 
Q 2625 1972 2144 2069 
L 1759 2144 
Q 1053 2284 737 2584 
Q 422 2884 422 3419 
Q 422 4038 858 4394 
Q 1294 4750 2059 4750 
Q 2388 4750 2728 4690 
Q 3069 4631 3425 4513 
z
" transform="scale(0.015625)"/>
      <path id="DejaVuSans-72" d="M 2631 2963 
Q 2534 3019 2420 3045 
Q 2306 3072 2169 3072 
Q 1681 3072 1420 2755 
Q 1159 2438 1159 1844 
L 1159 0 
L 581 0 
L 581 3500 
L 1159 3500 
L 1159 2956 
Q 1341 3275 1631 3429 
Q 1922 3584 2338 3584 
Q 2397 3584 2469 3576 
Q 2541 3569 2628 3553 
L 2631 2963 
z
" transform="scale(0.015625)"/>
     </defs>
     <use xlink:href="#DejaVuSans-50"/>
     <use xlink:href="#DejaVuSans-75" x="58.552734"/>
     <use xlink:href="#DejaVuSans-6c" x="121.931641"/>
     <use xlink:href="#DejaVuSans-73" x="149.714844"/>
     <use xlink:href="#DejaVuSans-65" x="201.814453"/>
     <use xlink:href="#DejaVuSans-20" x="263.337891"/>
     <use xlink:href="#DejaVuSans-53" x="295.125"/>
     <use xlink:href="#DejaVuSans-74" x="358.601562"/>
     <use xlink:href="#DejaVuSans-61" x="397.810547"/>
     <use xlink:href="#DejaVuSans-72" x="459.089844"/>
     <use xlink:href="#DejaVuSans-74" x="500.203125"/>
    </g>
   </g>
   <g id="text_19">
    <!-- Pulse End -->
    <g transform="translate(747.163636 96.254744)scale(0.18 -0.18)">
     <defs>
      <path id="DejaVuSans-45" d="M 628 4666 
L 3578 4666 
L 3578 4134 
L 1259 4134 
L 1259 2753 
L 3481 2753 
L 3481 2222 
L 1259 2222 
L 1259 531 
L 3634 531 
L 3634 0 
L 628 0 
L 628 4666 
z
" transform="scale(0.015625)"/>
      <path id="DejaVuSans-64" d="M 2906 2969 
L 2906 4863 
L 3481 4863 
L 3481 0 
L 2906 0 
L 2906 525 
Q 2725 213 2448 61 
Q 2172 -91 1784 -91 
Q 1150 -91 751 415 
Q 353 922 353 1747 
Q 353 2572 751 3078 
Q 1150 3584 1784 3584 
Q 2172 3584 2448 3432 
Q 2725 3281 2906 2969 
z
M 947 1747 
Q 947 1113 1208 752 
Q 1469 391 1925 391 
Q 2381 391 2643 752 
Q 2906 1113 2906 1747 
Q 2906 2381 2643 2742 
Q 2381 3103 1925 3103 
Q 1469 3103 1208 2742 
Q 947 2381 947 1747 
z
" transform="scale(0.015625)"/>
     </defs>
     <use xlink:href="#DejaVuSans-50"/>
     <use xlink:href="#DejaVuSans-75" x="58.552734"/>
     <use xlink:href="#DejaVuSans-6c" x="121.931641"/>
     <use xlink:href="#DejaVuSans-73" x="149.714844"/>
     <use xlink:href="#DejaVuSans-65" x="201.814453"/>
     <use xlink:href="#DejaVuSans-20" x="263.337891"/>
     <use xlink:href="#DejaVuSans-45" x="295.125"/>
     <use xlink:href="#DejaVuSans-6e" x="358.308594"/>
     <use xlink:href="#DejaVuSans-64" x="421.6875"/>
    </g>
   </g>
   <g id="legend_1">
    <g id="patch_7">
     <path d="M 365.454844 558 
L 520.145156 558 
Q 523.745156 558 523.745156 554.4 
L 523.745156 424.096875 
Q 523.745156 420.496875 520.145156 420.496875 
L 365.454844 420.496875 
Q 361.854844 420.496875 361.854844 424.096875 
L 361.854844 554.4 
Q 361.854844 558 365.454844 558 
z
" style="fill: #ffffff; opacity: 0.8; stroke: #cccccc; stroke-linejoin: miter"/>
    </g>
    <g id="line2d_21">
     <path d="M 369.054844 435.074063 
L 387.054844 435.074063 
L 405.054844 435.074063 
" style="fill: none; stroke: #ff0000; stroke-opacity: 0.3; stroke-width: 1.5; stroke-linecap: square"/>
    </g>
    <g id="text_20">
     <!-- mx -->
     <g transform="translate(419.454844 441.374063)scale(0.18 -0.18)">
      <defs>
       <path id="DejaVuSans-78" d="M 3513 3500 
L 2247 1797 
L 3578 0 
L 2900 0 
L 1881 1375 
L 863 0 
L 184 0 
L 1544 1831 
L 300 3500 
L 978 3500 
L 1906 2253 
L 2834 3500 
L 3513 3500 
z
" transform="scale(0.015625)"/>
      </defs>
      <use xlink:href="#DejaVuSans-6d"/>
      <use xlink:href="#DejaVuSans-78" x="97.412109"/>
     </g>
    </g>
    <g id="line2d_22">
     <path d="M 369.054844 461.494687 
L 387.054844 461.494687 
L 405.054844 461.494687 
" style="fill: none; stroke: #008000; stroke-opacity: 0.3; stroke-width: 1.5; stroke-linecap: square"/>
    </g>
    <g id="text_21">
     <!-- my -->
     <g transform="translate(419.454844 467.794688)scale(0.18 -0.18)">
      <defs>
       <path id="DejaVuSans-79" d="M 2059 -325 
Q 1816 -950 1584 -1140 
Q 1353 -1331 966 -1331 
L 506 -1331 
L 506 -850 
L 844 -850 
Q 1081 -850 1212 -737 
Q 1344 -625 1503 -206 
L 1606 56 
L 191 3500 
L 800 3500 
L 1894 763 
L 2988 3500 
L 3597 3500 
L 2059 -325 
z
" transform="scale(0.015625)"/>
      </defs>
      <use xlink:href="#DejaVuSans-6d"/>
      <use xlink:href="#DejaVuSans-79" x="97.412109"/>
     </g>
    </g>
    <g id="line2d_23">
     <path d="M 369.054844 487.915313 
L 387.054844 487.915313 
L 405.054844 487.915313 
" style="fill: none; stroke: #0000ff; stroke-opacity: 0.3; stroke-width: 1.5; stroke-linecap: square"/>
    </g>
    <g id="text_22">
     <!-- mz -->
     <g transform="translate(419.454844 494.215313)scale(0.18 -0.18)">
      <use xlink:href="#DejaVuSans-6d"/>
      <use xlink:href="#DejaVuSans-7a" x="97.412109"/>
     </g>
    </g>
    <g id="line2d_24">
     <path d="M 369.054844 514.335938 
L 387.054844 514.335938 
L 405.054844 514.335938 
" style="fill: none; stroke-dasharray: 5.55,2.4; stroke-dashoffset: 0; stroke: #ff0000; stroke-width: 1.5"/>
    </g>
    <g id="text_23">
     <!-- Pulse Start -->
     <g transform="translate(419.454844 520.635938)scale(0.18 -0.18)">
      <use xlink:href="#DejaVuSans-50"/>
      <use xlink:href="#DejaVuSans-75" x="58.552734"/>
      <use xlink:href="#DejaVuSans-6c" x="121.931641"/>
      <use xlink:href="#DejaVuSans-73" x="149.714844"/>
      <use xlink:href="#DejaVuSans-65" x="201.814453"/>
      <use xlink:href="#DejaVuSans-20" x="263.337891"/>
      <use xlink:href="#DejaVuSans-53" x="295.125"/>
      <use xlink:href="#DejaVuSans-74" x="358.601562"/>
      <use xlink:href="#DejaVuSans-61" x="397.810547"/>
      <use xlink:href="#DejaVuSans-72" x="459.089844"/>
      <use xlink:href="#DejaVuSans-74" x="500.203125"/>
     </g>
    </g>
    <g id="line2d_25">
     <path d="M 369.054844 540.756563 
L 387.054844 540.756563 
L 405.054844 540.756563 
" style="fill: none; stroke-dasharray: 5.55,2.4; stroke-dashoffset: 0; stroke: #000000; stroke-width: 1.5"/>
    </g>
    <g id="text_24">
     <!-- Pulse End -->
     <g transform="translate(419.454844 547.056563)scale(0.18 -0.18)">
      <use xlink:href="#DejaVuSans-50"/>
      <use xlink:href="#DejaVuSans-75" x="58.552734"/>
      <use xlink:href="#DejaVuSans-6c" x="121.931641"/>
      <use xlink:href="#DejaVuSans-73" x="149.714844"/>
      <use xlink:href="#DejaVuSans-65" x="201.814453"/>
      <use xlink:href="#DejaVuSans-20" x="263.337891"/>
      <use xlink:href="#DejaVuSans-45" x="295.125"/>
      <use xlink:href="#DejaVuSans-6e" x="358.308594"/>
      <use xlink:href="#DejaVuSans-64" x="421.6875"/>
     </g>
    </g>
   </g>
  </g>
 </g>
 <defs>
  <clipPath id="p2394ff8e1b">
   <rect x="108" y="77.76" width="669.6" height="489.24"/>
  </clipPath>
 </defs>
</svg>
