<?xml version="1.0" encoding="utf-8" standalone="no"?>
<!DOCTYPE svg PUBLIC "-//W3C//DTD SVG 1.1//EN"
  "http://www.w3.org/Graphics/SVG/1.1/DTD/svg11.dtd">
<svg xmlns:xlink="http://www.w3.org/1999/xlink" width="864pt" height="648pt" viewBox="0 0 864 648" xmlns="http://www.w3.org/2000/svg" version="1.1">
 <metadata>
  <rdf:RDF xmlns:dc="http://purl.org/dc/elements/1.1/" xmlns:cc="http://creativecommons.org/ns#" xmlns:rdf="http://www.w3.org/1999/02/22-rdf-syntax-ns#">
   <cc:Work>
    <dc:type rdf:resource="http://purl.org/dc/dcmitype/StillImage"/>
    <dc:date>2023-12-06T04:25:30.718829</dc:date>
    <dc:format>image/svg+xml</dc:format>
    <dc:creator>
     <cc:Agent>
      <dc:title>Matplotlib v3.5.2, https://matplotlib.org/</dc:title>
     </cc:Agent>
    </dc:creator>
   </cc:Work>
  </rdf:RDF>
 </metadata>
 <defs>
  <style type="text/css">*{stroke-linejoin: round; stroke-linecap: butt}</style>
 </defs>
 <g id="figure_1">
  <g id="patch_1">
   <path d="M 0 648 
L 864 648 
L 864 0 
L 0 0 
L 0 648 
z
" style="fill: none"/>
  </g>
  <g id="axes_1">
   <g id="patch_2">
    <path d="M 108 567 
L 777.6 567 
L 777.6 77.76 
L 108 77.76 
z
" style="fill: #ffffff"/>
   </g>
   <g id="matplotlib.axis_1">
    <g id="xtick_1">
     <g id="line2d_1">
      <defs>
       <path id="m1c153cc743" d="M 0 0 
L 0 3.5 
" style="stroke: #000000; stroke-width: 0.8"/>
      </defs>
      <g>
       <use xlink:href="#m1c153cc743" x="138.436364" y="567" style="stroke: #000000; stroke-width: 0.8"/>
      </g>
     </g>
     <g id="text_1">
      <!-- 0 -->
      <g transform="translate(132.710114 587.677187)scale(0.18 -0.18)">
       <defs>
        <path id="DejaVuSans-30" d="M 2034 4250 
Q 1547 4250 1301 3770 
Q 1056 3291 1056 2328 
Q 1056 1369 1301 889 
Q 1547 409 2034 409 
Q 2525 409 2770 889 
Q 3016 1369 3016 2328 
Q 3016 3291 2770 3770 
Q 2525 4250 2034 4250 
z
M 2034 4750 
Q 2819 4750 3233 4129 
Q 3647 3509 3647 2328 
Q 3647 1150 3233 529 
Q 2819 -91 2034 -91 
Q 1250 -91 836 529 
Q 422 1150 422 2328 
Q 422 3509 836 4129 
Q 1250 4750 2034 4750 
z
" transform="scale(0.015625)"/>
       </defs>
       <use xlink:href="#DejaVuSans-30"/>
      </g>
     </g>
    </g>
    <g id="xtick_2">
     <g id="line2d_2">
      <g>
       <use xlink:href="#m1c153cc743" x="286.978879" y="567" style="stroke: #000000; stroke-width: 0.8"/>
      </g>
     </g>
     <g id="text_2">
      <!-- 5 -->
      <g transform="translate(281.252629 587.677187)scale(0.18 -0.18)">
       <defs>
        <path id="DejaVuSans-35" d="M 691 4666 
L 3169 4666 
L 3169 4134 
L 1269 4134 
L 1269 2991 
Q 1406 3038 1543 3061 
Q 1681 3084 1819 3084 
Q 2600 3084 3056 2656 
Q 3513 2228 3513 1497 
Q 3513 744 3044 326 
Q 2575 -91 1722 -91 
Q 1428 -91 1123 -41 
Q 819 9 494 109 
L 494 744 
Q 775 591 1075 516 
Q 1375 441 1709 441 
Q 2250 441 2565 725 
Q 2881 1009 2881 1497 
Q 2881 1984 2565 2268 
Q 2250 2553 1709 2553 
Q 1456 2553 1204 2497 
Q 953 2441 691 2322 
L 691 4666 
z
" transform="scale(0.015625)"/>
       </defs>
       <use xlink:href="#DejaVuSans-35"/>
      </g>
     </g>
    </g>
    <g id="xtick_3">
     <g id="line2d_3">
      <g>
       <use xlink:href="#m1c153cc743" x="435.521393" y="567" style="stroke: #000000; stroke-width: 0.8"/>
      </g>
     </g>
     <g id="text_3">
      <!-- 10 -->
      <g transform="translate(424.068893 587.677187)scale(0.18 -0.18)">
       <defs>
        <path id="DejaVuSans-31" d="M 794 531 
L 1825 531 
L 1825 4091 
L 703 3866 
L 703 4441 
L 1819 4666 
L 2450 4666 
L 2450 531 
L 3481 531 
L 3481 0 
L 794 0 
L 794 531 
z
" transform="scale(0.015625)"/>
       </defs>
       <use xlink:href="#DejaVuSans-31"/>
       <use xlink:href="#DejaVuSans-30" x="63.623047"/>
      </g>
     </g>
    </g>
    <g id="xtick_4">
     <g id="line2d_4">
      <g>
       <use xlink:href="#m1c153cc743" x="584.063908" y="567" style="stroke: #000000; stroke-width: 0.8"/>
      </g>
     </g>
     <g id="text_4">
      <!-- 15 -->
      <g transform="translate(572.611408 587.677187)scale(0.18 -0.18)">
       <use xlink:href="#DejaVuSans-31"/>
       <use xlink:href="#DejaVuSans-35" x="63.623047"/>
      </g>
     </g>
    </g>
    <g id="xtick_5">
     <g id="line2d_5">
      <g>
       <use xlink:href="#m1c153cc743" x="732.606423" y="567" style="stroke: #000000; stroke-width: 0.8"/>
      </g>
     </g>
     <g id="text_5">
      <!-- 20 -->
      <g transform="translate(721.153923 587.677187)scale(0.18 -0.18)">
       <defs>
        <path id="DejaVuSans-32" d="M 1228 531 
L 3431 531 
L 3431 0 
L 469 0 
L 469 531 
Q 828 903 1448 1529 
Q 2069 2156 2228 2338 
Q 2531 2678 2651 2914 
Q 2772 3150 2772 3378 
Q 2772 3750 2511 3984 
Q 2250 4219 1831 4219 
Q 1534 4219 1204 4116 
Q 875 4013 500 3803 
L 500 4441 
Q 881 4594 1212 4672 
Q 1544 4750 1819 4750 
Q 2544 4750 2975 4387 
Q 3406 4025 3406 3419 
Q 3406 3131 3298 2873 
Q 3191 2616 2906 2266 
Q 2828 2175 2409 1742 
Q 1991 1309 1228 531 
z
" transform="scale(0.015625)"/>
       </defs>
       <use xlink:href="#DejaVuSans-32"/>
       <use xlink:href="#DejaVuSans-30" x="63.623047"/>
      </g>
     </g>
    </g>
    <g id="text_6">
     <!-- Time (ns) -->
     <g transform="translate(400.504219 609.097813)scale(0.18 -0.18)">
      <defs>
       <path id="DejaVuSans-54" d="M -19 4666 
L 3928 4666 
L 3928 4134 
L 2272 4134 
L 2272 0 
L 1638 0 
L 1638 4134 
L -19 4134 
L -19 4666 
z
" transform="scale(0.015625)"/>
       <path id="DejaVuSans-69" d="M 603 3500 
L 1178 3500 
L 1178 0 
L 603 0 
L 603 3500 
z
M 603 4863 
L 1178 4863 
L 1178 4134 
L 603 4134 
L 603 4863 
z
" transform="scale(0.015625)"/>
       <path id="DejaVuSans-6d" d="M 3328 2828 
Q 3544 3216 3844 3400 
Q 4144 3584 4550 3584 
Q 5097 3584 5394 3201 
Q 5691 2819 5691 2113 
L 5691 0 
L 5113 0 
L 5113 2094 
Q 5113 2597 4934 2840 
Q 4756 3084 4391 3084 
Q 3944 3084 3684 2787 
Q 3425 2491 3425 1978 
L 3425 0 
L 2847 0 
L 2847 2094 
Q 2847 2600 2669 2842 
Q 2491 3084 2119 3084 
Q 1678 3084 1418 2786 
Q 1159 2488 1159 1978 
L 1159 0 
L 581 0 
L 581 3500 
L 1159 3500 
L 1159 2956 
Q 1356 3278 1631 3431 
Q 1906 3584 2284 3584 
Q 2666 3584 2933 3390 
Q 3200 3197 3328 2828 
z
" transform="scale(0.015625)"/>
       <path id="DejaVuSans-65" d="M 3597 1894 
L 3597 1613 
L 953 1613 
Q 991 1019 1311 708 
Q 1631 397 2203 397 
Q 2534 397 2845 478 
Q 3156 559 3463 722 
L 3463 178 
Q 3153 47 2828 -22 
Q 2503 -91 2169 -91 
Q 1331 -91 842 396 
Q 353 884 353 1716 
Q 353 2575 817 3079 
Q 1281 3584 2069 3584 
Q 2775 3584 3186 3129 
Q 3597 2675 3597 1894 
z
M 3022 2063 
Q 3016 2534 2758 2815 
Q 2500 3097 2075 3097 
Q 1594 3097 1305 2825 
Q 1016 2553 972 2059 
L 3022 2063 
z
" transform="scale(0.015625)"/>
       <path id="DejaVuSans-20" transform="scale(0.015625)"/>
       <path id="DejaVuSans-28" d="M 1984 4856 
Q 1566 4138 1362 3434 
Q 1159 2731 1159 2009 
Q 1159 1288 1364 580 
Q 1569 -128 1984 -844 
L 1484 -844 
Q 1016 -109 783 600 
Q 550 1309 550 2009 
Q 550 2706 781 3412 
Q 1013 4119 1484 4856 
L 1984 4856 
z
" transform="scale(0.015625)"/>
       <path id="DejaVuSans-6e" d="M 3513 2113 
L 3513 0 
L 2938 0 
L 2938 2094 
Q 2938 2591 2744 2837 
Q 2550 3084 2163 3084 
Q 1697 3084 1428 2787 
Q 1159 2491 1159 1978 
L 1159 0 
L 581 0 
L 581 3500 
L 1159 3500 
L 1159 2956 
Q 1366 3272 1645 3428 
Q 1925 3584 2291 3584 
Q 2894 3584 3203 3211 
Q 3513 2838 3513 2113 
z
" transform="scale(0.015625)"/>
       <path id="DejaVuSans-73" d="M 2834 3397 
L 2834 2853 
Q 2591 2978 2328 3040 
Q 2066 3103 1784 3103 
Q 1356 3103 1142 2972 
Q 928 2841 928 2578 
Q 928 2378 1081 2264 
Q 1234 2150 1697 2047 
L 1894 2003 
Q 2506 1872 2764 1633 
Q 3022 1394 3022 966 
Q 3022 478 2636 193 
Q 2250 -91 1575 -91 
Q 1294 -91 989 -36 
Q 684 19 347 128 
L 347 722 
Q 666 556 975 473 
Q 1284 391 1588 391 
Q 1994 391 2212 530 
Q 2431 669 2431 922 
Q 2431 1156 2273 1281 
Q 2116 1406 1581 1522 
L 1381 1569 
Q 847 1681 609 1914 
Q 372 2147 372 2553 
Q 372 3047 722 3315 
Q 1072 3584 1716 3584 
Q 2034 3584 2315 3537 
Q 2597 3491 2834 3397 
z
" transform="scale(0.015625)"/>
       <path id="DejaVuSans-29" d="M 513 4856 
L 1013 4856 
Q 1481 4119 1714 3412 
Q 1947 2706 1947 2009 
Q 1947 1309 1714 600 
Q 1481 -109 1013 -844 
L 513 -844 
Q 928 -128 1133 580 
Q 1338 1288 1338 2009 
Q 1338 2731 1133 3434 
Q 928 4138 513 4856 
z
" transform="scale(0.015625)"/>
      </defs>
      <use xlink:href="#DejaVuSans-54"/>
      <use xlink:href="#DejaVuSans-69" x="57.958984"/>
      <use xlink:href="#DejaVuSans-6d" x="85.742188"/>
      <use xlink:href="#DejaVuSans-65" x="183.154297"/>
      <use xlink:href="#DejaVuSans-20" x="244.677734"/>
      <use xlink:href="#DejaVuSans-28" x="276.464844"/>
      <use xlink:href="#DejaVuSans-6e" x="315.478516"/>
      <use xlink:href="#DejaVuSans-73" x="378.857422"/>
      <use xlink:href="#DejaVuSans-29" x="430.957031"/>
     </g>
    </g>
   </g>
   <g id="matplotlib.axis_2">
    <g id="ytick_1">
     <g id="line2d_6">
      <defs>
       <path id="ma14cd53d96" d="M 0 0 
L -3.5 0 
" style="stroke: #000000; stroke-width: 0.8"/>
      </defs>
      <g>
       <use xlink:href="#ma14cd53d96" x="108" y="544.761818" style="stroke: #000000; stroke-width: 0.8"/>
      </g>
     </g>
     <g id="text_7">
      <!-- −1.00 -->
      <g transform="translate(45.838438 551.600412)scale(0.18 -0.18)">
       <defs>
        <path id="DejaVuSans-2212" d="M 678 2272 
L 4684 2272 
L 4684 1741 
L 678 1741 
L 678 2272 
z
" transform="scale(0.015625)"/>
        <path id="DejaVuSans-2e" d="M 684 794 
L 1344 794 
L 1344 0 
L 684 0 
L 684 794 
z
" transform="scale(0.015625)"/>
       </defs>
       <use xlink:href="#DejaVuSans-2212"/>
       <use xlink:href="#DejaVuSans-31" x="83.789062"/>
       <use xlink:href="#DejaVuSans-2e" x="147.412109"/>
       <use xlink:href="#DejaVuSans-30" x="179.199219"/>
       <use xlink:href="#DejaVuSans-30" x="242.822266"/>
      </g>
     </g>
    </g>
    <g id="ytick_2">
     <g id="line2d_7">
      <g>
       <use xlink:href="#ma14cd53d96" x="108" y="489.166364" style="stroke: #000000; stroke-width: 0.8"/>
      </g>
     </g>
     <g id="text_8">
      <!-- −0.75 -->
      <g transform="translate(45.838438 496.004957)scale(0.18 -0.18)">
       <defs>
        <path id="DejaVuSans-37" d="M 525 4666 
L 3525 4666 
L 3525 4397 
L 1831 0 
L 1172 0 
L 2766 4134 
L 525 4134 
L 525 4666 
z
" transform="scale(0.015625)"/>
       </defs>
       <use xlink:href="#DejaVuSans-2212"/>
       <use xlink:href="#DejaVuSans-30" x="83.789062"/>
       <use xlink:href="#DejaVuSans-2e" x="147.412109"/>
       <use xlink:href="#DejaVuSans-37" x="179.199219"/>
       <use xlink:href="#DejaVuSans-35" x="242.822266"/>
      </g>
     </g>
    </g>
    <g id="ytick_3">
     <g id="line2d_8">
      <g>
       <use xlink:href="#ma14cd53d96" x="108" y="433.570909" style="stroke: #000000; stroke-width: 0.8"/>
      </g>
     </g>
     <g id="text_9">
      <!-- −0.50 -->
      <g transform="translate(45.838438 440.409503)scale(0.18 -0.18)">
       <use xlink:href="#DejaVuSans-2212"/>
       <use xlink:href="#DejaVuSans-30" x="83.789062"/>
       <use xlink:href="#DejaVuSans-2e" x="147.412109"/>
       <use xlink:href="#DejaVuSans-35" x="179.199219"/>
       <use xlink:href="#DejaVuSans-30" x="242.822266"/>
      </g>
     </g>
    </g>
    <g id="ytick_4">
     <g id="line2d_9">
      <g>
       <use xlink:href="#ma14cd53d96" x="108" y="377.975455" style="stroke: #000000; stroke-width: 0.8"/>
      </g>
     </g>
     <g id="text_10">
      <!-- −0.25 -->
      <g transform="translate(45.838438 384.814048)scale(0.18 -0.18)">
       <use xlink:href="#DejaVuSans-2212"/>
       <use xlink:href="#DejaVuSans-30" x="83.789062"/>
       <use xlink:href="#DejaVuSans-2e" x="147.412109"/>
       <use xlink:href="#DejaVuSans-32" x="179.199219"/>
       <use xlink:href="#DejaVuSans-35" x="242.822266"/>
      </g>
     </g>
    </g>
    <g id="ytick_5">
     <g id="line2d_10">
      <g>
       <use xlink:href="#ma14cd53d96" x="108" y="322.38" style="stroke: #000000; stroke-width: 0.8"/>
      </g>
     </g>
     <g id="text_11">
      <!-- 0.00 -->
      <g transform="translate(60.921875 329.218594)scale(0.18 -0.18)">
       <use xlink:href="#DejaVuSans-30"/>
       <use xlink:href="#DejaVuSans-2e" x="63.623047"/>
       <use xlink:href="#DejaVuSans-30" x="95.410156"/>
       <use xlink:href="#DejaVuSans-30" x="159.033203"/>
      </g>
     </g>
    </g>
    <g id="ytick_6">
     <g id="line2d_11">
      <g>
       <use xlink:href="#ma14cd53d96" x="108" y="266.784545" style="stroke: #000000; stroke-width: 0.8"/>
      </g>
     </g>
     <g id="text_12">
      <!-- 0.25 -->
      <g transform="translate(60.921875 273.623139)scale(0.18 -0.18)">
       <use xlink:href="#DejaVuSans-30"/>
       <use xlink:href="#DejaVuSans-2e" x="63.623047"/>
       <use xlink:href="#DejaVuSans-32" x="95.410156"/>
       <use xlink:href="#DejaVuSans-35" x="159.033203"/>
      </g>
     </g>
    </g>
    <g id="ytick_7">
     <g id="line2d_12">
      <g>
       <use xlink:href="#ma14cd53d96" x="108" y="211.189091" style="stroke: #000000; stroke-width: 0.8"/>
      </g>
     </g>
     <g id="text_13">
      <!-- 0.50 -->
      <g transform="translate(60.921875 218.027685)scale(0.18 -0.18)">
       <use xlink:href="#DejaVuSans-30"/>
       <use xlink:href="#DejaVuSans-2e" x="63.623047"/>
       <use xlink:href="#DejaVuSans-35" x="95.410156"/>
       <use xlink:href="#DejaVuSans-30" x="159.033203"/>
      </g>
     </g>
    </g>
    <g id="ytick_8">
     <g id="line2d_13">
      <g>
       <use xlink:href="#ma14cd53d96" x="108" y="155.593636" style="stroke: #000000; stroke-width: 0.8"/>
      </g>
     </g>
     <g id="text_14">
      <!-- 0.75 -->
      <g transform="translate(60.921875 162.43223)scale(0.18 -0.18)">
       <use xlink:href="#DejaVuSans-30"/>
       <use xlink:href="#DejaVuSans-2e" x="63.623047"/>
       <use xlink:href="#DejaVuSans-37" x="95.410156"/>
       <use xlink:href="#DejaVuSans-35" x="159.033203"/>
      </g>
     </g>
    </g>
    <g id="ytick_9">
     <g id="line2d_14">
      <g>
       <use xlink:href="#ma14cd53d96" x="108" y="99.998182" style="stroke: #000000; stroke-width: 0.8"/>
      </g>
     </g>
     <g id="text_15">
      <!-- 1.00 -->
      <g transform="translate(60.921875 106.836776)scale(0.18 -0.18)">
       <use xlink:href="#DejaVuSans-31"/>
       <use xlink:href="#DejaVuSans-2e" x="63.623047"/>
       <use xlink:href="#DejaVuSans-30" x="95.410156"/>
       <use xlink:href="#DejaVuSans-30" x="159.033203"/>
      </g>
     </g>
    </g>
    <g id="text_16">
     <!-- Magnetization -->
     <g transform="translate(38.095 386.1225)rotate(-90)scale(0.18 -0.18)">
      <defs>
       <path id="DejaVuSans-4d" d="M 628 4666 
L 1569 4666 
L 2759 1491 
L 3956 4666 
L 4897 4666 
L 4897 0 
L 4281 0 
L 4281 4097 
L 3078 897 
L 2444 897 
L 1241 4097 
L 1241 0 
L 628 0 
L 628 4666 
z
" transform="scale(0.015625)"/>
       <path id="DejaVuSans-61" d="M 2194 1759 
Q 1497 1759 1228 1600 
Q 959 1441 959 1056 
Q 959 750 1161 570 
Q 1363 391 1709 391 
Q 2188 391 2477 730 
Q 2766 1069 2766 1631 
L 2766 1759 
L 2194 1759 
z
M 3341 1997 
L 3341 0 
L 2766 0 
L 2766 531 
Q 2569 213 2275 61 
Q 1981 -91 1556 -91 
Q 1019 -91 701 211 
Q 384 513 384 1019 
Q 384 1609 779 1909 
Q 1175 2209 1959 2209 
L 2766 2209 
L 2766 2266 
Q 2766 2663 2505 2880 
Q 2244 3097 1772 3097 
Q 1472 3097 1187 3025 
Q 903 2953 641 2809 
L 641 3341 
Q 956 3463 1253 3523 
Q 1550 3584 1831 3584 
Q 2591 3584 2966 3190 
Q 3341 2797 3341 1997 
z
" transform="scale(0.015625)"/>
       <path id="DejaVuSans-67" d="M 2906 1791 
Q 2906 2416 2648 2759 
Q 2391 3103 1925 3103 
Q 1463 3103 1205 2759 
Q 947 2416 947 1791 
Q 947 1169 1205 825 
Q 1463 481 1925 481 
Q 2391 481 2648 825 
Q 2906 1169 2906 1791 
z
M 3481 434 
Q 3481 -459 3084 -895 
Q 2688 -1331 1869 -1331 
Q 1566 -1331 1297 -1286 
Q 1028 -1241 775 -1147 
L 775 -588 
Q 1028 -725 1275 -790 
Q 1522 -856 1778 -856 
Q 2344 -856 2625 -561 
Q 2906 -266 2906 331 
L 2906 616 
Q 2728 306 2450 153 
Q 2172 0 1784 0 
Q 1141 0 747 490 
Q 353 981 353 1791 
Q 353 2603 747 3093 
Q 1141 3584 1784 3584 
Q 2172 3584 2450 3431 
Q 2728 3278 2906 2969 
L 2906 3500 
L 3481 3500 
L 3481 434 
z
" transform="scale(0.015625)"/>
       <path id="DejaVuSans-74" d="M 1172 4494 
L 1172 3500 
L 2356 3500 
L 2356 3053 
L 1172 3053 
L 1172 1153 
Q 1172 725 1289 603 
Q 1406 481 1766 481 
L 2356 481 
L 2356 0 
L 1766 0 
Q 1100 0 847 248 
Q 594 497 594 1153 
L 594 3053 
L 172 3053 
L 172 3500 
L 594 3500 
L 594 4494 
L 1172 4494 
z
" transform="scale(0.015625)"/>
       <path id="DejaVuSans-7a" d="M 353 3500 
L 3084 3500 
L 3084 2975 
L 922 459 
L 3084 459 
L 3084 0 
L 275 0 
L 275 525 
L 2438 3041 
L 353 3041 
L 353 3500 
z
" transform="scale(0.015625)"/>
       <path id="DejaVuSans-6f" d="M 1959 3097 
Q 1497 3097 1228 2736 
Q 959 2375 959 1747 
Q 959 1119 1226 758 
Q 1494 397 1959 397 
Q 2419 397 2687 759 
Q 2956 1122 2956 1747 
Q 2956 2369 2687 2733 
Q 2419 3097 1959 3097 
z
M 1959 3584 
Q 2709 3584 3137 3096 
Q 3566 2609 3566 1747 
Q 3566 888 3137 398 
Q 2709 -91 1959 -91 
Q 1206 -91 779 398 
Q 353 888 353 1747 
Q 353 2609 779 3096 
Q 1206 3584 1959 3584 
z
" transform="scale(0.015625)"/>
      </defs>
      <use xlink:href="#DejaVuSans-4d"/>
      <use xlink:href="#DejaVuSans-61" x="86.279297"/>
      <use xlink:href="#DejaVuSans-67" x="147.558594"/>
      <use xlink:href="#DejaVuSans-6e" x="211.035156"/>
      <use xlink:href="#DejaVuSans-65" x="274.414062"/>
      <use xlink:href="#DejaVuSans-74" x="335.9375"/>
      <use xlink:href="#DejaVuSans-69" x="375.146484"/>
      <use xlink:href="#DejaVuSans-7a" x="402.929688"/>
      <use xlink:href="#DejaVuSans-61" x="455.419922"/>
      <use xlink:href="#DejaVuSans-74" x="516.699219"/>
      <use xlink:href="#DejaVuSans-69" x="555.908203"/>
      <use xlink:href="#DejaVuSans-6f" x="583.691406"/>
      <use xlink:href="#DejaVuSans-6e" x="644.873047"/>
     </g>
    </g>
   </g>
   <g id="line2d_15">
    <path d="M 138.436364 309.142353 
L 153.290615 309.142081 
L 153.290615 309.142081 
L 153.588076 285.364893 
L 154.182331 195.042221 
L 154.47916 170.424313 
L 154.776285 162.11078 
L 155.073585 169.224063 
L 155.370519 193.83219 
L 155.667497 240.81783 
L 156.261827 352.069983 
L 156.558583 323.690321 
L 157.153303 189.970174 
L 157.450203 153.126577 
L 157.746984 133.097603 
L 158.044102 121.912709 
L 158.638194 110.794619 
L 158.935291 107.928562 
L 159.232499 107.789418 
L 159.529453 113.417279 
L 159.826802 129.049326 
L 160.123992 158.55336 
L 160.717893 254.172761 
L 161.609058 397.118637 
L 162.203244 456.55218 
L 162.797708 493.356504 
L 163.391704 513.191873 
L 163.688826 516.440693 
L 163.986185 513.505453 
L 164.283114 501.405814 
L 164.580179 474.874663 
L 164.877307 426.002304 
L 165.471606 265.893533 
L 165.768649 245.557467 
L 166.659833 440.502506 
L 166.956973 463.316403 
L 167.253683 460.055214 
L 167.550931 430.946461 
L 168.144936 317.991589 
L 168.442527 294.693521 
L 168.739141 327.110953 
L 169.33346 419.26482 
L 169.630292 433.056117 
L 169.927804 422.040209 
L 170.818982 325.820679 
L 171.1159 335.95336 
L 171.71012 398.094329 
L 172.007437 411.762004 
L 172.304409 406.413352 
L 173.195498 344.383884 
L 173.492416 349.719659 
L 174.086881 389.129081 
L 174.384039 398.399697 
L 174.681013 394.551295 
L 175.572424 355.517135 
L 175.869361 359.538668 
L 176.46361 384.444519 
L 176.76069 389.933218 
L 177.057628 386.715131 
L 177.651832 367.180383 
L 177.948673 362.557552 
L 178.246217 365.769584 
L 178.840341 381.477746 
L 179.137364 384.459801 
L 179.434291 381.812442 
L 180.028596 369.390489 
L 180.325477 367.072861 
L 180.623031 369.573382 
L 181.217067 379.423556 
L 181.514053 380.91524 
L 181.810982 378.839319 
L 182.405348 371.040133 
L 182.702258 369.966038 
L 182.999213 371.836413 
L 183.593796 377.97018 
L 183.890759 378.635824 
L 184.187687 377.077532 
L 184.782095 372.238053 
L 185.07902 371.807161 
L 185.37597 373.166926 
L 185.970521 376.948342 
L 186.26747 377.184171 
L 186.564402 376.054405 
L 187.15884 373.084914 
L 187.455774 372.968539 
L 187.752725 373.93226 
L 188.346649 376.238935 
L 188.644193 376.269464 
L 189.535579 373.670596 
L 189.83252 373.694293 
L 190.723376 375.755697 
L 191.020918 375.699221 
L 191.91172 374.068726 
L 192.209258 374.143571 
L 193.1001 375.430355 
L 193.397641 375.347451 
L 194.288454 374.334504 
L 194.585994 374.418991 
L 195.47683 375.214242 
L 195.773777 375.133164 
L 196.665193 374.509941 
L 196.962136 374.585713 
L 197.853569 375.072429 
L 198.448049 374.838612 
L 199.041924 374.624378 
L 199.636412 374.819412 
L 200.2303 374.980414 
L 201.715608 374.745281 
L 202.607035 374.921336 
L 204.092339 374.779928 
L 204.983767 374.883798 
L 206.469074 374.79982 
L 207.65744 374.839588 
L 208.845807 374.811008 
L 210.331118 374.81383 
L 213.302329 374.812513 
L 217.461314 374.819292 
L 238.554366 374.822845 
L 450.375645 374.822908 
L 450.375645 374.822908 
L 450.672806 354.255861 
L 451.267485 257.239807 
L 451.564559 245.718027 
L 451.861618 275.328864 
L 452.455669 367.293293 
L 452.752665 366.811578 
L 453.643801 247.206829 
L 453.940878 259.94342 
L 454.534932 353.151597 
L 454.831943 370.746842 
L 455.12954 345.413083 
L 455.723621 255.827155 
L 456.020672 251.585749 
L 456.317728 285.321447 
L 456.911761 367.104849 
L 457.208761 358.550934 
L 457.80282 269.47259 
L 458.099873 250.044892 
L 458.397504 270.011886 
L 458.991538 357.59906 
L 459.28855 365.078081 
L 459.585557 333.612432 
L 460.17963 254.539246 
L 460.476661 259.781497 
L 461.368298 365.60459 
L 461.665316 347.309459 
L 462.259345 263.448184 
L 462.556414 255.127704 
L 462.853431 282.882229 
L 463.447455 360.734428 
L 463.745041 356.464633 
L 464.636118 255.291046 
L 464.933148 271.308185 
L 465.52717 351.980884 
L 465.824154 360.796014 
L 466.121159 333.131563 
L 466.715801 259.61424 
L 467.012832 263.715803 
L 467.903854 360.597583 
L 468.200857 344.073627 
L 468.795482 267.202461 
L 469.092503 259.99202 
L 469.38953 286.194813 
L 469.983522 356.742265 
L 470.280529 351.462387 
L 470.874539 276.955149 
L 471.172162 259.958544 
L 471.469176 276.484387 
L 472.063184 349.928804 
L 472.360177 355.414844 
L 472.657178 328.065573 
L 472.954181 287.921081 
L 473.251203 262.968089 
L 473.548821 269.719534 
L 474.14282 341.167828 
L 474.439814 356.09315 
L 474.736804 337.467277 
L 475.330819 268.399362 
L 475.62844 265.860883 
L 475.925447 292.965581 
L 476.222442 331.347461 
L 476.519434 353.898002 
L 476.816424 344.459681 
L 477.410433 275.653733 
L 477.70804 264.636337 
L 478.005055 284.31117 
L 478.599041 349.479439 
L 478.896031 348.868361 
L 479.787631 265.826091 
L 480.08464 277.648914 
L 480.678634 343.336073 
L 480.975613 350.874861 
L 481.272606 328.570012 
L 481.867211 268.988634 
L 482.164221 273.073437 
L 483.055192 350.706393 
L 483.352179 335.440421 
L 483.946777 273.673147 
L 484.243789 270.542754 
L 484.540787 294.1309 
L 484.837777 328.230619 
L 485.134763 348.619113 
L 485.431747 340.584774 
L 486.026337 279.518255 
L 486.323339 269.831924 
L 486.620347 287.472519 
L 487.214324 345.036094 
L 487.511304 343.938115 
L 488.402891 270.761284 
L 488.699894 282.248744 
L 489.293875 340.305923 
L 489.59145 345.578798 
L 489.888434 324.643307 
L 490.482438 273.08909 
L 490.779434 278.465319 
L 491.373417 334.759316 
L 491.670994 345.739885 
L 491.967973 330.242518 
L 492.561967 276.503992 
L 492.85897 276.118958 
L 493.750527 344.54188 
L 494.047503 334.641545 
L 494.641487 280.771039 
L 494.938491 275.085803 
L 495.235486 293.252205 
L 495.830047 342.216974 
L 496.127023 337.816994 
L 496.721001 285.636506 
L 497.018 275.228263 
L 497.315595 288.717466 
L 497.909558 339.011855 
L 498.206535 339.784426 
L 499.098103 276.417955 
L 499.395099 285.119871 
L 499.989064 335.12273 
L 500.286041 340.647561 
L 500.583021 323.401329 
L 501.177599 278.473588 
L 501.474593 282.523694 
L 502.06856 330.770902 
L 502.365537 340.506678 
L 502.663109 327.443311 
L 503.257089 281.229505 
L 503.554083 280.894249 
L 504.445623 339.47534 
L 504.742596 330.70974 
L 505.33657 284.540915 
L 505.63356 280.146886 
L 505.93055 296.241982 
L 506.525102 337.706041 
L 506.822076 333.131213 
L 507.416046 288.23949 
L 507.713632 280.216774 
L 508.010621 292.721749 
L 508.604579 335.328128 
L 508.901551 334.734505 
L 509.793106 280.997719 
L 510.090092 289.835817 
L 510.684049 332.467011 
L 510.981023 335.578782 
L 511.278594 319.487932 
L 511.575577 296.194452 
L 511.872567 282.390181 
L 512.169556 287.641656 
L 512.763513 329.264839 
L 513.061083 335.706561 
L 513.358056 322.814444 
L 513.952025 284.299502 
L 514.249014 286.113855 
L 515.140543 335.213626 
L 515.437516 325.578033 
L 516.031484 286.629819 
L 516.329065 285.227183 
L 516.626051 300.848846 
L 516.92303 322.331913 
L 517.220001 334.173164 
L 517.516972 327.761971 
L 518.111533 289.247475 
L 518.40852 284.907234 
L 518.705503 297.822543 
L 519.299455 332.661499 
L 519.597021 329.35524 
L 520.190979 292.113545 
L 520.48797 285.120102 
L 520.784949 295.258039 
L 521.379498 330.777882 
L 521.67647 330.43594 
L 522.56741 285.802914 
L 522.864393 293.169459 
L 523.45894 328.581108 
L 523.755912 330.997578 
L 524.052883 317.540612 
L 524.349861 298.196295 
L 524.647443 286.892723 
L 524.944427 291.572677 
L 525.538377 326.156454 
L 525.835348 331.082623 
L 526.132916 320.006621 
L 526.726877 288.336753 
L 527.023861 290.399978 
L 527.617813 323.576006 
L 527.91538 330.736281 
L 528.212351 322.119091 
L 528.806309 290.066138 
L 529.103294 289.66505 
L 529.994813 330.010884 
L 530.291782 323.839453 
L 530.885738 292.02457 
L 531.183317 289.347629 
L 531.480298 300.852982 
L 531.777272 318.253836 
L 532.074241 328.951568 
L 532.37121 325.169139 
L 532.965761 294.130913 
L 533.262742 289.390009 
L 533.559721 298.806876 
L 534.153668 327.612341 
L 534.451233 326.098224 
L 535.342165 289.775794 
L 535.639145 297.083698 
L 536.233687 326.056719 
L 536.530656 326.68581 
L 537.421585 290.465496 
L 537.719161 295.709603 
L 538.313108 324.306512 
L 538.610075 326.931862 
L 538.907046 316.604998 
L 539.20462 300.973731 
L 539.501598 291.411971 
L 539.798578 294.631904 
L 540.392526 322.423636 
L 540.69009 326.854591 
L 540.98706 318.348029 
L 541.581014 292.589098 
L 541.877993 293.865509 
L 542.769507 326.498188 
L 543.066476 319.848549 
L 543.660428 293.954055 
L 543.958002 293.408364 
L 544.84892 325.884929 
L 545.145889 321.073303 
L 545.740436 295.450489 
L 546.037415 293.21776 
L 546.334393 302.430261 
L 546.631365 316.424233 
L 546.928332 325.045248 
L 547.225898 322.008654 
L 547.819846 297.074065 
L 548.116823 293.28727 
L 548.413801 300.910952 
L 549.008339 324.021895 
L 549.305308 322.699607 
L 549.899254 298.775744 
L 550.196233 293.59447 
L 550.493807 299.642494 
L 551.087748 322.832323 
L 551.384717 323.134483 
L 552.276234 294.114399 
L 552.573213 298.578838 
L 553.167157 321.513546 
L 553.46472 323.320261 
L 553.76169 314.78674 
L 554.058665 302.258318 
L 554.355642 294.822792 
L 554.652618 297.742941 
L 555.24716 320.113352 
L 555.544127 323.291793 
L 555.841097 316.148132 
L 556.435047 295.694532 
L 556.732619 297.143307 
L 557.326564 318.630527 
L 557.623533 323.055221 
L 557.920501 317.3177 
L 558.515046 296.694795 
L 558.812022 296.741615 
L 559.703531 322.632218 
L 560.0005 318.274261 
L 560.594446 297.816202 
L 560.891422 296.543382 
L 561.188398 304.351337 
L 561.485965 315.588373 
L 561.782933 322.043878 
L 562.079901 319.0554 
L 562.673847 299.025439 
L 562.971419 296.541663 
L 563.268395 303.164189 
L 563.862334 321.309361 
L 564.159302 319.644902 
L 564.753843 300.283597 
L 565.050818 296.709387 
L 565.347795 302.11766 
L 565.941734 320.450572 
L 566.239299 320.038322 
L 567.130218 297.038551 
L 567.427192 301.236459 
L 568.021729 319.500096 
L 568.318697 320.265686 
L 569.210211 297.510474 
L 569.507184 300.534398 
L 570.101127 318.459338 
L 570.398094 320.324679 
L 570.695659 314.019739 
L 571.289608 298.111172 
L 571.586581 299.979339 
L 572.180524 317.357559 
L 572.478088 320.223899 
L 572.775056 314.987591 
L 573.369001 298.822519 
L 573.665977 299.583635 
L 574.557482 319.983452 
L 574.854452 315.814935 
L 575.448993 299.618816 
L 575.745967 299.348394 
L 576.636878 319.611974 
L 576.934441 316.486907 
L 577.528386 300.498132 
L 577.82536 299.249043 
L 578.122332 305.148978 
L 578.419303 313.895621 
L 578.716868 319.127653 
L 579.013835 317.032243 
L 579.607777 301.436365 
L 579.904752 299.286632 
L 580.20232 304.282198 
L 580.796261 318.539599 
L 581.093228 317.43857 
L 581.687766 302.404589 
L 581.984742 299.452338 
L 582.281714 303.518172 
L 582.875653 317.864562 
L 583.173217 317.702451 
L 584.064131 299.73067 
L 584.361106 302.875582 
L 584.955639 317.12611 
L 585.252608 317.846343 
L 585.549577 312.228993 
L 585.846547 304.429204 
L 586.143522 300.113608 
L 586.441094 302.365149 
L 587.035031 316.323487 
L 587.332 317.867786 
L 587.628968 313.050452 
L 588.223509 300.585056 
L 588.520483 301.962187 
L 589.114422 315.47803 
L 589.411987 317.772887 
L 589.708955 313.757158 
L 590.302897 301.138998 
L 590.599871 301.676383 
L 591.491376 317.576134 
L 591.788344 314.374052 
L 592.382882 301.753991 
L 592.679856 301.509246 
L 593.570766 317.283406 
L 593.867734 314.885717 
L 594.462272 302.429882 
L 594.759245 301.442269 
L 595.056218 306.027969 
L 595.353188 312.834334 
L 595.650752 316.907813 
L 595.94772 315.283542 
L 596.54166 303.148932 
L 596.838634 301.476694 
L 597.136202 305.370962 
L 597.730138 316.455561 
L 598.027108 315.588502 
L 598.621644 303.889528 
L 598.918616 301.606456 
L 599.215589 304.789766 
L 599.809528 315.938783 
L 600.107091 315.787228 
L 600.998005 301.820166 
L 601.294976 304.299097 
L 601.889512 315.374809 
L 602.186479 315.896878 
L 602.483448 311.501715 
L 602.780419 305.437035 
L 603.077391 302.112175 
L 603.374959 303.907572 
L 603.968899 314.762408 
L 604.265866 315.914968 
L 604.562835 312.130954 
L 605.157374 302.470756 
L 605.454345 303.596142 
L 606.048286 314.117441 
L 606.34585 315.845592 
L 606.642819 312.674024 
L 607.236761 302.891729 
L 607.533732 303.372623 
L 608.425236 315.699736 
L 608.722204 313.150367 
L 609.316146 303.364251 
L 609.613714 303.238745 
L 610.504623 315.481311 
L 610.80159 313.547801 
L 611.396128 303.873228 
L 611.6931 303.180245 
L 611.99007 306.806861 
L 612.28704 312.097294 
L 612.584605 315.199743 
L 612.881572 313.859364 
L 613.475513 304.420756 
L 613.772485 303.198612 
L 614.070052 306.296811 
L 614.66399 314.859769 
L 614.960958 314.101246 
L 615.555495 304.985491 
L 615.852465 303.28972 
L 616.149438 305.843231 
L 616.743376 314.470116 
L 617.04094 314.262529 
L 617.931851 303.444812 
L 618.228823 305.457744 
L 618.823358 314.043653 
L 619.120326 314.356556 
L 620.011237 303.659999 
L 620.308805 305.147472 
L 620.902743 313.579385 
L 621.199712 314.380896 
L 621.49668 311.365641 
L 621.794246 306.755807 
L 622.091217 303.92677 
L 622.38819 304.897531 
L 622.982128 313.089154 
L 623.279693 314.338165 
L 623.576663 311.791157 
L 624.170602 304.241814 
L 624.467574 304.714384 
L 625.062108 312.587322 
L 625.359077 314.236977 
L 625.656046 312.16677 
L 626.249985 304.597229 
L 626.547552 304.599871 
L 627.43846 314.079831 
L 627.735428 312.482766 
L 628.329965 304.981695 
L 628.626936 304.542839 
L 628.923906 307.438124 
L 629.220876 311.545263 
L 629.518439 313.873515 
L 629.815408 312.733343 
L 630.409348 305.396775 
L 630.706318 304.54487 
L 631.003885 307.036614 
L 631.597824 313.621848 
L 631.894792 312.931179 
L 632.489329 305.82638 
L 632.786299 304.603264 
L 633.083269 306.677364 
L 633.677208 313.331129 
L 633.974771 313.067217 
L 634.865682 304.711063 
L 635.162652 306.36962 
L 635.757186 313.010915 
L 636.054155 313.151954 
L 636.945064 304.865677 
L 637.242631 306.119295 
L 637.836569 312.660633 
L 638.133537 313.183091 
L 638.430507 310.762936 
L 638.728073 307.18159 
L 639.025043 305.060931 
L 639.322014 305.914726 
L 639.915953 312.289117 
L 640.213518 313.162174 
L 640.510487 311.099996 
L 641.104427 305.29405 
L 641.401398 305.761304 
L 641.995933 311.907244 
L 642.292902 313.096112 
L 642.58987 311.399572 
L 643.184408 305.556502 
L 643.481378 305.660846 
L 644.372285 312.986421 
L 644.66985 311.648733 
L 645.263789 305.848122 
L 645.56076 305.604502 
L 646.452264 312.837967 
L 646.749233 311.858134 
L 647.343171 306.161607 
L 647.640142 305.593907 
L 647.937709 307.607593 
L 648.234679 310.715451 
L 648.531647 312.65393 
L 648.828615 312.022268 
L 649.423151 306.48765 
L 649.720121 305.627348 
L 650.017092 307.320893 
L 650.611031 312.43886 
L 650.908594 312.138736 
L 651.502534 306.829373 
L 651.799504 305.699207 
L 652.096474 307.07325 
L 652.69101 312.199843 
L 652.987976 312.21587 
L 653.879483 305.807491 
L 654.176453 306.869584 
L 654.770392 311.936672 
L 655.06736 312.25151 
L 655.364329 310.303285 
L 655.661894 307.524401 
L 655.958865 305.948768 
L 656.255836 306.700741 
L 656.849773 311.655923 
L 657.147338 312.246526 
L 657.444308 310.571719 
L 658.038246 306.119616 
L 658.335217 306.571177 
L 658.929752 311.365865 
L 659.22672 312.206472 
L 659.523689 310.811996 
L 660.118226 306.31421 
L 660.415195 306.482644 
L 661.306103 312.132193 
L 661.603668 311.013726 
L 662.197608 306.532178 
L 662.494578 306.428125 
L 663.386082 312.027151 
L 663.68305 311.185269 
L 664.276988 306.768105 
L 664.573959 306.409174 
L 664.871525 308.038622 
L 665.168494 310.452905 
L 665.465463 311.894049 
L 665.762431 311.322101 
L 666.356968 307.014944 
L 666.653937 306.424784 
L 666.950907 307.809052 
L 667.544846 311.736131 
L 667.84241 311.422058 
L 668.436349 307.274888 
L 668.733319 306.470374 
L 669.030289 307.609155 
L 669.624823 311.558663 
L 669.921792 311.491763 
L 670.813297 306.54486 
L 671.110267 307.442959 
L 671.704205 311.361721 
L 672.001174 311.529269 
L 672.892678 306.645343 
L 673.189648 307.30329 
L 673.784183 311.15276 
L 674.081152 311.534957 
L 674.378121 310.174512 
L 674.97206 306.769426 
L 675.269031 307.193853 
L 675.863566 310.930338 
L 676.160534 311.513326 
L 676.457504 310.367596 
L 677.052039 306.912808 
L 677.349009 307.11626 
L 677.942947 310.700021 
L 678.239915 311.464775 
L 678.537481 310.531211 
L 679.131419 307.074973 
L 679.428389 307.064912 
L 680.319892 311.391741 
L 680.616861 310.6719 
L 681.2108 307.251914 
L 681.508367 307.042554 
L 681.805335 308.358958 
L 682.102305 310.231803 
L 682.399274 311.29653 
L 682.696243 310.785935 
L 683.290778 307.438301 
L 683.587749 307.044817 
L 683.884719 308.17501 
L 684.478656 311.181431 
L 684.776221 310.871425 
L 685.37016 307.63563 
L 685.66713 307.071788 
L 685.9641 308.013556 
L 686.558634 311.050356 
L 686.855604 310.933616 
L 687.747108 307.121712 
L 688.044077 307.877955 
L 688.638016 310.90355 
L 688.934985 310.970794 
L 689.826491 307.192149 
L 690.123459 307.762561 
L 690.717996 310.74655 
L 691.014964 310.983019 
L 691.311932 309.879393 
L 691.608903 308.249723 
L 691.905873 307.281444 
L 692.203438 307.672545 
L 692.797378 310.578402 
L 693.094346 310.973951 
L 693.391315 310.034564 
L 693.98585 307.386429 
L 694.28282 307.603017 
L 694.87676 310.403309 
L 695.173727 310.943683 
L 695.471293 310.167205 
L 696.065232 307.506508 
L 696.362202 307.55587 
L 697.253707 310.893919 
L 697.550676 310.282439 
L 698.144615 307.638732 
L 698.442182 307.531421 
L 699.33309 310.826615 
L 699.630058 310.377224 
L 700.224593 307.779088 
L 700.521563 307.526133 
L 700.818532 308.446832 
L 701.413067 310.744041 
L 701.710036 310.449908 
L 702.303975 307.928555 
L 702.600944 307.54027 
L 702.89851 308.319029 
L 703.49245 310.64708 
L 703.789417 310.504659 
L 704.383356 308.083413 
L 704.680923 307.572644 
L 704.977892 308.206106 
L 705.571831 310.53809 
L 705.8688 310.539965 
L 706.760305 307.621202 
L 707.057274 308.111017 
L 707.65181 310.420488 
L 707.948779 310.555709 
L 708.245747 309.662274 
L 708.542716 308.398485 
L 708.839687 307.684821 
L 709.137252 308.035545 
L 709.731192 310.293693 
L 710.028161 310.554852 
L 710.325129 309.786851 
L 710.919664 307.761186 
L 711.216634 307.975814 
L 711.810572 310.160857 
L 712.108138 310.536995 
L 712.405106 309.894222 
L 712.999044 307.849675 
L 713.296015 307.93344 
L 714.187519 310.504231 
L 714.484488 309.988388 
L 715.078426 307.948125 
L 715.375993 307.908828 
L 716.266901 310.457298 
L 716.56387 310.066877 
L 717.158406 308.053504 
L 717.455374 307.89913 
L 717.752344 308.647133 
L 718.049314 309.747178 
L 718.346879 310.398035 
L 718.643848 310.128265 
L 719.237785 308.166456 
L 719.534755 307.904688 
L 719.832321 308.544162 
L 720.426259 310.32726 
L 720.723228 310.175858 
L 721.317763 308.282608 
L 721.614732 307.924725 
L 721.911702 308.452434 
L 722.505641 310.2467 
L 722.803206 310.207365 
L 723.694114 307.957523 
L 723.991084 308.374353 
L 724.585619 310.1589 
L 724.882588 310.225508 
L 725.773496 308.002337 
L 726.071063 308.311408 
L 726.665002 310.063546 
L 726.961971 310.229735 
L 727.258939 309.603831 
L 727.853475 308.057477 
L 728.150444 308.260544 
L 728.744384 309.962999 
L 729.041949 310.220514 
L 729.338918 309.690553 
L 729.932857 308.122346 
L 730.229826 308.223135 
L 730.824363 309.86015 
L 731.121332 310.199578 
L 731.4183 309.767286 
L 732.012836 308.194578 
L 732.309806 308.199609 
L 733.200714 310.167382 
L 733.497683 309.832017 
L 734.092217 308.274243 
L 734.389187 308.187676 
L 735.280691 310.125248 
L 735.577661 309.883523 
L 736.171599 308.359376 
L 736.468568 308.187721 
L 736.766133 308.710851 
L 737.360072 310.073919 
L 737.657042 309.924431 
L 738.251576 308.44749 
L 738.548545 308.199238 
L 738.845515 308.63654 
L 739.439453 310.014644 
L 739.737019 309.952804 
L 740.627926 308.22081 
L 740.924897 308.572646 
L 741.519431 309.949322 
L 741.816401 309.970814 
L 742.707904 308.25183 
L 743.004874 308.520422 
L 743.598813 309.87781 
L 743.895781 309.977937 
L 744.19275 309.469468 
L 744.490316 308.725748 
L 744.787286 308.291456 
L 745.084255 308.47746 
L 745.678195 309.801879 
L 745.97576 309.974437 
L 746.272729 309.539354 
L 746.866667 308.338736 
L 747.163636 308.444915 
L 747.163636 308.444915 
" clip-path="url(#p980f96cb05)" style="fill: none; stroke: #ff0000; stroke-opacity: 0.3; stroke-width: 1.5; stroke-linecap: square"/>
   </g>
   <g id="line2d_16">
    <path d="M 138.436364 322.38 
L 153.290615 322.379839 
L 153.290615 322.379839 
L 153.588076 272.774275 
L 153.884838 256.074637 
L 154.182331 270.541037 
L 155.073585 368.705686 
L 155.667497 421.520565 
L 155.964892 406.540194 
L 156.855756 214.134827 
L 157.153303 225.838544 
L 157.746984 275.817268 
L 158.044102 293.291051 
L 158.341117 302.833174 
L 158.638194 304.08444 
L 158.935291 296.327466 
L 159.232499 278.251304 
L 159.826802 212.762458 
L 160.421023 138.00806 
L 160.717893 115.465327 
L 161.014941 107.448707 
L 161.312021 111.789277 
L 161.609058 124.565377 
L 162.203244 163.178313 
L 163.094858 236.018477 
L 163.986185 329.052383 
L 164.877307 441.369839 
L 165.174119 451.360521 
L 165.471606 401.117699 
L 166.065744 219.058805 
L 166.362876 212.11993 
L 166.659833 245.673146 
L 167.550931 384.102819 
L 167.848306 403.738686 
L 168.144936 380.227331 
L 168.739141 262.319085 
L 169.036313 251.586454 
L 169.33346 275.212714 
L 169.927804 348.998897 
L 170.224983 370.943163 
L 170.521883 365.371818 
L 171.1159 292.14097 
L 171.413283 275.910748 
L 171.71012 286.015554 
L 172.601711 351.783095 
L 172.898257 348.567454 
L 173.789606 291.968308 
L 174.086881 297.68765 
L 174.978377 340.131488 
L 175.27506 336.996313 
L 175.869361 308.508161 
L 176.166465 301.91367 
L 176.46361 305.961139 
L 177.057628 327.356611 
L 177.355055 332.618079 
L 177.651832 329.68747 
L 178.246217 311.758064 
L 178.543266 308.201829 
L 178.840341 311.278187 
L 179.434291 324.969469 
L 179.731751 327.709111 
L 180.028596 325.232232 
L 180.623031 314.007465 
L 180.920045 312.221352 
L 181.217067 314.551485 
L 181.810982 323.202385 
L 182.107868 324.522821 
L 182.405348 322.578021 
L 182.999213 315.607688 
L 183.296799 314.789779 
L 183.593796 316.5134 
L 184.187687 321.913198 
L 184.48459 322.476375 
L 184.782095 321.025547 
L 185.37597 316.730526 
L 185.672944 316.420097 
L 185.970521 317.664337 
L 186.564402 320.995382 
L 186.861322 321.176972 
L 187.15884 320.13299 
L 187.752725 317.510883 
L 188.049687 317.447907 
L 188.941129 320.356367 
L 189.238054 320.361161 
L 190.129467 318.045063 
L 190.426423 318.089446 
L 191.317853 319.919776 
L 191.614784 319.854378 
L 192.506204 318.40543 
L 192.803155 318.486052 
L 193.694582 319.626351 
L 193.991518 319.542805 
L 194.882942 318.645294 
L 195.179887 318.728748 
L 196.071313 319.431903 
L 196.368251 319.353309 
L 197.259679 318.803026 
L 197.853569 319.058366 
L 198.448049 319.304633 
L 199.041924 319.09137 
L 199.636412 318.905594 
L 201.121723 319.171736 
L 202.013144 318.971592 
L 203.498457 319.1321 
L 204.389282 319.013594 
L 205.875189 319.109244 
L 207.063555 319.062658 
L 208.251923 319.096325 
L 209.439692 319.072241 
L 210.925597 319.073727 
L 214.193161 319.080264 
L 218.35274 319.077696 
L 241.22804 319.082234 
L 450.375645 319.082253 
L 450.375645 319.082253 
L 450.672806 369.66616 
L 450.969864 387.278251 
L 451.267485 361.35266 
L 451.861618 267.553133 
L 452.158672 261.000314 
L 452.455669 296.088947 
L 453.049717 383.227684 
L 453.346762 375.6086 
L 454.237902 260.149799 
L 454.534932 278.641159 
L 455.12954 372.162307 
L 455.426581 382.1141 
L 455.723621 352.129608 
L 456.317728 266.75097 
L 456.614738 267.912395 
L 457.505765 381.593251 
L 457.80282 366.406009 
L 458.397504 278.442576 
L 458.694533 264.21429 
L 458.991538 289.750979 
L 459.585557 374.837127 
L 459.882569 375.075138 
L 460.7737 266.521379 
L 461.070715 277.631127 
L 461.665316 363.628941 
L 461.962326 378.03979 
L 462.259345 354.349132 
L 462.853431 273.659559 
L 463.150452 270.852754 
L 463.447455 303.734266 
L 463.745041 349.725487 
L 464.04205 375.824051 
L 464.339078 364.884989 
L 464.933148 284.266082 
L 465.230159 268.974299 
L 465.52717 290.723123 
L 466.121159 369.473753 
L 466.418787 371.04609 
L 467.30986 271.526015 
L 467.606856 281.317404 
L 468.200857 359.993603 
L 468.497861 373.143669 
L 468.795482 351.141237 
L 469.38953 277.447331 
L 469.686534 275.821462 
L 470.577529 371.469285 
L 470.874539 359.864226 
L 471.469176 285.813991 
L 471.766193 273.996737 
L 472.063184 295.931433 
L 472.657178 366.67478 
L 472.954181 365.430334 
L 473.845824 275.311725 
L 474.14282 287.744577 
L 474.736804 359.619941 
L 475.033811 367.883625 
L 475.330819 344.588263 
L 475.925447 279.30834 
L 476.222442 282.28998 
L 477.113421 367.592552 
L 477.410433 352.476675 
L 478.005055 285.273545 
L 478.302053 279.540834 
L 478.599041 304.081249 
L 479.19302 364.92963 
L 479.490022 358.121324 
L 480.08464 292.573342 
L 480.381649 279.269354 
L 480.678634 296.296725 
L 481.272606 360.31013 
L 481.569599 361.579895 
L 482.461223 281.054507 
L 482.758212 290.503908 
L 483.352179 354.309337 
L 483.649175 362.9033 
L 483.946777 342.986685 
L 484.540787 284.568101 
L 484.837777 286.655531 
L 485.729334 362.337854 
L 486.026337 348.974144 
L 486.620347 289.393727 
L 486.917335 284.657712 
L 487.214324 306.780451 
L 487.511304 339.930193 
L 487.808888 360.192192 
L 488.105888 353.35811 
L 488.699894 295.099342 
L 488.996891 284.382686 
L 489.293875 300.642767 
L 489.888434 356.700001 
L 490.185431 356.207877 
L 491.076432 285.563578 
L 491.373417 295.873801 
L 491.967973 352.206748 
L 492.264967 357.579475 
L 492.561967 338.092264 
L 493.155961 287.963527 
L 493.453546 292.515047 
L 494.047503 347.0253 
L 494.344491 357.588197 
L 494.641487 343.142298 
L 495.235486 291.357556 
L 495.533068 290.405609 
L 496.424006 356.434175 
L 496.721001 347.08844 
L 497.315595 295.430406 
L 497.61258 289.52678 
L 497.909558 307.138969 
L 498.503519 354.277768 
L 498.800507 349.94597 
L 499.395099 300.023809 
L 499.692087 289.749431 
L 499.989064 302.792291 
L 500.583021 351.302506 
L 500.880604 351.737976 
L 501.77158 290.907293 
L 502.06856 299.39705 
L 502.663109 347.754655 
L 502.960095 352.561809 
L 503.257089 335.905291 
L 503.851069 292.871058 
L 504.148051 296.92519 
L 504.742596 343.744036 
L 505.039577 352.484968 
L 505.33657 339.705436 
L 505.93055 295.482159 
L 506.228129 295.361476 
L 507.119057 351.62014 
L 507.416046 342.749214 
L 508.010621 298.548246 
L 508.307604 294.6103 
L 508.604579 310.645839 
L 508.901551 335.065452 
L 509.198529 350.061926 
L 509.496112 345.022393 
L 510.090092 301.994728 
L 510.387074 294.611943 
L 510.684049 307.193623 
L 511.278594 347.953093 
L 511.575577 346.607407 
L 512.466538 295.279464 
L 512.763513 304.382655 
L 513.358056 345.387109 
L 513.655038 347.495181 
L 513.952025 331.689992 
L 514.249014 309.443145 
L 514.546595 296.5242 
L 514.843572 302.232692 
L 515.437516 342.475375 
L 515.734496 347.748473 
L 516.031484 334.840878 
L 516.626051 298.254556 
L 516.92303 300.668839 
L 517.516972 339.328601 
L 517.81395 347.423959 
L 518.111533 337.449357 
L 518.705503 300.373402 
L 519.002482 299.701676 
L 519.893997 346.58504 
L 520.190979 339.589202 
L 520.784949 302.800903 
L 521.081928 299.281591 
L 521.379498 312.483137 
L 521.67647 332.761346 
L 521.973443 345.306736 
L 522.270422 341.218077 
L 522.864393 305.447054 
L 523.161965 299.370436 
L 523.45894 309.944268 
L 524.052883 343.658391 
L 524.349861 342.349889 
L 525.241407 299.903014 
L 525.538377 307.83624 
L 526.132916 341.723547 
L 526.429895 343.000658 
L 527.320841 300.828448 
L 527.617813 306.166234 
L 528.212351 339.54203 
L 528.509328 343.230822 
L 528.806309 331.919164 
L 529.400272 302.090832 
L 529.697841 304.945523 
L 530.291782 337.194859 
L 530.588757 343.05521 
L 530.885738 333.994635 
L 531.480298 303.622409 
L 531.777272 304.107135 
L 532.668781 342.51962 
L 532.965761 335.687682 
L 533.559721 305.388755 
L 533.856697 303.657232 
L 534.153668 315.487698 
L 534.451233 332.264228 
L 534.748205 341.667322 
L 535.045183 337.056891 
L 535.639145 307.32595 
L 535.936716 303.576232 
L 536.233687 313.466843 
L 536.827628 340.536547 
L 537.124604 338.080512 
L 537.719161 309.363158 
L 538.016137 303.810882 
L 538.313108 311.712136 
L 538.907046 339.174702 
L 539.20462 338.753642 
L 540.095556 304.341199 
L 540.392526 310.259466 
L 540.98706 337.641782 
L 541.284036 339.125818 
L 541.581014 328.554102 
L 541.877993 313.659625 
L 542.174969 305.13286 
L 542.472539 309.126535 
L 543.066476 335.948587 
L 543.363449 339.201461 
L 543.660428 330.306571 
L 544.254982 306.139048 
L 544.551952 308.265032 
L 545.145889 334.151218 
L 545.442863 339.002127 
L 545.740436 331.790942 
L 546.334393 307.33853 
L 546.631365 307.687776 
L 547.52287 338.554061 
L 547.819846 333.054664 
L 548.413801 308.692315 
L 548.711369 307.388079 
L 549.008339 316.976055 
L 549.305308 330.418783 
L 549.602279 337.887894 
L 549.899254 334.069186 
L 550.493807 310.147593 
L 550.79078 307.327681 
L 551.087748 315.43348 
L 551.681688 337.028627 
L 551.979258 334.82343 
L 552.573213 311.703396 
L 552.870187 307.500021 
L 553.167157 314.099256 
L 553.76169 336.013902 
L 554.058665 335.359403 
L 554.949593 307.882508 
L 555.24716 312.998151 
L 555.841097 334.856355 
L 556.138069 335.667964 
L 557.029594 308.449845 
L 557.326564 312.088174 
L 557.920501 333.591057 
L 558.218069 335.755539 
L 558.515046 328.231329 
L 559.108996 309.18308 
L 559.405965 311.387957 
L 560.0005 332.260704 
L 560.29747 335.653198 
L 560.594446 329.422473 
L 561.188398 310.057291 
L 561.485965 310.903916 
L 562.376873 335.367548 
L 562.673847 330.436459 
L 563.268395 311.038596 
L 563.565367 310.601915 
L 564.45687 334.918166 
L 564.753843 331.256466 
L 565.347795 312.123438 
L 565.644766 310.484985 
L 565.941734 317.488707 
L 566.239299 328.014453 
L 566.536269 334.322592 
L 566.833241 331.916835 
L 567.427192 313.28042 
L 567.72476 310.545076 
L 568.021729 316.426091 
L 568.615666 333.599309 
L 568.912639 332.403147 
L 569.507184 314.472753 
L 569.804157 310.758923 
L 570.101127 315.495311 
L 570.695659 332.775868 
L 570.992632 332.712884 
L 571.883554 311.117603 
L 572.180524 314.718833 
L 572.775056 331.856769 
L 573.072028 332.872882 
L 573.369001 326.296006 
L 573.665977 316.957512 
L 573.963546 311.602448 
L 574.260514 314.10883 
L 574.854452 330.867601 
L 575.151423 332.881181 
L 575.448993 327.263782 
L 576.04294 312.202323 
L 576.339911 313.63529 
L 576.934441 329.83961 
L 577.231412 332.746539 
L 577.528386 328.122458 
L 578.122332 312.899483 
L 578.419303 313.308744 
L 579.310804 332.48647 
L 579.607777 328.851159 
L 580.20232 313.669227 
L 580.499292 313.129774 
L 581.390196 332.109016 
L 581.687766 329.437234 
L 582.281714 314.511306 
L 582.578684 313.075792 
L 582.875653 318.405187 
L 583.173217 326.598128 
L 583.470186 331.631289 
L 583.767157 329.907221 
L 584.361106 315.403018 
L 584.658671 313.149421 
L 584.955639 317.621907 
L 585.549577 331.060751 
L 585.846547 330.250001 
L 586.441094 316.31716 
L 586.738063 313.334242 
L 587.035031 316.935234 
L 587.628968 330.412925 
L 587.926534 330.463152 
L 588.817453 313.624211 
L 589.114422 316.362125 
L 589.708955 329.709731 
L 590.005925 330.566946 
L 590.302897 325.491063 
L 590.599871 318.214864 
L 590.897438 314.005812 
L 591.194407 315.912129 
L 591.788344 328.94957 
L 592.085313 330.559414 
L 592.382882 326.218188 
L 592.976828 314.471581 
L 593.273798 315.562395 
L 593.867734 328.152383 
L 594.165299 330.44657 
L 594.462272 326.864794 
L 595.056218 315.008819 
L 595.353188 315.321317 
L 596.244689 330.241244 
L 596.54166 327.414769 
L 597.136202 315.599289 
L 597.433172 315.189804 
L 598.324076 329.949049 
L 598.621644 327.858124 
L 599.215589 316.243722 
L 599.51256 315.150972 
L 599.809528 319.316009 
L 600.107091 325.686956 
L 600.404061 329.582347 
L 600.701032 328.215379 
L 601.294976 316.925281 
L 601.591947 315.205381 
L 601.889512 318.718227 
L 602.483448 329.146297 
L 602.780419 328.477651 
L 603.374959 317.623673 
L 603.67193 315.346939 
L 603.968899 318.191884 
L 604.562835 328.652265 
L 604.860402 328.642553 
L 605.751316 315.565502 
L 606.048286 317.750358 
L 606.642819 328.116454 
L 606.939788 328.725676 
L 607.236761 324.732725 
L 607.533732 319.074549 
L 607.8313 315.853361 
L 608.128269 317.401386 
L 608.722204 327.537174 
L 609.019175 328.724945 
L 609.316146 325.303821 
L 609.910685 316.204997 
L 610.207655 317.127311 
L 610.80159 326.929314 
L 611.099156 328.644456 
L 611.396128 325.794615 
L 611.99007 316.611289 
L 612.28704 316.935054 
L 613.178541 328.493986 
L 613.475513 326.223034 
L 614.070052 317.058659 
L 614.367022 316.825868 
L 615.257927 328.277379 
L 615.555495 326.570792 
L 616.149438 317.547819 
L 616.446408 316.786695 
L 616.743376 320.093802 
L 617.04094 325.044608 
L 617.337909 328.003555 
L 617.634879 326.853927 
L 618.228823 318.066251 
L 618.525792 316.818515 
L 618.823358 319.627548 
L 619.417294 327.676501 
L 619.714264 327.065115 
L 620.308805 318.598682 
L 620.605774 316.917161 
L 620.902743 319.214594 
L 621.49668 327.304499 
L 621.794246 327.202029 
L 622.685159 317.074766 
L 622.982128 318.865544 
L 623.576663 326.899604 
L 623.873631 327.276882 
L 624.170602 324.101633 
L 624.467574 319.70867 
L 624.765141 317.286079 
L 625.062108 318.586788 
L 625.656046 326.460515 
L 625.953015 327.287609 
L 626.249985 324.549175 
L 626.844523 317.546735 
L 627.141493 318.364582 
L 627.735428 325.998376 
L 628.032994 327.236852 
L 628.329965 324.935917 
L 628.923906 317.850156 
L 629.220876 318.204675 
L 630.112377 327.132339 
L 630.409348 325.275864 
L 631.003885 318.186271 
L 631.300857 318.108531 
L 632.191762 326.976581 
L 632.489329 325.55434 
L 633.083269 318.555454 
L 633.38024 318.065881 
L 633.677208 320.713609 
L 633.974771 324.55715 
L 634.271741 326.776031 
L 634.568711 325.783936 
L 635.162652 318.948395 
L 635.459621 318.077948 
L 635.757186 320.345424 
L 636.351123 326.533956 
L 636.648093 325.958605 
L 637.242631 319.353529 
L 637.539601 318.141961 
L 637.836569 320.017167 
L 638.430507 326.256377 
L 638.728073 326.076118 
L 639.618985 318.251641 
L 639.915953 319.737325 
L 640.510487 325.952275 
L 640.807456 326.146108 
L 641.698964 318.403546 
L 641.995933 319.511203 
L 642.58987 325.620855 
L 642.88684 326.166602 
L 643.184408 323.954928 
L 643.481378 320.624022 
L 643.778347 318.594057 
L 644.075316 319.328005 
L 644.66985 325.274887 
L 644.966818 326.139226 
L 645.263789 324.268858 
L 645.85773 318.818468 
L 646.154699 319.192569 
L 646.749233 324.911266 
L 647.046202 326.070195 
L 647.343171 324.541213 
L 647.937709 319.069305 
L 648.234679 319.106401 
L 649.125585 325.961073 
L 649.423151 324.766561 
L 650.017092 319.3466 
L 650.314062 319.061371 
L 650.611031 321.188778 
L 650.908594 324.16896 
L 651.205564 325.816513 
L 651.502534 324.954773 
L 652.096474 319.643445 
L 652.394041 319.06024 
L 652.69101 320.896222 
L 653.284947 325.639281 
L 653.581916 325.100866 
L 654.176453 319.951062 
L 654.473423 319.096899 
L 654.770392 320.63359 
L 655.364329 325.43372 
L 655.661894 325.202783 
L 656.552804 319.170581 
L 656.849773 320.407697 
L 657.444308 325.206531 
L 657.741276 325.268158 
L 658.632784 319.277713 
L 658.929752 320.22299 
L 659.523689 324.957327 
L 659.820659 325.295123 
L 660.118226 323.510319 
L 660.415195 320.923823 
L 660.712166 319.41524 
L 661.009135 320.07098 
L 661.603668 324.695647 
L 661.900636 325.284623 
L 662.197608 323.760999 
L 662.791547 319.579826 
L 663.089113 319.958577 
L 663.68305 324.419311 
L 663.980019 325.241689 
L 664.276988 323.980163 
L 664.871525 319.76591 
L 665.168494 319.878605 
L 666.059401 325.16723 
L 666.356968 324.163314 
L 666.950907 319.973292 
L 667.247877 319.833268 
L 668.139379 325.064576 
L 668.436349 324.318213 
L 669.030289 320.196816 
L 669.327855 319.82227 
L 669.624823 321.310889 
L 669.921792 323.563493 
L 670.218761 324.936101 
L 670.51573 324.440755 
L 671.110267 320.429853 
L 671.407237 319.840674 
L 671.704205 321.100217 
L 672.29874 324.786352 
L 672.595709 324.529052 
L 673.189648 320.674575 
L 673.486618 319.888171 
L 673.784183 320.921037 
L 674.378121 324.616026 
L 674.675089 324.589192 
L 675.566596 319.962255 
L 675.863566 320.766299 
L 676.457504 324.42934 
L 676.754472 324.619463 
L 677.052039 323.179243 
L 677.349009 321.17373 
L 677.645978 320.060334 
L 677.942947 320.640059 
L 678.537481 324.231945 
L 678.834449 324.620341 
L 679.131419 323.379717 
L 679.725358 320.180062 
L 680.022924 320.544453 
L 680.616861 324.022369 
L 680.913831 324.595909 
L 681.2108 323.556288 
L 681.805335 320.317332 
L 682.102305 320.473799 
L 682.993808 324.546514 
L 683.290778 323.70527 
L 683.884719 320.471756 
L 684.181688 320.430032 
L 685.07319 324.47488 
L 685.37016 323.832753 
L 685.9641 320.639533 
L 686.261665 320.413164 
L 686.558634 321.6189 
L 686.855604 323.367103 
L 687.152572 324.382683 
L 687.449541 323.935366 
L 688.044077 320.815634 
L 688.341047 320.419201 
L 688.638016 321.449843 
L 689.232551 324.273244 
L 689.529521 324.011419 
L 690.123459 321.001552 
L 690.42043 320.448132 
L 690.717996 321.304851 
L 691.311932 324.147306 
L 691.608903 324.065759 
L 692.500408 320.498211 
L 692.797378 321.178371 
L 693.391315 324.007971 
L 693.688285 324.096866 
L 694.579791 320.567249 
L 694.87676 321.073741 
L 695.471293 323.859497 
L 695.768263 324.104885 
L 696.065232 323.096439 
L 696.362202 321.577304 
L 696.659172 320.653614 
L 696.956739 320.992818 
L 697.550676 323.700921 
L 697.847646 324.09315 
L 698.144615 323.23862 
L 698.73915 320.754285 
L 699.036121 320.931085 
L 699.630058 323.536203 
L 699.927623 324.061616 
L 700.224593 323.359692 
L 700.818532 320.86878 
L 701.115502 320.890221 
L 702.007005 324.012561 
L 702.303975 323.464417 
L 702.89851 320.992842 
L 703.19548 320.870441 
L 704.086387 323.947115 
L 704.383356 323.55003 
L 704.977892 321.127016 
L 705.274861 320.868505 
L 705.571831 321.709664 
L 706.166365 323.867699 
L 706.463334 323.615055 
L 707.057274 321.267959 
L 707.354243 320.884579 
L 707.65181 321.592467 
L 708.245747 323.775063 
L 708.542716 323.663341 
L 709.434222 320.917475 
L 709.731192 321.489297 
L 710.325129 323.671468 
L 710.622695 323.692498 
L 711.513603 320.965351 
L 711.810572 321.402862 
L 712.405106 323.560118 
L 712.702075 323.705631 
L 712.999044 322.887855 
L 713.296015 321.708891 
L 713.592985 321.027087 
L 713.89055 321.33476 
L 714.484488 323.440419 
L 714.781457 323.702293 
L 715.078426 323.002191 
L 715.672963 321.100462 
L 715.969933 321.281413 
L 716.56387 323.315348 
L 716.861436 323.683263 
L 717.158406 323.10038 
L 717.752344 321.184963 
L 718.049314 321.244261 
L 718.940816 323.650437 
L 719.237785 323.18617 
L 719.832321 321.277479 
L 720.12929 321.223613 
L 721.020197 323.604552 
L 721.317763 323.255755 
L 721.911702 321.378286 
L 722.208671 321.216864 
L 722.505641 321.901336 
L 722.803206 322.929357 
L 723.100174 323.547372 
L 723.397145 323.312445 
L 723.991084 321.484882 
L 724.288054 321.224275 
L 724.585619 321.806795 
L 725.179558 323.479608 
L 725.476527 323.354717 
L 726.071063 321.594198 
L 726.368033 321.245051 
L 726.665002 321.722861 
L 727.258939 323.4029 
L 727.556505 323.382052 
L 728.447414 321.277649 
L 728.744384 321.651733 
L 729.338918 323.319661 
L 729.635888 323.396936 
L 730.527392 321.321063 
L 730.824363 321.594765 
L 731.4183 323.22954 
L 731.71527 323.398909 
L 732.012836 322.8256 
L 732.606776 321.374444 
L 732.903744 321.54912 
L 733.497683 323.134778 
L 733.795248 323.388459 
L 734.092217 322.906732 
L 734.686158 321.436503 
L 734.983126 321.516037 
L 735.87463 323.367152 
L 736.171599 322.976777 
L 736.766133 321.505238 
L 737.063102 321.495864 
L 737.954011 323.335456 
L 738.251576 323.034345 
L 738.845515 321.580752 
L 739.142484 321.486503 
L 739.439453 322.041778 
L 739.737019 322.83925 
L 740.033988 323.294645 
L 740.330957 323.082038 
L 740.924897 321.661179 
L 741.222462 321.488613 
L 741.519431 321.965681 
L 742.11337 323.245369 
L 742.410339 323.118578 
L 743.004874 321.744182 
L 743.301843 321.500629 
L 743.598813 321.897588 
L 744.19275 323.188818 
L 744.490316 323.143462 
L 745.381224 321.522314 
L 745.678195 321.839278 
L 746.272729 323.1268 
L 746.569698 323.158689 
L 747.163636 321.918433 
L 747.163636 321.918433 
" clip-path="url(#p980f96cb05)" style="fill: none; stroke: #008000; stroke-opacity: 0.3; stroke-width: 1.5; stroke-linecap: square"/>
   </g>
   <g id="line2d_17">
    <path d="M 138.436364 544.366379 
L 153.290615 544.36637 
L 153.290615 544.366379 
L 153.588076 535.943134 
L 154.47916 482.901156 
L 154.776285 475.874433 
L 155.073585 476.563773 
L 155.370519 485.70049 
L 156.261827 542.387536 
L 156.558583 531.922346 
L 157.450203 447.807113 
L 158.044102 413.644286 
L 159.529453 343.985383 
L 160.717893 278.662803 
L 161.312021 260.338226 
L 161.906555 249.506354 
L 163.094858 230.777242 
L 163.688826 218.280313 
L 164.283114 199.448576 
L 164.877307 167.303907 
L 165.471606 123.275587 
L 165.768649 116.343557 
L 166.065744 126.629272 
L 166.659833 151.041681 
L 166.956973 153.558353 
L 167.253683 149.379168 
L 167.550931 138.773899 
L 168.144936 108.033193 
L 168.442527 102.065881 
L 168.739141 108.591126 
L 169.33346 128.084538 
L 169.630292 129.981869 
L 169.927804 125.578473 
L 170.818982 100.290005 
L 171.1159 102.566085 
L 171.71012 116.584069 
L 172.007437 119.213216 
L 172.304409 117.055846 
L 173.195498 101.183217 
L 173.492416 102.551821 
L 174.086881 111.754721 
L 174.384039 113.638415 
L 174.681013 112.255879 
L 175.27506 104.485113 
L 175.572424 102.499355 
L 175.869361 103.583855 
L 176.46361 109.504462 
L 176.76069 110.627105 
L 177.057628 109.602019 
L 177.651832 104.697408 
L 177.948673 103.677051 
L 178.246217 104.546657 
L 178.840341 108.310525 
L 179.137364 108.907865 
L 179.434291 108.129589 
L 180.028596 105.057768 
L 180.325477 104.569285 
L 180.623031 105.240531 
L 181.217067 107.60533 
L 181.514053 107.889009 
L 181.810982 107.308517 
L 182.405348 105.402652 
L 182.702258 105.192919 
L 182.999213 105.689437 
L 183.593796 107.159677 
L 183.890759 107.272269 
L 184.187687 106.850477 
L 184.782095 105.67943 
L 185.07902 105.608942 
L 185.672944 106.493043 
L 185.970521 106.86869 
L 186.26747 106.89522 
L 187.15884 105.883895 
L 187.455774 105.878046 
L 188.346649 106.676085 
L 188.644193 106.664255 
L 189.535579 106.028143 
L 189.83252 106.048288 
L 190.723376 106.548839 
L 191.020918 106.523153 
L 191.91172 106.126914 
L 192.506204 106.270505 
L 193.1001 106.464978 
L 193.694582 106.342379 
L 194.288454 106.193005 
L 195.179887 106.375381 
L 195.773777 106.385842 
L 196.665193 106.23651 
L 198.448049 106.313737 
L 199.338872 106.281869 
L 200.527241 106.336811 
L 201.715608 106.295692 
L 203.200918 106.309133 
L 205.875189 106.301897 
L 443.840068 106.313203 
L 450.375645 106.313203 
L 450.375645 106.313203 
L 450.672806 107.486587 
L 451.267485 113.400111 
L 451.564559 114.054781 
L 451.861618 112.098277 
L 452.455669 106.214732 
L 452.752665 106.172613 
L 453.643801 113.402646 
L 453.940878 112.525472 
L 454.534932 106.566229 
L 454.831943 105.409121 
L 455.12954 106.890106 
L 455.723621 112.332069 
L 456.020672 112.530138 
L 456.317728 110.340782 
L 456.911761 105.14005 
L 457.208761 105.597667 
L 457.80282 110.981131 
L 458.099873 112.133224 
L 458.397504 110.814122 
L 458.991538 105.260403 
L 459.28855 104.731167 
L 459.585557 106.598096 
L 460.17963 111.38541 
L 460.476661 110.992828 
L 461.368298 104.267913 
L 461.665316 105.318814 
L 462.259345 110.386315 
L 462.556414 110.84868 
L 462.853431 109.055504 
L 463.447455 104.148505 
L 463.745041 104.350238 
L 464.636118 110.424064 
L 464.933148 109.370419 
L 465.52717 104.290151 
L 465.824154 103.700417 
L 466.121159 105.328674 
L 466.715801 109.763715 
L 467.012832 109.456757 
L 467.903854 103.34296 
L 468.200857 104.298192 
L 468.795482 108.924455 
L 469.092503 109.321895 
L 469.38953 107.649704 
L 469.983522 103.233459 
L 470.280529 103.50263 
L 471.172162 108.979872 
L 471.469176 107.907992 
L 472.063184 103.317548 
L 472.360177 102.938492 
L 472.657178 104.554372 
L 472.954181 106.968755 
L 473.251203 108.466948 
L 473.548821 108.005195 
L 474.14282 103.538078 
L 474.439814 102.592288 
L 474.736804 103.675265 
L 475.330819 107.823264 
L 475.62844 107.939868 
L 475.925447 106.226529 
L 476.222442 103.842752 
L 476.519434 102.433307 
L 476.816424 102.964822 
L 477.410433 107.087203 
L 477.70804 107.726528 
L 478.005055 106.476956 
L 478.599041 102.42817 
L 478.896031 102.425924 
L 479.787631 107.382828 
L 480.08464 106.617697 
L 480.678634 102.540851 
L 480.975613 102.048453 
L 481.272606 103.361662 
L 481.867211 106.932171 
L 482.164221 106.645744 
L 483.055192 101.818377 
L 483.352179 102.70436 
L 483.946777 106.402467 
L 484.243789 106.563525 
L 484.540787 105.084032 
L 484.837777 102.979232 
L 485.134763 101.715247 
L 485.431747 102.167866 
L 486.026337 105.817943 
L 486.323339 106.380618 
L 486.620347 105.269943 
L 487.214324 101.716201 
L 487.511304 101.75233 
L 488.402891 106.111547 
L 488.699894 105.37951 
L 489.293875 101.798696 
L 489.59145 101.452025 
L 489.888434 102.686387 
L 490.482438 105.769034 
L 490.779434 105.41221 
L 491.373417 101.940465 
L 491.670994 101.253372 
L 491.967973 102.159288 
L 492.561967 105.370987 
L 492.85897 105.369592 
L 493.750527 101.146673 
L 494.047503 101.716624 
L 494.641487 104.93319 
L 494.938491 105.256444 
L 495.235486 104.124552 
L 495.830047 101.117552 
L 496.127023 101.358634 
L 496.721001 104.46974 
L 497.018 105.081483 
L 497.315595 104.237128 
L 497.909558 101.151587 
L 498.206535 101.08276 
L 499.098103 104.852888 
L 499.395099 104.301314 
L 499.989064 101.235448 
L 500.286041 100.882617 
L 500.583021 101.898643 
L 501.177599 104.580457 
L 501.474593 104.313557 
L 502.06856 101.355378 
L 502.365537 100.751689 
L 502.663109 101.516064 
L 503.257089 104.27379 
L 503.554083 104.275963 
L 504.445623 100.681635 
L 504.742596 101.189214 
L 505.33657 103.942508 
L 505.63356 104.191769 
L 505.93055 103.197122 
L 506.525102 100.663704 
L 506.822076 100.920733 
L 507.416046 103.595252 
L 507.713632 104.065714 
L 508.010621 103.290344 
L 508.604579 100.689611 
L 508.901551 100.708625 
L 509.793106 103.903909 
L 510.090092 103.351677 
L 510.684049 100.750855 
L 510.981023 100.549166 
L 511.278594 101.499393 
L 511.575577 102.889559 
L 511.872567 103.711275 
L 512.169556 103.378119 
L 512.763513 100.839163 
L 513.061083 100.438809 
L 513.358056 101.197387 
L 513.952025 103.493913 
L 514.249014 103.370291 
L 515.140543 100.371583 
L 515.437516 100.935521 
L 516.031484 103.257343 
L 516.329065 103.329195 
L 517.220001 100.34294 
L 517.516972 100.714149 
L 518.111533 103.008934 
L 518.40852 103.259493 
L 518.705503 102.46622 
L 519.299455 100.347811 
L 519.597021 100.533611 
L 520.190979 102.751002 
L 520.48797 103.162897 
L 520.784949 102.538071 
L 521.379498 100.379745 
L 521.67647 100.38904 
L 522.56741 103.042478 
L 522.864393 102.58635 
L 523.45894 100.435304 
L 523.755912 100.28014 
L 524.052883 101.076 
L 524.349861 102.229686 
L 524.647443 102.902324 
L 524.944427 102.609367 
L 525.538377 100.509015 
L 525.835348 100.204203 
L 526.132916 100.857636 
L 526.726877 102.745251 
L 527.023861 102.610939 
L 527.617813 100.596153 
L 527.91538 100.158341 
L 528.212351 100.664749 
L 528.806309 102.575009 
L 529.103294 102.590331 
L 529.994813 100.138972 
L 530.291782 100.499419 
L 530.885738 102.394975 
L 531.183317 102.54827 
L 531.480298 101.845886 
L 532.074241 100.143241 
L 532.37121 100.361302 
L 532.965761 102.209869 
L 533.262742 102.488035 
L 533.559721 101.912222 
L 534.153668 100.167815 
L 534.451233 100.250607 
L 535.342165 102.410535 
L 535.639145 101.962436 
L 536.233687 100.208564 
L 536.530656 100.163643 
L 537.421585 102.318002 
L 537.719161 101.994726 
L 538.313108 100.264024 
L 538.610075 100.100233 
L 538.907046 100.71146 
L 539.501598 102.21286 
L 539.798578 102.012238 
L 540.392526 100.330398 
L 540.69009 100.05897 
L 540.98706 100.561506 
L 541.581014 102.09683 
L 541.877993 102.013748 
L 542.769507 100.037143 
L 543.066476 100.428835 
L 543.660428 101.972176 
L 543.958002 101.99924 
L 544.84892 100.03324 
L 545.145889 100.315276 
L 545.740436 101.84215 
L 546.037415 101.97122 
L 546.334393 101.411389 
L 546.928332 100.045251 
L 547.225898 100.221462 
L 547.819846 101.706908 
L 548.116823 101.92987 
L 548.413801 101.465924 
L 549.008339 100.070456 
L 549.305308 100.144542 
L 550.196233 101.876374 
L 550.493807 101.507607 
L 551.087748 100.107816 
L 551.384717 100.085055 
L 552.276234 101.812179 
L 552.573213 101.539034 
L 553.167157 100.15485 
L 553.46472 100.042436 
L 553.76169 100.548555 
L 554.058665 101.295713 
L 554.355642 101.738631 
L 554.652618 101.55868 
L 555.24716 100.208657 
L 555.544127 100.014538 
L 555.841097 100.437637 
L 556.435047 101.657083 
L 556.732619 101.565951 
L 557.326564 100.269221 
L 557.623533 100.000828 
L 557.920501 100.339983 
L 558.515046 101.569576 
L 558.812022 101.563016 
L 559.703531 99.999894 
L 560.0005 100.256761 
L 560.594446 101.476443 
L 560.891422 101.549466 
L 561.782933 100.010413 
L 562.079901 100.185594 
L 562.673847 101.379604 
L 562.971419 101.525611 
L 563.268395 101.124412 
L 563.862334 100.031117 
L 564.159302 100.127379 
L 564.753843 101.28128 
L 565.050818 101.492999 
L 565.347795 101.164939 
L 565.941734 100.06064 
L 566.239299 100.082264 
L 567.130218 101.452025 
L 567.427192 101.196898 
L 568.021729 100.096942 
L 568.318697 100.048338 
L 569.210211 101.403746 
L 569.507184 101.219312 
L 570.101127 100.139861 
L 570.398094 100.025726 
L 570.695659 100.400099 
L 571.289608 101.348918 
L 571.586581 101.234113 
L 572.180524 100.187596 
L 572.478088 100.013771 
L 572.775056 100.324349 
L 573.369001 101.288575 
L 573.665977 101.240451 
L 574.557482 100.011251 
L 574.854452 100.258079 
L 575.448993 101.224202 
L 575.745967 101.238161 
L 576.636878 100.01756 
L 576.934441 100.202137 
L 577.528386 101.155846 
L 577.82536 101.228723 
L 578.716868 100.031539 
L 579.013835 100.154723 
L 579.607777 101.084873 
L 579.904752 101.211986 
L 580.20232 100.910139 
L 580.796261 100.052643 
L 581.093228 100.116511 
L 581.687766 101.013021 
L 581.984742 101.18836 
L 582.281714 100.942482 
L 582.875653 100.079767 
L 583.173217 100.087624 
L 584.064131 101.158859 
L 584.361106 100.968345 
L 584.955639 100.111472 
L 585.252608 100.066711 
L 586.143522 101.123783 
L 586.441094 100.987018 
L 587.035031 100.147791 
L 587.332 100.053866 
L 587.628968 100.340316 
L 588.223509 101.084161 
L 588.520483 100.999967 
L 589.114422 100.187331 
L 589.411987 100.04864 
L 589.708955 100.287234 
L 590.302897 101.040263 
L 590.599871 101.00655 
L 591.491376 100.050168 
L 591.788344 100.240178 
L 592.382882 100.993363 
L 592.679856 101.006674 
L 593.570766 100.058025 
L 593.867734 100.200029 
L 594.462272 100.943393 
L 594.759245 101.00136 
L 595.650752 100.071412 
L 595.94772 100.167281 
L 596.54166 100.89141 
L 596.838634 100.99053 
L 597.136202 100.755783 
L 597.730138 100.089945 
L 598.027108 100.140606 
L 598.918616 100.974482 
L 599.215589 100.782456 
L 599.809528 100.11282 
L 600.107091 100.12079 
L 600.998005 100.953912 
L 601.294976 100.804182 
L 601.889512 100.139016 
L 602.186479 100.106793 
L 603.077391 100.929105 
L 603.374959 100.820439 
L 603.968899 100.168571 
L 604.265866 100.098676 
L 605.157374 100.900754 
L 605.454345 100.832314 
L 606.048286 100.20046 
L 606.34585 100.096243 
L 606.642819 100.284965 
L 607.236761 100.86906 
L 607.533732 100.839319 
L 608.425236 100.098765 
L 608.722204 100.250341 
L 609.316146 100.834671 
L 609.613714 100.841371 
L 610.504623 100.105984 
L 610.80159 100.220786 
L 611.396128 100.798452 
L 611.6931 100.839237 
L 612.584605 100.117356 
L 612.881572 100.196724 
L 613.475513 100.760284 
L 613.772485 100.832825 
L 614.367022 100.338359 
L 614.66399 100.132523 
L 614.960958 100.177164 
L 615.852465 100.822373 
L 616.149438 100.668632 
L 616.743376 100.150971 
L 617.04094 100.1627 
L 617.931851 100.808392 
L 618.228823 100.687098 
L 618.823358 100.171915 
L 619.120326 100.152588 
L 620.011237 100.791069 
L 620.308805 100.70132 
L 620.902743 100.195403 
L 621.199712 100.146866 
L 622.091217 100.770948 
L 622.38819 100.712183 
L 622.982128 100.220697 
L 623.279693 100.145432 
L 623.873631 100.562845 
L 624.170602 100.748176 
L 624.467574 100.719306 
L 625.359077 100.147756 
L 625.656046 100.271035 
L 626.249985 100.723213 
L 626.547552 100.722524 
L 627.43846 100.153636 
L 627.735428 100.248622 
L 628.329965 100.696719 
L 628.626936 100.722524 
L 629.518439 100.162624 
L 629.815408 100.230355 
L 630.409348 100.668619 
L 630.706318 100.71921 
L 631.894792 100.215449 
L 632.786299 100.712706 
L 633.38024 100.357506 
L 633.677208 100.189008 
L 633.974771 100.20439 
L 634.865682 100.703415 
L 635.162652 100.60367 
L 635.757186 100.205411 
L 636.054155 100.196613 
L 636.945064 100.691479 
L 637.242631 100.616003 
L 637.836569 100.223766 
L 638.133537 100.192165 
L 639.025043 100.677269 
L 639.322014 100.625766 
L 639.915953 100.243558 
L 640.213518 100.191009 
L 641.401398 100.632615 
L 642.292902 100.192686 
L 642.88684 100.49227 
L 643.184408 100.643 
L 643.481378 100.636475 
L 644.372285 100.197113 
L 644.966818 100.464837 
L 645.263789 100.623459 
L 645.56076 100.637774 
L 646.452264 100.203974 
L 646.749233 100.262314 
L 647.343171 100.602727 
L 647.640142 100.636475 
L 648.828615 100.250607 
L 649.720121 100.632646 
L 650.908594 100.24189 
L 651.799504 100.626633 
L 652.394041 100.372172 
L 652.69101 100.23682 
L 652.987976 100.235632 
L 653.879483 100.618503 
L 654.473423 100.392798 
L 655.06736 100.23195 
L 655.958865 100.608553 
L 656.552804 100.412524 
L 657.147338 100.230793 
L 658.335217 100.569659 
L 659.22672 100.231816 
L 660.415195 100.573617 
L 661.306103 100.234974 
L 661.900636 100.449217 
L 662.494578 100.575618 
L 663.386082 100.240044 
L 663.980019 100.428811 
L 664.573959 100.57561 
L 665.762431 100.280911 
L 666.653937 100.573581 
L 667.84241 100.273869 
L 668.733319 100.569803 
L 669.921792 100.268687 
L 670.813297 100.564388 
L 671.407237 100.383292 
L 672.001174 100.265507 
L 672.892678 100.557437 
L 673.486618 100.398914 
L 674.081152 100.264315 
L 675.269031 100.523603 
L 676.160534 100.264751 
L 677.349009 100.527439 
L 678.239915 100.266886 
L 679.725358 100.440121 
L 680.319892 100.270533 
L 680.913831 100.422575 
L 681.508367 100.530408 
L 682.696243 100.30598 
L 683.587749 100.529608 
L 684.776221 100.300221 
L 685.66713 100.527362 
L 686.855604 100.295884 
L 687.747108 100.523795 
L 689.232551 100.368752 
L 689.826491 100.519022 
L 691.311932 100.357802 
L 691.905873 100.513165 
L 692.500408 100.402561 
L 693.094346 100.291881 
L 694.28282 100.493348 
L 695.173727 100.293225 
L 696.659172 100.423878 
L 697.253707 100.295773 
L 698.73915 100.433065 
L 699.33309 100.299354 
L 701.115502 100.35665 
L 701.710036 100.321445 
L 702.600944 100.495443 
L 703.789417 100.317811 
L 704.680923 100.49315 
L 706.166365 100.376142 
L 706.760305 100.489901 
L 708.245747 100.367514 
L 708.839687 100.485798 
L 710.622695 100.433463 
L 711.216634 100.468019 
L 712.108138 100.314618 
L 713.592985 100.412824 
L 714.187519 100.316321 
L 715.672963 100.420196 
L 716.266901 100.318879 
L 718.049314 100.361153 
L 718.643848 100.338279 
L 719.534755 100.471277 
L 721.020197 100.389107 
L 721.614732 100.46986 
L 723.100174 100.381822 
L 723.694114 100.467688 
L 725.179558 100.374986 
L 726.071063 100.446292 
L 726.961971 100.331412 
L 728.150444 100.449172 
L 729.041949 100.331799 
L 730.527392 100.405252 
L 731.4183 100.358718 
L 732.309806 100.45247 
L 733.497683 100.354704 
L 734.389187 100.453064 
L 735.577661 100.35148 
L 736.468568 100.452895 
L 737.954011 100.391775 
L 738.845515 100.425911 
L 739.737019 100.347066 
L 740.924897 100.429591 
L 741.816401 100.34586 
L 743.004874 100.432605 
L 743.895781 100.345355 
L 745.381224 100.395209 
L 746.272729 100.37145 
L 747.163636 100.436919 
L 747.163636 100.436919 
" clip-path="url(#p980f96cb05)" style="fill: none; stroke: #0000ff; stroke-opacity: 0.3; stroke-width: 1.5; stroke-linecap: square"/>
   </g>
   <g id="line2d_18">
    <path d="M 153.290615 567 
L 153.290615 77.76 
" clip-path="url(#p980f96cb05)" style="fill: none; stroke-dasharray: 5.55,2.4; stroke-dashoffset: 0; stroke: #ff0000; stroke-width: 1.5"/>
   </g>
   <g id="line2d_19">
    <path d="M 450.375645 567 
L 450.375645 77.76 
" clip-path="url(#p980f96cb05)" style="fill: none; stroke-dasharray: 5.55,2.4; stroke-dashoffset: 0; stroke: #000000; stroke-width: 1.5"/>
   </g>
   <g id="patch_3">
    <path d="M 108 567 
L 108 77.76 
" style="fill: none; stroke: #000000; stroke-width: 0.8; stroke-linejoin: miter; stroke-linecap: square"/>
   </g>
   <g id="patch_4">
    <path d="M 777.6 567 
L 777.6 77.76 
" style="fill: none; stroke: #000000; stroke-width: 0.8; stroke-linejoin: miter; stroke-linecap: square"/>
   </g>
   <g id="patch_5">
    <path d="M 108 567 
L 777.6 567 
" style="fill: none; stroke: #000000; stroke-width: 0.8; stroke-linejoin: miter; stroke-linecap: square"/>
   </g>
   <g id="patch_6">
    <path d="M 108 77.76 
L 777.6 77.76 
" style="fill: none; stroke: #000000; stroke-width: 0.8; stroke-linejoin: miter; stroke-linecap: square"/>
   </g>
   <g id="text_17">
    <!-- Pulse Start -->
    <g style="fill: #ff0000" transform="translate(153.290615 96.254744)scale(0.18 -0.18)">
     <defs>
      <path id="DejaVuSans-50" d="M 1259 4147 
L 1259 2394 
L 2053 2394 
Q 2494 2394 2734 2622 
Q 2975 2850 2975 3272 
Q 2975 3691 2734 3919 
Q 2494 4147 2053 4147 
L 1259 4147 
z
M 628 4666 
L 2053 4666 
Q 2838 4666 3239 4311 
Q 3641 3956 3641 3272 
Q 3641 2581 3239 2228 
Q 2838 1875 2053 1875 
L 1259 1875 
L 1259 0 
L 628 0 
L 628 4666 
z
" transform="scale(0.015625)"/>
      <path id="DejaVuSans-75" d="M 544 1381 
L 544 3500 
L 1119 3500 
L 1119 1403 
Q 1119 906 1312 657 
Q 1506 409 1894 409 
Q 2359 409 2629 706 
Q 2900 1003 2900 1516 
L 2900 3500 
L 3475 3500 
L 3475 0 
L 2900 0 
L 2900 538 
Q 2691 219 2414 64 
Q 2138 -91 1772 -91 
Q 1169 -91 856 284 
Q 544 659 544 1381 
z
M 1991 3584 
L 1991 3584 
z
" transform="scale(0.015625)"/>
      <path id="DejaVuSans-6c" d="M 603 4863 
L 1178 4863 
L 1178 0 
L 603 0 
L 603 4863 
z
" transform="scale(0.015625)"/>
      <path id="DejaVuSans-53" d="M 3425 4513 
L 3425 3897 
Q 3066 4069 2747 4153 
Q 2428 4238 2131 4238 
Q 1616 4238 1336 4038 
Q 1056 3838 1056 3469 
Q 1056 3159 1242 3001 
Q 1428 2844 1947 2747 
L 2328 2669 
Q 3034 2534 3370 2195 
Q 3706 1856 3706 1288 
Q 3706 609 3251 259 
Q 2797 -91 1919 -91 
Q 1588 -91 1214 -16 
Q 841 59 441 206 
L 441 856 
Q 825 641 1194 531 
Q 1563 422 1919 422 
Q 2459 422 2753 634 
Q 3047 847 3047 1241 
Q 3047 1584 2836 1778 
Q 2625 1972 2144 2069 
L 1759 2144 
Q 1053 2284 737 2584 
Q 422 2884 422 3419 
Q 422 4038 858 4394 
Q 1294 4750 2059 4750 
Q 2388 4750 2728 4690 
Q 3069 4631 3425 4513 
z
" transform="scale(0.015625)"/>
      <path id="DejaVuSans-72" d="M 2631 2963 
Q 2534 3019 2420 3045 
Q 2306 3072 2169 3072 
Q 1681 3072 1420 2755 
Q 1159 2438 1159 1844 
L 1159 0 
L 581 0 
L 581 3500 
L 1159 3500 
L 1159 2956 
Q 1341 3275 1631 3429 
Q 1922 3584 2338 3584 
Q 2397 3584 2469 3576 
Q 2541 3569 2628 3553 
L 2631 2963 
z
" transform="scale(0.015625)"/>
     </defs>
     <use xlink:href="#DejaVuSans-50"/>
     <use xlink:href="#DejaVuSans-75" x="58.552734"/>
     <use xlink:href="#DejaVuSans-6c" x="121.931641"/>
     <use xlink:href="#DejaVuSans-73" x="149.714844"/>
     <use xlink:href="#DejaVuSans-65" x="201.814453"/>
     <use xlink:href="#DejaVuSans-20" x="263.337891"/>
     <use xlink:href="#DejaVuSans-53" x="295.125"/>
     <use xlink:href="#DejaVuSans-74" x="358.601562"/>
     <use xlink:href="#DejaVuSans-61" x="397.810547"/>
     <use xlink:href="#DejaVuSans-72" x="459.089844"/>
     <use xlink:href="#DejaVuSans-74" x="500.203125"/>
    </g>
   </g>
   <g id="text_18">
    <!-- Pulse End -->
    <g transform="translate(450.375645 96.254744)scale(0.18 -0.18)">
     <defs>
      <path id="DejaVuSans-45" d="M 628 4666 
L 3578 4666 
L 3578 4134 
L 1259 4134 
L 1259 2753 
L 3481 2753 
L 3481 2222 
L 1259 2222 
L 1259 531 
L 3634 531 
L 3634 0 
L 628 0 
L 628 4666 
z
" transform="scale(0.015625)"/>
      <path id="DejaVuSans-64" d="M 2906 2969 
L 2906 4863 
L 3481 4863 
L 3481 0 
L 2906 0 
L 2906 525 
Q 2725 213 2448 61 
Q 2172 -91 1784 -91 
Q 1150 -91 751 415 
Q 353 922 353 1747 
Q 353 2572 751 3078 
Q 1150 3584 1784 3584 
Q 2172 3584 2448 3432 
Q 2725 3281 2906 2969 
z
M 947 1747 
Q 947 1113 1208 752 
Q 1469 391 1925 391 
Q 2381 391 2643 752 
Q 2906 1113 2906 1747 
Q 2906 2381 2643 2742 
Q 2381 3103 1925 3103 
Q 1469 3103 1208 2742 
Q 947 2381 947 1747 
z
" transform="scale(0.015625)"/>
     </defs>
     <use xlink:href="#DejaVuSans-50"/>
     <use xlink:href="#DejaVuSans-75" x="58.552734"/>
     <use xlink:href="#DejaVuSans-6c" x="121.931641"/>
     <use xlink:href="#DejaVuSans-73" x="149.714844"/>
     <use xlink:href="#DejaVuSans-65" x="201.814453"/>
     <use xlink:href="#DejaVuSans-20" x="263.337891"/>
     <use xlink:href="#DejaVuSans-45" x="295.125"/>
     <use xlink:href="#DejaVuSans-6e" x="358.308594"/>
     <use xlink:href="#DejaVuSans-64" x="421.6875"/>
    </g>
   </g>
   <g id="legend_1">
    <g id="patch_7">
     <path d="M 610.309687 558 
L 765 558 
Q 768.6 558 768.6 554.4 
L 768.6 424.096875 
Q 768.6 420.496875 765 420.496875 
L 610.309687 420.496875 
Q 606.709687 420.496875 606.709687 424.096875 
L 606.709687 554.4 
Q 606.709687 558 610.309687 558 
z
" style="fill: #ffffff; opacity: 0.8; stroke: #cccccc; stroke-linejoin: miter"/>
    </g>
    <g id="line2d_20">
     <path d="M 613.909688 435.074063 
L 631.909688 435.074063 
L 649.909688 435.074063 
" style="fill: none; stroke: #ff0000; stroke-opacity: 0.3; stroke-width: 1.5; stroke-linecap: square"/>
    </g>
    <g id="text_19">
     <!-- mx -->
     <g transform="translate(664.309687 441.374063)scale(0.18 -0.18)">
      <defs>
       <path id="DejaVuSans-78" d="M 3513 3500 
L 2247 1797 
L 3578 0 
L 2900 0 
L 1881 1375 
L 863 0 
L 184 0 
L 1544 1831 
L 300 3500 
L 978 3500 
L 1906 2253 
L 2834 3500 
L 3513 3500 
z
" transform="scale(0.015625)"/>
      </defs>
      <use xlink:href="#DejaVuSans-6d"/>
      <use xlink:href="#DejaVuSans-78" x="97.412109"/>
     </g>
    </g>
    <g id="line2d_21">
     <path d="M 613.909688 461.494687 
L 631.909688 461.494687 
L 649.909688 461.494687 
" style="fill: none; stroke: #008000; stroke-opacity: 0.3; stroke-width: 1.5; stroke-linecap: square"/>
    </g>
    <g id="text_20">
     <!-- my -->
     <g transform="translate(664.309687 467.794688)scale(0.18 -0.18)">
      <defs>
       <path id="DejaVuSans-79" d="M 2059 -325 
Q 1816 -950 1584 -1140 
Q 1353 -1331 966 -1331 
L 506 -1331 
L 506 -850 
L 844 -850 
Q 1081 -850 1212 -737 
Q 1344 -625 1503 -206 
L 1606 56 
L 191 3500 
L 800 3500 
L 1894 763 
L 2988 3500 
L 3597 3500 
L 2059 -325 
z
" transform="scale(0.015625)"/>
      </defs>
      <use xlink:href="#DejaVuSans-6d"/>
      <use xlink:href="#DejaVuSans-79" x="97.412109"/>
     </g>
    </g>
    <g id="line2d_22">
     <path d="M 613.909688 487.915313 
L 631.909688 487.915313 
L 649.909688 487.915313 
" style="fill: none; stroke: #0000ff; stroke-opacity: 0.3; stroke-width: 1.5; stroke-linecap: square"/>
    </g>
    <g id="text_21">
     <!-- mz -->
     <g transform="translate(664.309687 494.215313)scale(0.18 -0.18)">
      <use xlink:href="#DejaVuSans-6d"/>
      <use xlink:href="#DejaVuSans-7a" x="97.412109"/>
     </g>
    </g>
    <g id="line2d_23">
     <path d="M 613.909688 514.335938 
L 631.909688 514.335938 
L 649.909688 514.335938 
" style="fill: none; stroke-dasharray: 5.55,2.4; stroke-dashoffset: 0; stroke: #ff0000; stroke-width: 1.5"/>
    </g>
    <g id="text_22">
     <!-- Pulse Start -->
     <g transform="translate(664.309687 520.635938)scale(0.18 -0.18)">
      <use xlink:href="#DejaVuSans-50"/>
      <use xlink:href="#DejaVuSans-75" x="58.552734"/>
      <use xlink:href="#DejaVuSans-6c" x="121.931641"/>
      <use xlink:href="#DejaVuSans-73" x="149.714844"/>
      <use xlink:href="#DejaVuSans-65" x="201.814453"/>
      <use xlink:href="#DejaVuSans-20" x="263.337891"/>
      <use xlink:href="#DejaVuSans-53" x="295.125"/>
      <use xlink:href="#DejaVuSans-74" x="358.601562"/>
      <use xlink:href="#DejaVuSans-61" x="397.810547"/>
      <use xlink:href="#DejaVuSans-72" x="459.089844"/>
      <use xlink:href="#DejaVuSans-74" x="500.203125"/>
     </g>
    </g>
    <g id="line2d_24">
     <path d="M 613.909688 540.756563 
L 631.909688 540.756563 
L 649.909688 540.756563 
" style="fill: none; stroke-dasharray: 5.55,2.4; stroke-dashoffset: 0; stroke: #000000; stroke-width: 1.5"/>
    </g>
    <g id="text_23">
     <!-- Pulse End -->
     <g transform="translate(664.309687 547.056563)scale(0.18 -0.18)">
      <use xlink:href="#DejaVuSans-50"/>
      <use xlink:href="#DejaVuSans-75" x="58.552734"/>
      <use xlink:href="#DejaVuSans-6c" x="121.931641"/>
      <use xlink:href="#DejaVuSans-73" x="149.714844"/>
      <use xlink:href="#DejaVuSans-65" x="201.814453"/>
      <use xlink:href="#DejaVuSans-20" x="263.337891"/>
      <use xlink:href="#DejaVuSans-45" x="295.125"/>
      <use xlink:href="#DejaVuSans-6e" x="358.308594"/>
      <use xlink:href="#DejaVuSans-64" x="421.6875"/>
     </g>
    </g>
   </g>
  </g>
 </g>
 <defs>
  <clipPath id="p980f96cb05">
   <rect x="108" y="77.76" width="669.6" height="489.24"/>
  </clipPath>
 </defs>
</svg>
