<?xml version="1.0" encoding="utf-8" standalone="no"?>
<!DOCTYPE svg PUBLIC "-//W3C//DTD SVG 1.1//EN"
  "http://www.w3.org/Graphics/SVG/1.1/DTD/svg11.dtd">
<svg xmlns:xlink="http://www.w3.org/1999/xlink" width="864pt" height="648pt" viewBox="0 0 864 648" xmlns="http://www.w3.org/2000/svg" version="1.1">
 <metadata>
  <rdf:RDF xmlns:dc="http://purl.org/dc/elements/1.1/" xmlns:cc="http://creativecommons.org/ns#" xmlns:rdf="http://www.w3.org/1999/02/22-rdf-syntax-ns#">
   <cc:Work>
    <dc:type rdf:resource="http://purl.org/dc/dcmitype/StillImage"/>
    <dc:date>2023-12-06T04:53:27.662663</dc:date>
    <dc:format>image/svg+xml</dc:format>
    <dc:creator>
     <cc:Agent>
      <dc:title>Matplotlib v3.5.2, https://matplotlib.org/</dc:title>
     </cc:Agent>
    </dc:creator>
   </cc:Work>
  </rdf:RDF>
 </metadata>
 <defs>
  <style type="text/css">*{stroke-linejoin: round; stroke-linecap: butt}</style>
 </defs>
 <g id="figure_1">
  <g id="patch_1">
   <path d="M 0 648 
L 864 648 
L 864 0 
L 0 0 
L 0 648 
z
" style="fill: none"/>
  </g>
  <g id="axes_1">
   <g id="patch_2">
    <path d="M 108 567 
L 777.6 567 
L 777.6 77.76 
L 108 77.76 
z
" style="fill: #ffffff"/>
   </g>
   <g id="matplotlib.axis_1">
    <g id="xtick_1">
     <g id="line2d_1">
      <defs>
       <path id="m5728c8b119" d="M 0 0 
L 0 3.5 
" style="stroke: #000000; stroke-width: 0.8"/>
      </defs>
      <g>
       <use xlink:href="#m5728c8b119" x="138.436364" y="567" style="stroke: #000000; stroke-width: 0.8"/>
      </g>
     </g>
     <g id="text_1">
      <!-- 0 -->
      <g transform="translate(132.710114 587.677187)scale(0.18 -0.18)">
       <defs>
        <path id="DejaVuSans-30" d="M 2034 4250 
Q 1547 4250 1301 3770 
Q 1056 3291 1056 2328 
Q 1056 1369 1301 889 
Q 1547 409 2034 409 
Q 2525 409 2770 889 
Q 3016 1369 3016 2328 
Q 3016 3291 2770 3770 
Q 2525 4250 2034 4250 
z
M 2034 4750 
Q 2819 4750 3233 4129 
Q 3647 3509 3647 2328 
Q 3647 1150 3233 529 
Q 2819 -91 2034 -91 
Q 1250 -91 836 529 
Q 422 1150 422 2328 
Q 422 3509 836 4129 
Q 1250 4750 2034 4750 
z
" transform="scale(0.015625)"/>
       </defs>
       <use xlink:href="#DejaVuSans-30"/>
      </g>
     </g>
    </g>
    <g id="xtick_2">
     <g id="line2d_2">
      <g>
       <use xlink:href="#m5728c8b119" x="286.978811" y="567" style="stroke: #000000; stroke-width: 0.8"/>
      </g>
     </g>
     <g id="text_2">
      <!-- 5 -->
      <g transform="translate(281.252561 587.677187)scale(0.18 -0.18)">
       <defs>
        <path id="DejaVuSans-35" d="M 691 4666 
L 3169 4666 
L 3169 4134 
L 1269 4134 
L 1269 2991 
Q 1406 3038 1543 3061 
Q 1681 3084 1819 3084 
Q 2600 3084 3056 2656 
Q 3513 2228 3513 1497 
Q 3513 744 3044 326 
Q 2575 -91 1722 -91 
Q 1428 -91 1123 -41 
Q 819 9 494 109 
L 494 744 
Q 775 591 1075 516 
Q 1375 441 1709 441 
Q 2250 441 2565 725 
Q 2881 1009 2881 1497 
Q 2881 1984 2565 2268 
Q 2250 2553 1709 2553 
Q 1456 2553 1204 2497 
Q 953 2441 691 2322 
L 691 4666 
z
" transform="scale(0.015625)"/>
       </defs>
       <use xlink:href="#DejaVuSans-35"/>
      </g>
     </g>
    </g>
    <g id="xtick_3">
     <g id="line2d_3">
      <g>
       <use xlink:href="#m5728c8b119" x="435.521258" y="567" style="stroke: #000000; stroke-width: 0.8"/>
      </g>
     </g>
     <g id="text_3">
      <!-- 10 -->
      <g transform="translate(424.068758 587.677187)scale(0.18 -0.18)">
       <defs>
        <path id="DejaVuSans-31" d="M 794 531 
L 1825 531 
L 1825 4091 
L 703 3866 
L 703 4441 
L 1819 4666 
L 2450 4666 
L 2450 531 
L 3481 531 
L 3481 0 
L 794 0 
L 794 531 
z
" transform="scale(0.015625)"/>
       </defs>
       <use xlink:href="#DejaVuSans-31"/>
       <use xlink:href="#DejaVuSans-30" x="63.623047"/>
      </g>
     </g>
    </g>
    <g id="xtick_4">
     <g id="line2d_4">
      <g>
       <use xlink:href="#m5728c8b119" x="584.063706" y="567" style="stroke: #000000; stroke-width: 0.8"/>
      </g>
     </g>
     <g id="text_4">
      <!-- 15 -->
      <g transform="translate(572.611206 587.677187)scale(0.18 -0.18)">
       <use xlink:href="#DejaVuSans-31"/>
       <use xlink:href="#DejaVuSans-35" x="63.623047"/>
      </g>
     </g>
    </g>
    <g id="xtick_5">
     <g id="line2d_5">
      <g>
       <use xlink:href="#m5728c8b119" x="732.606153" y="567" style="stroke: #000000; stroke-width: 0.8"/>
      </g>
     </g>
     <g id="text_5">
      <!-- 20 -->
      <g transform="translate(721.153653 587.677187)scale(0.18 -0.18)">
       <defs>
        <path id="DejaVuSans-32" d="M 1228 531 
L 3431 531 
L 3431 0 
L 469 0 
L 469 531 
Q 828 903 1448 1529 
Q 2069 2156 2228 2338 
Q 2531 2678 2651 2914 
Q 2772 3150 2772 3378 
Q 2772 3750 2511 3984 
Q 2250 4219 1831 4219 
Q 1534 4219 1204 4116 
Q 875 4013 500 3803 
L 500 4441 
Q 881 4594 1212 4672 
Q 1544 4750 1819 4750 
Q 2544 4750 2975 4387 
Q 3406 4025 3406 3419 
Q 3406 3131 3298 2873 
Q 3191 2616 2906 2266 
Q 2828 2175 2409 1742 
Q 1991 1309 1228 531 
z
" transform="scale(0.015625)"/>
       </defs>
       <use xlink:href="#DejaVuSans-32"/>
       <use xlink:href="#DejaVuSans-30" x="63.623047"/>
      </g>
     </g>
    </g>
    <g id="text_6">
     <!-- Time (ns) -->
     <g transform="translate(400.504219 609.097813)scale(0.18 -0.18)">
      <defs>
       <path id="DejaVuSans-54" d="M -19 4666 
L 3928 4666 
L 3928 4134 
L 2272 4134 
L 2272 0 
L 1638 0 
L 1638 4134 
L -19 4134 
L -19 4666 
z
" transform="scale(0.015625)"/>
       <path id="DejaVuSans-69" d="M 603 3500 
L 1178 3500 
L 1178 0 
L 603 0 
L 603 3500 
z
M 603 4863 
L 1178 4863 
L 1178 4134 
L 603 4134 
L 603 4863 
z
" transform="scale(0.015625)"/>
       <path id="DejaVuSans-6d" d="M 3328 2828 
Q 3544 3216 3844 3400 
Q 4144 3584 4550 3584 
Q 5097 3584 5394 3201 
Q 5691 2819 5691 2113 
L 5691 0 
L 5113 0 
L 5113 2094 
Q 5113 2597 4934 2840 
Q 4756 3084 4391 3084 
Q 3944 3084 3684 2787 
Q 3425 2491 3425 1978 
L 3425 0 
L 2847 0 
L 2847 2094 
Q 2847 2600 2669 2842 
Q 2491 3084 2119 3084 
Q 1678 3084 1418 2786 
Q 1159 2488 1159 1978 
L 1159 0 
L 581 0 
L 581 3500 
L 1159 3500 
L 1159 2956 
Q 1356 3278 1631 3431 
Q 1906 3584 2284 3584 
Q 2666 3584 2933 3390 
Q 3200 3197 3328 2828 
z
" transform="scale(0.015625)"/>
       <path id="DejaVuSans-65" d="M 3597 1894 
L 3597 1613 
L 953 1613 
Q 991 1019 1311 708 
Q 1631 397 2203 397 
Q 2534 397 2845 478 
Q 3156 559 3463 722 
L 3463 178 
Q 3153 47 2828 -22 
Q 2503 -91 2169 -91 
Q 1331 -91 842 396 
Q 353 884 353 1716 
Q 353 2575 817 3079 
Q 1281 3584 2069 3584 
Q 2775 3584 3186 3129 
Q 3597 2675 3597 1894 
z
M 3022 2063 
Q 3016 2534 2758 2815 
Q 2500 3097 2075 3097 
Q 1594 3097 1305 2825 
Q 1016 2553 972 2059 
L 3022 2063 
z
" transform="scale(0.015625)"/>
       <path id="DejaVuSans-20" transform="scale(0.015625)"/>
       <path id="DejaVuSans-28" d="M 1984 4856 
Q 1566 4138 1362 3434 
Q 1159 2731 1159 2009 
Q 1159 1288 1364 580 
Q 1569 -128 1984 -844 
L 1484 -844 
Q 1016 -109 783 600 
Q 550 1309 550 2009 
Q 550 2706 781 3412 
Q 1013 4119 1484 4856 
L 1984 4856 
z
" transform="scale(0.015625)"/>
       <path id="DejaVuSans-6e" d="M 3513 2113 
L 3513 0 
L 2938 0 
L 2938 2094 
Q 2938 2591 2744 2837 
Q 2550 3084 2163 3084 
Q 1697 3084 1428 2787 
Q 1159 2491 1159 1978 
L 1159 0 
L 581 0 
L 581 3500 
L 1159 3500 
L 1159 2956 
Q 1366 3272 1645 3428 
Q 1925 3584 2291 3584 
Q 2894 3584 3203 3211 
Q 3513 2838 3513 2113 
z
" transform="scale(0.015625)"/>
       <path id="DejaVuSans-73" d="M 2834 3397 
L 2834 2853 
Q 2591 2978 2328 3040 
Q 2066 3103 1784 3103 
Q 1356 3103 1142 2972 
Q 928 2841 928 2578 
Q 928 2378 1081 2264 
Q 1234 2150 1697 2047 
L 1894 2003 
Q 2506 1872 2764 1633 
Q 3022 1394 3022 966 
Q 3022 478 2636 193 
Q 2250 -91 1575 -91 
Q 1294 -91 989 -36 
Q 684 19 347 128 
L 347 722 
Q 666 556 975 473 
Q 1284 391 1588 391 
Q 1994 391 2212 530 
Q 2431 669 2431 922 
Q 2431 1156 2273 1281 
Q 2116 1406 1581 1522 
L 1381 1569 
Q 847 1681 609 1914 
Q 372 2147 372 2553 
Q 372 3047 722 3315 
Q 1072 3584 1716 3584 
Q 2034 3584 2315 3537 
Q 2597 3491 2834 3397 
z
" transform="scale(0.015625)"/>
       <path id="DejaVuSans-29" d="M 513 4856 
L 1013 4856 
Q 1481 4119 1714 3412 
Q 1947 2706 1947 2009 
Q 1947 1309 1714 600 
Q 1481 -109 1013 -844 
L 513 -844 
Q 928 -128 1133 580 
Q 1338 1288 1338 2009 
Q 1338 2731 1133 3434 
Q 928 4138 513 4856 
z
" transform="scale(0.015625)"/>
      </defs>
      <use xlink:href="#DejaVuSans-54"/>
      <use xlink:href="#DejaVuSans-69" x="57.958984"/>
      <use xlink:href="#DejaVuSans-6d" x="85.742188"/>
      <use xlink:href="#DejaVuSans-65" x="183.154297"/>
      <use xlink:href="#DejaVuSans-20" x="244.677734"/>
      <use xlink:href="#DejaVuSans-28" x="276.464844"/>
      <use xlink:href="#DejaVuSans-6e" x="315.478516"/>
      <use xlink:href="#DejaVuSans-73" x="378.857422"/>
      <use xlink:href="#DejaVuSans-29" x="430.957031"/>
     </g>
    </g>
   </g>
   <g id="matplotlib.axis_2">
    <g id="ytick_1">
     <g id="line2d_6">
      <defs>
       <path id="meb339e4a28" d="M 0 0 
L -3.5 0 
" style="stroke: #000000; stroke-width: 0.8"/>
      </defs>
      <g>
       <use xlink:href="#meb339e4a28" x="108" y="544.761818" style="stroke: #000000; stroke-width: 0.8"/>
      </g>
     </g>
     <g id="text_7">
      <!-- −1.00 -->
      <g transform="translate(45.838438 551.600412)scale(0.18 -0.18)">
       <defs>
        <path id="DejaVuSans-2212" d="M 678 2272 
L 4684 2272 
L 4684 1741 
L 678 1741 
L 678 2272 
z
" transform="scale(0.015625)"/>
        <path id="DejaVuSans-2e" d="M 684 794 
L 1344 794 
L 1344 0 
L 684 0 
L 684 794 
z
" transform="scale(0.015625)"/>
       </defs>
       <use xlink:href="#DejaVuSans-2212"/>
       <use xlink:href="#DejaVuSans-31" x="83.789062"/>
       <use xlink:href="#DejaVuSans-2e" x="147.412109"/>
       <use xlink:href="#DejaVuSans-30" x="179.199219"/>
       <use xlink:href="#DejaVuSans-30" x="242.822266"/>
      </g>
     </g>
    </g>
    <g id="ytick_2">
     <g id="line2d_7">
      <g>
       <use xlink:href="#meb339e4a28" x="108" y="489.166364" style="stroke: #000000; stroke-width: 0.8"/>
      </g>
     </g>
     <g id="text_8">
      <!-- −0.75 -->
      <g transform="translate(45.838438 496.004957)scale(0.18 -0.18)">
       <defs>
        <path id="DejaVuSans-37" d="M 525 4666 
L 3525 4666 
L 3525 4397 
L 1831 0 
L 1172 0 
L 2766 4134 
L 525 4134 
L 525 4666 
z
" transform="scale(0.015625)"/>
       </defs>
       <use xlink:href="#DejaVuSans-2212"/>
       <use xlink:href="#DejaVuSans-30" x="83.789062"/>
       <use xlink:href="#DejaVuSans-2e" x="147.412109"/>
       <use xlink:href="#DejaVuSans-37" x="179.199219"/>
       <use xlink:href="#DejaVuSans-35" x="242.822266"/>
      </g>
     </g>
    </g>
    <g id="ytick_3">
     <g id="line2d_8">
      <g>
       <use xlink:href="#meb339e4a28" x="108" y="433.570909" style="stroke: #000000; stroke-width: 0.8"/>
      </g>
     </g>
     <g id="text_9">
      <!-- −0.50 -->
      <g transform="translate(45.838438 440.409503)scale(0.18 -0.18)">
       <use xlink:href="#DejaVuSans-2212"/>
       <use xlink:href="#DejaVuSans-30" x="83.789062"/>
       <use xlink:href="#DejaVuSans-2e" x="147.412109"/>
       <use xlink:href="#DejaVuSans-35" x="179.199219"/>
       <use xlink:href="#DejaVuSans-30" x="242.822266"/>
      </g>
     </g>
    </g>
    <g id="ytick_4">
     <g id="line2d_9">
      <g>
       <use xlink:href="#meb339e4a28" x="108" y="377.975455" style="stroke: #000000; stroke-width: 0.8"/>
      </g>
     </g>
     <g id="text_10">
      <!-- −0.25 -->
      <g transform="translate(45.838438 384.814048)scale(0.18 -0.18)">
       <use xlink:href="#DejaVuSans-2212"/>
       <use xlink:href="#DejaVuSans-30" x="83.789062"/>
       <use xlink:href="#DejaVuSans-2e" x="147.412109"/>
       <use xlink:href="#DejaVuSans-32" x="179.199219"/>
       <use xlink:href="#DejaVuSans-35" x="242.822266"/>
      </g>
     </g>
    </g>
    <g id="ytick_5">
     <g id="line2d_10">
      <g>
       <use xlink:href="#meb339e4a28" x="108" y="322.38" style="stroke: #000000; stroke-width: 0.8"/>
      </g>
     </g>
     <g id="text_11">
      <!-- 0.00 -->
      <g transform="translate(60.921875 329.218594)scale(0.18 -0.18)">
       <use xlink:href="#DejaVuSans-30"/>
       <use xlink:href="#DejaVuSans-2e" x="63.623047"/>
       <use xlink:href="#DejaVuSans-30" x="95.410156"/>
       <use xlink:href="#DejaVuSans-30" x="159.033203"/>
      </g>
     </g>
    </g>
    <g id="ytick_6">
     <g id="line2d_11">
      <g>
       <use xlink:href="#meb339e4a28" x="108" y="266.784545" style="stroke: #000000; stroke-width: 0.8"/>
      </g>
     </g>
     <g id="text_12">
      <!-- 0.25 -->
      <g transform="translate(60.921875 273.623139)scale(0.18 -0.18)">
       <use xlink:href="#DejaVuSans-30"/>
       <use xlink:href="#DejaVuSans-2e" x="63.623047"/>
       <use xlink:href="#DejaVuSans-32" x="95.410156"/>
       <use xlink:href="#DejaVuSans-35" x="159.033203"/>
      </g>
     </g>
    </g>
    <g id="ytick_7">
     <g id="line2d_12">
      <g>
       <use xlink:href="#meb339e4a28" x="108" y="211.189091" style="stroke: #000000; stroke-width: 0.8"/>
      </g>
     </g>
     <g id="text_13">
      <!-- 0.50 -->
      <g transform="translate(60.921875 218.027685)scale(0.18 -0.18)">
       <use xlink:href="#DejaVuSans-30"/>
       <use xlink:href="#DejaVuSans-2e" x="63.623047"/>
       <use xlink:href="#DejaVuSans-35" x="95.410156"/>
       <use xlink:href="#DejaVuSans-30" x="159.033203"/>
      </g>
     </g>
    </g>
    <g id="ytick_8">
     <g id="line2d_13">
      <g>
       <use xlink:href="#meb339e4a28" x="108" y="155.593636" style="stroke: #000000; stroke-width: 0.8"/>
      </g>
     </g>
     <g id="text_14">
      <!-- 0.75 -->
      <g transform="translate(60.921875 162.43223)scale(0.18 -0.18)">
       <use xlink:href="#DejaVuSans-30"/>
       <use xlink:href="#DejaVuSans-2e" x="63.623047"/>
       <use xlink:href="#DejaVuSans-37" x="95.410156"/>
       <use xlink:href="#DejaVuSans-35" x="159.033203"/>
      </g>
     </g>
    </g>
    <g id="ytick_9">
     <g id="line2d_14">
      <g>
       <use xlink:href="#meb339e4a28" x="108" y="99.998182" style="stroke: #000000; stroke-width: 0.8"/>
      </g>
     </g>
     <g id="text_15">
      <!-- 1.00 -->
      <g transform="translate(60.921875 106.836776)scale(0.18 -0.18)">
       <use xlink:href="#DejaVuSans-31"/>
       <use xlink:href="#DejaVuSans-2e" x="63.623047"/>
       <use xlink:href="#DejaVuSans-30" x="95.410156"/>
       <use xlink:href="#DejaVuSans-30" x="159.033203"/>
      </g>
     </g>
    </g>
    <g id="text_16">
     <!-- Magnetization -->
     <g transform="translate(38.095 386.1225)rotate(-90)scale(0.18 -0.18)">
      <defs>
       <path id="DejaVuSans-4d" d="M 628 4666 
L 1569 4666 
L 2759 1491 
L 3956 4666 
L 4897 4666 
L 4897 0 
L 4281 0 
L 4281 4097 
L 3078 897 
L 2444 897 
L 1241 4097 
L 1241 0 
L 628 0 
L 628 4666 
z
" transform="scale(0.015625)"/>
       <path id="DejaVuSans-61" d="M 2194 1759 
Q 1497 1759 1228 1600 
Q 959 1441 959 1056 
Q 959 750 1161 570 
Q 1363 391 1709 391 
Q 2188 391 2477 730 
Q 2766 1069 2766 1631 
L 2766 1759 
L 2194 1759 
z
M 3341 1997 
L 3341 0 
L 2766 0 
L 2766 531 
Q 2569 213 2275 61 
Q 1981 -91 1556 -91 
Q 1019 -91 701 211 
Q 384 513 384 1019 
Q 384 1609 779 1909 
Q 1175 2209 1959 2209 
L 2766 2209 
L 2766 2266 
Q 2766 2663 2505 2880 
Q 2244 3097 1772 3097 
Q 1472 3097 1187 3025 
Q 903 2953 641 2809 
L 641 3341 
Q 956 3463 1253 3523 
Q 1550 3584 1831 3584 
Q 2591 3584 2966 3190 
Q 3341 2797 3341 1997 
z
" transform="scale(0.015625)"/>
       <path id="DejaVuSans-67" d="M 2906 1791 
Q 2906 2416 2648 2759 
Q 2391 3103 1925 3103 
Q 1463 3103 1205 2759 
Q 947 2416 947 1791 
Q 947 1169 1205 825 
Q 1463 481 1925 481 
Q 2391 481 2648 825 
Q 2906 1169 2906 1791 
z
M 3481 434 
Q 3481 -459 3084 -895 
Q 2688 -1331 1869 -1331 
Q 1566 -1331 1297 -1286 
Q 1028 -1241 775 -1147 
L 775 -588 
Q 1028 -725 1275 -790 
Q 1522 -856 1778 -856 
Q 2344 -856 2625 -561 
Q 2906 -266 2906 331 
L 2906 616 
Q 2728 306 2450 153 
Q 2172 0 1784 0 
Q 1141 0 747 490 
Q 353 981 353 1791 
Q 353 2603 747 3093 
Q 1141 3584 1784 3584 
Q 2172 3584 2450 3431 
Q 2728 3278 2906 2969 
L 2906 3500 
L 3481 3500 
L 3481 434 
z
" transform="scale(0.015625)"/>
       <path id="DejaVuSans-74" d="M 1172 4494 
L 1172 3500 
L 2356 3500 
L 2356 3053 
L 1172 3053 
L 1172 1153 
Q 1172 725 1289 603 
Q 1406 481 1766 481 
L 2356 481 
L 2356 0 
L 1766 0 
Q 1100 0 847 248 
Q 594 497 594 1153 
L 594 3053 
L 172 3053 
L 172 3500 
L 594 3500 
L 594 4494 
L 1172 4494 
z
" transform="scale(0.015625)"/>
       <path id="DejaVuSans-7a" d="M 353 3500 
L 3084 3500 
L 3084 2975 
L 922 459 
L 3084 459 
L 3084 0 
L 275 0 
L 275 525 
L 2438 3041 
L 353 3041 
L 353 3500 
z
" transform="scale(0.015625)"/>
       <path id="DejaVuSans-6f" d="M 1959 3097 
Q 1497 3097 1228 2736 
Q 959 2375 959 1747 
Q 959 1119 1226 758 
Q 1494 397 1959 397 
Q 2419 397 2687 759 
Q 2956 1122 2956 1747 
Q 2956 2369 2687 2733 
Q 2419 3097 1959 3097 
z
M 1959 3584 
Q 2709 3584 3137 3096 
Q 3566 2609 3566 1747 
Q 3566 888 3137 398 
Q 2709 -91 1959 -91 
Q 1206 -91 779 398 
Q 353 888 353 1747 
Q 353 2609 779 3096 
Q 1206 3584 1959 3584 
z
" transform="scale(0.015625)"/>
      </defs>
      <use xlink:href="#DejaVuSans-4d"/>
      <use xlink:href="#DejaVuSans-61" x="86.279297"/>
      <use xlink:href="#DejaVuSans-67" x="147.558594"/>
      <use xlink:href="#DejaVuSans-6e" x="211.035156"/>
      <use xlink:href="#DejaVuSans-65" x="274.414062"/>
      <use xlink:href="#DejaVuSans-74" x="335.9375"/>
      <use xlink:href="#DejaVuSans-69" x="375.146484"/>
      <use xlink:href="#DejaVuSans-7a" x="402.929688"/>
      <use xlink:href="#DejaVuSans-61" x="455.419922"/>
      <use xlink:href="#DejaVuSans-74" x="516.699219"/>
      <use xlink:href="#DejaVuSans-69" x="555.908203"/>
      <use xlink:href="#DejaVuSans-6f" x="583.691406"/>
      <use xlink:href="#DejaVuSans-6e" x="644.873047"/>
     </g>
    </g>
   </g>
   <g id="line2d_15">
    <path d="M 138.436364 309.142353 
L 153.290608 309.142081 
L 153.290608 309.142081 
L 153.587852 286.189389 
L 154.182317 201.286451 
L 154.479478 179.409831 
L 154.776334 173.923658 
L 155.073355 184.440717 
L 155.370631 212.036859 
L 155.964415 298.843789 
L 156.261643 308.189366 
L 156.855743 226.985672 
L 157.153026 192.229751 
L 157.450089 174.999719 
L 157.747458 173.998534 
L 158.044376 188.892674 
L 158.341537 221.538972 
L 158.935301 307.127603 
L 159.232702 304.100623 
L 160.12374 185.495607 
L 160.420718 172.061066 
L 160.717981 174.610506 
L 161.01484 193.325004 
L 161.906249 312.151632 
L 162.203251 299.039215 
L 162.79772 208.020372 
L 163.094986 180.452177 
L 163.39197 170.086904 
L 163.689121 175.265301 
L 163.985926 197.086539 
L 164.877317 315.04368 
L 165.174451 294.414381 
L 165.768443 202.218275 
L 166.065672 176.858244 
L 166.362622 168.524539 
L 166.659762 175.559387 
L 166.957072 199.416309 
L 167.847887 317.002612 
L 168.145081 291.474233 
L 168.739146 198.459702 
L 169.0364 174.429376 
L 169.333295 167.050725 
L 169.630442 175.064884 
L 169.92773 199.837166 
L 170.819105 318.744274 
L 171.115719 291.099869 
L 171.710445 196.708098 
L 172.007114 172.915852 
L 172.304637 165.608868 
L 172.601164 173.456145 
L 172.898482 198.100498 
L 173.789779 320.531031 
L 174.086984 293.837425 
L 174.681174 197.283467 
L 174.977834 172.366652 
L 175.275372 164.146563 
L 175.572552 170.818718 
L 175.869308 193.947628 
L 176.760516 322.069632 
L 177.057649 300.032373 
L 177.651817 200.472867 
L 177.94912 173.133991 
L 178.246121 162.819978 
L 178.543383 167.308933 
L 178.840187 187.563825 
L 179.137192 226.839085 
L 179.731341 321.789935 
L 180.028318 309.310045 
L 180.622982 207.045462 
L 180.919767 175.842724 
L 181.216876 162.192105 
L 181.514226 163.351729 
L 181.811129 179.565827 
L 182.108198 214.068704 
L 182.702313 316.748984 
L 182.999643 320.100078 
L 183.89037 181.487597 
L 184.18762 163.066244 
L 184.485057 159.776594 
L 184.782087 170.814204 
L 185.078735 198.75112 
L 185.970443 328.222164 
L 186.267168 294.423159 
L 186.861515 191.813986 
L 187.158857 166.639641 
L 187.455861 157.714692 
L 187.752487 162.591092 
L 188.04992 182.741617 
L 188.346897 222.03093 
L 188.940917 325.873406 
L 189.238423 317.894328 
L 190.129409 175.068702 
L 190.426616 158.659979 
L 190.72347 156.55357 
L 191.020498 168.081376 
L 191.317706 196.42021 
L 192.209297 332.802753 
L 192.506015 298.922061 
L 193.100422 191.704788 
L 193.397247 165.00608 
L 193.694321 154.481385 
L 193.991633 157.149811 
L 194.288542 173.800636 
L 194.585601 208.693573 
L 195.180137 321.077467 
L 195.476746 330.775044 
L 196.368281 180.822609 
L 196.66503 159.05601 
L 196.962666 152.026599 
L 197.259295 157.54741 
L 197.556681 177.385565 
L 197.853642 216.341211 
L 198.447586 329.434724 
L 198.744933 327.965716 
L 199.636131 175.172608 
L 199.933406 155.624592 
L 200.230409 149.999755 
L 200.527652 156.391164 
L 200.824426 176.858964 
L 201.121331 216.612294 
L 201.71587 332.155999 
L 202.012622 329.947509 
L 202.903921 174.087209 
L 203.201214 154.177064 
L 203.498238 147.900188 
L 203.795535 153.06431 
L 204.092367 171.405962 
L 204.389331 208.145062 
L 204.983797 327.931124 
L 205.280956 337.923866 
L 206.172197 178.336547 
L 206.468989 155.218389 
L 206.766151 146.19756 
L 207.063546 148.171094 
L 207.360484 161.809351 
L 207.657607 191.560998 
L 208.548928 345.965604 
L 208.845657 310.667242 
L 209.439717 191.235958 
L 209.736747 160.860438 
L 210.034063 146.550747 
L 210.330968 143.533928 
L 210.628144 150.647776 
L 210.925562 170.471302 
L 211.222484 208.913524 
L 211.816838 334.029449 
L 212.113439 342.870279 
L 213.004872 176.242909 
L 213.302354 152.436771 
L 213.598999 142.229801 
L 213.896482 141.807665 
L 214.193552 150.992601 
L 214.490267 173.074738 
L 214.78773 214.799727 
L 215.38146 341.77563 
L 215.678774 341.713133 
L 216.569852 171.968032 
L 216.867312 149.483095 
L 217.163971 139.714062 
L 217.461495 138.90367 
L 217.758614 146.696585 
L 218.055368 165.977622 
L 218.352328 203.198423 
L 218.946559 333.931902 
L 219.243658 352.300749 
L 220.135188 178.866189 
L 220.432197 152.193685 
L 220.728993 139.334101 
L 221.026041 135.423383 
L 221.323322 138.870626 
L 221.620303 150.976189 
L 221.917546 176.317932 
L 222.214875 222.598508 
L 222.808517 353.250575 
L 223.106032 341.827699 
L 223.700157 206.955221 
L 223.996848 166.769873 
L 224.294394 145.216078 
L 224.59108 135.100218 
L 224.88812 132.35426 
L 225.185448 135.855858 
L 225.482426 146.904445 
L 225.779658 169.796563 
L 226.076487 212.144895 
L 226.670595 349.305165 
L 226.967847 354.156053 
L 227.859254 172.190903 
L 228.156286 147.300256 
L 228.453136 134.739114 
L 228.750308 129.534401 
L 229.047781 129.567136 
L 229.344393 134.779619 
L 229.641939 147.209353 
L 229.938514 171.584579 
L 230.235847 216.291375 
L 230.829927 356.373 
L 231.127267 355.245269 
L 231.721455 214.141394 
L 232.018261 169.747883 
L 232.315366 145.39167 
L 232.612838 132.731073 
L 232.909486 126.763902 
L 233.206499 125.038152 
L 233.503877 126.854723 
L 233.801038 132.843999 
L 234.097931 145.25237 
L 234.395075 168.984624 
L 234.692434 212.501428 
L 235.286405 356.971203 
L 235.583664 363.21338 
L 236.474739 172.298425 
L 236.771925 146.257247 
L 237.068909 132.359829 
L 237.365689 125.047328 
L 237.662858 121.442714 
L 237.959859 120.215024 
L 238.257317 120.880524 
L 238.554025 123.604999 
L 238.85114 129.316356 
L 239.148626 140.101683 
L 239.445821 160.133628 
L 239.742667 197.045318 
L 240.634084 377.450745 
L 240.931134 321.730742 
L 241.524851 184.48494 
L 241.822207 152.556003 
L 242.119369 135.263379 
L 242.416298 125.756423 
L 242.713672 120.313873 
L 243.307556 114.983625 
L 243.90181 112.462772 
L 244.496073 110.814077 
L 244.793246 110.201727 
L 245.089895 109.892549 
L 245.387246 110.193766 
L 245.684126 111.674206 
L 245.981184 115.261358 
L 246.278465 122.23156 
L 246.575409 134.054676 
L 247.169566 176.684528 
L 249.249552 383.579261 
L 249.843428 410.477954 
L 250.140773 417.14078 
L 250.437805 419.428764 
L 250.734965 418.350324 
L 251.031826 416.361997 
L 251.328926 416.639676 
L 251.625941 420.541292 
L 252.517087 437.913025 
L 252.814466 441.02342 
L 253.1112 442.411165 
L 253.705365 443.108763 
L 254.002548 444.237755 
L 254.597037 449.228909 
L 255.190854 454.555747 
L 255.785026 457.476443 
L 256.676657 459.848923 
L 257.864637 464.599235 
L 258.459093 465.698277 
L 259.350376 466.609075 
L 261.132868 469.300507 
L 262.618232 470.515312 
L 263.509291 471.205007 
L 266.480207 472.61444 
L 269.748186 473.622342 
L 272.719196 474.232922 
L 276.284143 474.723078 
L 280.740303 475.102026 
L 286.978984 475.394235 
L 296.188775 475.582304 
L 313.41953 475.675504 
L 384.12605 475.692999 
L 450.375503 475.693039 
L 450.375503 475.693039 
L 450.672859 483.36649 
L 450.970163 477.924473 
L 451.564287 458.96279 
L 451.86139 443.644065 
L 452.455119 386.301637 
L 453.049397 329.581297 
L 453.643621 298.98072 
L 453.940629 290.461277 
L 454.237647 286.542147 
L 454.535017 287.027962 
L 455.426136 302.319243 
L 455.723232 312.75226 
L 456.020475 335.179475 
L 457.20859 463.800915 
L 457.505913 466.542283 
L 457.803189 466.202717 
L 458.100231 470.108233 
L 458.397245 466.456232 
L 458.694106 445.060243 
L 459.882732 302.264089 
L 460.773519 243.534584 
L 461.071144 229.779148 
L 461.367923 224.215671 
L 461.665182 228.082148 
L 462.556047 268.175388 
L 462.853323 268.838359 
L 463.150745 267.11945 
L 463.44735 276.5995 
L 463.744719 301.569871 
L 464.635849 401.865471 
L 465.527057 479.124379 
L 465.823928 490.120204 
L 466.121063 481.704084 
L 466.71535 418.572189 
L 467.903857 289.773651 
L 468.200926 260.82159 
L 468.497775 246.291705 
L 468.795006 242.269423 
L 469.092198 244.659874 
L 469.389485 239.520014 
L 469.983576 209.135195 
L 470.280714 201.621135 
L 470.577833 203.81978 
L 471.468601 243.243896 
L 471.766124 244.498374 
L 472.063251 241.911219 
L 472.359857 252.032714 
L 472.95401 305.300852 
L 473.845449 404.58617 
L 474.439386 465.33392 
L 474.736964 485.353618 
L 475.033672 482.729655 
L 475.331161 459.703397 
L 476.519045 325.581968 
L 477.113312 273.381266 
L 477.707875 243.439269 
L 478.004519 237.80851 
L 479.192765 231.190639 
L 479.489857 235.50073 
L 480.084035 262.957014 
L 480.975491 321.198668 
L 481.569944 394.224894 
L 482.163607 475.18736 
L 482.461155 492.858249 
L 482.758191 481.992838 
L 484.243191 310.175841 
L 484.837838 227.311121 
L 485.134694 202.656234 
L 485.431972 191.59981 
L 485.728998 196.214411 
L 486.026228 204.434265 
L 486.322962 194.961356 
L 487.214226 136.046039 
L 487.511127 130.710323 
L 487.80828 134.197579 
L 488.105679 148.766248 
L 488.402555 169.571592 
L 488.699874 176.848768 
L 488.997013 162.143748 
L 489.590738 126.098369 
L 489.88794 121.347688 
L 490.184887 125.127825 
L 490.482091 137.189706 
L 490.779476 153.825514 
L 491.076452 162.67712 
L 491.373481 155.723363 
L 491.670429 143.408033 
L 491.967726 137.534009 
L 492.264968 141.201863 
L 492.56175 149.443972 
L 492.858985 152.687506 
L 493.156241 144.948899 
L 493.749965 123.56296 
L 494.04718 121.058596 
L 494.34437 125.881313 
L 494.641309 139.361549 
L 494.938755 158.35017 
L 495.235469 170.162528 
L 495.53256 162.835033 
L 496.126766 131.690437 
L 496.424188 126.51261 
L 496.720786 129.096843 
L 497.315439 144.295017 
L 497.612391 145.585312 
L 498.503751 129.056458 
L 498.800715 132.516097 
L 499.097856 143.342489 
L 499.691982 176.434504 
L 499.988971 180.85988 
L 500.582915 163.584215 
L 500.880471 164.336889 
L 501.177227 176.022653 
L 501.771614 225.852112 
L 502.662648 321.203112 
L 503.851313 492.054548 
L 504.148117 491.787033 
L 504.445079 464.988534 
L 506.227863 227.179929 
L 506.525135 198.835149 
L 506.821851 181.822251 
L 507.119203 177.482145 
L 507.416167 178.267286 
L 507.713292 174.43309 
L 508.60459 131.663351 
L 508.901662 130.528081 
L 509.198404 141.256138 
L 510.089624 199.671759 
L 510.386953 205.537003 
L 510.683989 215.443173 
L 510.981076 241.570646 
L 511.872124 363.565284 
L 512.169246 389.789925 
L 512.763398 468.01584 
L 513.060445 477.470481 
L 513.35785 436.660215 
L 513.951841 305.679824 
L 514.546301 236.107258 
L 515.437394 137.469903 
L 515.734743 136.118927 
L 516.031654 161.826865 
L 517.219818 338.586573 
L 517.814194 432.156888 
L 518.111003 452.261278 
L 518.408441 446.749611 
L 518.705562 416.920204 
L 520.487596 154.327439 
L 520.784795 133.419405 
L 521.081943 139.897305 
L 521.676131 214.851691 
L 523.161766 460.971262 
L 523.458889 474.372369 
L 523.75586 434.178227 
L 524.349814 301.174484 
L 525.53803 158.599073 
L 525.835618 140.050081 
L 526.132179 158.723629 
L 527.618131 416.842186 
L 527.914991 453.21792 
L 528.212177 457.908673 
L 528.509374 410.536801 
L 529.103085 263.25101 
L 529.400212 224.843724 
L 530.291541 167.302373 
L 530.588675 169.853248 
L 530.885695 204.251023 
L 531.777057 412.350524 
L 532.074196 443.357666 
L 532.371329 445.350785 
L 532.66808 422.097742 
L 533.262475 285.346593 
L 533.55963 207.924793 
L 533.856437 164.570419 
L 534.153511 160.591617 
L 534.450553 186.188326 
L 535.044844 260.523995 
L 536.233277 459.556838 
L 536.530491 429.701414 
L 537.421795 236.030214 
L 538.015707 169.629131 
L 538.312912 165.118194 
L 538.610062 195.767601 
L 539.798237 433.504648 
L 540.0954 441.654346 
L 540.392667 416.513461 
L 540.689706 363.620348 
L 541.580604 170.175323 
L 541.877689 163.36259 
L 542.174817 192.756596 
L 543.660346 447.998063 
L 543.95743 429.367699 
L 544.848637 210.968806 
L 545.145747 179.021339 
L 545.4431 177.503827 
L 545.740185 200.768999 
L 546.037085 255.570684 
L 546.631411 407.049293 
L 546.928546 446.124518 
L 547.225327 429.771578 
L 547.819467 301.070887 
L 548.413949 190.037787 
L 548.711098 172.659184 
L 549.008045 189.45049 
L 549.305061 243.735173 
L 549.899407 406.848407 
L 550.196354 445.193383 
L 550.493132 426.964979 
L 551.087343 305.489587 
L 551.681949 188.997932 
L 551.979005 167.244851 
L 552.276174 193.909646 
L 553.167391 422.102012 
L 553.464007 444.443725 
L 553.761091 417.390341 
L 554.652437 193.282144 
L 554.949561 171.463048 
L 555.246497 194.837978 
L 555.841137 327.091439 
L 556.137898 404.305211 
L 556.435106 445.777283 
L 556.732348 423.356741 
L 557.623745 205.878691 
L 557.920402 178.282599 
L 558.217602 189.738463 
L 558.51481 246.482435 
L 559.108926 413.16184 
L 559.405713 441.744611 
L 559.703027 411.090102 
L 560.594338 193.840907 
L 560.891582 173.707369 
L 561.188174 207.832371 
L 562.080016 427.285136 
L 562.376775 436.274027 
L 562.673862 384.509753 
L 563.267862 220.134082 
L 563.565242 183.661831 
L 563.861972 193.369109 
L 564.159113 244.65566 
L 564.753442 406.183877 
L 565.050507 437.788594 
L 565.347507 403.98074 
L 566.238953 193.356039 
L 566.53587 183.810264 
L 566.833304 229.22831 
L 567.427371 392.523322 
L 567.724037 432.141697 
L 568.021648 413.142604 
L 568.912397 195.624921 
L 569.20972 188.294816 
L 569.506802 230.560015 
L 570.397974 430.854626 
L 570.695002 410.788626 
L 571.586182 200.597943 
L 571.883313 191.659142 
L 572.180493 233.759209 
L 572.775014 394.123724 
L 573.071654 428.460361 
L 573.369017 399.865342 
L 574.260032 194.455437 
L 574.557425 199.498545 
L 574.854354 255.155651 
L 575.448515 405.132188 
L 575.745661 425.095827 
L 576.042805 379.768092 
L 576.63711 225.317955 
L 576.934031 195.524827 
L 577.231245 215.923747 
L 578.122369 418.7726 
L 578.419384 409.43332 
L 579.310443 207.935229 
L 579.607524 199.166996 
L 579.904997 246.018242 
L 580.499164 395.13428 
L 580.796155 419.575298 
L 581.093431 381.330053 
L 581.687298 229.76878 
L 581.984656 200.144238 
L 582.281722 223.339689 
L 583.17275 415.868711 
L 583.469989 399.180984 
L 584.360883 207.15414 
L 584.6583 211.171634 
L 584.955503 267.207409 
L 585.549241 404.273957 
L 585.846301 407.840621 
L 586.143668 353.812992 
L 586.738012 216.70525 
L 587.034692 208.927112 
L 587.331739 252.330643 
L 587.926254 393.378322 
L 588.223339 410.094123 
L 588.520551 365.354279 
L 589.114679 227.375236 
L 589.411468 208.694289 
L 589.708704 243.649467 
L 590.303043 384.624604 
L 590.600071 408.246882 
L 590.896684 372.398408 
L 591.490988 233.348516 
L 591.788234 210.709407 
L 592.085362 241.667653 
L 592.679731 378.954806 
L 592.976844 406.559168 
L 593.273366 373.492726 
L 593.867513 237.738318 
L 594.164742 213.347911 
L 594.462051 241.94404 
L 595.056247 377.762626 
L 595.353355 403.367678 
L 595.650454 370.843438 
L 596.244736 237.426381 
L 596.541312 215.84441 
L 596.838471 247.1764 
L 597.432746 378.699005 
L 597.729839 400.831902 
L 598.026947 364.600527 
L 598.621115 236.010478 
L 598.91828 219.453504 
L 599.215516 254.254226 
L 599.809664 382.620433 
L 600.106774 396.243202 
L 600.40382 355.084433 
L 600.998101 232.055346 
L 601.29465 224.068009 
L 601.591745 265.763493 
L 602.185947 386.67764 
L 602.48308 390.534067 
L 602.780143 341.954443 
L 603.374296 229.177014 
L 603.671461 231.17012 
L 603.968643 279.702616 
L 604.562704 390.259826 
L 604.859819 380.841111 
L 605.751067 226.837528 
L 606.048187 241.998397 
L 606.939413 391.094354 
L 607.236528 367.58395 
L 607.830681 248.960487 
L 608.127748 228.614697 
L 608.424877 256.655116 
L 609.019045 373.519915 
L 609.316102 387.034193 
L 609.613136 349.431601 
L 610.207338 238.884489 
L 610.504432 234.91875 
L 610.801481 276.505546 
L 611.395619 382.066508 
L 611.692687 377.126714 
L 612.583874 234.088792 
L 612.88099 247.588836 
L 613.475151 358.330467 
L 613.772791 384.30324 
L 614.069831 359.872672 
L 614.663995 250.449985 
L 614.961064 235.809293 
L 615.258119 267.139067 
L 615.852247 372.92767 
L 616.149287 378.03471 
L 616.446335 336.761173 
L 617.040475 240.604788 
L 617.33753 246.247569 
L 618.22874 379.491743 
L 618.525754 362.252488 
L 619.119886 257.933149 
L 619.416969 239.351547 
L 619.714017 265.312571 
L 620.308094 366.967679 
L 620.605739 375.305463 
L 620.90279 338.508032 
L 621.496887 245.379103 
L 621.793938 248.858881 
L 622.685114 375.314761 
L 622.982114 359.635702 
L 623.576215 260.809346 
L 623.873293 243.458323 
L 624.170348 268.594911 
L 624.764408 364.529694 
L 625.061442 370.93888 
L 625.359077 334.714197 
L 625.953154 248.131879 
L 626.250206 253.963604 
L 627.141321 371.900252 
L 627.438333 353.605819 
L 628.032402 260.342349 
L 628.329475 247.959718 
L 628.626522 275.665679 
L 629.221176 364.434552 
L 629.51819 364.88593 
L 630.409279 249.979441 
L 630.70634 261.382586 
L 631.300389 350.844328 
L 631.597402 368.224116 
L 631.894414 344.487764 
L 632.489075 258.209476 
L 632.786125 253.824745 
L 633.083163 286.052093 
L 633.677197 364.681578 
L 633.974205 356.591308 
L 634.568236 271.129773 
L 634.865282 252.527458 
L 635.16233 271.55216 
L 635.756956 355.67197 
L 636.053957 362.705598 
L 636.35096 332.306675 
L 636.945028 256.583751 
L 637.242055 262.14176 
L 638.133699 363.262582 
L 638.430705 345.239747 
L 639.024724 264.942944 
L 639.321773 257.516843 
L 639.618809 284.809521 
L 640.212816 358.93269 
L 640.510413 353.927812 
L 641.401467 257.459593 
L 641.698477 273.813216 
L 642.29251 351.028747 
L 642.589509 358.290636 
L 642.887107 330.74841 
L 643.481134 261.223381 
L 643.778168 266.353387 
L 644.669187 358.515578 
L 644.966175 341.277421 
L 645.560804 267.891931 
L 645.857815 262.571148 
L 646.15483 288.870754 
L 646.74884 355.340492 
L 647.045834 348.578771 
L 647.640433 276.699132 
L 647.937456 262.006141 
L 648.23448 279.533359 
L 648.828471 349.43096 
L 649.12547 352.73351 
L 649.422459 325.099811 
L 649.72006 286.636882 
L 650.017074 264.316685 
L 650.314084 272.801997 
L 650.908093 341.681061 
L 651.205081 353.916261 
L 651.502073 334.17768 
L 652.096674 268.901365 
L 652.393699 268.634809 
L 653.284683 352.484872 
L 653.581674 341.129093 
L 654.176268 275.171335 
L 654.473274 266.966347 
L 654.770286 287.797935 
L 655.36427 348.928859 
L 655.661262 345.798266 
L 656.552853 267.437287 
L 656.849864 281.1603 
L 657.443853 343.710619 
L 657.740835 348.306701 
L 658.038415 324.800285 
L 658.335413 290.600155 
L 658.632415 269.796096 
L 658.929425 276.360789 
L 659.52341 337.390043 
L 659.820397 348.782449 
L 660.117979 331.632618 
L 660.711973 273.622684 
L 661.008985 273.371121 
L 661.899953 347.518661 
L 662.197533 336.941631 
L 662.791523 278.584999 
L 663.088523 272.08341 
L 663.38553 291.383184 
L 663.980098 344.812448 
L 664.277081 340.669412 
L 664.87106 284.304319 
L 665.16807 272.302345 
L 665.465064 286.046536 
L 666.059642 340.951801 
L 666.35662 342.898906 
L 667.247594 273.842715 
L 667.544598 281.97523 
L 668.139167 336.265648 
L 668.436151 343.698432 
L 668.73313 326.211471 
L 669.327119 276.453587 
L 669.624713 279.214359 
L 670.515671 343.255022 
L 670.812647 330.79102 
L 671.407221 279.907399 
L 671.704223 277.600428 
L 672.001219 297.446224 
L 672.298199 325.51336 
L 672.59518 341.71678 
L 672.892157 334.300455 
L 673.486727 283.997336 
L 673.783726 277.10426 
L 674.080715 292.745717 
L 674.674681 339.293172 
L 674.972254 336.719095 
L 675.863217 277.583936 
L 676.160216 288.909989 
L 676.754772 336.186033 
L 677.051747 338.159809 
L 677.942706 278.920791 
L 678.239695 285.957734 
L 678.834259 332.548053 
L 679.131233 338.661816 
L 679.428207 323.392801 
L 680.022181 280.970953 
L 680.319773 283.884337 
L 680.913734 328.554482 
L 681.210709 338.31897 
L 681.507684 326.895134 
L 682.102251 283.570503 
L 682.399238 282.603418 
L 683.290182 337.241848 
L 683.587155 329.659627 
L 684.181716 286.627751 
L 684.47871 282.074834 
L 684.775693 296.708645 
L 685.370245 335.550342 
L 685.667218 331.679582 
L 686.261183 289.995078 
L 686.558168 282.240778 
L 686.855158 293.590227 
L 687.449708 333.350054 
L 687.746681 333.027023 
L 688.637631 283.009961 
L 688.935211 291.107428 
L 689.529166 330.748557 
L 689.826138 333.722507 
L 690.123112 318.866345 
L 690.420692 297.164247 
L 690.717677 284.302475 
L 691.014662 289.174594 
L 691.608619 327.861986 
L 691.905592 333.809018 
L 692.203162 321.783621 
L 692.797124 286.032032 
L 693.094113 287.821596 
L 693.985637 333.354326 
L 694.282609 324.252395 
L 694.876571 288.124821 
L 695.173556 287.011004 
L 696.065083 332.425926 
L 696.362055 326.222995 
L 696.956013 290.489162 
L 697.253594 286.719205 
L 697.550574 298.9709 
L 698.144524 331.092743 
L 698.441495 327.702381 
L 699.036047 293.028113 
L 699.333031 286.875355 
L 699.630016 296.637405 
L 700.223965 329.417783 
L 700.521529 328.688454 
L 701.412469 287.446903 
L 701.709448 294.715512 
L 702.303996 327.493591 
L 702.600966 329.249567 
L 702.897937 316.397063 
L 703.194916 298.46814 
L 703.491898 288.38229 
L 703.789478 293.22308 
L 704.383425 325.347595 
L 704.680394 329.390488 
L 704.977367 318.693337 
L 705.57192 289.61968 
L 705.868899 292.101933 
L 706.462852 323.058467 
L 706.759821 329.151637 
L 707.057386 320.622084 
L 707.651342 291.124053 
L 707.948325 291.360234 
L 708.839843 328.571315 
L 709.136812 322.243344 
L 709.730766 292.836355 
L 710.027744 290.981976 
L 710.325319 302.169418 
L 710.622293 318.301569 
L 710.919264 327.694916 
L 711.216231 323.521672 
L 711.810779 294.689732 
L 712.107761 290.94228 
L 712.404738 300.255677 
L 712.998682 326.559883 
L 713.295652 324.467529 
L 713.890197 296.673307 
L 714.187175 291.200437 
L 714.484153 298.62136 
L 715.078695 325.225829 
L 715.375663 325.07582 
L 716.266591 291.732405 
L 716.564165 297.295026 
L 717.158111 323.70778 
L 717.455079 325.398382 
L 717.752049 315.258885 
L 718.049024 300.810113 
L 718.346598 292.504132 
L 718.643578 296.224442 
L 719.237523 322.059602 
L 719.534492 325.435024 
L 719.832058 316.907834 
L 720.42601 293.485937 
L 720.722988 295.431068 
L 721.316936 320.317438 
L 721.614499 325.208779 
L 721.911466 318.349987 
L 722.505419 294.646866 
L 722.802396 294.902714 
L 723.693909 324.751342 
L 723.990877 319.551927 
L 724.585421 295.936985 
L 724.8824 294.636372 
L 725.179377 303.769457 
L 725.476348 316.721163 
L 725.773316 324.085194 
L 726.07088 320.496741 
L 726.664829 297.352421 
L 726.961807 294.594118 
L 727.258782 302.313108 
L 727.853319 323.243276 
L 728.150287 321.226201 
L 728.744232 298.849362 
L 729.041211 294.770365 
L 729.338783 301.076778 
L 729.932722 322.242928 
L 730.229692 321.727612 
L 731.121208 295.144739 
L 731.418184 300.017766 
L 732.012126 321.115224 
L 732.309093 322.010046 
L 733.200608 295.694713 
L 733.497584 299.16077 
L 734.092123 319.901629 
L 734.389091 322.081352 
L 734.686061 314.829143 
L 735.280008 296.401112 
L 735.577582 298.515273 
L 736.171525 318.601272 
L 736.468491 321.969581 
L 736.76546 315.974946 
L 737.360004 297.233657 
L 737.656977 298.047279 
L 738.547891 321.682873 
L 738.845455 316.93189 
L 739.439402 298.184838 
L 739.736376 297.763909 
L 740.627885 321.239796 
L 740.924852 317.736628 
L 741.518798 299.226715 
L 741.816369 297.66259 
L 742.113344 304.395233 
L 742.410313 314.513037 
L 742.707282 320.657552 
L 743.004249 318.369488 
L 743.59879 300.32511 
L 743.895765 297.716639 
L 744.192738 303.364485 
L 744.786678 319.953209 
L 745.084242 318.824525 
L 745.678184 301.484583 
L 745.975159 297.922871 
L 746.272133 302.47805 
L 746.86667 319.154902 
L 747.163636 319.129925 
L 747.163636 319.129925 
" clip-path="url(#p129e0c49c2)" style="fill: none; stroke: #ff0000; stroke-opacity: 0.3; stroke-width: 1.5; stroke-linecap: square"/>
   </g>
   <g id="line2d_16">
    <path d="M 138.436364 322.38 
L 153.290608 322.379839 
L 153.290608 322.379839 
L 153.587852 272.628382 
L 153.885039 256.07576 
L 154.182317 269.371335 
L 155.370631 383.701153 
L 155.667521 389.516666 
L 155.964415 360.840482 
L 156.559018 262.414987 
L 156.855743 256.402813 
L 157.153026 275.543409 
L 158.341537 388.913504 
L 158.638379 387.238013 
L 158.935301 348.689937 
L 159.232702 290.59375 
L 159.529698 256.226346 
L 159.827005 258.230629 
L 160.420718 312.283293 
L 161.01484 373.999568 
L 161.312481 392.475298 
L 161.609329 383.748353 
L 162.500353 252.649975 
L 162.79772 260.453491 
L 163.39197 318.016414 
L 163.985926 379.039712 
L 164.282935 394.775849 
L 164.580323 380.388638 
L 165.174451 271.92199 
L 165.471613 250.44781 
L 165.768443 262.303934 
L 166.659762 354.357127 
L 166.957072 382.628527 
L 167.254076 396.484071 
L 167.550827 378.27515 
L 168.145081 267.015527 
L 168.442326 248.879811 
L 168.739146 263.099539 
L 170.224682 398.105581 
L 170.522052 378.132834 
L 171.115719 264.474161 
L 171.413029 247.419314 
L 171.710445 262.495623 
L 173.195414 399.690692 
L 173.492792 380.854465 
L 174.086984 264.45677 
L 174.383674 245.731846 
L 174.681174 260.241419 
L 176.166266 400.987487 
L 176.463579 386.396516 
L 177.057649 267.835302 
L 177.354908 244.075759 
L 177.651817 256.252627 
L 178.543383 350.100652 
L 179.137192 401.307344 
L 179.434489 393.899082 
L 180.32551 243.455069 
L 180.622982 250.715224 
L 181.216876 309.492633 
L 182.108198 399.32644 
L 182.404952 401.674387 
L 182.702313 361.318082 
L 183.296622 245.823792 
L 183.593498 244.320308 
L 184.18762 299.167488 
L 185.078735 393.607891 
L 185.376167 406.686577 
L 185.673446 382.586224 
L 186.267168 255.227812 
L 186.564568 238.95274 
L 186.861515 256.038731 
L 188.346897 405.67375 
L 188.644128 401.497891 
L 188.940917 350.942483 
L 189.238423 277.710349 
L 189.534971 238.942088 
L 189.832511 243.74828 
L 190.426616 301.783558 
L 191.317706 396.448138 
L 191.615112 410.608941 
L 191.911734 387.323497 
L 192.506015 253.321328 
L 192.803439 234.891435 
L 193.100422 251.594606 
L 194.585601 405.15138 
L 194.882893 410.686041 
L 195.180137 371.278219 
L 195.773749 240.590042 
L 196.071318 235.424473 
L 196.368281 258.011271 
L 197.853642 410.228662 
L 198.150919 409.895523 
L 198.447586 361.024374 
L 198.744933 281.395046 
L 199.042086 234.536246 
L 199.339149 235.818882 
L 199.933406 292.375874 
L 201.121331 412.579733 
L 201.418588 411.871458 
L 201.71587 361.230244 
L 202.012622 279.632706 
L 202.309775 232.159816 
L 202.606888 233.760748 
L 203.201214 290.327197 
L 204.389331 411.865688 
L 204.686601 417.264017 
L 204.983797 374.732683 
L 205.578028 233.925599 
L 205.875149 228.809877 
L 206.468989 282.488038 
L 207.657607 405.776733 
L 207.954374 421.892455 
L 208.251472 399.271211 
L 208.845657 246.808476 
L 209.142622 223.356561 
L 209.439717 239.175071 
L 211.222484 417.357022 
L 211.519679 421.885623 
L 211.816838 375.930047 
L 212.410571 228.482053 
L 212.707748 224.019343 
L 213.302354 277.59377 
L 214.78773 422.214888 
L 215.084286 422.373711 
L 215.38146 368.408193 
L 215.678774 276.925824 
L 215.976046 222.834604 
L 216.272664 223.047926 
L 216.867312 277.754629 
L 218.352328 420.74268 
L 218.649537 428.993664 
L 218.946559 387.662718 
L 219.540761 226.808896 
L 219.837971 216.862013 
L 220.432197 267.552058 
L 222.214875 430.376594 
L 222.511902 424.433325 
L 222.808517 359.180068 
L 223.106032 262.753332 
L 223.402859 214.36203 
L 223.700157 219.403771 
L 226.076487 430.726779 
L 226.373545 432.655919 
L 226.670595 377.757947 
L 226.967847 277.593198 
L 227.265182 215.203616 
L 227.561916 212.557606 
L 229.641939 384.335668 
L 230.235847 435.640772 
L 230.532844 434.576386 
L 230.829927 373.452571 
L 231.127267 269.676198 
L 231.424081 210.006042 
L 231.721455 209.893377 
L 233.206499 325.017039 
L 234.097931 387.972865 
L 234.692434 438.472193 
L 234.989406 440.266425 
L 235.286405 382.684688 
L 235.880455 208.319721 
L 236.177882 204.44176 
L 237.662858 309.681069 
L 238.85114 367.668922 
L 239.445821 411.893352 
L 239.742667 437.027227 
L 240.039669 448.793509 
L 240.336565 411.561625 
L 240.931134 217.140829 
L 241.227895 196.37069 
L 241.524851 213.979949 
L 242.119369 261.096479 
L 242.713672 290.279073 
L 243.307556 304.664973 
L 243.604696 308.05024 
L 243.90181 309.377516 
L 244.198936 308.782265 
L 244.496073 306.227396 
L 244.793246 301.493737 
L 245.089895 294.252714 
L 245.684126 270.319687 
L 246.278465 231.226611 
L 247.763633 116.727477 
L 248.061223 107.204322 
L 248.358312 103.855839 
L 248.655424 105.402994 
L 248.95251 110.441699 
L 249.546538 127.018996 
L 250.437805 162.428697 
L 250.734965 173.929965 
L 251.031826 180.696852 
L 251.328926 180.763433 
L 251.923201 173.673256 
L 252.220267 173.645058 
L 252.517087 176.46735 
L 253.705365 192.836142 
L 254.002548 194.410561 
L 254.597037 196.119798 
L 254.894228 197.667623 
L 255.488013 202.845247 
L 256.082016 208.381552 
L 256.676657 211.800623 
L 259.647299 221.330689 
L 262.320803 226.33784 
L 264.697689 229.122681 
L 267.074334 231.094445 
L 269.154072 232.363976 
L 270.93637 233.215774 
L 273.313272 234.108704 
L 275.986812 234.852095 
L 279.25493 235.498715 
L 283.116979 236.01114 
L 287.870293 236.404249 
L 294.406163 236.699421 
L 303.913181 236.884405 
L 322.035179 236.974063 
L 400.762728 236.989178 
L 450.375503 236.989211 
L 450.375503 236.989218 
L 451.266939 366.918606 
L 452.158427 474.90673 
L 452.455119 496.65307 
L 452.752529 504.848529 
L 453.049397 502.270804 
L 453.643621 489.795126 
L 453.940629 490.162923 
L 454.237647 491.63488 
L 454.535017 488.802636 
L 455.129106 473.385516 
L 455.426136 478.324716 
L 456.020475 505.881462 
L 456.317584 505.209878 
L 456.614385 486.670157 
L 457.20859 403.845587 
L 458.694106 187.047454 
L 458.991436 154.382687 
L 459.288554 139.605718 
L 459.58529 141.575941 
L 460.179762 160.540342 
L 460.476878 157.681357 
L 461.071144 145.162395 
L 461.367923 144.173685 
L 461.665182 147.266683 
L 461.961963 156.659045 
L 462.556047 190.051921 
L 462.853323 188.358795 
L 463.44735 153.110779 
L 463.744719 145.473685 
L 464.041595 153.283112 
L 465.230158 237.427508 
L 465.823928 323.445504 
L 466.418628 417.497956 
L 466.71535 446.643947 
L 467.309625 473.732843 
L 467.606752 484.318498 
L 467.903857 490.581891 
L 468.200926 488.562321 
L 468.497775 476.793626 
L 468.795006 460.470614 
L 469.092198 453.068469 
L 469.389485 460.073187 
L 469.983576 479.866743 
L 470.280714 482.617308 
L 470.577833 480.514933 
L 470.874645 472.356945 
L 471.468601 448.580637 
L 471.766124 458.039069 
L 472.359857 496.203318 
L 472.656943 505.807306 
L 472.95401 505.743492 
L 473.251058 492.896278 
L 474.439386 389.121801 
L 475.628111 189.348661 
L 475.924857 170.866539 
L 476.519045 155.445308 
L 476.816447 150.465067 
L 477.113312 150.704029 
L 477.410787 154.409727 
L 478.301646 179.133675 
L 478.598834 182.059853 
L 478.896059 177.310422 
L 479.787043 158.047775 
L 480.084035 156.967978 
L 480.678685 159.813665 
L 480.975491 158.55268 
L 481.27279 157.935037 
L 481.569944 165.478553 
L 481.866816 190.657948 
L 482.461155 299.078079 
L 483.054972 413.158364 
L 483.352275 440.595166 
L 484.540576 499.025808 
L 484.837838 490.450852 
L 485.431972 449.519555 
L 485.728998 428.153748 
L 486.026228 415.942031 
L 486.322962 413.900459 
L 486.620154 417.927496 
L 486.9171 414.629106 
L 487.511127 393.582415 
L 488.105679 368.628406 
L 488.699874 357.074428 
L 489.294072 360.19553 
L 490.184887 348.277081 
L 491.076452 335.278636 
L 491.373481 332.95545 
L 491.670429 332.697811 
L 491.967726 330.315864 
L 492.264968 329.240603 
L 492.56175 327.072867 
L 492.858985 323.9833 
L 493.156241 322.406098 
L 493.453372 318.921419 
L 493.749965 317.892063 
L 494.04718 318.346823 
L 494.34437 317.990241 
L 494.641309 318.545908 
L 494.938755 318.593434 
L 495.235469 316.338599 
L 495.53256 317.996717 
L 495.829941 316.975908 
L 496.126766 316.455061 
L 496.424188 316.299549 
L 497.315439 306.614503 
L 497.909322 300.63212 
L 498.206215 293.986201 
L 499.097856 265.393932 
L 499.394631 261.738622 
L 499.691982 263.269236 
L 499.988971 261.64757 
L 500.286052 253.134385 
L 501.771614 180.389109 
L 502.068834 174.667014 
L 502.662648 155.52303 
L 502.960111 155.400298 
L 503.256963 175.500536 
L 503.554093 219.747884 
L 504.742243 449.841224 
L 505.03922 467.907389 
L 505.336693 474.28463 
L 505.633797 478.149731 
L 505.930521 477.65677 
L 506.227863 468.066872 
L 506.821851 427.727471 
L 507.416167 390.155129 
L 508.010337 373.697609 
L 508.307635 356.760156 
L 509.495642 249.973269 
L 509.792586 240.235563 
L 510.089624 235.125369 
L 510.386953 223.963436 
L 510.981076 178.194656 
L 511.278355 167.239112 
L 511.575118 176.820321 
L 512.466353 232.123048 
L 512.763398 282.855846 
L 513.35785 442.303587 
L 513.654883 478.5802 
L 513.951841 473.603919 
L 514.546301 425.116519 
L 514.843257 414.820328 
L 515.140109 390.044129 
L 515.734743 282.465904 
L 516.328794 189.86082 
L 516.625465 181.86091 
L 517.516796 202.906324 
L 517.814194 241.533724 
L 518.705562 413.740099 
L 519.002234 441.59976 
L 519.29927 450.361481 
L 519.893935 456.40048 
L 520.190871 440.966083 
L 520.487596 399.537033 
L 521.379122 225.643611 
L 521.676131 192.225948 
L 521.973069 175.789842 
L 522.270284 174.120054 
L 522.567344 179.987476 
L 522.864715 204.690627 
L 523.161766 261.244934 
L 523.75586 429.603698 
L 524.053138 467.85667 
L 524.349814 461.161541 
L 524.944401 420.155361 
L 525.241406 408.931793 
L 525.53803 372.435367 
L 526.429399 186.36182 
L 526.726647 169.285796 
L 527.023775 181.056366 
L 527.618131 236.159189 
L 527.914991 291.103378 
L 528.509374 447.413346 
L 528.80646 478.518022 
L 529.103085 460.974142 
L 529.697363 388.281384 
L 529.994766 362.405725 
L 530.588675 260.717769 
L 530.885695 201.853235 
L 531.182696 166.5972 
L 531.479805 174.646866 
L 531.777057 217.769969 
L 532.965685 464.629021 
L 533.262475 479.232663 
L 533.55963 449.363732 
L 534.450553 258.779863 
L 535.044844 201.538721 
L 535.342163 187.926418 
L 535.639404 197.855833 
L 535.936296 247.723586 
L 536.530491 412.463619 
L 536.827226 459.844578 
L 537.124465 462.678799 
L 537.421795 438.862607 
L 537.718638 403.246769 
L 538.312912 288.476938 
L 538.610062 225.994494 
L 538.907016 187.880908 
L 539.204453 181.645589 
L 539.501506 210.751942 
L 540.689706 451.105827 
L 540.986515 467.001301 
L 541.283685 440.237903 
L 542.472392 207.5944 
L 542.769123 194.853189 
L 543.066286 204.805154 
L 543.363522 242.894276 
L 544.254639 459.375539 
L 544.551579 461.555904 
L 544.848637 420.300496 
L 546.037085 193.627688 
L 546.334168 184.620074 
L 546.631411 221.670044 
L 547.5223 439.70967 
L 547.819467 454.572426 
L 548.116932 432.874638 
L 548.711098 319.521705 
L 549.305061 196.927331 
L 549.602391 180.537315 
L 549.899407 219.654204 
L 550.790766 433.970031 
L 551.087343 448.708617 
L 551.384532 433.706851 
L 551.681949 387.092402 
L 552.573256 185.31172 
L 552.86992 189.427585 
L 553.167391 243.905593 
L 553.761091 406.234006 
L 554.05824 456.343483 
L 554.355618 453.726499 
L 554.652437 401.533017 
L 555.246497 251.624212 
L 555.544042 203.499475 
L 555.841137 190.99382 
L 556.137898 225.928009 
L 557.0292 451.817993 
L 557.326194 447.40804 
L 557.623745 402.396839 
L 558.51481 200.789214 
L 558.81184 187.752738 
L 559.108926 236.084102 
L 559.703027 403.707944 
L 560.000364 449.0564 
L 560.297307 445.222124 
L 560.594338 392.405041 
L 561.188174 233.598427 
L 561.485486 193.196211 
L 561.782935 204.586664 
L 562.080016 266.380335 
L 562.673862 431.635191 
L 562.970724 453.812725 
L 563.267862 417.048274 
L 564.159113 212.590946 
L 564.456313 194.796304 
L 564.753442 236.194045 
L 565.347507 406.64762 
L 565.64457 446.220794 
L 565.94193 431.799282 
L 566.238953 374.694593 
L 566.833304 221.320435 
L 567.130363 194.815874 
L 567.427371 228.603151 
L 568.318749 443.656992 
L 568.615357 437.064327 
L 569.20972 295.842284 
L 569.506802 229.18346 
L 569.804049 200.635839 
L 570.101077 227.315807 
L 570.991989 440.314424 
L 571.289286 430.055168 
L 571.883313 295.933184 
L 572.180493 226.728325 
L 572.477593 200.686576 
L 572.775014 237.202458 
L 573.369017 398.635197 
L 573.666083 439.657544 
L 573.963246 423.60692 
L 574.854354 217.812809 
L 575.151502 209.384485 
L 575.448515 256.28006 
L 576.042805 415.832045 
L 576.339618 438.321974 
L 576.63711 401.339689 
L 577.527852 210.30281 
L 577.825296 222.119357 
L 578.71629 427.674282 
L 579.013389 426.894066 
L 579.310443 373.259343 
L 579.904997 228.813762 
L 580.201949 212.45624 
L 580.499164 252.811695 
L 581.093431 406.716992 
L 581.390118 433.525877 
L 581.687298 399.165053 
L 582.281722 255.373334 
L 582.57829 215.271694 
L 582.875799 231.251571 
L 583.76721 426.936437 
L 584.064219 414.68355 
L 584.955503 223.938285 
L 585.25217 223.305133 
L 585.549241 277.806373 
L 586.143668 417.292013 
L 586.440819 421.841131 
L 586.738012 371.167822 
L 587.331739 236.411957 
L 587.629059 221.144925 
L 587.926254 263.230506 
L 588.520551 407.349291 
L 588.817629 421.824641 
L 589.114679 381.831578 
L 589.708704 245.025361 
L 590.00587 221.915771 
L 590.303043 257.001547 
L 590.896684 398.828569 
L 591.193861 421.33153 
L 591.490988 386.567543 
L 592.085362 251.472588 
L 592.382513 224.793992 
L 592.679731 254.330145 
L 593.273366 395.005883 
L 593.570488 418.428522 
L 593.867513 386.494735 
L 594.462051 253.949966 
L 594.759144 226.743343 
L 595.056247 256.812544 
L 595.650454 393.442541 
L 595.947613 416.076865 
L 596.244736 383.230348 
L 596.838471 253.340686 
L 597.135564 230.040813 
L 597.432746 261.812426 
L 598.026947 395.54654 
L 598.324033 412.427731 
L 598.621115 376.091614 
L 599.215516 250.371144 
L 599.512576 233.076915 
L 599.809664 270.996232 
L 600.40382 398.416324 
L 600.700923 408.103826 
L 600.998101 366.183843 
L 601.591745 246.337187 
L 601.888824 238.581852 
L 602.185947 282.775003 
L 602.780143 402.42867 
L 603.077181 400.904339 
L 603.968643 242.28464 
L 604.265627 246.259698 
L 605.156895 404.441764 
L 605.453942 391.178272 
L 606.34531 240.71529 
L 606.642352 258.261718 
L 607.236528 379.670427 
L 607.533622 403.771434 
L 607.830681 376.551644 
L 608.424877 261.190384 
L 608.721989 242.433214 
L 609.019045 274.973316 
L 609.613136 390.51154 
L 609.910204 398.182327 
L 610.207338 358.268414 
L 610.801481 251.467669 
L 611.098549 250.466712 
L 611.395619 296.046883 
L 611.692687 359.267362 
L 611.989771 397.243509 
L 612.286808 386.204994 
L 613.178091 247.035401 
L 613.475151 265.008311 
L 614.069831 377.33789 
L 614.366905 396.722391 
L 614.663995 368.193534 
L 615.258119 261.750688 
L 615.555203 250.735265 
L 615.852247 286.481088 
L 616.446335 389.627922 
L 616.743409 387.726733 
L 617.634624 252.88767 
L 617.931701 263.243237 
L 618.525754 368.871463 
L 618.822798 392.769196 
L 619.119886 370.387958 
L 619.714017 268.348032 
L 620.011071 253.904222 
L 620.308094 284.675292 
L 620.90279 384.298495 
L 621.199838 385.282214 
L 622.091022 257.317912 
L 622.388079 265.92842 
L 622.982114 365.709178 
L 623.279149 388.702473 
L 623.576215 367.53216 
L 624.170348 270.894495 
L 624.467389 258.053324 
L 624.764408 288.329234 
L 625.359077 381.633302 
L 625.656114 380.587767 
L 626.547275 260.247503 
L 626.844299 271.545949 
L 627.438333 366.544551 
L 627.735352 384.731859 
L 628.032402 361.028096 
L 628.626522 270.573623 
L 628.923556 263.155688 
L 629.221176 296.100753 
L 629.815207 380.474132 
L 630.112235 373.87285 
L 631.003382 262.784826 
L 631.300389 279.919121 
L 631.894414 369.591186 
L 632.192028 379.851207 
L 632.489075 351.27521 
L 633.083163 269.136384 
L 633.380187 270.109565 
L 634.271218 379.086441 
L 634.568236 364.649673 
L 635.16233 280.274098 
L 635.459943 266.594258 
L 635.756956 291.335867 
L 636.35096 372.788032 
L 636.647985 372.768487 
L 637.539089 268.743772 
L 637.836109 279.870205 
L 638.430705 362.419597 
L 638.727713 375.612979 
L 639.024724 352.396798 
L 639.618809 275.249291 
L 639.915805 273.326145 
L 640.807403 373.834251 
L 641.10443 362.382551 
L 641.698477 284.93051 
L 641.995503 271.348361 
L 642.29251 293.131147 
L 642.887107 368.167382 
L 643.184114 368.459565 
L 644.075182 273.294882 
L 644.372184 284.128459 
L 644.966175 359.606287 
L 645.263778 370.788592 
L 645.560804 348.418146 
L 646.15483 278.470888 
L 646.45185 278.562483 
L 647.342834 369.661699 
L 647.640433 356.860134 
L 648.23448 285.911474 
L 648.531473 276.340506 
L 648.828471 299.047811 
L 649.422459 365.718974 
L 649.72006 362.481675 
L 650.6111 277.06926 
L 650.908093 290.961176 
L 651.502073 359.560832 
L 651.79907 365.361406 
L 652.096674 341.258841 
L 652.690697 280.21969 
L 652.98769 285.398591 
L 653.581674 351.895756 
L 653.878662 365.683217 
L 654.176268 348.991515 
L 654.770286 285.28565 
L 655.067284 282.24134 
L 655.36427 307.610456 
L 655.661262 343.383118 
L 655.958846 363.777438 
L 656.255841 354.783731 
L 656.849864 291.676258 
L 657.146857 281.334672 
L 657.443853 300.002093 
L 658.038415 360.097967 
L 658.335413 358.565843 
L 659.226429 282.378214 
L 659.52341 294.077771 
L 660.117979 355.010229 
L 660.414967 360.450426 
L 660.711973 339.196704 
L 661.305975 285.048046 
L 661.602971 289.906419 
L 662.197533 348.967554 
L 662.494523 360.604755 
L 662.791523 345.185807 
L 663.38553 288.987513 
L 663.682518 287.41142 
L 664.574068 359.22142 
L 664.87106 349.822475 
L 665.465064 293.861867 
L 665.762059 286.477917 
L 666.059642 304.719986 
L 666.653601 356.5871 
L 666.950598 353.055541 
L 667.842184 286.915557 
L 668.139167 299.774847 
L 668.73313 352.936425 
L 669.030115 354.963971 
L 669.327119 334.032509 
L 669.624713 305.112574 
L 669.921704 288.53479 
L 670.218692 296.020385 
L 670.812647 348.547686 
L 671.109637 355.632282 
L 671.407221 339.069008 
L 672.001219 291.108397 
L 672.298199 293.447314 
L 673.189735 355.188096 
L 673.486727 343.239323 
L 674.080715 294.445001 
L 674.377707 291.989874 
L 674.674681 311.322957 
L 674.972254 338.559068 
L 675.269238 353.789152 
L 675.566225 346.451687 
L 676.160216 298.332762 
L 676.457197 291.548782 
L 676.754772 306.917735 
L 677.348725 351.585128 
L 677.645711 348.725088 
L 678.53728 292.024444 
L 678.834259 303.252093 
L 679.428207 348.736039 
L 679.725193 350.093373 
L 680.616754 293.272092 
L 680.913734 300.404164 
L 681.507684 345.394528 
L 681.804665 350.629142 
L 682.102251 335.657353 
L 682.696227 295.178085 
L 682.993207 298.356376 
L 683.587155 341.720507 
L 683.88473 350.394685 
L 684.181716 338.944228 
L 684.775693 297.611538 
L 685.072674 297.072086 
L 685.964194 349.503781 
L 686.261183 341.578892 
L 686.855158 300.45251 
L 687.152734 296.509269 
L 687.449708 311.234589 
L 687.746681 333.92986 
L 688.043659 348.035356 
L 688.340639 343.565749 
L 688.935211 303.546905 
L 689.232191 296.574662 
L 689.529166 308.190393 
L 690.123112 346.087078 
L 690.420692 344.906151 
L 691.311646 297.212087 
L 691.608619 305.697065 
L 692.203162 343.778623 
L 692.500139 345.678548 
L 692.797124 330.92337 
L 693.094113 310.24692 
L 693.391092 298.345406 
L 693.688072 303.756884 
L 694.282609 341.164182 
L 694.579588 345.898952 
L 694.876571 333.750087 
L 695.471138 299.885854 
L 695.768111 302.374316 
L 696.362055 338.347806 
L 696.659031 345.617321 
L 696.956013 336.13919 
L 697.550574 301.774706 
L 697.847555 301.478235 
L 698.739066 344.893177 
L 699.036047 338.053412 
L 699.630016 303.930871 
L 699.92699 301.062321 
L 700.223965 313.60762 
L 700.521529 332.465088 
L 700.818502 343.781043 
L 701.115482 339.559369 
L 701.709448 306.284048 
L 702.006429 301.086837 
L 702.303996 311.320205 
L 702.897937 342.341046 
L 703.194916 340.633887 
L 704.086453 301.509228 
L 704.383425 309.371935 
L 704.977367 340.630582 
L 705.274938 341.282281 
L 706.165881 302.277419 
L 706.462852 307.802189 
L 707.057386 338.728139 
L 707.354364 341.563472 
L 707.651342 330.592586 
L 708.245302 303.348995 
L 708.542277 306.604742 
L 709.136812 336.6522 
L 709.433784 341.486626 
L 709.730766 332.525599 
L 710.325319 304.66351 
L 710.622293 305.784999 
L 711.513205 341.085533 
L 711.810779 334.126104 
L 712.404738 306.19619 
L 712.701713 305.286388 
L 713.593219 340.39858 
L 713.890197 335.446981 
L 714.484153 307.891457 
L 714.781128 305.109686 
L 715.078695 314.876136 
L 715.375663 330.015791 
L 715.672634 339.460257 
L 715.969611 336.462411 
L 716.564165 309.686372 
L 716.861139 305.232145 
L 717.158111 313.21205 
L 717.752049 338.305792 
L 718.049024 337.182072 
L 718.940552 305.615284 
L 719.237523 311.810324 
L 719.832058 336.988166 
L 720.129032 337.606225 
L 721.019963 306.236857 
L 721.316936 310.672009 
L 721.911466 335.517598 
L 722.20844 337.777697 
L 722.505419 328.920801 
L 722.802396 315.45471 
L 723.099969 307.061424 
L 723.396939 309.81016 
L 723.990877 333.941587 
L 724.287848 337.700146 
L 724.585421 330.345356 
L 725.179377 308.067184 
L 725.476348 309.180938 
L 726.367853 337.393905 
L 726.664829 331.579649 
L 727.258782 309.221585 
L 727.555754 308.793754 
L 728.447258 336.886217 
L 728.744232 332.5954 
L 729.338783 310.480232 
L 729.635754 308.641635 
L 729.932722 316.777983 
L 730.229692 328.925019 
L 730.526662 336.196967 
L 730.824232 333.379203 
L 731.418184 311.841252 
L 731.715155 308.692292 
L 732.012126 315.48479 
L 732.606659 335.358032 
L 732.903633 333.968635 
L 733.497584 313.264985 
L 733.794558 308.937852 
L 734.092123 314.396814 
L 734.686061 334.380913 
L 734.983034 334.353837 
L 735.874555 309.358789 
L 736.171525 313.47453 
L 736.76546 333.295418 
L 737.062434 334.543298 
L 737.360004 326.977573 
L 737.656977 316.180589 
L 737.953954 309.935006 
L 738.250924 312.739576 
L 738.845455 332.138865 
L 739.142427 334.545159 
L 739.439402 328.137515 
L 740.03335 310.648581 
L 740.330918 312.199337 
L 740.924852 330.908676 
L 741.221823 334.383596 
L 741.518798 329.143587 
L 742.113344 311.469761 
L 742.410313 311.822679 
L 743.30122 334.066816 
L 743.59879 329.976512 
L 744.192738 312.394096 
L 744.489709 311.615282 
L 744.786678 318.657096 
L 745.084242 328.367232 
L 745.381211 333.612108 
L 745.678184 330.669678 
L 746.272133 313.394524 
L 746.569701 311.573289 
L 746.86667 317.618536 
L 747.163636 327.07947 
L 747.163636 327.07947 
" clip-path="url(#p129e0c49c2)" style="fill: none; stroke: #008000; stroke-opacity: 0.3; stroke-width: 1.5; stroke-linecap: square"/>
   </g>
   <g id="line2d_17">
    <path d="M 138.436364 544.366423 
L 153.290608 544.366379 
L 153.290608 544.366379 
L 153.587852 536.0511 
L 154.182317 501.076502 
L 154.479478 490.533934 
L 154.776334 487.655599 
L 155.073355 492.655534 
L 155.370631 505.292993 
L 155.964415 540.111681 
L 156.261643 543.618753 
L 156.559018 530.92958 
L 157.153026 496.338667 
L 157.450089 487.814304 
L 157.747458 487.10415 
L 158.044376 494.261569 
L 158.935301 542.663601 
L 159.232702 541.701546 
L 160.12374 492.559577 
L 160.420718 485.758903 
L 160.717981 486.83836 
L 161.01484 495.777975 
L 161.906249 544.011146 
L 162.203251 539.35597 
L 163.094986 489.53485 
L 163.39197 484.125915 
L 163.689121 486.58311 
L 163.985926 496.944021 
L 164.877317 544.552201 
L 165.174451 537.120634 
L 165.768443 499.403155 
L 166.065672 487.148106 
L 166.362622 482.699456 
L 166.659762 486.088911 
L 166.957072 497.440657 
L 167.550827 535.418001 
L 167.847887 544.692413 
L 168.145081 535.486084 
L 168.739146 497.073461 
L 169.0364 485.274415 
L 169.333295 481.297394 
L 169.630442 485.183216 
L 169.92773 497.00571 
L 170.522052 535.795806 
L 170.819105 544.721434 
L 171.115719 534.764154 
L 171.710445 495.624167 
L 172.007114 483.848025 
L 172.304637 479.848454 
L 172.601164 483.711976 
L 172.898482 495.522881 
L 173.492792 535.010427 
L 173.789779 544.747065 
L 174.086984 535.14843 
L 174.681174 495.221747 
L 174.977834 482.885945 
L 175.275372 478.36889 
L 175.572552 481.64799 
L 175.869308 492.894884 
L 176.760516 544.621526 
L 177.057649 536.770083 
L 177.94912 482.551343 
L 178.246121 476.943022 
L 178.543383 479.07644 
L 178.840187 489.116684 
L 179.731341 543.792901 
L 180.028318 539.445647 
L 180.919767 483.192977 
L 181.216876 475.834707 
L 181.514226 476.225921 
L 181.811129 484.399921 
L 182.404952 522.485509 
L 182.702313 541.235367 
L 182.999643 542.546628 
L 184.18762 475.518614 
L 184.485057 473.482942 
L 184.782087 479.146462 
L 185.078735 492.744065 
L 185.673446 535.566833 
L 185.970443 544.594053 
L 186.267168 532.482984 
L 186.861515 489.50554 
L 187.158857 476.618992 
L 187.455861 471.514673 
L 187.752487 473.939311 
L 188.04992 484.188531 
L 188.940917 542.874352 
L 189.238423 540.157514 
L 190.129409 480.169351 
L 190.426616 471.188515 
L 190.72347 469.732661 
L 191.020498 475.783181 
L 191.317706 489.798653 
L 191.911734 534.280274 
L 192.209297 544.472264 
L 192.506015 532.410532 
L 193.100422 487.578191 
L 193.397247 473.763176 
L 193.694321 467.667037 
L 193.991633 468.890368 
L 194.288542 477.658383 
L 194.585601 494.454708 
L 195.180137 539.284538 
L 195.476746 542.844696 
L 195.773749 525.11941 
L 196.368281 481.098051 
L 196.66503 469.310136 
L 196.962666 465.01919 
L 197.259295 467.894373 
L 197.556681 478.343552 
L 198.150919 521.239381 
L 198.447586 541.239535 
L 198.744933 540.853531 
L 199.933406 466.113998 
L 200.230409 462.536799 
L 200.527652 465.965091 
L 200.824426 476.85065 
L 201.418588 520.711714 
L 201.71587 541.096443 
L 202.012622 540.453495 
L 202.903921 475.216163 
L 203.201214 463.96341 
L 203.498238 459.925756 
L 203.795535 462.702869 
L 204.092367 472.697026 
L 204.389331 490.677826 
L 204.983797 538.402343 
L 205.280956 542.03723 
L 205.875149 496.858551 
L 206.172197 476.128729 
L 206.468989 463.200929 
L 206.766151 457.467392 
L 207.063546 458.364903 
L 207.360484 466.06973 
L 207.657607 481.456697 
L 208.548928 543.483189 
L 208.845657 531.137518 
L 209.439717 481.284827 
L 209.736747 465.032466 
L 210.034063 456.208889 
L 210.330968 453.982691 
L 210.628144 458.085667 
L 210.925562 469.164898 
L 211.519679 514.157757 
L 211.816838 537.860832 
L 212.113439 541.077249 
L 213.302354 458.294097 
L 213.598999 451.570416 
L 213.896482 450.952932 
L 214.193552 456.438231 
L 214.490267 468.805095 
L 215.084286 516.171833 
L 215.38146 539.040957 
L 215.678774 539.169167 
L 216.867312 454.564798 
L 217.163971 447.898503 
L 217.461495 446.991674 
L 217.758614 451.785081 
L 218.055368 463.017509 
L 218.352328 482.031577 
L 218.946559 534.593676 
L 219.243658 541.103326 
L 219.540761 521.458939 
L 220.135188 469.749095 
L 220.432197 454.246703 
L 220.728993 445.52431 
L 221.026041 442.412232 
L 221.323322 444.464416 
L 221.620303 452.083973 
L 221.917546 466.499443 
L 222.808517 539.46982 
L 223.106032 535.679722 
L 223.996848 460.855297 
L 224.294394 447.318486 
L 224.59108 439.901252 
L 224.88812 437.447269 
L 225.185448 439.651635 
L 225.482426 446.960607 
L 225.779658 460.57575 
L 226.373545 510.561601 
L 226.670595 536.012664 
L 226.967847 537.823372 
L 228.156286 446.111058 
L 228.453136 436.825378 
L 228.750308 432.327439 
L 229.047781 431.942429 
L 229.344393 435.657709 
L 229.641939 444.178931 
L 229.938514 458.8259 
L 230.532844 510.89667 
L 230.829927 536.074061 
L 231.127267 535.853392 
L 232.315366 441.705369 
L 232.612838 431.872619 
L 232.909486 426.41524 
L 233.206499 424.432853 
L 233.503877 425.652782 
L 233.801038 430.343593 
L 234.097931 439.332057 
L 234.395075 454.159218 
L 234.989406 506.555065 
L 235.286405 533.544228 
L 235.583664 535.815787 
L 236.771925 438.733808 
L 237.365689 420.511617 
L 237.662858 416.349372 
L 237.959859 414.542836 
L 238.257317 414.874256 
L 238.554025 417.404429 
L 238.85114 422.573099 
L 239.148626 431.265337 
L 239.445821 444.918306 
L 239.742667 465.562277 
L 240.336565 525.052909 
L 240.634084 537.274378 
L 240.931134 518.147607 
L 241.524851 458.713464 
L 242.119369 425.28768 
L 242.713672 409.047465 
L 243.307556 400.161808 
L 245.089895 381.130752 
L 245.684126 370.270107 
L 246.278465 354.455669 
L 248.061223 296.943434 
L 248.655424 286.986799 
L 249.249552 281.335348 
L 250.437805 272.454125 
L 251.328926 263.956236 
L 251.625941 262.451051 
L 252.220267 261.220753 
L 252.517087 260.6744 
L 253.1112 258.807494 
L 254.002548 255.435845 
L 254.597037 254.369936 
L 255.488013 253.253719 
L 256.676657 251.177976 
L 257.270637 250.689701 
L 258.162156 250.069294 
L 259.647299 248.815645 
L 262.618232 247.375894 
L 265.886047 246.363563 
L 268.559975 245.795616 
L 272.125128 245.290004 
L 276.580864 244.900518 
L 282.522966 244.61264 
L 291.435548 244.419348 
L 308.072352 244.320161 
L 370.459951 244.300107 
L 450.375503 244.300076 
L 450.375503 244.300076 
L 450.672859 241.054876 
L 450.970163 240.619356 
L 451.266939 242.623406 
L 451.564287 246.335172 
L 452.158427 258.337924 
L 454.237647 317.33912 
L 455.723232 363.130214 
L 456.911727 401.794905 
L 457.20859 407.755387 
L 457.505913 410.381511 
L 457.803189 410.092971 
L 458.100231 408.310136 
L 458.397245 404.717342 
L 458.991436 391.011172 
L 460.476878 350.328313 
L 462.556047 294.457483 
L 463.44735 273.541535 
L 464.635849 240.46926 
L 465.230158 227.922911 
L 465.527057 223.759486 
L 465.823928 222.241341 
L 466.121063 223.915684 
L 466.418628 228.238831 
L 467.309625 248.945921 
L 469.092198 295.196253 
L 469.983576 314.038082 
L 471.468601 348.460573 
L 472.063251 360.515195 
L 472.95401 386.859771 
L 473.845449 409.920211 
L 474.736964 425.353247 
L 475.033672 425.697036 
L 475.331161 422.665394 
L 475.628111 417.206187 
L 476.519045 392.13358 
L 482.163607 218.225105 
L 482.461155 215.659203 
L 482.758191 216.231103 
L 483.054972 220.413146 
L 484.540576 254.670109 
L 485.431972 277.089354 
L 486.026228 286.322618 
L 488.105679 307.023764 
L 488.699874 310.227155 
L 489.294072 312.151972 
L 489.88794 314.339412 
L 490.184887 315.380813 
L 490.482091 315.921338 
L 490.779476 315.852195 
L 491.373481 315.228138 
L 491.670429 315.237676 
L 491.967726 315.606317 
L 492.56175 317.17005 
L 493.156241 319.551822 
L 493.453372 320.189883 
L 493.749965 320.533705 
L 494.04718 321.0623 
L 494.641309 321.292371 
L 494.938755 321.729756 
L 495.829941 321.366226 
L 496.720786 319.302861 
L 497.612391 314.339869 
L 500.286052 294.102379 
L 500.880471 286.679359 
L 501.474505 274.229798 
L 502.662648 240.264035 
L 503.554093 215.06662 
L 503.851313 210.59112 
L 504.148117 209.969438 
L 504.445079 213.198573 
L 505.03922 225.933032 
L 506.525135 259.662301 
L 507.119203 269.292757 
L 507.713292 275.432581 
L 508.010337 276.492895 
L 508.307635 277.040897 
L 508.60459 276.878229 
L 508.901662 275.387929 
L 509.198404 272.051283 
L 510.386953 250.59671 
L 510.981076 236.504988 
L 512.169246 200.805319 
L 512.763398 191.697961 
L 513.060445 189.761713 
L 513.35785 194.116983 
L 514.248991 215.710958 
L 515.140109 229.755949 
L 515.437394 232.422752 
L 515.734743 231.309766 
L 516.328794 219.559898 
L 517.219818 197.324763 
L 517.814194 183.404151 
L 518.111003 182.56457 
L 518.408441 182.602153 
L 518.705562 184.136467 
L 519.002234 189.262577 
L 519.893935 212.530191 
L 520.487596 223.496657 
L 520.784795 226.566505 
L 521.081943 225.91626 
L 521.379122 222.468417 
L 521.973069 209.290617 
L 522.567344 192.386186 
L 523.161766 180.668974 
L 523.458889 178.363733 
L 523.75586 182.171653 
L 524.646951 201.902382 
L 525.241406 212.631682 
L 525.53803 214.899142 
L 525.835618 214.871 
L 526.132179 212.725416 
L 526.429399 207.039001 
L 527.320909 181.919345 
L 527.914991 173.638555 
L 528.212177 172.335674 
L 528.509374 177.746023 
L 529.103085 192.144579 
L 529.697363 202.946731 
L 529.994766 204.534471 
L 530.588675 202.078108 
L 530.885695 197.193424 
L 531.777057 172.463121 
L 532.074196 168.241602 
L 532.371329 168.433562 
L 532.66808 170.074607 
L 532.965685 176.231914 
L 533.55963 191.760303 
L 533.856437 195.212123 
L 534.153511 197.314258 
L 534.450553 195.351436 
L 535.342163 178.32455 
L 535.936296 165.685701 
L 536.233277 162.929679 
L 536.530491 166.13228 
L 537.718638 190.540895 
L 538.015707 192.465729 
L 538.312912 191.154557 
L 538.610062 187.25398 
L 539.204453 173.416183 
L 539.798237 160.398996 
L 540.0954 160.311244 
L 540.392667 162.705029 
L 540.689706 166.863124 
L 541.283685 182.198561 
L 541.580604 185.189376 
L 541.877689 186.260234 
L 542.174817 183.598699 
L 542.769123 170.957974 
L 543.363522 158.486882 
L 543.660346 155.777702 
L 543.95743 156.637772 
L 545.145747 179.681888 
L 545.4431 179.60856 
L 545.740185 175.874725 
L 546.334168 163.378245 
L 546.631411 155.815551 
L 546.928546 152.257731 
L 547.225327 153.667943 
L 547.5223 157.506543 
L 548.413949 175.278764 
L 548.711098 175.56249 
L 549.008045 173.91976 
L 549.305061 168.823086 
L 549.899407 153.313111 
L 550.196354 150.260625 
L 550.493132 150.379216 
L 550.790766 154.868116 
L 551.384532 167.468981 
L 551.681949 171.909535 
L 551.979005 173.319771 
L 552.276174 170.47871 
L 553.167391 150.260729 
L 553.464007 147.461823 
L 553.761091 150.051303 
L 554.652437 168.051733 
L 554.949561 169.756334 
L 555.246497 166.797906 
L 555.544042 162.185065 
L 556.137898 147.809194 
L 556.435106 144.862869 
L 556.732348 146.040336 
L 557.623745 163.36118 
L 557.920402 165.318149 
L 558.217602 164.309536 
L 558.81184 151.364368 
L 559.108926 145.090463 
L 559.405713 142.256162 
L 559.703027 144.096163 
L 560.594338 160.897265 
L 560.891582 162.621969 
L 561.188174 159.015279 
L 562.080016 140.534095 
L 562.376775 139.922089 
L 562.673862 143.479565 
L 563.267862 155.969495 
L 563.565242 158.540963 
L 563.861972 157.303841 
L 564.159113 153.14161 
L 564.753442 139.808786 
L 565.050507 137.124837 
L 565.347507 139.02201 
L 566.238953 154.869784 
L 566.53587 155.210161 
L 566.833304 151.483064 
L 567.427371 138.605022 
L 567.724037 135.007107 
L 568.021648 136.318937 
L 568.912397 152.081849 
L 569.20972 152.151913 
L 569.506802 148.703838 
L 570.397974 133.059954 
L 570.695002 133.944055 
L 571.586182 148.772686 
L 571.883313 149.504111 
L 572.180493 145.813773 
L 572.775014 133.647353 
L 573.071654 130.650513 
L 573.369017 132.564167 
L 574.260032 146.87717 
L 574.557425 146.195647 
L 574.854354 141.849106 
L 575.448515 130.313627 
L 575.745661 128.811918 
L 576.042805 131.669734 
L 576.63711 142.41609 
L 576.934031 144.368581 
L 577.231245 142.638039 
L 578.122369 127.42104 
L 578.419384 127.573158 
L 579.310443 141.353772 
L 579.607524 141.873648 
L 579.904997 138.066169 
L 580.499164 127.060848 
L 580.796155 125.207251 
L 581.093431 127.689711 
L 581.687298 137.931894 
L 581.984656 139.664894 
L 582.281722 137.930293 
L 583.17275 123.810582 
L 583.469989 124.469589 
L 584.360883 137.411223 
L 584.6583 136.911673 
L 585.549241 122.727138 
L 585.846301 122.421594 
L 586.143668 125.830788 
L 586.738012 134.99651 
L 587.034692 135.189726 
L 587.331739 132.088234 
L 587.926254 121.902224 
L 588.223339 120.681314 
L 588.520551 123.294034 
L 589.114679 132.456376 
L 589.411468 133.598347 
L 589.708704 130.986466 
L 590.303043 121.052092 
L 590.600071 119.153351 
L 590.896684 121.45627 
L 591.490988 130.460255 
L 591.788234 131.875793 
L 592.085362 129.495173 
L 592.679731 119.808586 
L 592.976844 117.942097 
L 593.273366 119.793077 
L 593.867513 128.639615 
L 594.164742 130.111727 
L 594.462051 128.065225 
L 595.056247 118.647988 
L 595.353355 116.618087 
L 595.650454 118.699826 
L 596.244736 127.20096 
L 596.541312 128.57163 
L 596.838471 126.181995 
L 597.432746 117.09448 
L 597.729839 115.604804 
L 598.026947 117.672666 
L 598.621115 125.924144 
L 598.91828 126.919131 
L 599.215516 124.432973 
L 599.809664 115.707531 
L 600.106774 114.522383 
L 600.40382 117.148283 
L 600.998101 124.93307 
L 601.29465 125.309147 
L 601.591745 122.373095 
L 602.185947 114.153436 
L 602.48308 113.806011 
L 602.780143 116.700913 
L 603.374296 123.84571 
L 603.671461 123.648635 
L 604.562704 112.830235 
L 604.859819 113.244184 
L 605.751067 122.891834 
L 606.048187 121.728544 
L 606.939413 111.706318 
L 607.236528 113.044113 
L 607.830681 120.478889 
L 608.127748 121.649438 
L 608.424877 119.712463 
L 609.019045 111.932169 
L 609.316102 110.914905 
L 609.613136 113.204015 
L 610.207338 120.087066 
L 610.504432 120.222618 
L 610.801481 117.382776 
L 611.395619 110.38895 
L 611.692687 110.619538 
L 612.583874 119.409146 
L 612.88099 118.436799 
L 613.475151 111.11782 
L 613.772791 109.356965 
L 614.069831 110.76794 
L 614.663995 117.525071 
L 614.961064 118.397075 
L 615.258119 116.240994 
L 615.852247 109.302893 
L 616.149287 108.917249 
L 616.446335 111.350573 
L 617.040475 117.304082 
L 617.33753 116.841003 
L 618.22874 108.102331 
L 618.525754 109.062176 
L 619.119886 115.451517 
L 619.416969 116.588828 
L 619.714017 114.787807 
L 620.308094 108.19035 
L 620.605739 107.607732 
L 620.90279 109.770684 
L 621.496887 115.489817 
L 621.793938 115.195119 
L 622.685114 106.968784 
L 622.982114 107.83405 
L 623.576215 113.863355 
L 623.873293 114.90657 
L 624.170348 113.195711 
L 624.764408 107.012827 
L 625.061442 106.569053 
L 625.359077 108.691354 
L 625.953154 113.981862 
L 626.250206 113.553343 
L 627.141321 105.924946 
L 627.438333 106.978378 
L 628.032402 112.645592 
L 628.329475 113.362179 
L 628.626522 111.5267 
L 629.221176 105.848285 
L 629.51819 105.768463 
L 630.409279 112.683308 
L 630.70634 111.915305 
L 631.300389 106.203466 
L 631.597402 105.039133 
L 631.894414 106.449558 
L 632.489075 111.677061 
L 632.786125 111.875995 
L 633.083163 109.795248 
L 633.677197 104.800835 
L 633.974205 105.226245 
L 634.568236 110.390782 
L 634.865282 111.483202 
L 635.16233 110.238131 
L 635.756956 104.910323 
L 636.053957 104.401475 
L 636.35096 106.218757 
L 636.945028 110.797034 
L 637.242055 110.372093 
L 638.133699 103.968529 
L 638.430705 104.990231 
L 639.024724 109.839031 
L 639.321773 110.256973 
L 639.618809 108.491455 
L 640.212816 103.824772 
L 640.510413 104.079962 
L 641.401467 109.862795 
L 641.698477 108.789536 
L 642.29251 103.934607 
L 642.589509 103.445878 
L 642.887107 105.063139 
L 643.481134 109.250733 
L 643.778168 108.892098 
L 644.669187 103.074212 
L 644.966175 104.084775 
L 645.560804 108.497393 
L 645.857815 108.769721 
L 646.15483 107.105692 
L 646.74884 102.949671 
L 647.045834 103.302286 
L 647.640433 107.614003 
L 647.937456 108.485673 
L 648.23448 107.351125 
L 648.828471 102.988928 
L 649.12547 102.749547 
L 649.422459 104.380972 
L 649.72006 106.695566 
L 650.017074 108.03048 
L 650.314084 107.465407 
L 650.908093 103.1671 
L 651.205081 102.387194 
L 651.502073 103.538278 
L 652.096674 107.455311 
L 652.393699 107.436378 
L 653.284683 102.195394 
L 653.581674 102.849851 
L 654.176268 106.800174 
L 654.473274 107.262862 
L 654.770286 105.95141 
L 655.36427 102.15911 
L 655.661262 102.304312 
L 656.552853 106.98424 
L 656.849864 106.099538 
L 657.443853 102.223601 
L 657.740835 101.917704 
L 658.038415 103.29976 
L 658.335413 105.353981 
L 658.632415 106.592648 
L 658.929425 106.161792 
L 659.52341 102.379958 
L 659.820397 101.657973 
L 660.117979 102.662739 
L 660.711973 106.134497 
L 661.008985 106.11736 
L 661.899953 101.520821 
L 662.197533 102.128259 
L 662.791523 105.61628 
L 663.088523 105.985023 
L 663.38553 104.777267 
L 663.980098 101.483219 
L 664.277081 101.701738 
L 664.87106 105.064451 
L 665.16807 105.774416 
L 665.465064 104.903629 
L 666.059642 101.522231 
L 666.35662 101.381841 
L 667.247594 105.488956 
L 667.544598 104.970528 
L 668.139167 101.628374 
L 668.436151 101.15273 
L 668.73313 102.183928 
L 669.327119 105.156506 
L 669.624713 104.960599 
L 670.515671 101.015476 
L 670.812647 101.738351 
L 671.407221 104.776611 
L 671.704223 104.897431 
L 672.001219 103.664413 
L 672.298199 101.94658 
L 672.59518 100.947783 
L 672.892157 101.373109 
L 673.486727 104.373308 
L 673.783726 104.770629 
L 674.080715 103.799076 
L 674.674681 100.946529 
L 674.972254 101.079233 
L 675.863217 104.596771 
L 676.160216 103.88695 
L 676.754772 100.992638 
L 677.051747 100.85473 
L 677.942706 104.377605 
L 678.239695 103.930982 
L 678.834259 101.07918 
L 679.131233 100.694693 
L 679.428207 101.592757 
L 680.022181 104.123542 
L 680.319773 103.929648 
L 680.913734 101.195941 
L 681.210709 100.591754 
L 681.507684 101.26101 
L 682.102251 103.845054 
L 682.399238 103.886016 
L 683.290182 100.54215 
L 683.587155 100.979175 
L 684.181716 103.543958 
L 684.47871 103.806459 
L 684.775693 102.902244 
L 685.370245 100.533353 
L 685.667218 100.751583 
L 686.261183 103.234069 
L 686.558168 103.688252 
L 686.855158 102.98734 
L 687.449708 100.564328 
L 687.746681 100.568035 
L 688.637631 103.542815 
L 688.935211 103.037141 
L 689.529166 100.622652 
L 689.826138 100.432227 
L 690.123112 101.308834 
L 690.420692 102.60451 
L 690.717677 103.368992 
L 691.014662 103.062114 
L 691.608619 100.706001 
L 691.905592 100.336409 
L 692.203162 101.045289 
L 692.797124 103.176583 
L 693.094113 103.0553 
L 693.985637 100.279851 
L 694.282609 100.812633 
L 694.876571 102.965778 
L 695.173556 103.02253 
L 696.065083 100.255544 
L 696.362055 100.616159 
L 696.956013 102.745053 
L 697.253594 102.96202 
L 697.550574 102.211448 
L 698.144524 100.260804 
L 698.441495 100.453119 
L 699.036047 102.517717 
L 699.333031 102.879716 
L 699.630016 102.279962 
L 700.223965 100.290681 
L 700.521529 100.324416 
L 701.412469 102.776493 
L 701.709448 102.327865 
L 702.303996 100.339471 
L 702.600966 100.225456 
L 702.897937 100.986024 
L 703.194916 102.055503 
L 703.491898 102.655133 
L 703.789478 102.35425 
L 704.383425 100.405919 
L 704.680394 100.155117 
L 704.977367 100.787215 
L 705.57192 102.519947 
L 705.868899 102.361433 
L 706.462852 100.483997 
L 706.759821 100.11173 
L 707.057386 100.613704 
L 707.651342 102.371641 
L 707.948325 102.350047 
L 708.839843 100.091538 
L 709.136812 100.462769 
L 709.730766 102.215093 
L 710.027744 102.319181 
L 710.325319 101.638225 
L 710.622293 100.661871 
L 710.919264 100.092961 
L 711.216231 100.33503 
L 711.810779 102.052434 
L 712.107761 102.272014 
L 712.404738 101.703472 
L 712.998682 100.112175 
L 713.295652 100.23094 
L 713.890197 101.885959 
L 714.187175 102.208946 
L 714.484153 101.755754 
L 715.078695 100.146866 
L 715.375663 100.149224 
L 716.266591 102.133003 
L 716.564165 101.791469 
L 717.158111 100.194656 
L 717.455079 100.087913 
L 717.752049 100.688566 
L 718.049024 101.550518 
L 718.346598 102.044553 
L 718.643578 101.815041 
L 719.237523 100.25326 
L 719.534492 100.045714 
L 719.832058 100.550489 
L 720.42601 101.946573 
L 720.722988 101.823848 
L 721.316936 100.319537 
L 721.614499 100.021999 
L 721.911466 100.426801 
L 722.505419 101.839659 
L 722.802396 101.819431 
L 723.693909 100.014015 
L 723.990877 100.320124 
L 724.585421 101.727645 
L 724.8824 101.801076 
L 725.773316 100.02082 
L 726.07088 100.230649 
L 726.664829 101.60985 
L 726.961807 101.771514 
L 727.258782 101.302807 
L 727.853319 100.039967 
L 728.150287 100.156251 
L 728.744232 101.489408 
L 729.041211 101.73057 
L 729.338783 101.34715 
L 729.932722 100.070514 
L 730.229692 100.097208 
L 731.121208 101.679589 
L 731.418184 101.382642 
L 732.012126 100.110373 
L 732.309093 100.053088 
L 733.200608 101.619746 
L 733.497584 101.407624 
L 734.092123 100.157016 
L 734.389091 100.023178 
L 734.686061 100.453331 
L 735.280008 101.552097 
L 735.577582 101.421568 
L 736.171525 100.210445 
L 736.468491 100.005743 
L 736.76546 100.360842 
L 737.360004 101.4784 
L 737.656977 101.426196 
L 738.547891 100.000197 
L 738.845455 100.281074 
L 739.439402 101.398956 
L 739.736376 101.421276 
L 740.627885 100.005343 
L 740.924852 100.211813 
L 741.518798 101.315527 
L 741.816369 101.406593 
L 742.113344 100.999489 
L 742.707282 100.020109 
L 743.004249 100.154049 
L 743.59879 101.229835 
L 743.895765 101.383932 
L 744.192738 101.041998 
L 744.786678 100.043314 
L 745.084242 100.108185 
L 745.975159 101.353154 
L 746.272133 101.077134 
L 746.86667 100.073347 
L 747.163636 100.072324 
L 747.163636 100.072324 
" clip-path="url(#p129e0c49c2)" style="fill: none; stroke: #0000ff; stroke-opacity: 0.3; stroke-width: 1.5; stroke-linecap: square"/>
   </g>
   <g id="line2d_18">
    <path d="M 153.290608 567 
L 153.290608 77.76 
" clip-path="url(#p129e0c49c2)" style="fill: none; stroke-dasharray: 5.55,2.4; stroke-dashoffset: 0; stroke: #ff0000; stroke-width: 1.5"/>
   </g>
   <g id="line2d_19">
    <path d="M 450.375503 567 
L 450.375503 77.76 
" clip-path="url(#p129e0c49c2)" style="fill: none; stroke-dasharray: 5.55,2.4; stroke-dashoffset: 0; stroke: #000000; stroke-width: 1.5"/>
   </g>
   <g id="patch_3">
    <path d="M 108 567 
L 108 77.76 
" style="fill: none; stroke: #000000; stroke-width: 0.8; stroke-linejoin: miter; stroke-linecap: square"/>
   </g>
   <g id="patch_4">
    <path d="M 777.6 567 
L 777.6 77.76 
" style="fill: none; stroke: #000000; stroke-width: 0.8; stroke-linejoin: miter; stroke-linecap: square"/>
   </g>
   <g id="patch_5">
    <path d="M 108 567 
L 777.6 567 
" style="fill: none; stroke: #000000; stroke-width: 0.8; stroke-linejoin: miter; stroke-linecap: square"/>
   </g>
   <g id="patch_6">
    <path d="M 108 77.76 
L 777.6 77.76 
" style="fill: none; stroke: #000000; stroke-width: 0.8; stroke-linejoin: miter; stroke-linecap: square"/>
   </g>
   <g id="text_17">
    <!-- Pulse Start -->
    <g style="fill: #ff0000" transform="translate(153.290608 96.254744)scale(0.18 -0.18)">
     <defs>
      <path id="DejaVuSans-50" d="M 1259 4147 
L 1259 2394 
L 2053 2394 
Q 2494 2394 2734 2622 
Q 2975 2850 2975 3272 
Q 2975 3691 2734 3919 
Q 2494 4147 2053 4147 
L 1259 4147 
z
M 628 4666 
L 2053 4666 
Q 2838 4666 3239 4311 
Q 3641 3956 3641 3272 
Q 3641 2581 3239 2228 
Q 2838 1875 2053 1875 
L 1259 1875 
L 1259 0 
L 628 0 
L 628 4666 
z
" transform="scale(0.015625)"/>
      <path id="DejaVuSans-75" d="M 544 1381 
L 544 3500 
L 1119 3500 
L 1119 1403 
Q 1119 906 1312 657 
Q 1506 409 1894 409 
Q 2359 409 2629 706 
Q 2900 1003 2900 1516 
L 2900 3500 
L 3475 3500 
L 3475 0 
L 2900 0 
L 2900 538 
Q 2691 219 2414 64 
Q 2138 -91 1772 -91 
Q 1169 -91 856 284 
Q 544 659 544 1381 
z
M 1991 3584 
L 1991 3584 
z
" transform="scale(0.015625)"/>
      <path id="DejaVuSans-6c" d="M 603 4863 
L 1178 4863 
L 1178 0 
L 603 0 
L 603 4863 
z
" transform="scale(0.015625)"/>
      <path id="DejaVuSans-53" d="M 3425 4513 
L 3425 3897 
Q 3066 4069 2747 4153 
Q 2428 4238 2131 4238 
Q 1616 4238 1336 4038 
Q 1056 3838 1056 3469 
Q 1056 3159 1242 3001 
Q 1428 2844 1947 2747 
L 2328 2669 
Q 3034 2534 3370 2195 
Q 3706 1856 3706 1288 
Q 3706 609 3251 259 
Q 2797 -91 1919 -91 
Q 1588 -91 1214 -16 
Q 841 59 441 206 
L 441 856 
Q 825 641 1194 531 
Q 1563 422 1919 422 
Q 2459 422 2753 634 
Q 3047 847 3047 1241 
Q 3047 1584 2836 1778 
Q 2625 1972 2144 2069 
L 1759 2144 
Q 1053 2284 737 2584 
Q 422 2884 422 3419 
Q 422 4038 858 4394 
Q 1294 4750 2059 4750 
Q 2388 4750 2728 4690 
Q 3069 4631 3425 4513 
z
" transform="scale(0.015625)"/>
      <path id="DejaVuSans-72" d="M 2631 2963 
Q 2534 3019 2420 3045 
Q 2306 3072 2169 3072 
Q 1681 3072 1420 2755 
Q 1159 2438 1159 1844 
L 1159 0 
L 581 0 
L 581 3500 
L 1159 3500 
L 1159 2956 
Q 1341 3275 1631 3429 
Q 1922 3584 2338 3584 
Q 2397 3584 2469 3576 
Q 2541 3569 2628 3553 
L 2631 2963 
z
" transform="scale(0.015625)"/>
     </defs>
     <use xlink:href="#DejaVuSans-50"/>
     <use xlink:href="#DejaVuSans-75" x="58.552734"/>
     <use xlink:href="#DejaVuSans-6c" x="121.931641"/>
     <use xlink:href="#DejaVuSans-73" x="149.714844"/>
     <use xlink:href="#DejaVuSans-65" x="201.814453"/>
     <use xlink:href="#DejaVuSans-20" x="263.337891"/>
     <use xlink:href="#DejaVuSans-53" x="295.125"/>
     <use xlink:href="#DejaVuSans-74" x="358.601562"/>
     <use xlink:href="#DejaVuSans-61" x="397.810547"/>
     <use xlink:href="#DejaVuSans-72" x="459.089844"/>
     <use xlink:href="#DejaVuSans-74" x="500.203125"/>
    </g>
   </g>
   <g id="text_18">
    <!-- Pulse End -->
    <g transform="translate(450.375503 96.254744)scale(0.18 -0.18)">
     <defs>
      <path id="DejaVuSans-45" d="M 628 4666 
L 3578 4666 
L 3578 4134 
L 1259 4134 
L 1259 2753 
L 3481 2753 
L 3481 2222 
L 1259 2222 
L 1259 531 
L 3634 531 
L 3634 0 
L 628 0 
L 628 4666 
z
" transform="scale(0.015625)"/>
      <path id="DejaVuSans-64" d="M 2906 2969 
L 2906 4863 
L 3481 4863 
L 3481 0 
L 2906 0 
L 2906 525 
Q 2725 213 2448 61 
Q 2172 -91 1784 -91 
Q 1150 -91 751 415 
Q 353 922 353 1747 
Q 353 2572 751 3078 
Q 1150 3584 1784 3584 
Q 2172 3584 2448 3432 
Q 2725 3281 2906 2969 
z
M 947 1747 
Q 947 1113 1208 752 
Q 1469 391 1925 391 
Q 2381 391 2643 752 
Q 2906 1113 2906 1747 
Q 2906 2381 2643 2742 
Q 2381 3103 1925 3103 
Q 1469 3103 1208 2742 
Q 947 2381 947 1747 
z
" transform="scale(0.015625)"/>
     </defs>
     <use xlink:href="#DejaVuSans-50"/>
     <use xlink:href="#DejaVuSans-75" x="58.552734"/>
     <use xlink:href="#DejaVuSans-6c" x="121.931641"/>
     <use xlink:href="#DejaVuSans-73" x="149.714844"/>
     <use xlink:href="#DejaVuSans-65" x="201.814453"/>
     <use xlink:href="#DejaVuSans-20" x="263.337891"/>
     <use xlink:href="#DejaVuSans-45" x="295.125"/>
     <use xlink:href="#DejaVuSans-6e" x="358.308594"/>
     <use xlink:href="#DejaVuSans-64" x="421.6875"/>
    </g>
   </g>
   <g id="legend_1">
    <g id="patch_7">
     <path d="M 610.309687 558 
L 765 558 
Q 768.6 558 768.6 554.4 
L 768.6 424.096875 
Q 768.6 420.496875 765 420.496875 
L 610.309687 420.496875 
Q 606.709687 420.496875 606.709687 424.096875 
L 606.709687 554.4 
Q 606.709687 558 610.309687 558 
z
" style="fill: #ffffff; opacity: 0.8; stroke: #cccccc; stroke-linejoin: miter"/>
    </g>
    <g id="line2d_20">
     <path d="M 613.909688 435.074063 
L 631.909688 435.074063 
L 649.909688 435.074063 
" style="fill: none; stroke: #ff0000; stroke-opacity: 0.3; stroke-width: 1.5; stroke-linecap: square"/>
    </g>
    <g id="text_19">
     <!-- mx -->
     <g transform="translate(664.309687 441.374063)scale(0.18 -0.18)">
      <defs>
       <path id="DejaVuSans-78" d="M 3513 3500 
L 2247 1797 
L 3578 0 
L 2900 0 
L 1881 1375 
L 863 0 
L 184 0 
L 1544 1831 
L 300 3500 
L 978 3500 
L 1906 2253 
L 2834 3500 
L 3513 3500 
z
" transform="scale(0.015625)"/>
      </defs>
      <use xlink:href="#DejaVuSans-6d"/>
      <use xlink:href="#DejaVuSans-78" x="97.412109"/>
     </g>
    </g>
    <g id="line2d_21">
     <path d="M 613.909688 461.494687 
L 631.909688 461.494687 
L 649.909688 461.494687 
" style="fill: none; stroke: #008000; stroke-opacity: 0.3; stroke-width: 1.5; stroke-linecap: square"/>
    </g>
    <g id="text_20">
     <!-- my -->
     <g transform="translate(664.309687 467.794688)scale(0.18 -0.18)">
      <defs>
       <path id="DejaVuSans-79" d="M 2059 -325 
Q 1816 -950 1584 -1140 
Q 1353 -1331 966 -1331 
L 506 -1331 
L 506 -850 
L 844 -850 
Q 1081 -850 1212 -737 
Q 1344 -625 1503 -206 
L 1606 56 
L 191 3500 
L 800 3500 
L 1894 763 
L 2988 3500 
L 3597 3500 
L 2059 -325 
z
" transform="scale(0.015625)"/>
      </defs>
      <use xlink:href="#DejaVuSans-6d"/>
      <use xlink:href="#DejaVuSans-79" x="97.412109"/>
     </g>
    </g>
    <g id="line2d_22">
     <path d="M 613.909688 487.915313 
L 631.909688 487.915313 
L 649.909688 487.915313 
" style="fill: none; stroke: #0000ff; stroke-opacity: 0.3; stroke-width: 1.5; stroke-linecap: square"/>
    </g>
    <g id="text_21">
     <!-- mz -->
     <g transform="translate(664.309687 494.215313)scale(0.18 -0.18)">
      <use xlink:href="#DejaVuSans-6d"/>
      <use xlink:href="#DejaVuSans-7a" x="97.412109"/>
     </g>
    </g>
    <g id="line2d_23">
     <path d="M 613.909688 514.335938 
L 631.909688 514.335938 
L 649.909688 514.335938 
" style="fill: none; stroke-dasharray: 5.55,2.4; stroke-dashoffset: 0; stroke: #ff0000; stroke-width: 1.5"/>
    </g>
    <g id="text_22">
     <!-- Pulse Start -->
     <g transform="translate(664.309687 520.635938)scale(0.18 -0.18)">
      <use xlink:href="#DejaVuSans-50"/>
      <use xlink:href="#DejaVuSans-75" x="58.552734"/>
      <use xlink:href="#DejaVuSans-6c" x="121.931641"/>
      <use xlink:href="#DejaVuSans-73" x="149.714844"/>
      <use xlink:href="#DejaVuSans-65" x="201.814453"/>
      <use xlink:href="#DejaVuSans-20" x="263.337891"/>
      <use xlink:href="#DejaVuSans-53" x="295.125"/>
      <use xlink:href="#DejaVuSans-74" x="358.601562"/>
      <use xlink:href="#DejaVuSans-61" x="397.810547"/>
      <use xlink:href="#DejaVuSans-72" x="459.089844"/>
      <use xlink:href="#DejaVuSans-74" x="500.203125"/>
     </g>
    </g>
    <g id="line2d_24">
     <path d="M 613.909688 540.756563 
L 631.909688 540.756563 
L 649.909688 540.756563 
" style="fill: none; stroke-dasharray: 5.55,2.4; stroke-dashoffset: 0; stroke: #000000; stroke-width: 1.5"/>
    </g>
    <g id="text_23">
     <!-- Pulse End -->
     <g transform="translate(664.309687 547.056563)scale(0.18 -0.18)">
      <use xlink:href="#DejaVuSans-50"/>
      <use xlink:href="#DejaVuSans-75" x="58.552734"/>
      <use xlink:href="#DejaVuSans-6c" x="121.931641"/>
      <use xlink:href="#DejaVuSans-73" x="149.714844"/>
      <use xlink:href="#DejaVuSans-65" x="201.814453"/>
      <use xlink:href="#DejaVuSans-20" x="263.337891"/>
      <use xlink:href="#DejaVuSans-45" x="295.125"/>
      <use xlink:href="#DejaVuSans-6e" x="358.308594"/>
      <use xlink:href="#DejaVuSans-64" x="421.6875"/>
     </g>
    </g>
   </g>
  </g>
 </g>
 <defs>
  <clipPath id="p129e0c49c2">
   <rect x="108" y="77.76" width="669.6" height="489.24"/>
  </clipPath>
 </defs>
</svg>
