<?xml version="1.0" encoding="utf-8" standalone="no"?>
<!DOCTYPE svg PUBLIC "-//W3C//DTD SVG 1.1//EN"
  "http://www.w3.org/Graphics/SVG/1.1/DTD/svg11.dtd">
<svg xmlns:xlink="http://www.w3.org/1999/xlink" width="864pt" height="648pt" viewBox="0 0 864 648" xmlns="http://www.w3.org/2000/svg" version="1.1">
 <metadata>
  <rdf:RDF xmlns:dc="http://purl.org/dc/elements/1.1/" xmlns:cc="http://creativecommons.org/ns#" xmlns:rdf="http://www.w3.org/1999/02/22-rdf-syntax-ns#">
   <cc:Work>
    <dc:type rdf:resource="http://purl.org/dc/dcmitype/StillImage"/>
    <dc:date>2023-12-06T12:21:10.285228</dc:date>
    <dc:format>image/svg+xml</dc:format>
    <dc:creator>
     <cc:Agent>
      <dc:title>Matplotlib v3.5.2, https://matplotlib.org/</dc:title>
     </cc:Agent>
    </dc:creator>
   </cc:Work>
  </rdf:RDF>
 </metadata>
 <defs>
  <style type="text/css">*{stroke-linejoin: round; stroke-linecap: butt}</style>
 </defs>
 <g id="figure_1">
  <g id="patch_1">
   <path d="M 0 648 
L 864 648 
L 864 0 
L 0 0 
L 0 648 
z
" style="fill: none"/>
  </g>
  <g id="axes_1">
   <g id="patch_2">
    <path d="M 108 567 
L 777.6 567 
L 777.6 77.76 
L 108 77.76 
z
" style="fill: #ffffff"/>
   </g>
   <g id="matplotlib.axis_1">
    <g id="xtick_1">
     <g id="line2d_1">
      <defs>
       <path id="m9e00b0ad48" d="M 0 0 
L 0 3.5 
" style="stroke: #000000; stroke-width: 0.8"/>
      </defs>
      <g>
       <use xlink:href="#m9e00b0ad48" x="138.436364" y="567" style="stroke: #000000; stroke-width: 0.8"/>
      </g>
     </g>
     <g id="text_1">
      <!-- 0 -->
      <g transform="translate(132.710114 587.677187)scale(0.18 -0.18)">
       <defs>
        <path id="DejaVuSans-30" d="M 2034 4250 
Q 1547 4250 1301 3770 
Q 1056 3291 1056 2328 
Q 1056 1369 1301 889 
Q 1547 409 2034 409 
Q 2525 409 2770 889 
Q 3016 1369 3016 2328 
Q 3016 3291 2770 3770 
Q 2525 4250 2034 4250 
z
M 2034 4750 
Q 2819 4750 3233 4129 
Q 3647 3509 3647 2328 
Q 3647 1150 3233 529 
Q 2819 -91 2034 -91 
Q 1250 -91 836 529 
Q 422 1150 422 2328 
Q 422 3509 836 4129 
Q 1250 4750 2034 4750 
z
" transform="scale(0.015625)"/>
       </defs>
       <use xlink:href="#DejaVuSans-30"/>
      </g>
     </g>
    </g>
    <g id="xtick_2">
     <g id="line2d_2">
      <g>
       <use xlink:href="#m9e00b0ad48" x="286.978753" y="567" style="stroke: #000000; stroke-width: 0.8"/>
      </g>
     </g>
     <g id="text_2">
      <!-- 5 -->
      <g transform="translate(281.252503 587.677187)scale(0.18 -0.18)">
       <defs>
        <path id="DejaVuSans-35" d="M 691 4666 
L 3169 4666 
L 3169 4134 
L 1269 4134 
L 1269 2991 
Q 1406 3038 1543 3061 
Q 1681 3084 1819 3084 
Q 2600 3084 3056 2656 
Q 3513 2228 3513 1497 
Q 3513 744 3044 326 
Q 2575 -91 1722 -91 
Q 1428 -91 1123 -41 
Q 819 9 494 109 
L 494 744 
Q 775 591 1075 516 
Q 1375 441 1709 441 
Q 2250 441 2565 725 
Q 2881 1009 2881 1497 
Q 2881 1984 2565 2268 
Q 2250 2553 1709 2553 
Q 1456 2553 1204 2497 
Q 953 2441 691 2322 
L 691 4666 
z
" transform="scale(0.015625)"/>
       </defs>
       <use xlink:href="#DejaVuSans-35"/>
      </g>
     </g>
    </g>
    <g id="xtick_3">
     <g id="line2d_3">
      <g>
       <use xlink:href="#m9e00b0ad48" x="435.521142" y="567" style="stroke: #000000; stroke-width: 0.8"/>
      </g>
     </g>
     <g id="text_3">
      <!-- 10 -->
      <g transform="translate(424.068642 587.677187)scale(0.18 -0.18)">
       <defs>
        <path id="DejaVuSans-31" d="M 794 531 
L 1825 531 
L 1825 4091 
L 703 3866 
L 703 4441 
L 1819 4666 
L 2450 4666 
L 2450 531 
L 3481 531 
L 3481 0 
L 794 0 
L 794 531 
z
" transform="scale(0.015625)"/>
       </defs>
       <use xlink:href="#DejaVuSans-31"/>
       <use xlink:href="#DejaVuSans-30" x="63.623047"/>
      </g>
     </g>
    </g>
    <g id="xtick_4">
     <g id="line2d_4">
      <g>
       <use xlink:href="#m9e00b0ad48" x="584.063532" y="567" style="stroke: #000000; stroke-width: 0.8"/>
      </g>
     </g>
     <g id="text_4">
      <!-- 15 -->
      <g transform="translate(572.611032 587.677187)scale(0.18 -0.18)">
       <use xlink:href="#DejaVuSans-31"/>
       <use xlink:href="#DejaVuSans-35" x="63.623047"/>
      </g>
     </g>
    </g>
    <g id="xtick_5">
     <g id="line2d_5">
      <g>
       <use xlink:href="#m9e00b0ad48" x="732.605921" y="567" style="stroke: #000000; stroke-width: 0.8"/>
      </g>
     </g>
     <g id="text_5">
      <!-- 20 -->
      <g transform="translate(721.153421 587.677187)scale(0.18 -0.18)">
       <defs>
        <path id="DejaVuSans-32" d="M 1228 531 
L 3431 531 
L 3431 0 
L 469 0 
L 469 531 
Q 828 903 1448 1529 
Q 2069 2156 2228 2338 
Q 2531 2678 2651 2914 
Q 2772 3150 2772 3378 
Q 2772 3750 2511 3984 
Q 2250 4219 1831 4219 
Q 1534 4219 1204 4116 
Q 875 4013 500 3803 
L 500 4441 
Q 881 4594 1212 4672 
Q 1544 4750 1819 4750 
Q 2544 4750 2975 4387 
Q 3406 4025 3406 3419 
Q 3406 3131 3298 2873 
Q 3191 2616 2906 2266 
Q 2828 2175 2409 1742 
Q 1991 1309 1228 531 
z
" transform="scale(0.015625)"/>
       </defs>
       <use xlink:href="#DejaVuSans-32"/>
       <use xlink:href="#DejaVuSans-30" x="63.623047"/>
      </g>
     </g>
    </g>
    <g id="text_6">
     <!-- Time (ns) -->
     <g transform="translate(400.504219 609.097813)scale(0.18 -0.18)">
      <defs>
       <path id="DejaVuSans-54" d="M -19 4666 
L 3928 4666 
L 3928 4134 
L 2272 4134 
L 2272 0 
L 1638 0 
L 1638 4134 
L -19 4134 
L -19 4666 
z
" transform="scale(0.015625)"/>
       <path id="DejaVuSans-69" d="M 603 3500 
L 1178 3500 
L 1178 0 
L 603 0 
L 603 3500 
z
M 603 4863 
L 1178 4863 
L 1178 4134 
L 603 4134 
L 603 4863 
z
" transform="scale(0.015625)"/>
       <path id="DejaVuSans-6d" d="M 3328 2828 
Q 3544 3216 3844 3400 
Q 4144 3584 4550 3584 
Q 5097 3584 5394 3201 
Q 5691 2819 5691 2113 
L 5691 0 
L 5113 0 
L 5113 2094 
Q 5113 2597 4934 2840 
Q 4756 3084 4391 3084 
Q 3944 3084 3684 2787 
Q 3425 2491 3425 1978 
L 3425 0 
L 2847 0 
L 2847 2094 
Q 2847 2600 2669 2842 
Q 2491 3084 2119 3084 
Q 1678 3084 1418 2786 
Q 1159 2488 1159 1978 
L 1159 0 
L 581 0 
L 581 3500 
L 1159 3500 
L 1159 2956 
Q 1356 3278 1631 3431 
Q 1906 3584 2284 3584 
Q 2666 3584 2933 3390 
Q 3200 3197 3328 2828 
z
" transform="scale(0.015625)"/>
       <path id="DejaVuSans-65" d="M 3597 1894 
L 3597 1613 
L 953 1613 
Q 991 1019 1311 708 
Q 1631 397 2203 397 
Q 2534 397 2845 478 
Q 3156 559 3463 722 
L 3463 178 
Q 3153 47 2828 -22 
Q 2503 -91 2169 -91 
Q 1331 -91 842 396 
Q 353 884 353 1716 
Q 353 2575 817 3079 
Q 1281 3584 2069 3584 
Q 2775 3584 3186 3129 
Q 3597 2675 3597 1894 
z
M 3022 2063 
Q 3016 2534 2758 2815 
Q 2500 3097 2075 3097 
Q 1594 3097 1305 2825 
Q 1016 2553 972 2059 
L 3022 2063 
z
" transform="scale(0.015625)"/>
       <path id="DejaVuSans-20" transform="scale(0.015625)"/>
       <path id="DejaVuSans-28" d="M 1984 4856 
Q 1566 4138 1362 3434 
Q 1159 2731 1159 2009 
Q 1159 1288 1364 580 
Q 1569 -128 1984 -844 
L 1484 -844 
Q 1016 -109 783 600 
Q 550 1309 550 2009 
Q 550 2706 781 3412 
Q 1013 4119 1484 4856 
L 1984 4856 
z
" transform="scale(0.015625)"/>
       <path id="DejaVuSans-6e" d="M 3513 2113 
L 3513 0 
L 2938 0 
L 2938 2094 
Q 2938 2591 2744 2837 
Q 2550 3084 2163 3084 
Q 1697 3084 1428 2787 
Q 1159 2491 1159 1978 
L 1159 0 
L 581 0 
L 581 3500 
L 1159 3500 
L 1159 2956 
Q 1366 3272 1645 3428 
Q 1925 3584 2291 3584 
Q 2894 3584 3203 3211 
Q 3513 2838 3513 2113 
z
" transform="scale(0.015625)"/>
       <path id="DejaVuSans-73" d="M 2834 3397 
L 2834 2853 
Q 2591 2978 2328 3040 
Q 2066 3103 1784 3103 
Q 1356 3103 1142 2972 
Q 928 2841 928 2578 
Q 928 2378 1081 2264 
Q 1234 2150 1697 2047 
L 1894 2003 
Q 2506 1872 2764 1633 
Q 3022 1394 3022 966 
Q 3022 478 2636 193 
Q 2250 -91 1575 -91 
Q 1294 -91 989 -36 
Q 684 19 347 128 
L 347 722 
Q 666 556 975 473 
Q 1284 391 1588 391 
Q 1994 391 2212 530 
Q 2431 669 2431 922 
Q 2431 1156 2273 1281 
Q 2116 1406 1581 1522 
L 1381 1569 
Q 847 1681 609 1914 
Q 372 2147 372 2553 
Q 372 3047 722 3315 
Q 1072 3584 1716 3584 
Q 2034 3584 2315 3537 
Q 2597 3491 2834 3397 
z
" transform="scale(0.015625)"/>
       <path id="DejaVuSans-29" d="M 513 4856 
L 1013 4856 
Q 1481 4119 1714 3412 
Q 1947 2706 1947 2009 
Q 1947 1309 1714 600 
Q 1481 -109 1013 -844 
L 513 -844 
Q 928 -128 1133 580 
Q 1338 1288 1338 2009 
Q 1338 2731 1133 3434 
Q 928 4138 513 4856 
z
" transform="scale(0.015625)"/>
      </defs>
      <use xlink:href="#DejaVuSans-54"/>
      <use xlink:href="#DejaVuSans-69" x="57.958984"/>
      <use xlink:href="#DejaVuSans-6d" x="85.742188"/>
      <use xlink:href="#DejaVuSans-65" x="183.154297"/>
      <use xlink:href="#DejaVuSans-20" x="244.677734"/>
      <use xlink:href="#DejaVuSans-28" x="276.464844"/>
      <use xlink:href="#DejaVuSans-6e" x="315.478516"/>
      <use xlink:href="#DejaVuSans-73" x="378.857422"/>
      <use xlink:href="#DejaVuSans-29" x="430.957031"/>
     </g>
    </g>
   </g>
   <g id="matplotlib.axis_2">
    <g id="ytick_1">
     <g id="line2d_6">
      <defs>
       <path id="m8d007c96a6" d="M 0 0 
L -3.5 0 
" style="stroke: #000000; stroke-width: 0.8"/>
      </defs>
      <g>
       <use xlink:href="#m8d007c96a6" x="108" y="544.761818" style="stroke: #000000; stroke-width: 0.8"/>
      </g>
     </g>
     <g id="text_7">
      <!-- −1.00 -->
      <g transform="translate(45.838438 551.600412)scale(0.18 -0.18)">
       <defs>
        <path id="DejaVuSans-2212" d="M 678 2272 
L 4684 2272 
L 4684 1741 
L 678 1741 
L 678 2272 
z
" transform="scale(0.015625)"/>
        <path id="DejaVuSans-2e" d="M 684 794 
L 1344 794 
L 1344 0 
L 684 0 
L 684 794 
z
" transform="scale(0.015625)"/>
       </defs>
       <use xlink:href="#DejaVuSans-2212"/>
       <use xlink:href="#DejaVuSans-31" x="83.789062"/>
       <use xlink:href="#DejaVuSans-2e" x="147.412109"/>
       <use xlink:href="#DejaVuSans-30" x="179.199219"/>
       <use xlink:href="#DejaVuSans-30" x="242.822266"/>
      </g>
     </g>
    </g>
    <g id="ytick_2">
     <g id="line2d_7">
      <g>
       <use xlink:href="#m8d007c96a6" x="108" y="489.166364" style="stroke: #000000; stroke-width: 0.8"/>
      </g>
     </g>
     <g id="text_8">
      <!-- −0.75 -->
      <g transform="translate(45.838438 496.004957)scale(0.18 -0.18)">
       <defs>
        <path id="DejaVuSans-37" d="M 525 4666 
L 3525 4666 
L 3525 4397 
L 1831 0 
L 1172 0 
L 2766 4134 
L 525 4134 
L 525 4666 
z
" transform="scale(0.015625)"/>
       </defs>
       <use xlink:href="#DejaVuSans-2212"/>
       <use xlink:href="#DejaVuSans-30" x="83.789062"/>
       <use xlink:href="#DejaVuSans-2e" x="147.412109"/>
       <use xlink:href="#DejaVuSans-37" x="179.199219"/>
       <use xlink:href="#DejaVuSans-35" x="242.822266"/>
      </g>
     </g>
    </g>
    <g id="ytick_3">
     <g id="line2d_8">
      <g>
       <use xlink:href="#m8d007c96a6" x="108" y="433.570909" style="stroke: #000000; stroke-width: 0.8"/>
      </g>
     </g>
     <g id="text_9">
      <!-- −0.50 -->
      <g transform="translate(45.838438 440.409503)scale(0.18 -0.18)">
       <use xlink:href="#DejaVuSans-2212"/>
       <use xlink:href="#DejaVuSans-30" x="83.789062"/>
       <use xlink:href="#DejaVuSans-2e" x="147.412109"/>
       <use xlink:href="#DejaVuSans-35" x="179.199219"/>
       <use xlink:href="#DejaVuSans-30" x="242.822266"/>
      </g>
     </g>
    </g>
    <g id="ytick_4">
     <g id="line2d_9">
      <g>
       <use xlink:href="#m8d007c96a6" x="108" y="377.975455" style="stroke: #000000; stroke-width: 0.8"/>
      </g>
     </g>
     <g id="text_10">
      <!-- −0.25 -->
      <g transform="translate(45.838438 384.814048)scale(0.18 -0.18)">
       <use xlink:href="#DejaVuSans-2212"/>
       <use xlink:href="#DejaVuSans-30" x="83.789062"/>
       <use xlink:href="#DejaVuSans-2e" x="147.412109"/>
       <use xlink:href="#DejaVuSans-32" x="179.199219"/>
       <use xlink:href="#DejaVuSans-35" x="242.822266"/>
      </g>
     </g>
    </g>
    <g id="ytick_5">
     <g id="line2d_10">
      <g>
       <use xlink:href="#m8d007c96a6" x="108" y="322.38" style="stroke: #000000; stroke-width: 0.8"/>
      </g>
     </g>
     <g id="text_11">
      <!-- 0.00 -->
      <g transform="translate(60.921875 329.218594)scale(0.18 -0.18)">
       <use xlink:href="#DejaVuSans-30"/>
       <use xlink:href="#DejaVuSans-2e" x="63.623047"/>
       <use xlink:href="#DejaVuSans-30" x="95.410156"/>
       <use xlink:href="#DejaVuSans-30" x="159.033203"/>
      </g>
     </g>
    </g>
    <g id="ytick_6">
     <g id="line2d_11">
      <g>
       <use xlink:href="#m8d007c96a6" x="108" y="266.784545" style="stroke: #000000; stroke-width: 0.8"/>
      </g>
     </g>
     <g id="text_12">
      <!-- 0.25 -->
      <g transform="translate(60.921875 273.623139)scale(0.18 -0.18)">
       <use xlink:href="#DejaVuSans-30"/>
       <use xlink:href="#DejaVuSans-2e" x="63.623047"/>
       <use xlink:href="#DejaVuSans-32" x="95.410156"/>
       <use xlink:href="#DejaVuSans-35" x="159.033203"/>
      </g>
     </g>
    </g>
    <g id="ytick_7">
     <g id="line2d_12">
      <g>
       <use xlink:href="#m8d007c96a6" x="108" y="211.189091" style="stroke: #000000; stroke-width: 0.8"/>
      </g>
     </g>
     <g id="text_13">
      <!-- 0.50 -->
      <g transform="translate(60.921875 218.027685)scale(0.18 -0.18)">
       <use xlink:href="#DejaVuSans-30"/>
       <use xlink:href="#DejaVuSans-2e" x="63.623047"/>
       <use xlink:href="#DejaVuSans-35" x="95.410156"/>
       <use xlink:href="#DejaVuSans-30" x="159.033203"/>
      </g>
     </g>
    </g>
    <g id="ytick_8">
     <g id="line2d_13">
      <g>
       <use xlink:href="#m8d007c96a6" x="108" y="155.593636" style="stroke: #000000; stroke-width: 0.8"/>
      </g>
     </g>
     <g id="text_14">
      <!-- 0.75 -->
      <g transform="translate(60.921875 162.43223)scale(0.18 -0.18)">
       <use xlink:href="#DejaVuSans-30"/>
       <use xlink:href="#DejaVuSans-2e" x="63.623047"/>
       <use xlink:href="#DejaVuSans-37" x="95.410156"/>
       <use xlink:href="#DejaVuSans-35" x="159.033203"/>
      </g>
     </g>
    </g>
    <g id="ytick_9">
     <g id="line2d_14">
      <g>
       <use xlink:href="#m8d007c96a6" x="108" y="99.998182" style="stroke: #000000; stroke-width: 0.8"/>
      </g>
     </g>
     <g id="text_15">
      <!-- 1.00 -->
      <g transform="translate(60.921875 106.836776)scale(0.18 -0.18)">
       <use xlink:href="#DejaVuSans-31"/>
       <use xlink:href="#DejaVuSans-2e" x="63.623047"/>
       <use xlink:href="#DejaVuSans-30" x="95.410156"/>
       <use xlink:href="#DejaVuSans-30" x="159.033203"/>
      </g>
     </g>
    </g>
    <g id="text_16">
     <!-- Magnetization -->
     <g transform="translate(38.095 386.1225)rotate(-90)scale(0.18 -0.18)">
      <defs>
       <path id="DejaVuSans-4d" d="M 628 4666 
L 1569 4666 
L 2759 1491 
L 3956 4666 
L 4897 4666 
L 4897 0 
L 4281 0 
L 4281 4097 
L 3078 897 
L 2444 897 
L 1241 4097 
L 1241 0 
L 628 0 
L 628 4666 
z
" transform="scale(0.015625)"/>
       <path id="DejaVuSans-61" d="M 2194 1759 
Q 1497 1759 1228 1600 
Q 959 1441 959 1056 
Q 959 750 1161 570 
Q 1363 391 1709 391 
Q 2188 391 2477 730 
Q 2766 1069 2766 1631 
L 2766 1759 
L 2194 1759 
z
M 3341 1997 
L 3341 0 
L 2766 0 
L 2766 531 
Q 2569 213 2275 61 
Q 1981 -91 1556 -91 
Q 1019 -91 701 211 
Q 384 513 384 1019 
Q 384 1609 779 1909 
Q 1175 2209 1959 2209 
L 2766 2209 
L 2766 2266 
Q 2766 2663 2505 2880 
Q 2244 3097 1772 3097 
Q 1472 3097 1187 3025 
Q 903 2953 641 2809 
L 641 3341 
Q 956 3463 1253 3523 
Q 1550 3584 1831 3584 
Q 2591 3584 2966 3190 
Q 3341 2797 3341 1997 
z
" transform="scale(0.015625)"/>
       <path id="DejaVuSans-67" d="M 2906 1791 
Q 2906 2416 2648 2759 
Q 2391 3103 1925 3103 
Q 1463 3103 1205 2759 
Q 947 2416 947 1791 
Q 947 1169 1205 825 
Q 1463 481 1925 481 
Q 2391 481 2648 825 
Q 2906 1169 2906 1791 
z
M 3481 434 
Q 3481 -459 3084 -895 
Q 2688 -1331 1869 -1331 
Q 1566 -1331 1297 -1286 
Q 1028 -1241 775 -1147 
L 775 -588 
Q 1028 -725 1275 -790 
Q 1522 -856 1778 -856 
Q 2344 -856 2625 -561 
Q 2906 -266 2906 331 
L 2906 616 
Q 2728 306 2450 153 
Q 2172 0 1784 0 
Q 1141 0 747 490 
Q 353 981 353 1791 
Q 353 2603 747 3093 
Q 1141 3584 1784 3584 
Q 2172 3584 2450 3431 
Q 2728 3278 2906 2969 
L 2906 3500 
L 3481 3500 
L 3481 434 
z
" transform="scale(0.015625)"/>
       <path id="DejaVuSans-74" d="M 1172 4494 
L 1172 3500 
L 2356 3500 
L 2356 3053 
L 1172 3053 
L 1172 1153 
Q 1172 725 1289 603 
Q 1406 481 1766 481 
L 2356 481 
L 2356 0 
L 1766 0 
Q 1100 0 847 248 
Q 594 497 594 1153 
L 594 3053 
L 172 3053 
L 172 3500 
L 594 3500 
L 594 4494 
L 1172 4494 
z
" transform="scale(0.015625)"/>
       <path id="DejaVuSans-7a" d="M 353 3500 
L 3084 3500 
L 3084 2975 
L 922 459 
L 3084 459 
L 3084 0 
L 275 0 
L 275 525 
L 2438 3041 
L 353 3041 
L 353 3500 
z
" transform="scale(0.015625)"/>
       <path id="DejaVuSans-6f" d="M 1959 3097 
Q 1497 3097 1228 2736 
Q 959 2375 959 1747 
Q 959 1119 1226 758 
Q 1494 397 1959 397 
Q 2419 397 2687 759 
Q 2956 1122 2956 1747 
Q 2956 2369 2687 2733 
Q 2419 3097 1959 3097 
z
M 1959 3584 
Q 2709 3584 3137 3096 
Q 3566 2609 3566 1747 
Q 3566 888 3137 398 
Q 2709 -91 1959 -91 
Q 1206 -91 779 398 
Q 353 888 353 1747 
Q 353 2609 779 3096 
Q 1206 3584 1959 3584 
z
" transform="scale(0.015625)"/>
      </defs>
      <use xlink:href="#DejaVuSans-4d"/>
      <use xlink:href="#DejaVuSans-61" x="86.279297"/>
      <use xlink:href="#DejaVuSans-67" x="147.558594"/>
      <use xlink:href="#DejaVuSans-6e" x="211.035156"/>
      <use xlink:href="#DejaVuSans-65" x="274.414062"/>
      <use xlink:href="#DejaVuSans-74" x="335.9375"/>
      <use xlink:href="#DejaVuSans-69" x="375.146484"/>
      <use xlink:href="#DejaVuSans-7a" x="402.929688"/>
      <use xlink:href="#DejaVuSans-61" x="455.419922"/>
      <use xlink:href="#DejaVuSans-74" x="516.699219"/>
      <use xlink:href="#DejaVuSans-69" x="555.908203"/>
      <use xlink:href="#DejaVuSans-6f" x="583.691406"/>
      <use xlink:href="#DejaVuSans-6e" x="644.873047"/>
     </g>
    </g>
   </g>
   <g id="line2d_15">
    <path d="M 138.436364 309.142353 
L 153.290603 309.142081 
L 153.290603 309.142081 
L 153.884856 445.289686 
L 154.182162 459.497258 
L 154.776597 442.801623 
L 155.073255 447.249481 
L 155.667799 495.592175 
L 155.964463 437.020374 
L 156.558867 171.994207 
L 156.856043 126.352971 
L 157.153189 140.443986 
L 157.450254 218.549202 
L 158.044254 425.370146 
L 158.341406 465.253171 
L 158.638626 456.795554 
L 159.529909 309.364763 
L 159.826905 295.09044 
L 160.123926 305.357188 
L 161.014986 364.543915 
L 161.311995 372.507957 
L 161.60901 372.258458 
L 161.906632 364.901134 
L 162.500708 345.591483 
L 162.797753 340.801129 
L 163.094799 340.291675 
L 163.391862 343.04953 
L 163.985952 351.773061 
L 164.282992 354.463897 
L 164.580038 355.11888 
L 164.87708 354.006039 
L 165.768228 348.12648 
L 166.065292 347.430978 
L 166.362353 347.471234 
L 166.956514 348.151462 
L 167.253613 347.842684 
L 167.550726 346.679027 
L 168.442178 340.075764 
L 168.739495 337.539506 
L 169.036181 337.357874 
L 169.333306 342.812731 
L 169.630583 344.810055 
L 170.52206 330.931741 
L 170.818971 332.698949 
L 171.115863 333.149329 
L 171.413075 335.438509 
L 171.710403 339.266568 
L 172.304379 335.516223 
L 172.60114 336.94165 
L 172.898772 335.633325 
L 173.492763 341.145923 
L 173.789877 338.624995 
L 174.384109 336.135 
L 174.681294 336.411654 
L 174.978173 338.471829 
L 175.275072 338.755508 
L 175.86942 335.282799 
L 176.166564 335.634087 
L 176.760634 337.883996 
L 177.057704 337.875417 
L 177.354516 336.138688 
L 177.651863 335.667075 
L 178.246193 337.453173 
L 178.542889 337.863872 
L 179.13711 336.031095 
L 179.434077 336.233218 
L 179.731413 336.928343 
L 180.028374 337.285998 
L 180.325508 337.022909 
L 180.919589 335.946427 
L 181.216964 336.283678 
L 181.514092 336.821847 
L 181.810864 336.802799 
L 182.702267 336.03562 
L 183.29625 336.657913 
L 183.59357 336.535643 
L 184.187712 336.062612 
L 184.484824 336.148632 
L 184.781741 336.37697 
L 185.078994 336.443462 
L 185.970042 336.032558 
L 186.8616 336.253385 
L 187.455621 336.021712 
L 188.05003 336.098742 
L 188.643839 336.120939 
L 189.237976 335.979639 
L 190.723596 335.969876 
L 192.803105 335.938196 
L 195.179747 335.945482 
L 200.824259 335.996112 
L 208.251395 336.295416 
L 222.214387 336.927725 
L 232.018114 337.077841 
L 254.0024 337.12532 
L 450.375381 337.12703 
L 450.375381 337.12703 
L 450.67289 338.885979 
L 451.861323 364.582561 
L 452.158066 388.548198 
L 452.752413 447.450603 
L 453.049368 448.386064 
L 453.34623 433.732009 
L 453.64339 438.019969 
L 454.237916 491.879964 
L 454.535113 484.779771 
L 455.426124 401.95155 
L 456.02015 388.856263 
L 456.317185 373.528939 
L 456.911778 317.491471 
L 457.208632 298.608762 
L 457.505577 293.800516 
L 457.802844 293.934101 
L 458.100093 291.754855 
L 458.397178 291.636325 
L 458.693771 290.915088 
L 458.991046 294.448884 
L 459.288012 303.425764 
L 459.585355 323.179568 
L 460.476777 413.549645 
L 460.773806 429.887706 
L 461.664884 499.373038 
L 461.961689 498.032691 
L 462.556337 435.95293 
L 463.447121 336.971712 
L 463.744309 321.100258 
L 464.041559 315.895756 
L 464.635976 295.919435 
L 464.933005 289.293117 
L 465.230176 287.94639 
L 465.823961 294.069627 
L 466.121334 301.565105 
L 466.418104 318.522131 
L 467.012611 375.716956 
L 467.606355 437.561164 
L 467.903926 451.795255 
L 468.201008 457.344515 
L 468.497871 459.964549 
L 468.794658 468.785439 
L 469.091851 469.264792 
L 469.38909 453.036835 
L 470.577215 320.509941 
L 470.874533 308.753474 
L 471.171854 310.353313 
L 472.360165 272.441103 
L 472.657323 276.401478 
L 472.953911 286.38261 
L 473.250914 290.576671 
L 473.548136 297.976667 
L 473.845444 299.860872 
L 474.142527 305.277402 
L 474.736839 356.629613 
L 475.330562 425.980691 
L 475.925255 461.242946 
L 476.222144 471.323214 
L 476.519172 474.849478 
L 476.816026 464.797075 
L 477.410261 414.696573 
L 478.004738 357.435274 
L 478.598679 316.606789 
L 479.490261 282.872587 
L 480.084011 275.369235 
L 480.381158 279.530242 
L 480.975138 295.045225 
L 481.86663 336.666332 
L 482.460551 388.102545 
L 483.055179 450.665066 
L 483.352372 470.610571 
L 483.649282 474.692621 
L 483.946319 466.376608 
L 484.540291 435.057031 
L 485.134344 373.295545 
L 485.728788 301.319888 
L 486.026134 281.476094 
L 486.323011 272.221745 
L 486.62026 274.433161 
L 486.916905 266.648099 
L 487.511543 243.999431 
L 487.808259 235.647562 
L 488.105176 237.433726 
L 488.996728 265.841802 
L 489.294035 266.361168 
L 489.590708 265.993449 
L 489.888025 280.967566 
L 490.482151 337.582897 
L 491.076188 399.240142 
L 491.670449 435.524378 
L 492.264384 480.094698 
L 492.561443 477.697955 
L 495.235374 211.948476 
L 496.423763 162.729491 
L 496.720974 161.263537 
L 497.315285 183.044048 
L 497.61208 175.717625 
L 498.206106 135.080848 
L 498.503483 124.463695 
L 498.800585 121.659238 
L 499.097743 125.913847 
L 499.394469 139.025768 
L 499.988762 181.182525 
L 500.286002 178.04051 
L 500.880121 144.549911 
L 501.177007 141.591743 
L 501.474227 148.078654 
L 502.365325 182.965569 
L 502.662758 190.818939 
L 502.959522 205.185827 
L 504.445085 319.59478 
L 505.336151 447.044623 
L 505.633685 457.575614 
L 506.227862 459.533735 
L 506.524633 445.875896 
L 506.82151 407.315055 
L 507.71312 259.359299 
L 508.901511 177.24244 
L 509.198655 159.256321 
L 509.4958 152.313771 
L 509.792645 151.88006 
L 510.089697 155.54747 
L 510.386854 161.449973 
L 510.683705 158.442058 
L 511.27795 143.242083 
L 511.575331 140.524422 
L 511.872508 141.227733 
L 512.46635 145.043792 
L 512.763566 143.565595 
L 513.060273 143.783405 
L 513.357367 144.214803 
L 513.951943 154.009878 
L 514.249112 154.103144 
L 514.843151 143.753286 
L 515.140005 143.363762 
L 515.437116 148.078865 
L 516.625735 190.446531 
L 516.922385 194.462998 
L 517.219472 208.558903 
L 517.517006 235.082238 
L 518.11091 335.230387 
L 518.705287 451.622709 
L 519.002475 483.589206 
L 519.299319 485.43759 
L 519.596658 455.235368 
L 520.487566 328.354089 
L 521.081883 247.312311 
L 521.675806 164.77648 
L 521.973119 143.706572 
L 522.270112 133.454001 
L 522.566988 136.205444 
L 523.458693 174.541604 
L 523.755376 177.107492 
L 524.052666 187.326121 
L 524.34987 214.333937 
L 524.943804 325.730248 
L 525.537987 443.776767 
L 525.835375 467.034627 
L 526.132297 461.415448 
L 526.726441 416.727297 
L 527.023848 383.815179 
L 528.212072 182.756835 
L 528.509067 161.287649 
L 528.805976 156.825661 
L 529.103315 158.160358 
L 529.400355 158.405699 
L 529.697499 153.227818 
L 529.994378 150.695165 
L 530.291378 159.921943 
L 530.588655 184.042847 
L 531.182789 276.907046 
L 531.777184 377.512318 
L 532.371281 450.387845 
L 532.668276 471.82331 
L 532.965477 466.011813 
L 533.262452 429.555112 
L 534.450721 206.443605 
L 535.044959 164.437154 
L 535.638897 147.294807 
L 535.936136 147.058033 
L 536.233224 161.387245 
L 536.530369 189.71439 
L 537.421637 323.813881 
L 538.312976 464.078526 
L 538.610156 476.983865 
L 538.906688 456.434695 
L 539.50127 346.669713 
L 540.095255 237.285302 
L 540.689226 174.413965 
L 540.986676 156.190598 
L 541.28382 148.445671 
L 541.580533 151.359636 
L 541.8778 167.563026 
L 542.471873 229.143192 
L 543.06633 320.294265 
L 543.660328 443.654968 
L 543.957247 479.374848 
L 544.254712 474.016424 
L 544.551448 430.805707 
L 545.44295 243.769032 
L 546.037082 172.042454 
L 546.334162 153.32274 
L 546.631021 144.727674 
L 546.928002 147.721313 
L 547.2256 164.678632 
L 547.522543 199.019935 
L 548.116718 314.159397 
L 548.710798 428.64517 
L 549.007911 454.061586 
L 549.305097 454.2419 
L 549.601989 436.040539 
L 549.899357 400.240894 
L 550.493455 282.297267 
L 551.087292 175.117944 
L 551.384795 150.515192 
L 551.681447 145.313888 
L 551.978789 155.79169 
L 552.275728 177.948102 
L 552.573108 212.859623 
L 553.167027 327.093515 
L 553.761297 457.353221 
L 554.05821 480.394668 
L 554.355646 454.339636 
L 555.543814 197.638522 
L 555.840718 164.817589 
L 556.137973 151.562688 
L 556.434778 158.303492 
L 556.732322 181.236551 
L 557.326452 253.554371 
L 557.920145 361.288063 
L 558.514561 469.596061 
L 558.811586 471.349911 
L 559.10847 420.165955 
L 560.000056 185.166905 
L 560.296818 156.387784 
L 560.594388 156.445056 
L 560.891464 172.810214 
L 561.188452 197.934312 
L 561.485345 239.065964 
L 562.673448 469.634315 
L 562.970949 447.781941 
L 564.159282 205.627055 
L 564.456253 181.820383 
L 564.753384 167.357957 
L 565.050376 165.370786 
L 565.347471 189.682314 
L 565.64458 246.675276 
L 566.536101 462.502123 
L 566.832666 463.670457 
L 567.130031 417.203687 
L 568.021099 219.647908 
L 568.318157 177.848942 
L 568.615619 155.414363 
L 568.912538 160.677129 
L 569.209404 197.544966 
L 569.804052 338.791378 
L 570.397661 462.239172 
L 570.695153 460.792349 
L 570.991892 406.297211 
L 571.586051 237.097507 
L 571.883361 181.159762 
L 572.18051 160.931963 
L 572.477239 172.887692 
L 573.07144 250.358988 
L 573.666062 371.984593 
L 573.96294 435.606134 
L 574.26031 461.484975 
L 574.557157 428.61493 
L 575.448259 204.482834 
L 575.745491 172.124878 
L 576.042421 167.255117 
L 576.339864 190.713796 
L 576.933968 314.731865 
L 577.527789 442.730638 
L 577.825347 452.742595 
L 578.122337 407.805801 
L 579.013597 189.278233 
L 579.310678 172.215023 
L 579.607425 185.910572 
L 579.90456 219.45632 
L 580.499079 345.569449 
L 580.795912 420.20803 
L 581.093237 457.025771 
L 581.390138 428.284455 
L 582.281385 207.92391 
L 582.578378 174.247646 
L 582.875603 173.986525 
L 583.172857 213.900406 
L 584.063577 432.123106 
L 584.361082 445.004693 
L 584.657848 406.476264 
L 585.549268 187.40262 
L 585.846296 164.961737 
L 586.143413 192.800418 
L 587.331804 438.168867 
L 587.62867 426.921715 
L 587.926017 364.058182 
L 588.520134 202.06531 
L 588.817234 175.207201 
L 589.114501 192.140532 
L 589.411098 242.290634 
L 590.302372 439.738349 
L 590.599492 428.952314 
L 591.788301 185.236074 
L 592.084913 193.025767 
L 592.382472 238.242651 
L 593.273344 438.050035 
L 593.570287 421.064256 
L 594.462027 209.209648 
L 594.758764 180.773053 
L 595.055723 197.884142 
L 595.353078 260.97251 
L 595.946933 417.227625 
L 596.244513 432.74098 
L 596.541578 393.834207 
L 597.432746 189.302904 
L 597.729931 185.234086 
L 598.026702 234.893432 
L 598.620822 388.048564 
L 598.918088 429.684731 
L 599.215145 416.868669 
L 600.106346 200.429458 
L 600.403771 187.746369 
L 600.700842 221.892039 
L 601.592046 424.860236 
L 601.888634 420.915627 
L 603.077295 191.57368 
L 603.374371 214.024504 
L 604.265577 420.815084 
L 604.562476 418.205653 
L 604.860021 361.27327 
L 605.453803 213.390924 
L 605.751187 189.963436 
L 606.048386 220.885772 
L 606.939549 421.976948 
L 607.236601 411.36739 
L 608.127401 205.952511 
L 608.424567 197.24544 
L 608.721656 238.561213 
L 609.315754 388.911338 
L 609.612885 422.933568 
L 609.9102 392.880987 
L 610.504307 243.662107 
L 610.801224 201.490953 
L 611.098434 208.17753 
L 611.39566 265.003245 
L 611.989989 407.814892 
L 612.286604 414.551093 
L 612.58404 364.24032 
L 613.178195 219.830381 
L 613.475071 199.272657 
L 613.772068 233.476826 
L 614.366649 380.963577 
L 614.663752 417.258233 
L 614.960454 391.643635 
L 615.554731 243.954132 
L 615.852163 204.386186 
L 616.149227 216.453707 
L 617.040234 409.337375 
L 617.337486 404.360199 
L 618.228392 214.740586 
L 618.525635 208.980426 
L 618.822846 257.059922 
L 619.41717 396.816672 
L 619.714259 408.43473 
L 620.011054 362.943335 
L 620.605306 224.483565 
L 620.902575 208.736553 
L 621.199575 246.223334 
L 621.793479 385.466431 
L 622.090619 409.007756 
L 622.387851 371.630457 
L 622.981907 233.932804 
L 623.278784 210.8303 
L 623.575846 239.774601 
L 624.170237 378.410783 
L 624.467244 406.508661 
L 624.764513 375.089917 
L 625.358675 239.037592 
L 625.655455 212.672667 
L 625.953013 239.674934 
L 626.546913 373.908892 
L 626.843951 404.130505 
L 627.141028 374.892075 
L 627.735225 241.055934 
L 628.032552 216.162522 
L 628.32961 241.90837 
L 628.923431 374.304687 
L 629.220973 401.499933 
L 629.517511 370.19027 
L 630.111755 240.518511 
L 630.408985 218.137682 
L 630.706073 247.837744 
L 631.300445 376.573475 
L 631.597446 398.276219 
L 631.894484 363.234653 
L 632.48873 237.013117 
L 632.785893 222.314453 
L 633.083009 256.642636 
L 633.676732 381.407324 
L 633.974311 394.035796 
L 634.271376 351.860357 
L 634.865038 233.323936 
L 635.162213 226.781067 
L 635.459316 268.912711 
L 636.053525 385.821692 
L 636.350567 387.191595 
L 637.241774 229.487325 
L 637.538922 235.308414 
L 638.430225 389.480035 
L 638.727289 376.631637 
L 639.618529 228.233138 
L 639.915688 246.799674 
L 640.50982 364.203237 
L 640.806901 388.854182 
L 641.103935 361.723469 
L 641.698208 246.181653 
L 641.995162 231.16426 
L 642.29225 263.667589 
L 642.886473 376.010771 
L 643.183535 383.365834 
L 643.480564 341.689291 
L 644.074753 237.829699 
L 644.37183 239.475736 
L 645.262996 382.647136 
L 645.560675 370.639054 
L 646.154828 260.81817 
L 646.451919 234.788063 
L 646.74895 255.057307 
L 647.343113 363.762877 
L 647.640146 382.095224 
L 647.937196 351.082855 
L 648.531291 246.763281 
L 648.82839 239.772804 
L 649.125455 276.52005 
L 649.719573 375.713376 
L 650.016587 371.969242 
L 650.90782 239.766033 
L 651.204871 253.770684 
L 651.798986 356.448361 
L 652.096044 378.31372 
L 652.393048 352.86915 
L 652.987728 252.436382 
L 653.284802 242.896437 
L 653.581925 275.730288 
L 654.175966 371.029038 
L 654.472998 369.260327 
L 655.364173 243.863262 
L 655.661198 256.846302 
L 656.255314 354.167293 
L 656.552359 374.217678 
L 656.849376 349.479037 
L 657.444031 254.759871 
L 657.741097 247.258277 
L 658.038178 280.093254 
L 658.632222 368.700222 
L 658.929235 364.034861 
L 659.820389 247.148996 
L 660.117394 262.912896 
L 660.711496 355.356057 
L 661.008508 369.905705 
L 661.306124 342.098139 
L 661.900163 254.787031 
L 662.19725 253.061875 
L 662.494286 288.295005 
L 662.791307 337.615507 
L 663.088334 367.30433 
L 663.385336 356.517606 
L 663.979394 267.894028 
L 664.27644 250.574728 
L 664.574071 272.003542 
L 665.16814 358.306428 
L 665.465137 364.147242 
L 665.762141 331.583766 
L 666.356189 254.418404 
L 666.653256 260.987848 
L 667.544898 365.121229 
L 667.841902 346.113241 
L 668.435953 263.146303 
L 668.732973 255.73838 
L 669.030007 283.981238 
L 669.624043 360.675292 
L 669.921044 355.739746 
L 670.8127 255.647353 
L 671.109732 271.913922 
L 671.703756 351.914752 
L 672.000759 360.300234 
L 672.297756 332.723557 
L 672.892402 259.900945 
L 673.189424 264.093837 
L 674.080464 360.27963 
L 674.377467 343.814855 
L 674.972064 267.554525 
L 675.269118 260.299569 
L 675.566132 286.108113 
L 676.160137 356.260719 
L 676.457138 351.376846 
L 677.348158 260.276097 
L 677.645776 276.369184 
L 678.239794 349.352682 
L 678.536796 355.265781 
L 678.83379 328.491931 
L 679.427805 263.448431 
L 679.724834 269.536954 
L 680.319434 340.39425 
L 680.616435 355.777268 
L 680.91342 337.948542 
L 681.507442 269.086973 
L 681.804447 265.809833 
L 682.102059 292.242144 
L 682.399063 330.346258 
L 682.696052 353.436997 
L 682.993045 344.802817 
L 683.587032 276.537514 
L 683.884061 264.808928 
L 684.18166 283.592452 
L 684.77566 348.726446 
L 685.072649 349.085125 
L 685.963637 266.235365 
L 686.261251 277.078224 
L 686.855249 342.376186 
L 687.152236 350.86418 
L 687.449224 329.498561 
L 688.043228 269.648134 
L 688.340838 272.686979 
L 689.231816 350.404699 
L 689.528801 336.274777 
L 690.1228 274.604453 
L 690.420396 270.373592 
L 690.717409 293.024655 
L 691.014393 326.911699 
L 691.311383 348.089646 
L 691.608372 341.189197 
L 692.202948 280.610321 
L 692.499965 269.924076 
L 692.796954 286.486645 
L 693.390944 344.230183 
L 693.687926 344.320366 
L 694.579498 271.126975 
L 694.876513 281.441773 
L 695.470491 339.278615 
L 695.767475 345.728692 
L 696.065055 325.803151 
L 696.659049 273.681028 
L 696.956048 277.892197 
L 697.550035 333.565705 
L 697.847013 345.587678 
L 698.144589 331.268019 
L 698.738571 277.341108 
L 699.035573 275.778155 
L 699.927139 344.140163 
L 700.224118 335.452109 
L 700.818097 281.800017 
L 701.115099 274.987237 
L 701.41209 292.113654 
L 702.006659 341.576063 
L 702.303637 338.400306 
L 702.89761 286.803999 
L 703.194607 275.39442 
L 703.492207 287.733827 
L 704.086169 338.157565 
L 704.383149 340.133583 
L 705.274712 276.797202 
L 705.571699 284.344116 
L 706.165674 334.09643 
L 706.462652 340.753107 
L 706.759628 324.548482 
L 707.354202 279.069598 
L 707.651202 281.961355 
L 708.542146 340.370456 
L 708.839718 328.429252 
L 709.433696 282.012298 
L 709.730682 280.540415 
L 710.622229 339.130795 
L 710.919205 331.506599 
L 711.51317 285.472342 
L 711.810166 280.017865 
L 712.107155 295.137711 
L 712.701712 337.163676 
L 712.998684 333.725924 
L 713.592651 289.287833 
L 713.889636 280.287678 
L 714.187223 291.771131 
L 714.781182 334.60881 
L 715.078158 335.135992 
L 715.969704 281.262718 
L 716.266694 289.054712 
L 716.860652 331.616825 
L 717.157625 335.768245 
L 717.454598 320.625766 
L 718.049165 282.829701 
L 718.346152 287.036026 
L 718.940113 328.298867 
L 719.237683 335.710335 
L 719.534655 323.773276 
L 720.128623 284.897729 
L 720.425612 285.682668 
L 721.317141 335.036398 
L 721.614114 326.385232 
L 722.208079 287.349589 
L 722.505064 284.961871 
L 722.802648 299.801363 
L 723.099621 321.2391 
L 723.396596 333.830838 
L 723.693568 328.416299 
L 724.288122 290.077104 
L 724.585112 284.8234 
L 724.882094 296.88956 
L 725.476041 332.171809 
L 725.773017 329.872004 
L 726.367569 293.022004 
L 726.664552 285.194553 
L 726.96154 294.457881 
L 727.555491 330.150661 
L 727.853055 330.76882 
L 728.743997 286.028387 
L 729.040976 292.498386 
L 729.635526 327.867105 
L 729.932498 331.173382 
L 730.229469 318.470064 
L 730.526449 299.192268 
L 730.82343 287.256649 
L 731.121013 291.042759 
L 731.714966 325.361417 
L 732.011935 331.112959 
L 732.308909 320.858852 
L 732.903465 288.807789 
L 733.200445 290.00827 
L 734.09137 330.62418 
L 734.388936 322.828097 
L 734.982892 290.63713 
L 735.27988 289.411226 
L 735.576858 302.285641 
L 735.874426 320.050599 
L 736.171396 329.775996 
L 736.468369 324.424079 
L 737.062323 292.679369 
L 737.359304 289.212624 
L 737.656881 300.046476 
L 738.250824 328.601339 
L 738.547794 325.631545 
L 739.142341 294.845707 
L 739.439324 289.392017 
L 739.736303 298.094585 
L 740.33025 327.164631 
L 740.627218 326.454942 
L 741.518743 289.890377 
L 741.815723 296.47454 
L 742.410266 325.524523 
L 742.707235 326.90718 
L 743.004207 315.373756 
L 743.301181 299.471762 
L 743.598164 290.687102 
L 743.895144 295.183429 
L 744.489686 323.709416 
L 744.786655 327.035391 
L 745.083624 317.329316 
L 745.678175 291.726268 
L 745.975154 294.232017 
L 746.5691 321.770121 
L 746.86607 326.855203 
L 747.163636 318.989263 
L 747.163636 318.989263 
" clip-path="url(#pd388a4e99d)" style="fill: none; stroke: #ff0000; stroke-opacity: 0.3; stroke-width: 1.5; stroke-linecap: square"/>
   </g>
   <g id="line2d_16">
    <path d="M 138.436364 322.38 
L 153.290603 322.379839 
L 153.290603 322.379839 
L 153.587722 324.611897 
L 154.776597 143.805843 
L 155.073255 138.652062 
L 155.370664 166.661023 
L 155.667799 257.058465 
L 155.964463 395.262545 
L 156.261512 462.829262 
L 156.856043 418.825215 
L 157.153189 445.300182 
L 157.450254 498.277236 
L 157.747006 520.237716 
L 158.341406 489.198765 
L 158.638626 498.357838 
L 159.232897 536.146324 
L 159.529909 538.1106 
L 159.826905 534.580245 
L 160.420949 522.421719 
L 160.717963 516.3818 
L 161.014986 515.053987 
L 161.311995 518.145027 
L 161.906632 525.92115 
L 162.203666 527.360523 
L 162.500708 526.739551 
L 163.094799 523.421258 
L 163.391862 522.941937 
L 163.68891 523.411785 
L 164.282992 524.595879 
L 164.580038 524.589697 
L 165.174115 523.62178 
L 165.768228 522.815246 
L 166.065292 522.644301 
L 166.362353 522.331387 
L 166.659431 521.523363 
L 166.956514 519.86226 
L 167.253613 516.891706 
L 167.550726 511.73694 
L 167.848319 502.440446 
L 168.14536 485.046963 
L 168.739495 417.078944 
L 169.036181 413.503897 
L 169.630583 472.665175 
L 169.927455 472.645062 
L 170.818971 417.884029 
L 171.413075 455.587576 
L 171.710403 455.567807 
L 172.304379 424.952279 
L 172.60114 425.962155 
L 173.195608 450.631075 
L 173.492763 446.618695 
L 174.086707 427.950587 
L 174.384109 433.143569 
L 174.681294 443.040632 
L 174.978173 446.460233 
L 175.275072 441.261784 
L 175.572493 433.637268 
L 175.86942 431.9416 
L 176.463534 442.684249 
L 176.760634 442.682537 
L 177.354516 433.955318 
L 177.651863 434.772712 
L 177.948741 438.826539 
L 178.246193 441.253311 
L 178.542889 439.702627 
L 178.840074 436.310431 
L 179.13711 434.855431 
L 179.434077 436.571296 
L 179.731413 439.13021 
L 180.028374 439.68334 
L 180.622911 435.912145 
L 180.919589 435.891486 
L 181.514092 438.817579 
L 181.810864 438.447275 
L 182.108024 436.99389 
L 182.405038 436.163948 
L 182.702267 436.756071 
L 182.99911 437.925657 
L 183.29625 438.357633 
L 183.890335 436.81228 
L 184.187712 436.699221 
L 184.781741 438.066602 
L 185.078994 438.033556 
L 185.673304 437.07248 
L 185.970042 437.300108 
L 186.267043 437.864359 
L 186.564241 438.156511 
L 186.8616 437.961193 
L 187.158382 437.609307 
L 187.455621 437.555702 
L 188.05003 438.254679 
L 188.346658 438.334483 
L 188.941106 438.019668 
L 189.237976 438.147794 
L 189.832283 438.666522 
L 190.723596 438.602887 
L 191.615101 439.168348 
L 192.209066 439.183324 
L 192.803105 439.506918 
L 193.397143 439.794656 
L 193.991619 439.929234 
L 196.962631 441.465117 
L 197.853353 441.981879 
L 202.606866 445.176024 
L 207.954421 449.511438 
L 211.816428 452.620105 
L 214.490339 454.508702 
L 216.866785 455.92195 
L 219.24378 457.065215 
L 221.620334 457.953621 
L 224.294149 458.69365 
L 227.264804 459.263459 
L 230.830187 459.699316 
L 235.286257 460.005534 
L 241.822376 460.206996 
L 253.705566 460.305533 
L 300.050753 460.324309 
L 450.375381 460.324376 
L 450.375381 460.324376 
L 450.67289 455.865643 
L 450.969674 468.219686 
L 451.267151 464.70294 
L 451.563907 447.644165 
L 451.861323 447.787521 
L 452.158066 465.458483 
L 452.454987 465.685646 
L 452.752413 440.359292 
L 453.34623 371.292552 
L 453.94072 351.082452 
L 454.831736 230.587842 
L 455.128914 218.077345 
L 455.426124 219.340817 
L 455.723341 201.939904 
L 456.317185 147.188271 
L 456.614668 135.494857 
L 456.911778 143.728855 
L 457.505577 175.561967 
L 457.802844 178.553214 
L 458.100093 165.402289 
L 458.397178 143.358551 
L 458.693771 130.971121 
L 458.991046 127.05391 
L 459.288012 125.419203 
L 459.585355 125.723637 
L 459.88256 142.684761 
L 460.476777 196.627574 
L 461.070477 231.246485 
L 461.664884 325.186652 
L 462.259224 439.058103 
L 462.556337 471.166194 
L 462.853122 487.222213 
L 463.150156 485.567528 
L 463.447121 476.609085 
L 463.744309 477.565756 
L 464.041559 487.111155 
L 464.338424 502.375744 
L 464.635976 509.577056 
L 464.933005 509.211447 
L 465.230176 501.326544 
L 465.527197 485.910672 
L 465.823961 477.326318 
L 466.121334 480.893649 
L 466.71526 505.793859 
L 467.012611 502.413782 
L 467.309383 485.20094 
L 467.903926 415.442272 
L 469.686115 169.639817 
L 469.983518 150.878637 
L 470.280063 147.26219 
L 470.874533 170.407385 
L 471.171854 170.778134 
L 471.765536 145.349996 
L 472.063144 136.549814 
L 472.360165 135.822547 
L 472.657323 140.739265 
L 473.548136 172.278477 
L 473.845444 166.502227 
L 474.439381 141.618496 
L 474.736839 144.266307 
L 475.033943 157.937652 
L 475.628027 221.917288 
L 477.410261 459.553245 
L 477.707756 476.598684 
L 478.004738 486.658875 
L 478.301434 491.415467 
L 478.598679 492.970783 
L 478.895716 491.635211 
L 479.490261 486.568201 
L 480.084011 491.361283 
L 480.381158 495.066649 
L 480.678467 497.27599 
L 480.975138 494.86721 
L 481.5693 485.899708 
L 482.163475 482.924818 
L 482.460551 477.703982 
L 482.757786 463.203108 
L 483.055179 433.596439 
L 483.649282 339.573449 
L 484.243418 252.655886 
L 485.134344 153.266611 
L 485.431693 139.251397 
L 485.728788 140.703962 
L 486.62026 177.485178 
L 486.916905 173.801081 
L 487.511543 151.424346 
L 487.808259 149.1799 
L 488.105176 151.469824 
L 488.402778 159.09009 
L 488.699449 173.725404 
L 488.996728 180.598484 
L 489.294035 174.14853 
L 489.888025 142.441386 
L 490.184818 134.455244 
L 490.482151 137.528094 
L 490.779081 155.054116 
L 491.967721 261.943605 
L 493.155865 448.121785 
L 493.453155 455.131885 
L 493.749951 465.526776 
L 494.344054 498.159218 
L 494.64102 498.308754 
L 494.938164 484.286951 
L 495.532744 439.208666 
L 495.829721 425.442898 
L 496.720974 403.727169 
L 497.315285 383.24243 
L 497.61208 380.997174 
L 497.909232 386.271302 
L 498.206106 389.140165 
L 498.503483 388.329503 
L 499.097743 383.300236 
L 499.691592 373.803794 
L 499.988762 368.131199 
L 500.286002 370.336034 
L 500.880121 386.104793 
L 501.474227 396.887827 
L 501.771229 401.399314 
L 502.068486 411.294856 
L 503.256793 473.344453 
L 503.554093 470.954458 
L 503.850915 463.381103 
L 504.14784 464.636715 
L 504.445085 477.787531 
L 504.742153 480.996863 
L 505.039442 455.869356 
L 506.82151 176.131175 
L 507.118897 152.753211 
L 507.415924 157.785654 
L 508.010017 186.953774 
L 508.604527 198.06634 
L 509.198655 224.889394 
L 510.089697 274.268163 
L 510.683705 282.207329 
L 510.981115 285.414022 
L 511.27795 290.900957 
L 511.872508 309.471939 
L 512.169161 314.77599 
L 512.46635 317.681424 
L 512.763566 318.317752 
L 513.654634 341.138104 
L 513.951943 349.087377 
L 514.545697 355.328944 
L 515.140005 376.400907 
L 515.734089 401.659474 
L 516.328467 412.47637 
L 516.625735 419.892079 
L 516.922385 435.871271 
L 517.813728 503.077258 
L 518.11091 504.915769 
L 518.408212 485.580012 
L 518.705287 439.88553 
L 519.893476 200.903961 
L 520.190463 182.58901 
L 520.784954 168.270654 
L 521.081883 170.468912 
L 521.379226 184.540135 
L 521.973119 247.322456 
L 522.864155 345.002035 
L 523.755376 408.242049 
L 524.64667 500.173545 
L 524.943804 506.088931 
L 525.241159 483.052309 
L 525.835375 370.218403 
L 526.429679 265.794962 
L 527.32085 154.999799 
L 527.617611 148.801384 
L 527.914995 166.707866 
L 529.400355 319.034098 
L 529.697499 339.988635 
L 530.291378 409.793178 
L 530.885641 477.395258 
L 531.182789 487.926051 
L 531.479696 477.99665 
L 532.074192 425.297131 
L 532.371281 386.621266 
L 533.559367 156.0382 
L 533.856674 146.05129 
L 534.153667 159.158248 
L 534.747979 223.551085 
L 536.827636 467.987364 
L 537.124137 476.57716 
L 537.421637 473.966973 
L 537.718604 461.601314 
L 538.015885 433.986599 
L 538.610156 309.265505 
L 539.204214 183.694781 
L 539.50127 156.203029 
L 539.798233 155.128427 
L 540.095255 172.20518 
L 540.689226 236.988295 
L 542.174857 429.583192 
L 542.769106 474.11256 
L 543.06633 482.912845 
L 543.362995 471.762807 
L 543.660328 428.096958 
L 544.551448 200.708347 
L 544.84865 161.913296 
L 545.145637 153.960865 
L 545.44295 169.334422 
L 546.037082 234.469498 
L 546.928002 363.862344 
L 547.522543 452.418858 
L 547.819369 481.904774 
L 548.116718 490.12275 
L 548.413516 468.730749 
L 549.007911 362.364262 
L 549.899357 202.537749 
L 550.196233 168.776015 
L 550.493455 159.182412 
L 550.790358 178.964186 
L 551.384795 271.649577 
L 552.275728 415.242778 
L 552.869888 479.363373 
L 553.167027 487.980811 
L 553.463895 465.405298 
L 553.761297 405.692617 
L 554.652437 175.155142 
L 554.949599 157.325759 
L 555.24687 171.161965 
L 555.840718 250.386444 
L 556.732322 397.633418 
L 557.326452 454.584494 
L 557.623201 469.184423 
L 557.920145 466.010203 
L 558.217418 432.950768 
L 558.811586 270.914389 
L 559.10847 190.068645 
L 559.405818 150.79093 
L 559.703131 161.745563 
L 560.296818 271.968873 
L 560.891464 379.232423 
L 561.485345 458.586295 
L 561.782391 479.626539 
L 562.079467 467.290531 
L 562.376579 412.280785 
L 563.267956 187.550104 
L 563.564693 169.322638 
L 563.862319 185.759574 
L 564.753384 312.03489 
L 565.64458 471.927992 
L 565.941796 484.890384 
L 566.238642 451.387184 
L 567.427375 174.300528 
L 567.724447 174.921652 
L 568.021099 202.044448 
L 568.615619 306.66955 
L 569.209404 433.760178 
L 569.506714 471.341505 
L 569.804052 474.852246 
L 570.100833 439.384993 
L 571.289195 161.502286 
L 571.586051 180.483521 
L 572.18051 301.880473 
L 572.774431 410.776517 
L 573.07144 440.99703 
L 573.368906 457.276233 
L 573.666062 449.631582 
L 573.96294 399.925312 
L 574.557157 224.242041 
L 574.853961 174.89709 
L 575.151238 179.578071 
L 575.448259 220.527602 
L 576.63698 449.944333 
L 576.933968 465.611259 
L 577.2308 441.75247 
L 577.527789 378.529608 
L 578.122337 210.802814 
L 578.419507 174.377428 
L 578.716144 190.461749 
L 580.201789 452.18908 
L 580.499079 457.138412 
L 580.795912 415.906632 
L 581.687166 184.239761 
L 581.984211 186.264461 
L 582.281385 227.528092 
L 583.469452 462.412052 
L 583.766826 448.49763 
L 584.063577 386.748044 
L 584.657848 225.453884 
L 584.954946 185.230639 
L 585.251946 192.533118 
L 585.549268 246.12569 
L 586.143413 404.205394 
L 586.440759 450.399615 
L 586.737379 452.28425 
L 587.034889 412.372703 
L 587.926017 195.883449 
L 588.222736 186.629888 
L 588.520134 234.396902 
L 589.411098 433.1057 
L 589.708368 452.533562 
L 590.005287 426.806935 
L 590.896659 200.025813 
L 591.19391 196.03274 
L 591.490847 237.401071 
L 592.382472 428.19607 
L 592.679215 451.696006 
L 592.976277 422.015305 
L 593.867632 201.999896 
L 594.164972 200.26242 
L 594.462027 242.943947 
L 595.353078 444.623012 
L 595.650294 446.377967 
L 595.946933 390.812103 
L 596.541578 233.422196 
L 596.838585 199.069793 
L 597.135551 214.281837 
L 597.729931 358.856478 
L 598.026702 425.060446 
L 598.323982 445.798573 
L 598.620822 415.688133 
L 599.512242 202.245739 
L 599.80904 204.74506 
L 600.106346 260.630738 
L 600.700842 404.687498 
L 600.997507 440.803506 
L 601.295037 428.086902 
L 602.185968 212.660752 
L 602.483273 208.746462 
L 602.780159 251.983959 
L 603.671695 439.702332 
L 603.968406 428.616498 
L 604.860021 217.531113 
L 605.156673 207.518034 
L 605.453803 251.100501 
L 606.048386 402.236506 
L 606.344935 438.780637 
L 606.642499 419.54531 
L 607.533405 211.874214 
L 607.830623 214.870066 
L 608.127401 270.307745 
L 608.721656 411.964434 
L 609.018932 435.798641 
L 609.315754 403.604174 
L 609.9102 246.832782 
L 610.207284 210.571559 
L 610.504307 231.97691 
L 611.39566 425.374293 
L 611.692423 427.763063 
L 611.989989 373.490367 
L 612.58404 227.429991 
L 612.881069 214.513688 
L 613.178195 257.84483 
L 613.772068 401.983195 
L 614.069567 430.790589 
L 614.366649 403.828337 
L 614.960454 252.492062 
L 615.257579 214.469216 
L 615.554731 236.680252 
L 616.44632 423.588272 
L 616.743236 418.816821 
L 617.634613 223.961379 
L 617.931639 226.033578 
L 618.228392 278.578372 
L 618.822846 412.838575 
L 619.119595 422.816453 
L 619.41717 376.701331 
L 620.011054 235.454979 
L 620.308073 222.2097 
L 620.605306 265.64889 
L 621.199575 401.239942 
L 621.496356 422.172195 
L 621.793479 387.819942 
L 622.387851 244.721365 
L 622.684823 223.50289 
L 622.981907 258.624645 
L 623.575846 392.970994 
L 623.873049 420.713526 
L 624.170237 391.708988 
L 624.764513 251.941104 
L 625.061542 225.472946 
L 625.358675 255.553899 
L 625.953013 388.859159 
L 626.249614 417.40114 
L 626.546913 391.721509 
L 627.141028 254.362697 
L 627.438189 228.018413 
L 627.735225 257.884509 
L 628.32961 387.0645 
L 628.626778 415.462269 
L 628.923431 388.344176 
L 629.517511 254.366974 
L 629.81466 231.204867 
L 630.111755 261.952718 
L 630.706073 389.579182 
L 631.003156 412.3318 
L 631.300445 381.271745 
L 631.894484 251.259215 
L 632.191691 234.319929 
L 632.48873 270.70213 
L 633.083009 392.88574 
L 633.380148 409.117328 
L 633.676732 371.615241 
L 634.271376 247.290751 
L 634.567949 239.669835 
L 634.865038 281.294388 
L 635.459316 398.106364 
L 635.756333 403.156268 
L 636.053525 357.878327 
L 636.647625 243.157427 
L 636.944741 247.011277 
L 637.836081 401.554681 
L 638.133122 394.583618 
L 639.024374 241.582935 
L 639.321489 258.502297 
L 639.915688 374.233792 
L 640.212805 402.919861 
L 640.50982 380.769993 
L 641.103935 262.385379 
L 641.401023 243.278142 
L 641.698208 274.309181 
L 642.29225 386.110333 
L 642.589405 399.179138 
L 642.886473 362.672639 
L 643.480564 252.23125 
L 643.777599 251.222421 
L 644.074753 294.213722 
L 644.668921 394.668841 
L 644.965969 388.95048 
L 645.857747 247.790603 
L 646.154828 265.219502 
L 646.74895 373.009304 
L 647.046042 396.182188 
L 647.343113 371.779248 
L 647.937196 262.655716 
L 648.234234 251.490025 
L 648.531291 285.687274 
L 649.125455 386.663779 
L 649.422548 389.315971 
L 649.719573 347.829308 
L 650.016587 289.367839 
L 650.313656 253.703202 
L 650.610753 263.599577 
L 651.501898 391.765449 
L 651.798986 373.149834 
L 652.393048 269.13835 
L 652.690698 254.742846 
L 652.987728 284.355707 
L 653.581925 381.45464 
L 653.878942 386.445604 
L 654.175966 348.437894 
L 654.770025 257.99941 
L 655.067115 266.438444 
L 655.958263 387.720052 
L 656.255314 369.870493 
L 656.849376 271.55732 
L 657.14698 258.848061 
L 657.444031 288.154411 
L 658.038178 379.302816 
L 658.335212 381.634667 
L 658.632222 343.82838 
L 658.929235 291.529237 
L 659.226258 260.86767 
L 659.523317 272.045828 
L 660.117394 363.732893 
L 660.414444 384.148663 
L 660.711496 363.068436 
L 661.306124 271.021006 
L 661.60314 263.945546 
L 661.900163 295.762228 
L 662.494286 378.81379 
L 662.791307 374.978935 
L 663.682345 263.416462 
L 663.979394 280.311507 
L 664.574071 367.35819 
L 664.871106 379.847598 
L 665.16814 352.980419 
L 665.762141 269.526293 
L 666.059162 270.890788 
L 666.950282 378.116429 
L 667.247281 365.844315 
L 667.841902 280.570795 
L 668.138908 267.26143 
L 668.435953 291.573858 
L 669.030007 371.132984 
L 669.32704 373.25408 
L 670.21864 269.182026 
L 670.515646 280.625743 
L 671.109732 360.657255 
L 671.406743 375.318027 
L 671.703756 353.49747 
L 672.297756 275.518885 
L 672.59537 274.095866 
L 673.48645 372.911463 
L 673.783465 363.126676 
L 674.377467 285.046311 
L 674.674469 271.997358 
L 674.972064 293.665997 
L 675.566132 366.91833 
L 675.863128 368.693211 
L 676.754128 273.679814 
L 677.051152 284.874733 
L 677.645776 358.325446 
L 677.942804 370.538437 
L 678.239794 349.097339 
L 678.83379 278.620522 
L 679.130783 279.365208 
L 680.022432 369.008637 
L 680.319434 357.312815 
L 680.91342 285.903756 
L 681.210424 276.980756 
L 681.507442 299.609296 
L 682.102059 364.850337 
L 682.399063 362.654984 
L 683.290038 277.507497 
L 683.587032 291.727195 
L 684.18166 358.67521 
L 684.478657 365.188934 
L 684.77566 341.568818 
L 685.369633 280.400853 
L 685.666641 286.230486 
L 686.261251 351.121064 
L 686.558263 365.28764 
L 686.855249 349.21088 
L 687.449224 285.257074 
L 687.746213 282.9893 
L 688.043228 308.109402 
L 688.340838 342.889136 
L 688.637832 363.194469 
L 688.934829 354.865927 
L 689.528801 291.484098 
L 689.825794 281.901437 
L 690.1228 300.75115 
L 690.717409 359.455312 
L 691.014393 358.494189 
L 691.905355 282.724465 
L 692.202948 294.971282 
L 692.796954 354.409671 
L 693.093956 360.20906 
L 693.390944 339.162122 
L 693.98491 285.165457 
L 694.282505 290.790589 
L 694.876513 348.495589 
L 695.173507 360.255693 
L 695.470491 345.105555 
L 696.065055 288.877109 
L 696.362043 288.173916 
L 697.253043 358.789652 
L 697.550035 349.693718 
L 698.144589 293.56911 
L 698.441582 287.078975 
L 698.738571 305.499984 
L 699.332576 356.153574 
L 699.629557 352.858645 
L 700.224118 298.948173 
L 700.521098 287.298325 
L 700.818097 300.633071 
L 701.41209 352.545453 
L 701.709682 354.682167 
L 702.006659 333.680886 
L 702.303637 304.665342 
L 702.600621 288.722627 
L 702.89761 296.875052 
L 703.492207 348.305835 
L 703.789188 355.312323 
L 704.086169 338.773636 
L 704.680128 291.100687 
L 704.977115 294.226202 
L 705.868694 354.857953 
L 706.165674 342.946289 
L 706.759628 294.268828 
L 707.057213 292.676765 
L 707.948185 353.466774 
L 708.245171 346.144711 
L 708.839718 297.985235 
L 709.136699 292.06614 
L 709.433696 307.741301 
L 710.027673 351.300715 
L 710.324657 348.416394 
L 710.919205 302.1257 
L 711.216185 292.369411 
L 711.51317 304.090504 
L 712.107155 348.528221 
L 712.404733 349.751802 
L 713.29566 293.440064 
L 713.592651 301.221887 
L 714.187223 345.307239 
L 714.484207 350.309124 
L 714.781182 335.21313 
L 715.375134 295.189454 
L 715.672114 299.099455 
L 716.266694 341.758752 
L 716.563671 350.097997 
L 716.860652 338.521037 
L 717.454598 297.468993 
L 717.752177 297.740209 
L 718.64314 349.246506 
L 718.940113 341.175375 
L 719.534655 300.165844 
L 719.831636 297.030125 
L 720.128623 312.007151 
L 720.425612 334.18344 
L 720.722592 347.823725 
L 721.020172 343.154119 
L 721.614114 303.178215 
L 721.911092 296.962128 
L 722.208079 308.981702 
L 722.802648 345.962169 
L 723.099621 344.546219 
L 723.990544 297.458544 
L 724.288122 306.499238 
L 724.882094 343.710515 
L 725.179073 345.345644 
L 725.476041 330.398759 
L 725.773017 309.741494 
L 726.070588 298.448748 
L 726.367569 304.511423 
L 726.96154 341.186939 
L 727.258517 345.60217 
L 727.555491 333.246396 
L 728.15003 299.8682 
L 728.447011 303.02569 
L 729.040976 338.461332 
L 729.338555 345.356016 
L 729.635526 335.636075 
L 730.229469 301.640197 
L 730.526449 302.044402 
L 731.417992 344.686956 
L 731.714966 337.609038 
L 732.308909 303.696039 
L 732.606481 301.534767 
L 732.903465 314.353146 
L 733.200445 332.763127 
L 733.497427 343.627949 
L 733.7944 339.152528 
L 734.388936 305.938176 
L 734.685913 301.449534 
L 734.982892 312.025741 
L 735.576858 342.253914 
L 735.874426 340.239942 
L 736.468369 308.35322 
L 736.765342 301.750631 
L 737.062323 310.059494 
L 737.656881 340.624219 
L 737.953855 340.949117 
L 738.844768 302.413798 
L 739.142341 308.472088 
L 739.736303 338.779656 
L 740.033279 341.269233 
L 740.33025 330.08239 
L 740.627218 313.382686 
L 740.924786 303.371204 
L 741.221765 307.21632 
L 741.815723 336.772468 
L 742.112699 341.240794 
L 742.410266 332.01476 
L 743.004207 304.601282 
L 743.301181 306.306398 
L 743.895144 334.667059 
L 744.192713 340.885098 
L 744.489686 333.675286 
L 745.083624 306.04515 
L 745.3806 305.731202 
L 746.272132 340.252721 
L 746.5691 335.03123 
L 747.163636 307.650799 
L 747.163636 307.650799 
" clip-path="url(#pd388a4e99d)" style="fill: none; stroke: #008000; stroke-opacity: 0.3; stroke-width: 1.5; stroke-linecap: square"/>
   </g>
   <g id="line2d_17">
    <path d="M 138.436364 544.366379 
L 153.290603 544.366379 
L 153.290603 544.366379 
L 153.587722 533.811181 
L 154.182162 460.578692 
L 155.073255 330.155245 
L 155.964463 146.988483 
L 156.261512 153.541252 
L 156.856043 282.820345 
L 157.450254 408.145362 
L 157.747006 421.011095 
L 158.044254 396.666046 
L 158.638626 311.937836 
L 158.935386 285.177368 
L 159.232897 281.228182 
L 159.529909 295.912934 
L 160.123926 336.594824 
L 160.420949 346.782197 
L 160.717963 348.066529 
L 161.014986 342.881933 
L 161.906632 319.902128 
L 162.203666 318.053929 
L 162.500708 319.717803 
L 163.391862 330.26028 
L 163.68891 331.595936 
L 163.985952 331.277688 
L 165.174115 326.076812 
L 165.471164 326.259534 
L 166.065292 328.190816 
L 166.659431 330.265945 
L 167.550726 332.536168 
L 168.14536 334.62223 
L 168.442178 334.549852 
L 169.036181 330.23132 
L 169.333306 327.558312 
L 169.630583 326.01169 
L 169.927455 326.14637 
L 170.52206 330.101334 
L 170.818971 330.289716 
L 171.115863 330.694936 
L 171.413075 332.289934 
L 172.304379 333.16288 
L 172.60114 332.161792 
L 173.195608 332.930656 
L 173.789877 331.431772 
L 174.086707 330.889963 
L 174.384109 330.580142 
L 174.681294 331.031764 
L 174.978173 331.171017 
L 175.572493 330.465804 
L 176.166564 330.926023 
L 176.463534 331.215339 
L 176.760634 331.235776 
L 177.057704 330.861789 
L 177.354516 330.789521 
L 177.651863 331.003485 
L 178.246193 330.992077 
L 178.840074 330.457696 
L 179.731413 330.473269 
L 180.622911 330.095723 
L 181.216964 330.210306 
L 182.405038 329.926076 
L 182.99911 329.94961 
L 184.187712 329.678183 
L 184.781741 329.635728 
L 185.673304 329.449721 
L 186.8616 329.322819 
L 189.237976 329.038744 
L 191.615101 328.793961 
L 195.179747 328.424988 
L 200.824259 327.908073 
L 208.548572 327.363979 
L 215.678432 327.086334 
L 225.482615 326.956728 
L 251.625968 326.920869 
L 450.375381 326.920211 
L 450.375381 326.920211 
L 450.67289 332.111294 
L 451.267151 348.194963 
L 452.158066 372.823595 
L 453.049368 391.077686 
L 454.237916 406.824514 
L 454.535113 405.870089 
L 455.128914 399.073825 
L 455.723341 389.031229 
L 456.317185 377.300717 
L 458.991046 302.152338 
L 459.88256 269.844017 
L 460.476777 252.606757 
L 461.070477 240.860285 
L 461.367589 237.085138 
L 461.664884 235.048959 
L 461.961689 237.031468 
L 462.259224 242.00246 
L 464.041559 286.695693 
L 465.823961 345.05476 
L 467.606355 400.849551 
L 468.201008 412.488517 
L 468.497871 414.974995 
L 468.794658 414.19415 
L 469.091851 411.905616 
L 469.38909 407.716959 
L 469.983518 392.937759 
L 471.171854 360.462915 
L 472.063144 334.578885 
L 475.330562 241.197805 
L 475.628027 234.877358 
L 476.222144 228.660214 
L 476.519172 228.61062 
L 476.816026 231.434865 
L 477.410261 242.657815 
L 478.598679 274.909118 
L 482.757786 404.838326 
L 483.352372 417.156885 
L 483.649282 419.926906 
L 483.946319 419.278141 
L 484.243418 416.423374 
L 484.540291 412.205827 
L 485.134344 398.389185 
L 486.323011 363.199299 
L 487.511543 335.0845 
L 490.482151 254.552469 
L 491.076188 236.331513 
L 491.967721 218.741102 
L 492.264384 215.085229 
L 492.561443 214.062851 
L 492.858765 216.546923 
L 493.453155 229.710361 
L 495.829721 288.193928 
L 496.720974 303.708209 
L 497.315285 309.528255 
L 498.206106 314.399683 
L 499.394469 324.018046 
L 499.988762 326.317204 
L 500.286002 327.582199 
L 500.583014 329.343164 
L 501.177007 335.682058 
L 502.068486 349.709216 
L 502.662758 361.650292 
L 503.850915 392.807263 
L 504.445085 411.245709 
L 505.039442 430.452791 
L 505.336151 436.38961 
L 505.633685 439.148512 
L 505.930336 439.657344 
L 506.227862 439.350933 
L 506.524633 437.389538 
L 506.82151 430.94275 
L 508.307204 385.172775 
L 509.4958 359.772635 
L 510.089697 352.402515 
L 511.27795 341.123423 
L 511.575331 339.664658 
L 511.872508 338.887666 
L 512.169161 339.133388 
L 512.46635 339.13901 
L 513.357367 340.898275 
L 513.951943 343.434237 
L 514.249112 344.149086 
L 514.545697 345.680293 
L 515.140005 350.610413 
L 515.734089 358.537202 
L 516.625735 376.299223 
L 517.219472 389.433711 
L 518.705287 437.158119 
L 519.002475 442.198501 
L 519.299319 442.894089 
L 519.596658 440.181475 
L 520.487566 421.550643 
L 521.081883 407.051737 
L 521.675806 394.229266 
L 522.270112 386.951772 
L 522.566988 385.982826 
L 522.864155 386.384903 
L 523.161664 387.770128 
L 523.458693 390.288333 
L 523.755376 394.093673 
L 524.34987 406.435813 
L 525.537987 440.798718 
L 525.835375 445.084339 
L 526.132297 447.755267 
L 526.429679 446.329666 
L 527.023848 436.432763 
L 527.617611 420.796297 
L 528.212072 404.999093 
L 528.509067 399.304012 
L 528.805976 396.12011 
L 529.103315 394.20538 
L 529.400355 393.576807 
L 529.697499 394.107247 
L 529.994378 395.823219 
L 530.291378 399.610492 
L 530.588655 405.176569 
L 532.371281 449.854809 
L 532.668276 450.810259 
L 532.965477 449.408297 
L 533.262452 444.748589 
L 534.747979 406.666216 
L 535.044959 402.805781 
L 535.341963 400.840411 
L 535.638897 399.81427 
L 535.936136 400.744159 
L 536.233224 404.401097 
L 536.827636 416.900247 
L 538.015885 449.368446 
L 538.312976 454.00871 
L 538.610156 454.349192 
L 538.906688 451.911049 
L 539.204214 446.548033 
L 540.689226 409.914385 
L 540.986676 406.805656 
L 541.28382 406.005475 
L 541.580533 407.091617 
L 541.8778 410.384002 
L 542.471873 421.851521 
L 543.957247 458.9954 
L 544.254712 458.242415 
L 544.84865 447.012445 
L 545.739662 423.526114 
L 546.334162 414.956688 
L 546.631021 413.780846 
L 546.928002 415.132232 
L 547.2256 418.618876 
L 547.522543 424.511252 
L 548.710798 456.32632 
L 549.007911 460.674327 
L 549.305097 462.031214 
L 549.601989 459.492632 
L 550.196233 447.731863 
L 551.087292 426.235093 
L 551.384795 422.242179 
L 551.681447 421.067923 
L 551.978789 422.260957 
L 552.275728 425.925845 
L 552.869888 440.557701 
L 553.761297 463.469611 
L 554.05821 466.291116 
L 554.355646 464.655649 
L 554.949599 449.847946 
L 555.543814 434.74094 
L 555.840718 430.088588 
L 556.137973 427.534521 
L 556.434778 427.539968 
L 556.732322 429.523333 
L 557.029327 433.891183 
L 558.514561 469.21897 
L 558.811586 469.599043 
L 559.10847 464.821937 
L 560.000056 441.872445 
L 560.296818 437.751189 
L 560.594388 436.212583 
L 560.891464 438.023313 
L 561.485345 449.318099 
L 562.376579 471.24184 
L 562.673448 474.84473 
L 562.970949 473.162189 
L 564.456253 443.403366 
L 564.753384 441.789318 
L 565.050376 443.25288 
L 565.347471 447.681436 
L 565.941796 462.418537 
L 566.536101 476.890812 
L 566.832666 477.093655 
L 567.130031 472.742266 
L 567.724447 459.374027 
L 568.318157 447.096816 
L 568.615619 445.438526 
L 568.912538 447.187192 
L 569.209404 452.094914 
L 569.804052 467.153121 
L 570.100833 475.202075 
L 570.397661 480.04782 
L 570.695153 479.6147 
L 570.991892 475.115531 
L 571.883361 453.991297 
L 572.18051 451.578023 
L 572.477239 453.01662 
L 573.07144 462.514385 
L 573.96294 483.271355 
L 574.26031 484.861394 
L 574.557157 482.979768 
L 575.745491 459.490199 
L 576.042421 458.799582 
L 576.339864 460.831162 
L 576.63698 466.810128 
L 577.2308 482.756688 
L 577.527789 487.067502 
L 577.825347 488.683075 
L 578.122337 485.458302 
L 578.716144 470.865174 
L 579.013597 466.179022 
L 579.310678 463.807943 
L 579.607425 464.409085 
L 579.90456 468.877972 
L 580.795912 488.968488 
L 581.093237 492.33148 
L 581.390138 490.182571 
L 582.578378 468.264519 
L 582.875603 469.342837 
L 583.469452 480.162013 
L 584.063577 493.983585 
L 584.361082 494.714634 
L 584.657848 492.149838 
L 585.549268 474.015897 
L 585.846296 472.252639 
L 586.143413 475.091116 
L 587.331804 497.960931 
L 587.62867 497.173844 
L 587.926017 492.500061 
L 588.520134 479.883444 
L 588.817234 477.348958 
L 589.114501 478.620164 
L 590.302372 501.496301 
L 590.599492 500.648337 
L 591.19391 489.905005 
L 591.490847 483.855752 
L 591.788301 481.365209 
L 592.084913 482.913765 
L 592.382472 487.218266 
L 593.273344 504.076642 
L 593.570287 502.953356 
L 593.867632 498.688998 
L 594.462027 486.526914 
L 594.758764 484.990033 
L 595.055723 486.350343 
L 596.244513 506.425632 
L 596.541578 503.878166 
L 597.432746 488.273011 
L 597.729931 488.155896 
L 598.026702 492.456133 
L 598.620822 504.980255 
L 598.918088 508.60209 
L 599.215145 507.68094 
L 600.106346 491.948996 
L 600.403771 491.135366 
L 600.700842 494.217773 
L 601.592046 510.497128 
L 601.888634 510.63498 
L 602.185968 506.614908 
L 602.780159 496.040573 
L 603.077295 494.002579 
L 603.374371 496.255207 
L 604.265577 512.729963 
L 604.562476 512.626476 
L 604.860021 508.79425 
L 605.453803 498.095483 
L 605.751187 496.800776 
L 606.048386 499.308233 
L 606.939549 514.957206 
L 607.236601 514.345714 
L 608.127401 500.052687 
L 608.424567 499.843871 
L 608.721656 502.894914 
L 609.315754 514.505549 
L 609.612885 516.989487 
L 609.9102 515.485897 
L 610.504307 505.146009 
L 610.801224 502.046356 
L 611.098434 502.786249 
L 611.989989 517.987959 
L 612.286604 518.597752 
L 612.58404 515.332275 
L 613.178195 505.365723 
L 613.475071 504.330691 
L 613.772068 506.895494 
L 614.366649 517.931585 
L 614.663752 520.522267 
L 614.960454 519.112455 
L 615.852163 506.558368 
L 616.149227 507.555752 
L 617.040234 521.662919 
L 617.337486 521.706488 
L 618.228392 509.026083 
L 618.525635 508.883692 
L 618.822846 512.54896 
L 619.41717 522.580255 
L 619.714259 523.498314 
L 620.011054 520.686529 
L 620.605306 511.48209 
L 620.902575 510.651707 
L 621.199575 513.362962 
L 621.793479 523.320348 
L 622.090619 525.122034 
L 622.387851 522.842643 
L 622.981907 513.833822 
L 623.278784 512.323605 
L 623.575846 514.655768 
L 624.170237 524.385757 
L 624.467244 526.431663 
L 624.764513 524.530832 
L 625.358675 515.675499 
L 625.655455 514.116247 
L 625.953013 516.097024 
L 626.546913 525.557013 
L 626.843951 527.650462 
L 627.141028 525.981429 
L 627.735225 517.353971 
L 628.032552 515.764421 
L 628.32961 517.738802 
L 628.923431 526.890408 
L 629.220973 528.862964 
L 629.517511 526.981858 
L 630.111755 518.660797 
L 630.408985 517.344675 
L 630.706073 519.507338 
L 631.300445 528.394227 
L 631.597446 529.888767 
L 631.894484 527.842156 
L 632.48873 519.798578 
L 632.785893 518.907752 
L 633.083009 521.407269 
L 633.676732 529.878003 
L 633.974311 530.86847 
L 634.271376 528.290709 
L 634.865038 520.748496 
L 635.162213 520.512822 
L 635.459316 523.42575 
L 636.053525 531.352315 
L 636.350567 531.554546 
L 636.647625 528.573592 
L 637.241774 521.728221 
L 637.538922 522.197291 
L 638.430225 532.677085 
L 638.727289 531.975709 
L 639.618529 522.74415 
L 639.915688 524.112399 
L 640.50982 531.96972 
L 640.806901 533.65478 
L 641.103935 532.073679 
L 641.698208 524.875702 
L 641.995162 523.984609 
L 642.29225 526.244885 
L 642.886473 533.68848 
L 643.183535 534.293121 
L 643.480564 531.78048 
L 644.074753 525.295993 
L 644.37183 525.551498 
L 645.262996 535.042287 
L 645.560675 534.413169 
L 646.154828 527.641209 
L 646.451919 526.049834 
L 646.74895 527.478904 
L 647.343113 534.626567 
L 647.640146 535.889139 
L 647.937196 534.054867 
L 648.531291 527.603682 
L 648.82839 527.268493 
L 649.125455 529.733433 
L 649.719573 536.207352 
L 650.016587 536.083635 
L 650.90782 528.001612 
L 651.204871 528.987787 
L 651.798986 535.692636 
L 652.096044 537.150133 
L 652.393048 535.66996 
L 652.987728 529.497292 
L 653.284802 528.993457 
L 653.581925 531.175801 
L 654.175966 537.347052 
L 654.472998 537.32606 
L 655.364173 529.701677 
L 655.661198 530.610529 
L 656.255314 536.904593 
L 656.552359 538.238759 
L 656.849376 536.7945 
L 657.444031 531.005154 
L 657.741097 530.621959 
L 658.038178 532.775438 
L 658.632222 538.46759 
L 658.929235 538.264302 
L 659.820389 531.184665 
L 660.117394 532.26267 
L 660.711496 538.187847 
L 661.008508 539.161999 
L 661.306124 537.527449 
L 661.900163 532.214013 
L 662.19725 532.182066 
L 663.088334 539.508337 
L 663.385336 538.921671 
L 663.979394 533.557978 
L 664.27644 532.532108 
L 664.574071 533.950926 
L 665.16814 539.439198 
L 665.465137 539.864081 
L 665.762141 537.935853 
L 666.356189 533.25764 
L 666.653256 533.736839 
L 667.544898 540.374841 
L 667.841902 539.276784 
L 668.435953 534.262581 
L 668.732973 533.854924 
L 669.030007 535.684259 
L 669.624043 540.52898 
L 669.921044 540.287274 
L 670.8127 534.278739 
L 671.109732 535.350033 
L 671.703756 540.396708 
L 672.000759 540.965405 
L 672.297756 539.337094 
L 672.892402 534.944989 
L 673.189424 535.258376 
L 674.080464 541.339406 
L 674.377467 540.39117 
L 674.972064 535.797474 
L 675.269118 535.401011 
L 675.566132 537.049363 
L 676.160137 541.449619 
L 676.457138 541.204888 
L 677.348158 535.749048 
L 677.645776 536.79857 
L 678.239794 541.366759 
L 678.536796 541.771383 
L 678.83379 540.193684 
L 679.427805 536.283 
L 679.724834 536.702968 
L 680.319434 541.13933 
L 680.616435 542.116965 
L 680.91342 541.079131 
L 681.507442 536.944263 
L 681.804447 536.783581 
L 682.102059 538.45756 
L 682.399063 540.82755 
L 682.696052 542.270586 
L 682.993045 541.789752 
L 683.587032 537.699003 
L 683.884061 537.017149 
L 684.18166 538.211918 
L 684.77566 542.263403 
L 685.072649 542.32587 
L 685.963637 537.378253 
L 686.261251 538.087651 
L 686.855249 542.144362 
L 687.152236 542.692184 
L 687.449224 541.438911 
L 688.043228 537.852993 
L 688.340838 538.071128 
L 689.231816 542.911368 
L 689.528801 542.091204 
L 690.1228 538.398747 
L 690.420396 538.174633 
L 690.717409 539.594983 
L 691.311383 543.002191 
L 691.608372 542.619665 
L 692.202948 538.999972 
L 692.499965 538.37459 
L 692.796954 539.420229 
L 693.390944 542.98736 
L 693.687926 543.023882 
L 694.579498 538.662819 
L 694.876513 539.326428 
L 695.470491 542.895946 
L 695.767475 543.311722 
L 696.065055 542.139928 
L 696.659049 539.024745 
L 696.956048 539.306281 
L 697.550035 542.743592 
L 697.847013 543.495999 
L 698.144589 542.659443 
L 698.738571 539.435751 
L 699.035573 539.369582 
L 699.927139 543.588274 
L 700.224118 543.092554 
L 700.818097 539.890678 
L 701.115099 539.496084 
L 701.41209 540.566785 
L 702.006659 543.605001 
L 702.303637 543.437268 
L 703.194607 539.69029 
L 703.492207 540.46463 
L 704.086169 543.559622 
L 704.383149 543.700857 
L 705.274712 539.932655 
L 705.571699 540.413891 
L 706.165674 543.466037 
L 706.462652 543.887202 
L 706.759628 542.934367 
L 707.354202 540.219403 
L 707.651202 540.416255 
L 708.542146 544.004586 
L 708.839718 543.307486 
L 709.433696 540.538421 
L 709.730682 540.466602 
L 710.622229 544.063072 
L 710.919205 543.623824 
L 711.51317 540.878743 
L 711.810166 540.566452 
L 712.107155 541.500402 
L 712.701712 544.069085 
L 712.998684 543.880986 
L 713.592651 541.234954 
L 713.889636 540.703217 
L 714.187223 541.418997 
L 714.781182 544.03388 
L 715.078158 544.081228 
L 715.969704 540.879512 
L 716.266694 541.366315 
L 716.860652 543.964357 
L 717.157625 544.229047 
L 717.454598 543.334927 
L 718.049165 541.081119 
L 718.346152 541.35226 
L 718.940113 543.869622 
L 719.237683 544.328049 
L 719.534655 543.627284 
L 720.128623 541.309541 
L 720.425612 541.370171 
L 721.317141 544.384636 
L 721.614114 543.879658 
L 722.208079 541.55296 
L 722.505064 541.421599 
L 722.802648 542.332452 
L 723.099621 543.635754 
L 723.396596 544.403695 
L 723.693568 544.092149 
L 724.288122 541.808421 
L 724.585112 541.502443 
L 724.882094 542.244218 
L 725.476041 544.389805 
L 725.773017 544.264252 
L 726.367569 542.070776 
L 726.664552 541.608511 
L 726.96154 542.180877 
L 727.555491 544.349894 
L 727.853055 544.397901 
L 728.743997 541.738368 
L 729.040976 542.139647 
L 729.635526 544.288656 
L 729.932498 544.497406 
L 730.229469 543.746667 
L 730.82343 541.886161 
L 731.121013 542.126051 
L 731.714966 544.210543 
L 732.011935 544.564305 
L 732.308909 543.960434 
L 732.903465 542.050495 
L 733.200445 542.131619 
L 734.09137 544.601837 
L 734.388936 544.144264 
L 734.982892 542.225731 
L 735.27988 542.161441 
L 736.171396 544.613467 
L 736.468369 544.302215 
L 737.062323 542.411376 
L 737.359304 542.209742 
L 737.656881 542.872227 
L 738.250824 544.602228 
L 738.547794 544.432684 
L 739.142341 542.59932 
L 739.439324 542.278694 
L 739.736303 542.810996 
L 740.33025 544.571659 
L 740.627218 544.536961 
L 741.518743 542.362274 
L 741.815723 542.76712 
L 742.410266 544.52564 
L 742.707235 544.615558 
L 743.598164 542.461545 
L 743.895144 542.739398 
L 744.489686 544.466162 
L 744.786655 544.671776 
L 745.083624 544.097608 
L 745.678175 542.571722 
L 745.975154 542.729417 
L 746.5691 544.396067 
L 746.86607 544.70669 
L 747.163636 544.242534 
L 747.163636 544.242534 
" clip-path="url(#pd388a4e99d)" style="fill: none; stroke: #0000ff; stroke-opacity: 0.3; stroke-width: 1.5; stroke-linecap: square"/>
   </g>
   <g id="line2d_18">
    <path d="M 153.290603 567 
L 153.290603 77.76 
" clip-path="url(#pd388a4e99d)" style="fill: none; stroke-dasharray: 5.55,2.4; stroke-dashoffset: 0; stroke: #ff0000; stroke-width: 1.5"/>
   </g>
   <g id="line2d_19">
    <path d="M 450.375381 567 
L 450.375381 77.76 
" clip-path="url(#pd388a4e99d)" style="fill: none; stroke-dasharray: 5.55,2.4; stroke-dashoffset: 0; stroke: #000000; stroke-width: 1.5"/>
   </g>
   <g id="patch_3">
    <path d="M 108 567 
L 108 77.76 
" style="fill: none; stroke: #000000; stroke-width: 0.8; stroke-linejoin: miter; stroke-linecap: square"/>
   </g>
   <g id="patch_4">
    <path d="M 777.6 567 
L 777.6 77.76 
" style="fill: none; stroke: #000000; stroke-width: 0.8; stroke-linejoin: miter; stroke-linecap: square"/>
   </g>
   <g id="patch_5">
    <path d="M 108 567 
L 777.6 567 
" style="fill: none; stroke: #000000; stroke-width: 0.8; stroke-linejoin: miter; stroke-linecap: square"/>
   </g>
   <g id="patch_6">
    <path d="M 108 77.76 
L 777.6 77.76 
" style="fill: none; stroke: #000000; stroke-width: 0.8; stroke-linejoin: miter; stroke-linecap: square"/>
   </g>
   <g id="text_17">
    <!-- Pulse Start -->
    <g style="fill: #ff0000" transform="translate(153.290603 96.254744)scale(0.18 -0.18)">
     <defs>
      <path id="DejaVuSans-50" d="M 1259 4147 
L 1259 2394 
L 2053 2394 
Q 2494 2394 2734 2622 
Q 2975 2850 2975 3272 
Q 2975 3691 2734 3919 
Q 2494 4147 2053 4147 
L 1259 4147 
z
M 628 4666 
L 2053 4666 
Q 2838 4666 3239 4311 
Q 3641 3956 3641 3272 
Q 3641 2581 3239 2228 
Q 2838 1875 2053 1875 
L 1259 1875 
L 1259 0 
L 628 0 
L 628 4666 
z
" transform="scale(0.015625)"/>
      <path id="DejaVuSans-75" d="M 544 1381 
L 544 3500 
L 1119 3500 
L 1119 1403 
Q 1119 906 1312 657 
Q 1506 409 1894 409 
Q 2359 409 2629 706 
Q 2900 1003 2900 1516 
L 2900 3500 
L 3475 3500 
L 3475 0 
L 2900 0 
L 2900 538 
Q 2691 219 2414 64 
Q 2138 -91 1772 -91 
Q 1169 -91 856 284 
Q 544 659 544 1381 
z
M 1991 3584 
L 1991 3584 
z
" transform="scale(0.015625)"/>
      <path id="DejaVuSans-6c" d="M 603 4863 
L 1178 4863 
L 1178 0 
L 603 0 
L 603 4863 
z
" transform="scale(0.015625)"/>
      <path id="DejaVuSans-53" d="M 3425 4513 
L 3425 3897 
Q 3066 4069 2747 4153 
Q 2428 4238 2131 4238 
Q 1616 4238 1336 4038 
Q 1056 3838 1056 3469 
Q 1056 3159 1242 3001 
Q 1428 2844 1947 2747 
L 2328 2669 
Q 3034 2534 3370 2195 
Q 3706 1856 3706 1288 
Q 3706 609 3251 259 
Q 2797 -91 1919 -91 
Q 1588 -91 1214 -16 
Q 841 59 441 206 
L 441 856 
Q 825 641 1194 531 
Q 1563 422 1919 422 
Q 2459 422 2753 634 
Q 3047 847 3047 1241 
Q 3047 1584 2836 1778 
Q 2625 1972 2144 2069 
L 1759 2144 
Q 1053 2284 737 2584 
Q 422 2884 422 3419 
Q 422 4038 858 4394 
Q 1294 4750 2059 4750 
Q 2388 4750 2728 4690 
Q 3069 4631 3425 4513 
z
" transform="scale(0.015625)"/>
      <path id="DejaVuSans-72" d="M 2631 2963 
Q 2534 3019 2420 3045 
Q 2306 3072 2169 3072 
Q 1681 3072 1420 2755 
Q 1159 2438 1159 1844 
L 1159 0 
L 581 0 
L 581 3500 
L 1159 3500 
L 1159 2956 
Q 1341 3275 1631 3429 
Q 1922 3584 2338 3584 
Q 2397 3584 2469 3576 
Q 2541 3569 2628 3553 
L 2631 2963 
z
" transform="scale(0.015625)"/>
     </defs>
     <use xlink:href="#DejaVuSans-50"/>
     <use xlink:href="#DejaVuSans-75" x="58.552734"/>
     <use xlink:href="#DejaVuSans-6c" x="121.931641"/>
     <use xlink:href="#DejaVuSans-73" x="149.714844"/>
     <use xlink:href="#DejaVuSans-65" x="201.814453"/>
     <use xlink:href="#DejaVuSans-20" x="263.337891"/>
     <use xlink:href="#DejaVuSans-53" x="295.125"/>
     <use xlink:href="#DejaVuSans-74" x="358.601562"/>
     <use xlink:href="#DejaVuSans-61" x="397.810547"/>
     <use xlink:href="#DejaVuSans-72" x="459.089844"/>
     <use xlink:href="#DejaVuSans-74" x="500.203125"/>
    </g>
   </g>
   <g id="text_18">
    <!-- Pulse End -->
    <g transform="translate(450.375381 96.254744)scale(0.18 -0.18)">
     <defs>
      <path id="DejaVuSans-45" d="M 628 4666 
L 3578 4666 
L 3578 4134 
L 1259 4134 
L 1259 2753 
L 3481 2753 
L 3481 2222 
L 1259 2222 
L 1259 531 
L 3634 531 
L 3634 0 
L 628 0 
L 628 4666 
z
" transform="scale(0.015625)"/>
      <path id="DejaVuSans-64" d="M 2906 2969 
L 2906 4863 
L 3481 4863 
L 3481 0 
L 2906 0 
L 2906 525 
Q 2725 213 2448 61 
Q 2172 -91 1784 -91 
Q 1150 -91 751 415 
Q 353 922 353 1747 
Q 353 2572 751 3078 
Q 1150 3584 1784 3584 
Q 2172 3584 2448 3432 
Q 2725 3281 2906 2969 
z
M 947 1747 
Q 947 1113 1208 752 
Q 1469 391 1925 391 
Q 2381 391 2643 752 
Q 2906 1113 2906 1747 
Q 2906 2381 2643 2742 
Q 2381 3103 1925 3103 
Q 1469 3103 1208 2742 
Q 947 2381 947 1747 
z
" transform="scale(0.015625)"/>
     </defs>
     <use xlink:href="#DejaVuSans-50"/>
     <use xlink:href="#DejaVuSans-75" x="58.552734"/>
     <use xlink:href="#DejaVuSans-6c" x="121.931641"/>
     <use xlink:href="#DejaVuSans-73" x="149.714844"/>
     <use xlink:href="#DejaVuSans-65" x="201.814453"/>
     <use xlink:href="#DejaVuSans-20" x="263.337891"/>
     <use xlink:href="#DejaVuSans-45" x="295.125"/>
     <use xlink:href="#DejaVuSans-6e" x="358.308594"/>
     <use xlink:href="#DejaVuSans-64" x="421.6875"/>
    </g>
   </g>
   <g id="legend_1">
    <g id="patch_7">
     <path d="M 120.6 224.263125 
L 275.290312 224.263125 
Q 278.890312 224.263125 278.890312 220.663125 
L 278.890312 90.36 
Q 278.890312 86.76 275.290312 86.76 
L 120.6 86.76 
Q 117 86.76 117 90.36 
L 117 220.663125 
Q 117 224.263125 120.6 224.263125 
z
" style="fill: #ffffff; opacity: 0.8; stroke: #cccccc; stroke-linejoin: miter"/>
    </g>
    <g id="line2d_20">
     <path d="M 124.2 101.337187 
L 142.2 101.337187 
L 160.2 101.337187 
" style="fill: none; stroke: #ff0000; stroke-opacity: 0.3; stroke-width: 1.5; stroke-linecap: square"/>
    </g>
    <g id="text_19">
     <!-- mx -->
     <g transform="translate(174.6 107.637187)scale(0.18 -0.18)">
      <defs>
       <path id="DejaVuSans-78" d="M 3513 3500 
L 2247 1797 
L 3578 0 
L 2900 0 
L 1881 1375 
L 863 0 
L 184 0 
L 1544 1831 
L 300 3500 
L 978 3500 
L 1906 2253 
L 2834 3500 
L 3513 3500 
z
" transform="scale(0.015625)"/>
      </defs>
      <use xlink:href="#DejaVuSans-6d"/>
      <use xlink:href="#DejaVuSans-78" x="97.412109"/>
     </g>
    </g>
    <g id="line2d_21">
     <path d="M 124.2 127.757812 
L 142.2 127.757812 
L 160.2 127.757812 
" style="fill: none; stroke: #008000; stroke-opacity: 0.3; stroke-width: 1.5; stroke-linecap: square"/>
    </g>
    <g id="text_20">
     <!-- my -->
     <g transform="translate(174.6 134.057812)scale(0.18 -0.18)">
      <defs>
       <path id="DejaVuSans-79" d="M 2059 -325 
Q 1816 -950 1584 -1140 
Q 1353 -1331 966 -1331 
L 506 -1331 
L 506 -850 
L 844 -850 
Q 1081 -850 1212 -737 
Q 1344 -625 1503 -206 
L 1606 56 
L 191 3500 
L 800 3500 
L 1894 763 
L 2988 3500 
L 3597 3500 
L 2059 -325 
z
" transform="scale(0.015625)"/>
      </defs>
      <use xlink:href="#DejaVuSans-6d"/>
      <use xlink:href="#DejaVuSans-79" x="97.412109"/>
     </g>
    </g>
    <g id="line2d_22">
     <path d="M 124.2 154.178437 
L 142.2 154.178437 
L 160.2 154.178437 
" style="fill: none; stroke: #0000ff; stroke-opacity: 0.3; stroke-width: 1.5; stroke-linecap: square"/>
    </g>
    <g id="text_21">
     <!-- mz -->
     <g transform="translate(174.6 160.478437)scale(0.18 -0.18)">
      <use xlink:href="#DejaVuSans-6d"/>
      <use xlink:href="#DejaVuSans-7a" x="97.412109"/>
     </g>
    </g>
    <g id="line2d_23">
     <path d="M 124.2 180.599062 
L 142.2 180.599062 
L 160.2 180.599062 
" style="fill: none; stroke-dasharray: 5.55,2.4; stroke-dashoffset: 0; stroke: #ff0000; stroke-width: 1.5"/>
    </g>
    <g id="text_22">
     <!-- Pulse Start -->
     <g transform="translate(174.6 186.899062)scale(0.18 -0.18)">
      <use xlink:href="#DejaVuSans-50"/>
      <use xlink:href="#DejaVuSans-75" x="58.552734"/>
      <use xlink:href="#DejaVuSans-6c" x="121.931641"/>
      <use xlink:href="#DejaVuSans-73" x="149.714844"/>
      <use xlink:href="#DejaVuSans-65" x="201.814453"/>
      <use xlink:href="#DejaVuSans-20" x="263.337891"/>
      <use xlink:href="#DejaVuSans-53" x="295.125"/>
      <use xlink:href="#DejaVuSans-74" x="358.601562"/>
      <use xlink:href="#DejaVuSans-61" x="397.810547"/>
      <use xlink:href="#DejaVuSans-72" x="459.089844"/>
      <use xlink:href="#DejaVuSans-74" x="500.203125"/>
     </g>
    </g>
    <g id="line2d_24">
     <path d="M 124.2 207.019687 
L 142.2 207.019687 
L 160.2 207.019687 
" style="fill: none; stroke-dasharray: 5.55,2.4; stroke-dashoffset: 0; stroke: #000000; stroke-width: 1.5"/>
    </g>
    <g id="text_23">
     <!-- Pulse End -->
     <g transform="translate(174.6 213.319687)scale(0.18 -0.18)">
      <use xlink:href="#DejaVuSans-50"/>
      <use xlink:href="#DejaVuSans-75" x="58.552734"/>
      <use xlink:href="#DejaVuSans-6c" x="121.931641"/>
      <use xlink:href="#DejaVuSans-73" x="149.714844"/>
      <use xlink:href="#DejaVuSans-65" x="201.814453"/>
      <use xlink:href="#DejaVuSans-20" x="263.337891"/>
      <use xlink:href="#DejaVuSans-45" x="295.125"/>
      <use xlink:href="#DejaVuSans-6e" x="358.308594"/>
      <use xlink:href="#DejaVuSans-64" x="421.6875"/>
     </g>
    </g>
   </g>
  </g>
 </g>
 <defs>
  <clipPath id="pd388a4e99d">
   <rect x="108" y="77.76" width="669.6" height="489.24"/>
  </clipPath>
 </defs>
</svg>
