<?xml version="1.0" encoding="utf-8" standalone="no"?>
<!DOCTYPE svg PUBLIC "-//W3C//DTD SVG 1.1//EN"
  "http://www.w3.org/Graphics/SVG/1.1/DTD/svg11.dtd">
<svg xmlns:xlink="http://www.w3.org/1999/xlink" width="864pt" height="648pt" viewBox="0 0 864 648" xmlns="http://www.w3.org/2000/svg" version="1.1">
 <metadata>
  <rdf:RDF xmlns:dc="http://purl.org/dc/elements/1.1/" xmlns:cc="http://creativecommons.org/ns#" xmlns:rdf="http://www.w3.org/1999/02/22-rdf-syntax-ns#">
   <cc:Work>
    <dc:type rdf:resource="http://purl.org/dc/dcmitype/StillImage"/>
    <dc:date>2023-12-06T11:22:46.369584</dc:date>
    <dc:format>image/svg+xml</dc:format>
    <dc:creator>
     <cc:Agent>
      <dc:title>Matplotlib v3.5.2, https://matplotlib.org/</dc:title>
     </cc:Agent>
    </dc:creator>
   </cc:Work>
  </rdf:RDF>
 </metadata>
 <defs>
  <style type="text/css">*{stroke-linejoin: round; stroke-linecap: butt}</style>
 </defs>
 <g id="figure_1">
  <g id="patch_1">
   <path d="M 0 648 
L 864 648 
L 864 0 
L 0 0 
L 0 648 
z
" style="fill: none"/>
  </g>
  <g id="axes_1">
   <g id="patch_2">
    <path d="M 108 567 
L 777.6 567 
L 777.6 77.76 
L 108 77.76 
z
" style="fill: #ffffff"/>
   </g>
   <g id="matplotlib.axis_1">
    <g id="xtick_1">
     <g id="line2d_1">
      <defs>
       <path id="m633ab9f242" d="M 0 0 
L 0 3.5 
" style="stroke: #000000; stroke-width: 0.8"/>
      </defs>
      <g>
       <use xlink:href="#m633ab9f242" x="138.436364" y="567" style="stroke: #000000; stroke-width: 0.8"/>
      </g>
     </g>
     <g id="text_1">
      <!-- 0 -->
      <g transform="translate(132.710114 587.677187)scale(0.18 -0.18)">
       <defs>
        <path id="DejaVuSans-30" d="M 2034 4250 
Q 1547 4250 1301 3770 
Q 1056 3291 1056 2328 
Q 1056 1369 1301 889 
Q 1547 409 2034 409 
Q 2525 409 2770 889 
Q 3016 1369 3016 2328 
Q 3016 3291 2770 3770 
Q 2525 4250 2034 4250 
z
M 2034 4750 
Q 2819 4750 3233 4129 
Q 3647 3509 3647 2328 
Q 3647 1150 3233 529 
Q 2819 -91 2034 -91 
Q 1250 -91 836 529 
Q 422 1150 422 2328 
Q 422 3509 836 4129 
Q 1250 4750 2034 4750 
z
" transform="scale(0.015625)"/>
       </defs>
       <use xlink:href="#DejaVuSans-30"/>
      </g>
     </g>
    </g>
    <g id="xtick_2">
     <g id="line2d_2">
      <g>
       <use xlink:href="#m633ab9f242" x="286.978781" y="567" style="stroke: #000000; stroke-width: 0.8"/>
      </g>
     </g>
     <g id="text_2">
      <!-- 5 -->
      <g transform="translate(281.252531 587.677187)scale(0.18 -0.18)">
       <defs>
        <path id="DejaVuSans-35" d="M 691 4666 
L 3169 4666 
L 3169 4134 
L 1269 4134 
L 1269 2991 
Q 1406 3038 1543 3061 
Q 1681 3084 1819 3084 
Q 2600 3084 3056 2656 
Q 3513 2228 3513 1497 
Q 3513 744 3044 326 
Q 2575 -91 1722 -91 
Q 1428 -91 1123 -41 
Q 819 9 494 109 
L 494 744 
Q 775 591 1075 516 
Q 1375 441 1709 441 
Q 2250 441 2565 725 
Q 2881 1009 2881 1497 
Q 2881 1984 2565 2268 
Q 2250 2553 1709 2553 
Q 1456 2553 1204 2497 
Q 953 2441 691 2322 
L 691 4666 
z
" transform="scale(0.015625)"/>
       </defs>
       <use xlink:href="#DejaVuSans-35"/>
      </g>
     </g>
    </g>
    <g id="xtick_3">
     <g id="line2d_3">
      <g>
       <use xlink:href="#m633ab9f242" x="435.521198" y="567" style="stroke: #000000; stroke-width: 0.8"/>
      </g>
     </g>
     <g id="text_3">
      <!-- 10 -->
      <g transform="translate(424.068698 587.677187)scale(0.18 -0.18)">
       <defs>
        <path id="DejaVuSans-31" d="M 794 531 
L 1825 531 
L 1825 4091 
L 703 3866 
L 703 4441 
L 1819 4666 
L 2450 4666 
L 2450 531 
L 3481 531 
L 3481 0 
L 794 0 
L 794 531 
z
" transform="scale(0.015625)"/>
       </defs>
       <use xlink:href="#DejaVuSans-31"/>
       <use xlink:href="#DejaVuSans-30" x="63.623047"/>
      </g>
     </g>
    </g>
    <g id="xtick_4">
     <g id="line2d_4">
      <g>
       <use xlink:href="#m633ab9f242" x="584.063616" y="567" style="stroke: #000000; stroke-width: 0.8"/>
      </g>
     </g>
     <g id="text_4">
      <!-- 15 -->
      <g transform="translate(572.611116 587.677187)scale(0.18 -0.18)">
       <use xlink:href="#DejaVuSans-31"/>
       <use xlink:href="#DejaVuSans-35" x="63.623047"/>
      </g>
     </g>
    </g>
    <g id="xtick_5">
     <g id="line2d_5">
      <g>
       <use xlink:href="#m633ab9f242" x="732.606033" y="567" style="stroke: #000000; stroke-width: 0.8"/>
      </g>
     </g>
     <g id="text_5">
      <!-- 20 -->
      <g transform="translate(721.153533 587.677187)scale(0.18 -0.18)">
       <defs>
        <path id="DejaVuSans-32" d="M 1228 531 
L 3431 531 
L 3431 0 
L 469 0 
L 469 531 
Q 828 903 1448 1529 
Q 2069 2156 2228 2338 
Q 2531 2678 2651 2914 
Q 2772 3150 2772 3378 
Q 2772 3750 2511 3984 
Q 2250 4219 1831 4219 
Q 1534 4219 1204 4116 
Q 875 4013 500 3803 
L 500 4441 
Q 881 4594 1212 4672 
Q 1544 4750 1819 4750 
Q 2544 4750 2975 4387 
Q 3406 4025 3406 3419 
Q 3406 3131 3298 2873 
Q 3191 2616 2906 2266 
Q 2828 2175 2409 1742 
Q 1991 1309 1228 531 
z
" transform="scale(0.015625)"/>
       </defs>
       <use xlink:href="#DejaVuSans-32"/>
       <use xlink:href="#DejaVuSans-30" x="63.623047"/>
      </g>
     </g>
    </g>
    <g id="text_6">
     <!-- Time (ns) -->
     <g transform="translate(400.504219 609.097813)scale(0.18 -0.18)">
      <defs>
       <path id="DejaVuSans-54" d="M -19 4666 
L 3928 4666 
L 3928 4134 
L 2272 4134 
L 2272 0 
L 1638 0 
L 1638 4134 
L -19 4134 
L -19 4666 
z
" transform="scale(0.015625)"/>
       <path id="DejaVuSans-69" d="M 603 3500 
L 1178 3500 
L 1178 0 
L 603 0 
L 603 3500 
z
M 603 4863 
L 1178 4863 
L 1178 4134 
L 603 4134 
L 603 4863 
z
" transform="scale(0.015625)"/>
       <path id="DejaVuSans-6d" d="M 3328 2828 
Q 3544 3216 3844 3400 
Q 4144 3584 4550 3584 
Q 5097 3584 5394 3201 
Q 5691 2819 5691 2113 
L 5691 0 
L 5113 0 
L 5113 2094 
Q 5113 2597 4934 2840 
Q 4756 3084 4391 3084 
Q 3944 3084 3684 2787 
Q 3425 2491 3425 1978 
L 3425 0 
L 2847 0 
L 2847 2094 
Q 2847 2600 2669 2842 
Q 2491 3084 2119 3084 
Q 1678 3084 1418 2786 
Q 1159 2488 1159 1978 
L 1159 0 
L 581 0 
L 581 3500 
L 1159 3500 
L 1159 2956 
Q 1356 3278 1631 3431 
Q 1906 3584 2284 3584 
Q 2666 3584 2933 3390 
Q 3200 3197 3328 2828 
z
" transform="scale(0.015625)"/>
       <path id="DejaVuSans-65" d="M 3597 1894 
L 3597 1613 
L 953 1613 
Q 991 1019 1311 708 
Q 1631 397 2203 397 
Q 2534 397 2845 478 
Q 3156 559 3463 722 
L 3463 178 
Q 3153 47 2828 -22 
Q 2503 -91 2169 -91 
Q 1331 -91 842 396 
Q 353 884 353 1716 
Q 353 2575 817 3079 
Q 1281 3584 2069 3584 
Q 2775 3584 3186 3129 
Q 3597 2675 3597 1894 
z
M 3022 2063 
Q 3016 2534 2758 2815 
Q 2500 3097 2075 3097 
Q 1594 3097 1305 2825 
Q 1016 2553 972 2059 
L 3022 2063 
z
" transform="scale(0.015625)"/>
       <path id="DejaVuSans-20" transform="scale(0.015625)"/>
       <path id="DejaVuSans-28" d="M 1984 4856 
Q 1566 4138 1362 3434 
Q 1159 2731 1159 2009 
Q 1159 1288 1364 580 
Q 1569 -128 1984 -844 
L 1484 -844 
Q 1016 -109 783 600 
Q 550 1309 550 2009 
Q 550 2706 781 3412 
Q 1013 4119 1484 4856 
L 1984 4856 
z
" transform="scale(0.015625)"/>
       <path id="DejaVuSans-6e" d="M 3513 2113 
L 3513 0 
L 2938 0 
L 2938 2094 
Q 2938 2591 2744 2837 
Q 2550 3084 2163 3084 
Q 1697 3084 1428 2787 
Q 1159 2491 1159 1978 
L 1159 0 
L 581 0 
L 581 3500 
L 1159 3500 
L 1159 2956 
Q 1366 3272 1645 3428 
Q 1925 3584 2291 3584 
Q 2894 3584 3203 3211 
Q 3513 2838 3513 2113 
z
" transform="scale(0.015625)"/>
       <path id="DejaVuSans-73" d="M 2834 3397 
L 2834 2853 
Q 2591 2978 2328 3040 
Q 2066 3103 1784 3103 
Q 1356 3103 1142 2972 
Q 928 2841 928 2578 
Q 928 2378 1081 2264 
Q 1234 2150 1697 2047 
L 1894 2003 
Q 2506 1872 2764 1633 
Q 3022 1394 3022 966 
Q 3022 478 2636 193 
Q 2250 -91 1575 -91 
Q 1294 -91 989 -36 
Q 684 19 347 128 
L 347 722 
Q 666 556 975 473 
Q 1284 391 1588 391 
Q 1994 391 2212 530 
Q 2431 669 2431 922 
Q 2431 1156 2273 1281 
Q 2116 1406 1581 1522 
L 1381 1569 
Q 847 1681 609 1914 
Q 372 2147 372 2553 
Q 372 3047 722 3315 
Q 1072 3584 1716 3584 
Q 2034 3584 2315 3537 
Q 2597 3491 2834 3397 
z
" transform="scale(0.015625)"/>
       <path id="DejaVuSans-29" d="M 513 4856 
L 1013 4856 
Q 1481 4119 1714 3412 
Q 1947 2706 1947 2009 
Q 1947 1309 1714 600 
Q 1481 -109 1013 -844 
L 513 -844 
Q 928 -128 1133 580 
Q 1338 1288 1338 2009 
Q 1338 2731 1133 3434 
Q 928 4138 513 4856 
z
" transform="scale(0.015625)"/>
      </defs>
      <use xlink:href="#DejaVuSans-54"/>
      <use xlink:href="#DejaVuSans-69" x="57.958984"/>
      <use xlink:href="#DejaVuSans-6d" x="85.742188"/>
      <use xlink:href="#DejaVuSans-65" x="183.154297"/>
      <use xlink:href="#DejaVuSans-20" x="244.677734"/>
      <use xlink:href="#DejaVuSans-28" x="276.464844"/>
      <use xlink:href="#DejaVuSans-6e" x="315.478516"/>
      <use xlink:href="#DejaVuSans-73" x="378.857422"/>
      <use xlink:href="#DejaVuSans-29" x="430.957031"/>
     </g>
    </g>
   </g>
   <g id="matplotlib.axis_2">
    <g id="ytick_1">
     <g id="line2d_6">
      <defs>
       <path id="m33fc0bea64" d="M 0 0 
L -3.5 0 
" style="stroke: #000000; stroke-width: 0.8"/>
      </defs>
      <g>
       <use xlink:href="#m33fc0bea64" x="108" y="544.761818" style="stroke: #000000; stroke-width: 0.8"/>
      </g>
     </g>
     <g id="text_7">
      <!-- −1.00 -->
      <g transform="translate(45.838438 551.600412)scale(0.18 -0.18)">
       <defs>
        <path id="DejaVuSans-2212" d="M 678 2272 
L 4684 2272 
L 4684 1741 
L 678 1741 
L 678 2272 
z
" transform="scale(0.015625)"/>
        <path id="DejaVuSans-2e" d="M 684 794 
L 1344 794 
L 1344 0 
L 684 0 
L 684 794 
z
" transform="scale(0.015625)"/>
       </defs>
       <use xlink:href="#DejaVuSans-2212"/>
       <use xlink:href="#DejaVuSans-31" x="83.789062"/>
       <use xlink:href="#DejaVuSans-2e" x="147.412109"/>
       <use xlink:href="#DejaVuSans-30" x="179.199219"/>
       <use xlink:href="#DejaVuSans-30" x="242.822266"/>
      </g>
     </g>
    </g>
    <g id="ytick_2">
     <g id="line2d_7">
      <g>
       <use xlink:href="#m33fc0bea64" x="108" y="489.166364" style="stroke: #000000; stroke-width: 0.8"/>
      </g>
     </g>
     <g id="text_8">
      <!-- −0.75 -->
      <g transform="translate(45.838438 496.004957)scale(0.18 -0.18)">
       <defs>
        <path id="DejaVuSans-37" d="M 525 4666 
L 3525 4666 
L 3525 4397 
L 1831 0 
L 1172 0 
L 2766 4134 
L 525 4134 
L 525 4666 
z
" transform="scale(0.015625)"/>
       </defs>
       <use xlink:href="#DejaVuSans-2212"/>
       <use xlink:href="#DejaVuSans-30" x="83.789062"/>
       <use xlink:href="#DejaVuSans-2e" x="147.412109"/>
       <use xlink:href="#DejaVuSans-37" x="179.199219"/>
       <use xlink:href="#DejaVuSans-35" x="242.822266"/>
      </g>
     </g>
    </g>
    <g id="ytick_3">
     <g id="line2d_8">
      <g>
       <use xlink:href="#m33fc0bea64" x="108" y="433.570909" style="stroke: #000000; stroke-width: 0.8"/>
      </g>
     </g>
     <g id="text_9">
      <!-- −0.50 -->
      <g transform="translate(45.838438 440.409503)scale(0.18 -0.18)">
       <use xlink:href="#DejaVuSans-2212"/>
       <use xlink:href="#DejaVuSans-30" x="83.789062"/>
       <use xlink:href="#DejaVuSans-2e" x="147.412109"/>
       <use xlink:href="#DejaVuSans-35" x="179.199219"/>
       <use xlink:href="#DejaVuSans-30" x="242.822266"/>
      </g>
     </g>
    </g>
    <g id="ytick_4">
     <g id="line2d_9">
      <g>
       <use xlink:href="#m33fc0bea64" x="108" y="377.975455" style="stroke: #000000; stroke-width: 0.8"/>
      </g>
     </g>
     <g id="text_10">
      <!-- −0.25 -->
      <g transform="translate(45.838438 384.814048)scale(0.18 -0.18)">
       <use xlink:href="#DejaVuSans-2212"/>
       <use xlink:href="#DejaVuSans-30" x="83.789062"/>
       <use xlink:href="#DejaVuSans-2e" x="147.412109"/>
       <use xlink:href="#DejaVuSans-32" x="179.199219"/>
       <use xlink:href="#DejaVuSans-35" x="242.822266"/>
      </g>
     </g>
    </g>
    <g id="ytick_5">
     <g id="line2d_10">
      <g>
       <use xlink:href="#m33fc0bea64" x="108" y="322.38" style="stroke: #000000; stroke-width: 0.8"/>
      </g>
     </g>
     <g id="text_11">
      <!-- 0.00 -->
      <g transform="translate(60.921875 329.218594)scale(0.18 -0.18)">
       <use xlink:href="#DejaVuSans-30"/>
       <use xlink:href="#DejaVuSans-2e" x="63.623047"/>
       <use xlink:href="#DejaVuSans-30" x="95.410156"/>
       <use xlink:href="#DejaVuSans-30" x="159.033203"/>
      </g>
     </g>
    </g>
    <g id="ytick_6">
     <g id="line2d_11">
      <g>
       <use xlink:href="#m33fc0bea64" x="108" y="266.784545" style="stroke: #000000; stroke-width: 0.8"/>
      </g>
     </g>
     <g id="text_12">
      <!-- 0.25 -->
      <g transform="translate(60.921875 273.623139)scale(0.18 -0.18)">
       <use xlink:href="#DejaVuSans-30"/>
       <use xlink:href="#DejaVuSans-2e" x="63.623047"/>
       <use xlink:href="#DejaVuSans-32" x="95.410156"/>
       <use xlink:href="#DejaVuSans-35" x="159.033203"/>
      </g>
     </g>
    </g>
    <g id="ytick_7">
     <g id="line2d_12">
      <g>
       <use xlink:href="#m33fc0bea64" x="108" y="211.189091" style="stroke: #000000; stroke-width: 0.8"/>
      </g>
     </g>
     <g id="text_13">
      <!-- 0.50 -->
      <g transform="translate(60.921875 218.027685)scale(0.18 -0.18)">
       <use xlink:href="#DejaVuSans-30"/>
       <use xlink:href="#DejaVuSans-2e" x="63.623047"/>
       <use xlink:href="#DejaVuSans-35" x="95.410156"/>
       <use xlink:href="#DejaVuSans-30" x="159.033203"/>
      </g>
     </g>
    </g>
    <g id="ytick_8">
     <g id="line2d_13">
      <g>
       <use xlink:href="#m33fc0bea64" x="108" y="155.593636" style="stroke: #000000; stroke-width: 0.8"/>
      </g>
     </g>
     <g id="text_14">
      <!-- 0.75 -->
      <g transform="translate(60.921875 162.43223)scale(0.18 -0.18)">
       <use xlink:href="#DejaVuSans-30"/>
       <use xlink:href="#DejaVuSans-2e" x="63.623047"/>
       <use xlink:href="#DejaVuSans-37" x="95.410156"/>
       <use xlink:href="#DejaVuSans-35" x="159.033203"/>
      </g>
     </g>
    </g>
    <g id="ytick_9">
     <g id="line2d_14">
      <g>
       <use xlink:href="#m33fc0bea64" x="108" y="99.998182" style="stroke: #000000; stroke-width: 0.8"/>
      </g>
     </g>
     <g id="text_15">
      <!-- 1.00 -->
      <g transform="translate(60.921875 106.836776)scale(0.18 -0.18)">
       <use xlink:href="#DejaVuSans-31"/>
       <use xlink:href="#DejaVuSans-2e" x="63.623047"/>
       <use xlink:href="#DejaVuSans-30" x="95.410156"/>
       <use xlink:href="#DejaVuSans-30" x="159.033203"/>
      </g>
     </g>
    </g>
    <g id="text_16">
     <!-- Magnetization -->
     <g transform="translate(38.095 386.1225)rotate(-90)scale(0.18 -0.18)">
      <defs>
       <path id="DejaVuSans-4d" d="M 628 4666 
L 1569 4666 
L 2759 1491 
L 3956 4666 
L 4897 4666 
L 4897 0 
L 4281 0 
L 4281 4097 
L 3078 897 
L 2444 897 
L 1241 4097 
L 1241 0 
L 628 0 
L 628 4666 
z
" transform="scale(0.015625)"/>
       <path id="DejaVuSans-61" d="M 2194 1759 
Q 1497 1759 1228 1600 
Q 959 1441 959 1056 
Q 959 750 1161 570 
Q 1363 391 1709 391 
Q 2188 391 2477 730 
Q 2766 1069 2766 1631 
L 2766 1759 
L 2194 1759 
z
M 3341 1997 
L 3341 0 
L 2766 0 
L 2766 531 
Q 2569 213 2275 61 
Q 1981 -91 1556 -91 
Q 1019 -91 701 211 
Q 384 513 384 1019 
Q 384 1609 779 1909 
Q 1175 2209 1959 2209 
L 2766 2209 
L 2766 2266 
Q 2766 2663 2505 2880 
Q 2244 3097 1772 3097 
Q 1472 3097 1187 3025 
Q 903 2953 641 2809 
L 641 3341 
Q 956 3463 1253 3523 
Q 1550 3584 1831 3584 
Q 2591 3584 2966 3190 
Q 3341 2797 3341 1997 
z
" transform="scale(0.015625)"/>
       <path id="DejaVuSans-67" d="M 2906 1791 
Q 2906 2416 2648 2759 
Q 2391 3103 1925 3103 
Q 1463 3103 1205 2759 
Q 947 2416 947 1791 
Q 947 1169 1205 825 
Q 1463 481 1925 481 
Q 2391 481 2648 825 
Q 2906 1169 2906 1791 
z
M 3481 434 
Q 3481 -459 3084 -895 
Q 2688 -1331 1869 -1331 
Q 1566 -1331 1297 -1286 
Q 1028 -1241 775 -1147 
L 775 -588 
Q 1028 -725 1275 -790 
Q 1522 -856 1778 -856 
Q 2344 -856 2625 -561 
Q 2906 -266 2906 331 
L 2906 616 
Q 2728 306 2450 153 
Q 2172 0 1784 0 
Q 1141 0 747 490 
Q 353 981 353 1791 
Q 353 2603 747 3093 
Q 1141 3584 1784 3584 
Q 2172 3584 2450 3431 
Q 2728 3278 2906 2969 
L 2906 3500 
L 3481 3500 
L 3481 434 
z
" transform="scale(0.015625)"/>
       <path id="DejaVuSans-74" d="M 1172 4494 
L 1172 3500 
L 2356 3500 
L 2356 3053 
L 1172 3053 
L 1172 1153 
Q 1172 725 1289 603 
Q 1406 481 1766 481 
L 2356 481 
L 2356 0 
L 1766 0 
Q 1100 0 847 248 
Q 594 497 594 1153 
L 594 3053 
L 172 3053 
L 172 3500 
L 594 3500 
L 594 4494 
L 1172 4494 
z
" transform="scale(0.015625)"/>
       <path id="DejaVuSans-7a" d="M 353 3500 
L 3084 3500 
L 3084 2975 
L 922 459 
L 3084 459 
L 3084 0 
L 275 0 
L 275 525 
L 2438 3041 
L 353 3041 
L 353 3500 
z
" transform="scale(0.015625)"/>
       <path id="DejaVuSans-6f" d="M 1959 3097 
Q 1497 3097 1228 2736 
Q 959 2375 959 1747 
Q 959 1119 1226 758 
Q 1494 397 1959 397 
Q 2419 397 2687 759 
Q 2956 1122 2956 1747 
Q 2956 2369 2687 2733 
Q 2419 3097 1959 3097 
z
M 1959 3584 
Q 2709 3584 3137 3096 
Q 3566 2609 3566 1747 
Q 3566 888 3137 398 
Q 2709 -91 1959 -91 
Q 1206 -91 779 398 
Q 353 888 353 1747 
Q 353 2609 779 3096 
Q 1206 3584 1959 3584 
z
" transform="scale(0.015625)"/>
      </defs>
      <use xlink:href="#DejaVuSans-4d"/>
      <use xlink:href="#DejaVuSans-61" x="86.279297"/>
      <use xlink:href="#DejaVuSans-67" x="147.558594"/>
      <use xlink:href="#DejaVuSans-6e" x="211.035156"/>
      <use xlink:href="#DejaVuSans-65" x="274.414062"/>
      <use xlink:href="#DejaVuSans-74" x="335.9375"/>
      <use xlink:href="#DejaVuSans-69" x="375.146484"/>
      <use xlink:href="#DejaVuSans-7a" x="402.929688"/>
      <use xlink:href="#DejaVuSans-61" x="455.419922"/>
      <use xlink:href="#DejaVuSans-74" x="516.699219"/>
      <use xlink:href="#DejaVuSans-69" x="555.908203"/>
      <use xlink:href="#DejaVuSans-6f" x="583.691406"/>
      <use xlink:href="#DejaVuSans-6e" x="644.873047"/>
     </g>
    </g>
   </g>
   <g id="line2d_15">
    <path d="M 138.436364 309.142353 
L 153.290605 309.142081 
L 153.290605 309.142081 
L 153.587922 450.057319 
L 153.884894 530.878744 
L 154.182146 531.153452 
L 154.776466 237.576124 
L 155.073492 207.498709 
L 155.667478 367.021593 
L 155.964522 395.181332 
L 156.261628 369.825196 
L 156.55879 331.402404 
L 156.856006 315.038707 
L 157.153226 323.543819 
L 157.449846 339.144656 
L 157.747012 346.67416 
L 158.044177 344.542832 
L 158.638623 333.837727 
L 158.935218 332.220647 
L 159.826741 338.570402 
L 160.123931 338.313435 
L 161.014895 336.132674 
L 161.312092 336.381987 
L 161.609272 336.888045 
L 161.906452 337.156827 
L 162.203643 337.161421 
L 163.391793 336.8043 
L 164.282752 336.953122 
L 167.254028 336.906712 
L 190.129632 336.908894 
L 450.37544 336.9089 
L 450.37544 336.9089 
L 450.672624 341.542088 
L 450.9699 357.328993 
L 451.861395 422.122344 
L 452.455498 493.54246 
L 452.752699 497.45712 
L 453.346805 512.215883 
L 453.64384 492.00948 
L 454.237975 426.31198 
L 454.535056 406.643807 
L 455.129215 349.892289 
L 455.426392 335.574575 
L 455.723515 328.94769 
L 456.020622 328.51911 
L 456.317553 335.708009 
L 456.614236 346.267672 
L 456.911403 367.95918 
L 457.505495 436.829848 
L 458.099733 480.984058 
L 458.396738 512.893503 
L 458.693885 521.311291 
L 459.585529 461.874822 
L 460.47657 354.988019 
L 461.070932 320.921847 
L 461.367879 311.322928 
L 461.665044 311.634762 
L 461.961781 317.946636 
L 462.259376 331.110681 
L 463.447452 442.259885 
L 463.744735 484.14446 
L 464.041901 507.962386 
L 464.338781 507.92298 
L 464.635885 502.361731 
L 464.93297 491.119988 
L 466.41825 326.364922 
L 466.715623 303.899446 
L 467.012283 293.47164 
L 467.309593 288.551458 
L 467.606724 290.042559 
L 467.903659 303.275279 
L 468.497636 348.339846 
L 469.389429 435.112066 
L 469.983172 469.498538 
L 470.280148 474.255852 
L 470.577353 484.375259 
L 470.874615 480.500678 
L 471.171873 478.450162 
L 471.468671 464.428245 
L 472.65709 349.674651 
L 473.548554 294.16649 
L 473.84573 275.472094 
L 474.142777 276.207003 
L 474.439807 277.257359 
L 474.736514 289.575949 
L 475.033887 297.095656 
L 475.330708 292.933467 
L 475.627991 301.014133 
L 475.925069 321.288553 
L 476.519077 393.565316 
L 476.816502 428.361637 
L 477.410616 459.902673 
L 478.004872 474.370434 
L 478.301455 475.953737 
L 478.598735 459.894948 
L 479.193033 396.877393 
L 479.78727 338.245853 
L 480.975511 293.356755 
L 481.272844 285.351706 
L 481.569352 281.218195 
L 481.866632 281.787437 
L 482.163667 289.013027 
L 482.757901 320.962636 
L 485.134807 484.298114 
L 485.431948 484.706363 
L 485.728837 465.069059 
L 487.214517 327.724813 
L 487.808389 288.531048 
L 488.105411 284.729015 
L 488.699726 271.801052 
L 489.293566 259.494547 
L 489.590973 262.317006 
L 490.482334 285.370371 
L 490.779519 289.064059 
L 491.076538 301.761203 
L 493.156173 474.188437 
L 493.453156 478.512829 
L 493.750126 463.72336 
L 494.938566 357.167653 
L 496.126733 250.035681 
L 496.721067 208.171739 
L 497.0179 197.992609 
L 497.315076 193.641978 
L 497.612272 195.398527 
L 498.206122 214.532146 
L 498.503398 214.000824 
L 499.097379 192.395305 
L 499.3946 193.834703 
L 499.691804 206.60688 
L 500.285726 258.099279 
L 501.177142 348.047178 
L 502.068619 482.061287 
L 502.365543 501.592615 
L 502.662592 494.490385 
L 503.256863 421.397043 
L 503.850834 348.838925 
L 504.445173 285.770511 
L 505.039151 216.860059 
L 505.336702 197.193158 
L 505.633492 191.016801 
L 506.227455 202.033898 
L 506.52478 196.150974 
L 507.416166 152.569132 
L 507.713292 148.510976 
L 508.010449 152.446876 
L 508.90142 177.250045 
L 509.198451 177.638924 
L 509.495822 168.040602 
L 509.792647 153.672711 
L 510.089992 144.666939 
L 510.386907 143.823367 
L 510.68402 151.483798 
L 511.278304 185.805932 
L 511.872584 228.601109 
L 512.46632 262.120009 
L 513.06075 310.92061 
L 513.952142 411.226362 
L 514.546342 468.585994 
L 514.843347 474.686817 
L 515.140132 464.716728 
L 515.437554 440.83854 
L 516.0315 363.449296 
L 516.625524 282.653728 
L 517.219665 234.664639 
L 517.814216 201.636925 
L 518.705429 172.559946 
L 519.299533 139.653508 
L 519.596761 129.439311 
L 519.893836 126.462537 
L 520.190556 131.362647 
L 521.082066 167.436146 
L 521.379268 167.605824 
L 521.973359 151.471056 
L 522.270108 143.453775 
L 522.567507 139.725004 
L 522.864528 142.608108 
L 523.161415 153.150238 
L 524.64673 236.233789 
L 524.944275 249.263238 
L 525.241267 270.924417 
L 525.835507 349.483622 
L 526.429726 424.697283 
L 527.023638 473.105237 
L 527.320793 479.704475 
L 527.617828 464.666047 
L 527.914888 425.611263 
L 528.805869 262.210692 
L 529.103253 231.352813 
L 529.697477 195.348523 
L 530.291362 142.773302 
L 530.588483 128.649744 
L 530.885536 127.675899 
L 531.182898 139.942237 
L 531.776822 178.353837 
L 532.074286 179.508844 
L 532.371125 177.552907 
L 532.66798 190.605617 
L 532.96519 224.538834 
L 534.153758 427.96473 
L 534.450575 445.897149 
L 535.045202 461.591596 
L 535.342082 452.632811 
L 535.639201 420.508919 
L 536.827655 231.606526 
L 538.015774 164.649647 
L 538.312774 150.002682 
L 538.610137 142.890186 
L 538.907218 143.705149 
L 539.501305 153.846116 
L 539.798117 155.865987 
L 540.095255 160.235003 
L 540.392727 175.14928 
L 540.689359 203.591794 
L 542.768957 474.979284 
L 543.066107 471.831754 
L 543.363097 445.177372 
L 545.443058 181.54744 
L 546.036985 153.170266 
L 546.333907 145.908984 
L 546.631453 141.63344 
L 546.928047 140.89038 
L 547.225274 146.355969 
L 547.522203 160.393236 
L 547.819661 183.482042 
L 548.413691 254.591055 
L 549.899345 466.815734 
L 550.196117 473.917064 
L 550.493464 459.022708 
L 551.087707 383.933744 
L 551.978803 239.749032 
L 552.57313 179.606123 
L 553.166878 149.091926 
L 553.463949 142.060266 
L 553.761418 141.398338 
L 554.058207 148.534815 
L 554.355307 163.934645 
L 554.949411 216.88368 
L 555.543822 291.300206 
L 556.73239 486.845565 
L 557.029264 483.169251 
L 557.325986 442.482127 
L 558.217247 269.997293 
L 559.406067 150.910489 
L 559.703233 133.280223 
L 560.000027 134.103429 
L 560.296948 152.977459 
L 561.4854 284.675427 
L 561.782502 334.071216 
L 562.376972 466.762212 
L 562.673816 490.917852 
L 562.970745 459.994212 
L 563.862288 258.915927 
L 564.456337 203.096959 
L 565.050446 152.622226 
L 565.347428 139.106137 
L 565.644594 142.927778 
L 565.94202 166.089458 
L 566.832972 289.803352 
L 568.021575 473.671977 
L 568.318529 472.844717 
L 568.615712 433.035325 
L 569.80364 196.571845 
L 570.1008 163.491318 
L 570.398071 147.095437 
L 570.695299 147.565875 
L 570.992353 162.128359 
L 571.586486 214.192357 
L 572.180356 297.740966 
L 573.071545 462.48236 
L 573.369106 479.932886 
L 573.665999 452.899016 
L 574.259872 295.194107 
L 574.854233 157.12309 
L 575.151174 132.790338 
L 575.44853 139.704767 
L 575.745256 173.391932 
L 577.23109 425.848478 
L 577.52796 453.448108 
L 577.825255 451.781343 
L 578.122434 419.218871 
L 578.716426 293.021457 
L 579.310398 170.473662 
L 579.607929 151.571083 
L 579.904974 159.300619 
L 580.201745 180.64546 
L 580.498935 210.79056 
L 580.79598 255.136239 
L 581.687191 443.641425 
L 581.984468 463.241847 
L 582.281391 444.180812 
L 582.578333 391.460243 
L 583.470029 191.28015 
L 583.766699 167.798395 
L 584.063904 164.729095 
L 584.36124 172.675429 
L 584.658301 196.333407 
L 584.955349 246.645292 
L 585.846407 437.264404 
L 586.143428 459.045347 
L 586.440419 442.28921 
L 586.737622 385.260131 
L 587.332082 232.268234 
L 587.628961 185.427936 
L 587.926153 166.182992 
L 588.223373 170.694396 
L 588.519936 194.84455 
L 589.114436 279.146751 
L 590.005454 459.729149 
L 590.30287 455.619911 
L 590.896747 310.211669 
L 591.491004 199.55707 
L 591.78787 172.137652 
L 592.085134 164.837893 
L 592.382162 186.142013 
L 592.679436 236.999583 
L 593.570769 443.107242 
L 593.867529 459.131513 
L 594.164712 420.688064 
L 595.056082 206.756421 
L 595.352936 178.679115 
L 595.650376 176.732318 
L 595.947416 193.27499 
L 596.244413 227.558161 
L 596.8384 372.008755 
L 597.135596 441.375633 
L 597.43262 459.547652 
L 597.729973 415.80447 
L 598.621273 205.930895 
L 598.917885 169.137201 
L 599.215041 164.572547 
L 599.512614 202.255864 
L 600.403648 421.642989 
L 600.700571 448.866642 
L 600.997973 429.40781 
L 601.295053 371.589658 
L 601.888719 213.578819 
L 602.186335 165.191998 
L 602.482985 164.571791 
L 602.78015 211.07226 
L 603.671359 415.679562 
L 603.968777 442.297238 
L 604.265854 426.439458 
L 604.562526 363.079019 
L 605.156967 200.407947 
L 605.454215 168.705684 
L 605.751064 182.363493 
L 606.048016 229.341718 
L 606.939205 432.780475 
L 607.236502 443.970728 
L 607.533458 398.146075 
L 608.127704 234.95408 
L 608.425002 187.1142 
L 608.721984 178.73371 
L 609.018987 206.874572 
L 609.612986 337.120022 
L 609.910014 409.478986 
L 610.207505 445.002091 
L 610.504267 416.646467 
L 611.395636 206.826894 
L 611.692994 186.079849 
L 611.989924 195.063696 
L 612.287064 239.388538 
L 612.880855 401.35546 
L 613.178232 441.383227 
L 613.475583 416.978208 
L 614.366614 211.354365 
L 614.663933 178.829134 
L 614.960551 192.660113 
L 615.258093 254.434978 
L 615.851843 412.813668 
L 616.1493 436.739725 
L 616.446366 404.706083 
L 617.337145 192.616629 
L 617.634475 180.763722 
L 617.931717 220.263721 
L 618.822948 427.696493 
L 619.120057 427.116179 
L 619.417155 369.485524 
L 620.011175 212.306831 
L 620.308127 183.667295 
L 620.605294 204.483285 
L 621.199694 345.99046 
L 621.496517 414.098986 
L 621.79377 432.267903 
L 622.091058 386.606798 
L 622.685241 230.714982 
L 622.982212 192.587297 
L 623.279403 198.310795 
L 623.576461 249.040402 
L 624.170615 406.389791 
L 624.467321 429.730693 
L 624.76467 391.067639 
L 625.655724 193.249038 
L 625.953058 195.918919 
L 626.249804 252.787727 
L 626.843924 404.269721 
L 627.141274 425.281916 
L 627.438592 388.771936 
L 628.032612 231.345219 
L 628.329771 192.586363 
L 628.626852 208.642899 
L 629.220929 345.302159 
L 629.518011 410.093473 
L 629.814871 421.713333 
L 630.112041 370.218421 
L 630.706489 222.940573 
L 631.003539 196.659343 
L 631.300262 219.81789 
L 632.191559 418.166965 
L 632.488674 406.550562 
L 633.379746 207.486167 
L 633.677006 200.567815 
L 633.974351 247.261881 
L 634.568622 394.142141 
L 634.865289 418.76396 
L 635.162421 381.636193 
L 635.756949 232.229293 
L 636.053983 201.301639 
L 636.350756 222.211012 
L 637.241836 413.324323 
L 637.538939 401.147618 
L 638.430494 210.269831 
L 638.727817 209.929387 
L 639.02449 260.749214 
L 639.618833 399.538641 
L 639.915976 409.488582 
L 640.213124 361.108029 
L 640.80692 222.377925 
L 641.104124 207.548967 
L 641.401373 244.652293 
L 641.995182 385.944107 
L 642.292286 410.901947 
L 642.589416 374.585399 
L 643.183727 234.883956 
L 643.480935 208.572702 
L 643.778209 235.511942 
L 644.371931 374.822281 
L 644.669061 407.89579 
L 644.966184 381.665365 
L 645.560483 243.328734 
L 645.857644 211.612973 
L 646.154899 232.716645 
L 647.045747 405.087508 
L 647.342834 383.49073 
L 647.937086 248.949174 
L 648.234259 214.894283 
L 648.531489 232.549725 
L 649.422291 401.839247 
L 649.719406 381.87101 
L 650.31364 249.993033 
L 650.610774 217.122787 
L 650.907974 236.224187 
L 651.799355 400.021258 
L 652.096448 377.357364 
L 652.690656 248.176613 
L 652.987788 219.466427 
L 653.284388 241.549173 
L 653.878623 369.575971 
L 654.175701 397.657324 
L 654.472775 369.820627 
L 655.067028 243.484184 
L 655.364129 221.602742 
L 655.661267 250.831741 
L 656.255519 375.357158 
L 656.552591 394.771486 
L 656.849634 358.980658 
L 657.443879 238.06292 
L 657.740988 225.882385 
L 658.038122 262.640869 
L 658.632274 382.162282 
L 658.92939 388.800188 
L 659.226411 344.496121 
L 659.820639 232.536449 
L 660.11775 232.797049 
L 660.414857 278.863625 
L 661.008991 386.895936 
L 661.306111 379.577664 
L 662.197292 230.066654 
L 662.494443 243.946662 
L 663.385626 388.193606 
L 663.682718 364.937358 
L 664.276909 250.211707 
L 664.573974 231.148831 
L 664.87101 260.230013 
L 665.465197 372.485735 
L 665.762253 383.879959 
L 666.059307 345.707824 
L 666.653468 240.23746 
L 666.950551 238.754863 
L 667.247623 280.872567 
L 667.841754 380.969915 
L 668.138797 372.201575 
L 669.03003 235.835252 
L 669.327093 253.050084 
L 669.921207 360.530666 
L 670.218262 381.545679 
L 670.515891 353.531316 
L 671.110006 248.994885 
L 671.407075 239.904281 
L 671.704185 274.111573 
L 672.298292 373.937668 
L 672.595307 372.599167 
L 673.486502 240.962013 
L 673.783565 252.742713 
L 674.377657 354.048336 
L 674.674729 377.474379 
L 674.97173 354.381375 
L 675.565842 254.329422 
L 675.862881 243.197818 
L 676.159986 274.169161 
L 676.754653 369.649413 
L 677.05168 369.432879 
L 677.942855 244.928631 
L 678.239879 256.235797 
L 678.833976 352.402328 
L 679.131024 373.560128 
L 679.428032 350.327773 
L 680.022094 256.06906 
L 680.319157 247.644454 
L 680.616228 279.060349 
L 681.210877 367.6783 
L 681.507885 364.068763 
L 682.39903 247.878337 
L 682.69607 262.675274 
L 683.290143 354.218412 
L 683.587164 369.370057 
L 683.884171 342.637358 
L 684.478817 255.639049 
L 684.775874 253.44821 
L 685.072938 287.825595 
L 685.369948 336.736307 
L 685.666967 366.61137 
L 685.963977 356.373778 
L 686.558016 268.753149 
L 686.855086 251.091439 
L 687.152112 271.998701 
L 687.746764 357.607155 
L 688.043767 363.653509 
L 688.340769 331.691168 
L 688.934818 255.061087 
L 689.23186 261.397473 
L 690.122916 364.601717 
L 690.420529 345.725434 
L 691.014559 263.626128 
L 691.311619 256.25836 
L 691.608625 284.321622 
L 692.202664 360.160603 
L 692.499663 355.202327 
L 693.391307 256.215865 
L 693.688347 272.487134 
L 694.282372 351.690268 
L 694.579371 359.707113 
L 694.876369 332.118454 
L 695.471011 260.252533 
L 695.768029 264.76325 
L 696.659063 359.749828 
L 696.95606 343.105323 
L 697.550074 267.709289 
L 697.847694 260.958108 
L 698.144736 286.896301 
L 698.738726 356.018168 
L 699.035731 350.555534 
L 699.629735 277.293281 
L 699.926764 260.750046 
L 700.224364 277.271916 
L 700.818385 349.360784 
L 701.115383 354.558115 
L 701.412374 327.550335 
L 701.709373 288.089091 
L 702.006384 263.718959 
L 702.303415 270.425485 
L 702.898011 340.755939 
L 703.195009 355.26639 
L 703.491998 336.886844 
L 704.086018 269.028778 
L 704.383026 266.583268 
L 704.680624 293.351109 
L 704.977635 331.021578 
L 705.274623 353.168725 
L 705.571614 343.809252 
L 706.165608 276.174467 
L 706.462621 265.395469 
L 706.760237 284.741851 
L 707.354224 348.801205 
L 707.651217 348.181211 
L 708.542211 266.54057 
L 708.839815 278.200109 
L 709.433814 342.755438 
L 709.730798 350.179802 
L 710.027786 328.238025 
L 710.621781 269.687967 
L 710.919398 273.670416 
L 711.81037 349.986478 
L 712.107355 335.023134 
L 712.701362 274.309283 
L 712.998955 271.174896 
L 713.295955 294.377052 
L 713.592955 327.87663 
L 713.889938 347.962623 
L 714.186922 340.06555 
L 714.781502 280.03181 
L 715.078513 270.486754 
L 715.375513 287.808118 
L 715.969497 344.42046 
L 716.266478 343.358496 
L 717.158053 271.40266 
L 717.455057 282.687779 
L 718.049041 339.768793 
L 718.346024 345.000552 
L 718.643603 324.384844 
L 719.237592 273.688069 
L 719.534599 278.972784 
L 720.128578 334.335988 
L 720.425556 345.119624 
L 720.723132 329.902385 
L 721.317123 277.045514 
L 721.614114 276.671454 
L 722.505683 343.956002 
L 722.802661 334.205029 
L 723.396636 281.240887 
L 723.693645 275.649861 
L 723.990632 293.539487 
L 724.585201 341.670469 
L 724.882178 337.31884 
L 725.476153 285.995506 
L 725.773144 275.801063 
L 726.070742 289.08507 
L 726.664706 338.531276 
L 726.961685 339.259025 
L 727.853247 276.951384 
L 728.150239 285.557149 
L 728.74421 334.725005 
L 729.041185 340.104374 
L 729.338162 323.110469 
L 729.932737 278.962503 
L 730.229732 283.010668 
L 730.823699 330.471688 
L 731.120679 339.977018 
L 731.418253 327.071015 
L 732.012224 281.659496 
L 732.309215 281.393723 
L 733.200758 338.978541 
L 733.497732 330.280461 
L 734.091701 284.887159 
L 734.388692 280.659774 
L 734.685686 296.555314 
L 735.280238 337.262341 
L 735.577211 332.659898 
L 736.171177 288.504057 
L 736.468168 280.702712 
L 736.76575 293.100056 
L 737.35971 334.940783 
L 737.656684 334.251875 
L 738.54823 281.457505 
L 738.845223 290.263151 
L 739.439179 332.163836 
L 739.736152 335.089635 
L 740.033723 319.176914 
L 740.330703 296.277969 
L 740.627696 282.801683 
L 740.92468 288.095566 
L 741.51864 329.036291 
L 741.816211 335.238037 
L 742.113183 322.44721 
L 742.707147 284.656552 
L 743.004141 286.580103 
L 743.895666 334.779152 
L 744.192641 325.162617 
L 744.786606 286.914565 
L 745.084184 285.691514 
L 745.975121 333.780893 
L 746.272092 327.325925 
L 746.866646 289.464395 
L 747.163636 285.35455 
L 747.163636 285.35455 
" clip-path="url(#pd3bc49e6f5)" style="fill: none; stroke: #ff0000; stroke-opacity: 0.3; stroke-width: 1.5; stroke-linecap: square"/>
   </g>
   <g id="line2d_16">
    <path d="M 138.436364 322.38 
L 153.290605 322.379839 
L 153.290605 322.379839 
L 153.587922 331.845525 
L 153.884894 303.784749 
L 154.182146 365.483547 
L 154.479251 483.473256 
L 154.776466 506.62347 
L 155.073492 511.7908 
L 155.370338 532.683739 
L 155.667478 533.182074 
L 155.964522 530.973767 
L 156.261628 538.007638 
L 156.55879 542.075424 
L 156.856006 541.506962 
L 157.153226 539.078717 
L 157.449846 533.9605 
L 158.044177 517.23106 
L 158.341369 506.839825 
L 158.638623 500.655565 
L 158.935218 503.071254 
L 159.529553 514.191168 
L 159.826741 514.689681 
L 160.718318 508.533085 
L 161.014895 508.65231 
L 161.609272 510.874943 
L 161.906452 511.249879 
L 162.203643 510.969733 
L 162.797418 510.048706 
L 163.094606 509.994311 
L 163.98617 510.535646 
L 164.579942 510.409298 
L 165.174319 510.290924 
L 166.956843 510.3621 
L 170.224705 510.368446 
L 217.758434 510.367813 
L 450.37544 510.367824 
L 450.37544 510.367824 
L 450.672624 511.178583 
L 450.9699 526.985963 
L 451.267086 517.100842 
L 451.56394 489.87316 
L 451.861395 479.277809 
L 452.158408 464.097228 
L 453.346805 272.826306 
L 453.64384 217.191414 
L 454.535056 137.15584 
L 454.832228 119.401736 
L 455.426392 133.321105 
L 455.723515 117.494561 
L 456.020622 109.067935 
L 456.614236 134.59731 
L 456.911403 128.59506 
L 457.208537 129.066287 
L 457.505495 155.88598 
L 458.396738 265.929114 
L 458.990907 380.935274 
L 459.882669 500.71245 
L 460.179643 513.496905 
L 460.47657 510.328802 
L 461.070932 535.247212 
L 461.367879 533.792791 
L 461.665044 520.455363 
L 461.961781 517.623355 
L 462.259376 530.883645 
L 462.556471 532.25323 
L 463.447452 475.149215 
L 463.744735 442.06704 
L 465.229834 172.080615 
L 465.526861 150.180818 
L 465.824291 141.905146 
L 466.41825 110.086077 
L 466.715623 114.601773 
L 467.012283 127.020152 
L 467.309593 124.511997 
L 467.606724 112.158124 
L 467.903659 110.373428 
L 468.497636 133.670959 
L 468.794828 136.310442 
L 469.092062 154.878396 
L 471.171873 385.766713 
L 471.766137 454.757025 
L 472.063147 484.736162 
L 472.359853 497.472191 
L 472.65709 496.316762 
L 472.954031 496.237038 
L 473.548554 489.017501 
L 473.84573 487.591456 
L 474.142777 482.871357 
L 474.736514 476.260546 
L 475.033887 482.739173 
L 475.925069 516.876103 
L 476.222237 512.41785 
L 476.519077 493.786866 
L 477.11364 429.84081 
L 478.004872 315.056508 
L 478.598735 218.815131 
L 478.895893 185.206502 
L 479.193033 167.532327 
L 479.490143 163.377 
L 479.78727 163.461652 
L 480.084408 162.610908 
L 480.67852 149.519811 
L 480.975511 148.014353 
L 481.272844 150.748435 
L 481.569352 156.022328 
L 481.866632 156.330966 
L 482.163667 152.424553 
L 482.460751 143.882254 
L 482.757901 139.497812 
L 483.054826 141.974751 
L 483.351891 152.958227 
L 484.83737 248.969271 
L 485.431948 338.425164 
L 486.025999 425.080896 
L 486.620245 474.428022 
L 486.916981 490.974875 
L 487.214517 498.68403 
L 487.511183 496.629497 
L 488.105411 474.783228 
L 488.40255 475.513087 
L 488.996556 498.81968 
L 489.293566 502.260663 
L 489.590973 500.242668 
L 489.888177 490.226206 
L 490.184946 476.36024 
L 490.482334 472.976078 
L 490.779519 482.084913 
L 491.076538 495.972493 
L 491.373536 502.752692 
L 491.670752 496.812173 
L 491.967912 478.800213 
L 492.56204 421.530719 
L 493.156173 344.100495 
L 493.750126 249.671255 
L 494.344564 191.837841 
L 494.938566 163.278574 
L 495.23555 153.787318 
L 495.532469 150.761524 
L 495.829664 153.376979 
L 497.0179 184.164852 
L 497.315076 188.868428 
L 497.909245 205.841431 
L 498.206122 218.299412 
L 498.503398 217.816758 
L 499.691804 162.202548 
L 499.989144 156.912516 
L 500.285726 158.807721 
L 500.583206 164.975636 
L 500.880062 166.079384 
L 501.177142 160.891016 
L 501.474343 163.685833 
L 501.771579 187.401608 
L 502.365543 300.859839 
L 502.959768 422.927448 
L 503.256863 453.355397 
L 504.445173 494.199654 
L 504.742315 494.211371 
L 505.039151 480.139158 
L 505.930829 419.398687 
L 506.227455 413.193165 
L 506.82172 418.369644 
L 507.11872 413.041342 
L 508.010449 382.565889 
L 508.604568 376.860921 
L 509.198451 371.556592 
L 509.495822 371.873504 
L 509.792647 381.018149 
L 510.386907 409.794592 
L 510.981143 439.192477 
L 511.278304 447.045188 
L 511.872584 455.922692 
L 512.76377 482.613096 
L 513.06075 481.212166 
L 513.357951 473.016233 
L 513.654787 458.957128 
L 513.952142 436.903501 
L 514.546342 358.662746 
L 515.437554 219.315901 
L 515.734304 186.531528 
L 516.0315 166.412134 
L 516.328532 161.270444 
L 516.625524 168.401473 
L 517.219665 188.403538 
L 517.814216 205.945139 
L 518.408082 230.281419 
L 519.002355 247.256188 
L 519.596761 276.738427 
L 520.190556 309.875741 
L 520.487621 320.833409 
L 520.784824 326.297188 
L 521.379268 330.907949 
L 521.676092 335.386042 
L 521.973359 343.482791 
L 522.567507 371.090567 
L 523.458337 425.588814 
L 523.755722 437.147981 
L 524.349749 447.717986 
L 524.64673 453.931515 
L 525.538317 483.713395 
L 525.835507 477.243262 
L 526.132466 456.440511 
L 526.726689 393.095595 
L 527.320793 292.636116 
L 527.914888 180.324107 
L 528.211975 148.060083 
L 528.509255 140.133452 
L 528.805869 154.74992 
L 529.400516 211.803665 
L 530.291362 262.701491 
L 531.479901 368.134997 
L 532.074286 398.484484 
L 533.262451 507.726461 
L 533.559542 504.111801 
L 533.856294 476.383212 
L 535.045202 292.88918 
L 535.639201 186.864952 
L 535.936087 152.873128 
L 536.233227 142.905308 
L 536.530388 153.338896 
L 537.421464 213.588073 
L 538.015774 240.560955 
L 538.907218 306.403876 
L 539.798117 374.942273 
L 540.986597 485.425515 
L 541.283584 490.182437 
L 541.580807 481.9932 
L 541.877711 466.697127 
L 542.174711 443.023226 
L 542.47207 403.908417 
L 543.660493 190.707734 
L 543.957551 167.779373 
L 544.254643 157.404959 
L 544.551369 157.52818 
L 544.848766 167.417967 
L 545.443058 208.222598 
L 547.225274 377.839103 
L 548.116448 464.69495 
L 548.413691 479.821279 
L 548.710565 485.746887 
L 549.008071 481.850391 
L 549.304859 464.677758 
L 549.601853 429.847895 
L 551.087707 174.886304 
L 551.384672 157.112313 
L 551.681649 155.928245 
L 551.978803 168.343133 
L 552.57313 216.995187 
L 553.761418 344.460902 
L 554.652273 435.439014 
L 555.246756 474.122678 
L 555.543822 485.514905 
L 555.840797 487.442871 
L 556.137793 471.020283 
L 556.434801 426.740189 
L 557.623356 163.574275 
L 557.92074 156.728317 
L 558.217247 171.847079 
L 559.406067 262.335726 
L 560.594362 430.501186 
L 560.891109 446.977297 
L 561.188137 456.065713 
L 561.782502 481.383489 
L 562.079683 467.096792 
L 562.376972 408.165661 
L 562.970745 222.558006 
L 563.267992 165.804511 
L 563.564941 156.243125 
L 564.753126 239.464668 
L 565.050446 270.317414 
L 566.238585 442.940055 
L 566.535681 461.601726 
L 566.832972 469.639505 
L 567.129878 470.395192 
L 567.427005 458.331243 
L 567.724482 420.920573 
L 568.912552 165.537906 
L 569.209455 154.624643 
L 569.506713 167.258452 
L 570.1008 236.868578 
L 571.289553 406.347683 
L 571.88372 459.637972 
L 572.180356 475.782914 
L 572.477672 474.144805 
L 572.77449 445.907487 
L 573.071545 387.741196 
L 573.963021 158.597601 
L 574.259872 141.35762 
L 574.55726 167.118263 
L 575.151174 294.530476 
L 575.745256 421.58881 
L 576.042604 457.072108 
L 576.339566 470.782882 
L 576.636744 466.406096 
L 576.934158 446.43233 
L 577.23109 407.068632 
L 578.419509 176.244114 
L 578.716426 161.211817 
L 579.013377 181.289967 
L 580.498935 432.691647 
L 580.79598 464.087988 
L 581.093282 477.099446 
L 581.390115 455.638257 
L 581.984468 323.05455 
L 582.578333 189.935498 
L 582.87551 164.375361 
L 583.172882 177.106898 
L 584.063904 325.472347 
L 584.955349 462.883019 
L 585.252307 474.88068 
L 585.549417 451.919032 
L 585.846407 398.654219 
L 586.737622 186.314539 
L 587.034546 165.724196 
L 587.332082 188.033844 
L 588.817448 432.481403 
L 589.114436 452.672609 
L 589.41138 459.169458 
L 589.708343 434.059647 
L 590.599709 192.206076 
L 590.896747 173.481607 
L 591.194157 196.325568 
L 591.78787 284.506539 
L 592.679436 452.881799 
L 592.976507 472.020926 
L 593.273391 452.03218 
L 593.570769 389.67737 
L 594.164712 219.814214 
L 594.462009 177.767083 
L 594.758749 183.082675 
L 595.056082 223.283637 
L 596.244413 434.546609 
L 596.541587 466.764709 
L 596.8384 458.606574 
L 597.135596 397.666709 
L 597.729973 219.544427 
L 598.027122 180.973606 
L 598.323708 185.924559 
L 598.621273 223.384754 
L 599.215041 357.102401 
L 599.512614 425.898452 
L 599.809335 465.063844 
L 600.106751 460.218656 
L 600.403648 409.212819 
L 601.295053 195.426814 
L 601.591984 177.859749 
L 601.888719 207.249664 
L 602.78015 430.320581 
L 603.077401 460.078777 
L 603.374582 448.335572 
L 603.671359 401.419984 
L 604.562526 191.008926 
L 604.859861 181.649958 
L 605.156967 226.128426 
L 606.048016 432.525461 
L 606.345497 456.536491 
L 606.642145 440.043554 
L 606.939205 380.299327 
L 607.533458 215.541094 
L 607.830905 183.26902 
L 608.127704 207.025474 
L 609.316132 442.504787 
L 609.612986 449.643688 
L 609.910014 410.195682 
L 610.801382 192.19896 
L 611.09889 202.731877 
L 611.692994 311.235371 
L 612.287064 431.890125 
L 612.584148 455.426149 
L 612.880855 420.44838 
L 613.475583 250.769092 
L 613.772504 202.490359 
L 614.069504 200.981332 
L 614.366614 239.76378 
L 615.258093 443.974698 
L 615.55517 450.548471 
L 615.851843 400.35172 
L 616.446366 238.289102 
L 616.743369 196.791736 
L 617.040361 206.979937 
L 617.337145 263.920112 
L 617.931717 415.696497 
L 618.228596 448.556842 
L 618.525511 429.491448 
L 619.417155 210.288533 
L 619.714118 197.015108 
L 620.011175 239.629017 
L 620.902271 437.623106 
L 621.199694 440.084762 
L 621.496517 388.911072 
L 622.091058 225.068747 
L 622.387603 199.284467 
L 622.685241 230.155987 
L 623.576461 428.492538 
L 623.873505 443.432764 
L 624.170615 397.509689 
L 624.76467 235.869219 
L 625.061654 204.163983 
L 625.358711 224.653436 
L 626.249804 429.997411 
L 626.546996 438.937294 
L 626.843924 391.213186 
L 627.438592 235.331537 
L 627.735191 203.140893 
L 628.032612 231.578891 
L 628.92371 428.594662 
L 629.220929 431.178147 
L 629.518011 379.0236 
L 630.112041 224.107424 
L 630.409179 210.255503 
L 630.706489 250.222655 
L 631.59769 434.75853 
L 631.894824 419.005411 
L 632.785704 216.825318 
L 633.083053 219.646178 
L 633.379746 273.369329 
L 633.974351 415.287819 
L 634.271395 431.783593 
L 634.568622 391.549641 
L 635.162421 239.464528 
L 635.459713 212.499638 
L 635.756949 244.515221 
L 636.648017 427.893635 
L 636.945195 414.5241 
L 637.836066 220.192926 
L 638.133345 228.165163 
L 639.02449 416.370956 
L 639.321576 423.157925 
L 639.618833 374.03242 
L 640.213124 232.478107 
L 640.509755 221.483844 
L 640.80692 265.572351 
L 641.401373 402.252651 
L 641.698563 424.467516 
L 641.995182 389.694051 
L 642.589416 244.992137 
L 642.886597 221.625096 
L 643.183727 254.296999 
L 643.778209 390.873707 
L 644.075345 422.190315 
L 644.371931 396.989749 
L 644.966184 255.42993 
L 645.263315 223.893186 
L 645.560483 249.155667 
L 646.154899 382.747484 
L 646.451436 418.540189 
L 646.748618 399.710582 
L 647.639964 227.129713 
L 647.937086 248.452056 
L 648.828626 415.783232 
L 649.125766 398.246018 
L 650.016477 229.67868 
L 650.31364 250.548284 
L 651.205126 413.24818 
L 651.502271 394.606139 
L 652.096448 262.222053 
L 652.393558 232.07053 
L 652.690656 255.99389 
L 653.284388 381.536799 
L 653.581518 411.78732 
L 653.878623 387.689526 
L 654.472775 258.316615 
L 654.769866 234.388556 
L 655.067028 263.738059 
L 655.661267 387.001288 
L 655.958387 409.035479 
L 656.255519 377.995967 
L 656.849634 252.167349 
L 657.146729 238.505962 
L 657.443879 275.364063 
L 658.038122 393.359242 
L 658.335177 404.865473 
L 658.632274 364.126551 
L 659.226411 246.765256 
L 659.52348 244.91028 
L 659.820639 290.089571 
L 660.414857 398.680325 
L 660.711906 396.774448 
L 661.603174 243.053608 
L 661.900217 255.778324 
L 662.79158 401.504552 
L 663.088594 384.223485 
L 663.682718 266.816789 
L 663.979784 243.758138 
L 664.276909 270.703118 
L 664.87101 382.829465 
L 665.168129 398.971225 
L 665.465197 366.386471 
L 666.059307 255.034669 
L 666.356362 250.219064 
L 666.653468 290.804095 
L 667.247623 392.393535 
L 667.544731 390.262001 
L 668.435871 249.423824 
L 668.732928 263.262796 
L 669.327093 369.798339 
L 669.624123 395.302456 
L 669.921207 373.78211 
L 670.515891 265.317086 
L 670.812979 251.526635 
L 671.110006 283.490081 
L 671.704185 384.353192 
L 672.001269 389.753943 
L 672.298292 350.325767 
L 672.892362 255.285537 
L 673.189437 262.783269 
L 674.080593 390.703671 
L 674.377657 374.237359 
L 674.97173 271.343588 
L 675.268779 255.012524 
L 675.565842 282.959507 
L 676.159986 379.603756 
L 676.457057 386.487652 
L 676.754653 350.090417 
L 677.348708 259.326188 
L 677.64576 266.027673 
L 678.536915 386.850624 
L 678.833976 370.450176 
L 679.428032 273.116325 
L 679.725059 259.160169 
L 680.022094 287.308352 
L 680.616228 377.999545 
L 680.913284 381.557376 
L 681.210877 344.83207 
L 681.507885 292.866112 
L 681.804912 261.858646 
L 682.101948 271.846861 
L 682.69607 362.585481 
L 682.993095 383.509333 
L 683.290143 363.297734 
L 683.884171 272.035779 
L 684.18121 264.288857 
L 684.478817 295.390456 
L 685.072938 377.952478 
L 685.369948 374.823406 
L 686.260976 264.087365 
L 686.558016 280.364302 
L 687.152112 366.637558 
L 687.449733 379.269632 
L 687.746764 352.977296 
L 688.340769 270.146514 
L 688.637799 271.304634 
L 689.528919 377.531294 
L 689.825913 365.506691 
L 690.420529 281.061467 
L 690.717526 267.819021 
L 691.014559 291.867456 
L 691.608625 370.711955 
L 691.905649 372.64295 
L 692.796667 269.696598 
L 693.094274 281.19213 
L 693.688347 360.41666 
L 693.985363 374.796059 
L 694.282372 352.89457 
L 694.876369 275.845922 
L 695.173379 274.702125 
L 696.065048 372.46913 
L 696.362065 362.399111 
L 696.95606 285.052253 
L 697.253074 272.570796 
L 697.550074 294.384515 
L 698.144736 366.741937 
L 698.441729 367.996631 
L 699.332721 274.077929 
L 699.629735 285.70858 
L 700.224364 358.483851 
L 700.521384 369.912272 
L 700.818385 348.1729 
L 701.412374 278.739498 
L 701.709373 280.17892 
L 702.601018 368.663345 
L 702.898011 356.321912 
L 703.491998 285.718414 
L 703.788992 277.638911 
L 704.086018 300.66508 
L 704.680624 364.75391 
L 704.977635 361.751487 
L 705.868612 277.945333 
L 706.165608 292.822919 
L 706.760237 358.906523 
L 707.057225 364.472631 
L 707.354224 340.337883 
L 707.948196 280.542181 
L 708.245198 287.236212 
L 708.839815 351.672602 
L 709.136825 364.781123 
L 709.433814 348.012258 
L 710.027786 285.084265 
L 710.324776 283.851627 
L 711.216395 363.002258 
L 711.513388 353.725215 
L 712.107355 291.003651 
L 712.404347 282.520819 
L 712.701362 302.052748 
L 713.295955 359.547776 
L 713.592955 357.524337 
L 714.483914 283.096605 
L 714.781502 296.207343 
L 715.375513 354.818822 
L 715.672504 359.457707 
L 715.969497 337.748984 
L 716.266478 305.13858 
L 716.563457 285.222213 
L 716.861056 291.902957 
L 717.455057 349.17909 
L 717.752058 359.758759 
L 718.049041 343.755148 
L 718.643603 288.64424 
L 718.94059 289.108909 
L 719.831587 358.574827 
L 720.128578 348.443363 
L 720.723132 293.045388 
L 721.020125 287.772615 
L 721.317123 306.929719 
L 721.911122 356.224614 
L 722.208106 351.781734 
L 722.802661 298.151632 
L 723.099645 287.753278 
L 723.396636 301.974317 
L 723.990632 352.899094 
L 724.288218 353.801839 
L 725.179159 288.892834 
L 725.476153 298.107194 
L 726.070742 348.905956 
L 726.367727 354.679616 
L 726.664706 337.322195 
L 727.258667 291.006529 
L 727.555652 295.289667 
L 728.150239 344.402167 
L 728.447228 354.463185 
L 728.74421 341.591487 
L 729.338162 293.904947 
L 729.63575 293.546618 
L 730.526722 353.339612 
L 730.823699 344.922941 
L 731.418253 297.386376 
L 731.715232 292.714566 
L 732.012224 309.159773 
L 732.606202 351.419289 
L 732.903191 347.359938 
L 733.497732 301.300185 
L 733.794716 292.786798 
L 734.091701 305.428372 
L 734.685686 348.886999 
L 734.983262 348.894043 
L 735.87419 293.617614 
L 736.171177 302.432644 
L 736.76575 345.88168 
L 737.062738 349.655415 
L 737.35971 333.796487 
L 737.656684 309.783568 
L 737.953661 295.130702 
L 738.250646 300.16714 
L 738.845223 342.528639 
L 739.1422 349.668302 
L 739.439179 337.184071 
L 740.033723 297.172834 
L 740.330703 298.627889 
L 741.221665 349.033095 
L 741.51864 339.959653 
L 742.113183 299.676324 
L 742.410164 297.737779 
L 742.707147 313.379691 
L 743.004141 335.25262 
L 743.301119 347.830595 
L 743.598695 342.074203 
L 744.192641 302.50605 
L 744.489616 297.466159 
L 744.786606 310.287693 
L 745.381171 346.164621 
L 745.678147 343.632183 
L 746.272092 305.572778 
L 746.569069 297.76606 
L 746.866646 307.709088 
L 747.163636 327.979686 
L 747.163636 327.979686 
" clip-path="url(#pd3bc49e6f5)" style="fill: none; stroke: #008000; stroke-opacity: 0.3; stroke-width: 1.5; stroke-linecap: square"/>
   </g>
   <g id="line2d_17">
    <path d="M 138.436364 544.366379 
L 153.290605 544.366379 
L 153.290605 544.366379 
L 153.587922 503.994574 
L 154.479251 188.668284 
L 154.776466 235.999452 
L 155.073492 325.892692 
L 155.370338 379.412924 
L 155.667478 371.118936 
L 156.261628 305.247554 
L 156.55879 304.804902 
L 157.153226 333.360468 
L 157.449846 335.373571 
L 158.044177 324.565033 
L 158.341369 322.273725 
L 158.638623 323.409124 
L 159.232366 328.15161 
L 159.529553 328.254868 
L 160.421116 326.001102 
L 160.718318 326.031318 
L 161.312092 326.832817 
L 161.609272 326.916489 
L 162.797418 326.538194 
L 163.98617 326.676384 
L 165.7687 326.650756 
L 281.037669 326.644427 
L 450.37544 326.644423 
L 450.37544 326.644423 
L 451.267086 358.645124 
L 451.861395 378.05283 
L 452.455498 390.063076 
L 452.752699 393.806227 
L 453.049476 396.089365 
L 453.346805 395.86218 
L 453.940774 382.640594 
L 454.832228 359.650492 
L 457.505495 267.963814 
L 458.396738 248.755607 
L 458.693885 246.909319 
L 458.990907 249.237375 
L 459.585529 259.018528 
L 459.882669 265.178199 
L 460.773936 293.25277 
L 462.853009 368.209951 
L 464.041901 401.426738 
L 464.338781 402.817772 
L 464.635885 401.215128 
L 464.93297 397.709092 
L 465.229834 392.642856 
L 465.824291 376.417259 
L 469.389429 250.804188 
L 469.983172 241.225507 
L 470.280148 237.955011 
L 470.577353 236.85995 
L 471.468671 246.16344 
L 471.766137 250.79274 
L 475.627991 357.945769 
L 477.11364 404.855968 
L 477.70727 412.235958 
L 478.004872 412.783135 
L 478.301455 411.451746 
L 478.895893 400.956676 
L 480.381285 360.82276 
L 481.272844 332.522984 
L 482.460751 292.816323 
L 483.649332 255.871936 
L 484.540496 235.643341 
L 485.134807 228.237304 
L 485.431948 227.648036 
L 485.728837 230.747772 
L 486.323229 240.815308 
L 486.916981 256.472745 
L 488.105411 290.105489 
L 488.996556 312.13948 
L 490.779519 363.591389 
L 492.264538 405.542652 
L 492.85898 417.12834 
L 493.156173 421.682873 
L 493.453156 423.880192 
L 493.750126 421.891269 
L 494.344564 411.468896 
L 495.23555 388.80075 
L 497.909245 325.511938 
L 499.3946 299.722924 
L 499.989144 282.603823 
L 501.474343 236.345683 
L 502.068619 221.892906 
L 502.365543 218.194625 
L 502.662592 218.327996 
L 502.959768 222.311969 
L 504.148238 248.316945 
L 505.633492 284.061422 
L 507.713292 310.155707 
L 509.792647 332.343347 
L 510.68402 347.091689 
L 512.169336 377.718733 
L 514.249267 430.206277 
L 514.546342 434.724092 
L 514.843347 436.153674 
L 515.140132 434.015784 
L 515.734304 422.11728 
L 517.814216 371.424155 
L 518.408082 361.039992 
L 519.299533 349.984547 
L 519.893836 344.892602 
L 520.487621 342.778744 
L 520.784824 342.407563 
L 521.379268 342.582712 
L 521.676092 343.499458 
L 521.973359 344.937777 
L 522.270108 347.010585 
L 522.864528 353.345759 
L 523.458337 362.106642 
L 524.349749 379.05506 
L 525.241267 400.657043 
L 526.429726 430.079048 
L 526.726689 435.76604 
L 527.023638 438.997595 
L 527.320793 438.578736 
L 527.617828 434.807508 
L 528.211975 420.447184 
L 529.103253 395.100774 
L 529.697477 383.717853 
L 530.291362 376.347228 
L 530.588483 374.221078 
L 530.885536 373.389692 
L 531.182898 373.947224 
L 531.479901 375.040622 
L 531.776822 376.580162 
L 532.074286 379.290887 
L 532.371125 383.220107 
L 532.96519 397.492617 
L 534.153758 432.849013 
L 534.450575 437.643928 
L 534.748122 439.688046 
L 535.045202 438.385075 
L 535.639201 429.435724 
L 536.530388 405.680099 
L 537.124281 392.284101 
L 537.718435 381.932421 
L 538.312774 375.29894 
L 538.610137 373.199274 
L 538.907218 372.348438 
L 539.204199 373.192867 
L 539.501305 374.812787 
L 539.798117 377.576953 
L 540.392727 387.157993 
L 540.986597 402.194654 
L 542.174711 433.842942 
L 542.47207 439.864684 
L 542.768957 442.685295 
L 543.066107 441.525002 
L 543.363097 437.815833 
L 543.957551 425.236888 
L 545.443058 385.035833 
L 546.036985 377.576613 
L 546.333907 376.492174 
L 546.631453 376.564842 
L 546.928047 377.847939 
L 547.225274 380.743746 
L 547.522203 384.929601 
L 548.116448 397.958716 
L 549.601853 437.297406 
L 549.899345 441.998259 
L 550.196117 443.21354 
L 550.493464 441.300879 
L 550.790196 437.035484 
L 551.384672 421.930795 
L 552.275747 395.844049 
L 552.870237 385.741864 
L 553.166878 383.479854 
L 553.463949 383.214477 
L 553.761418 384.505332 
L 554.058207 387.487187 
L 554.652273 397.823781 
L 555.543822 421.236212 
L 556.434801 446.620875 
L 556.73239 450.478265 
L 557.029264 449.91535 
L 557.325986 445.023906 
L 559.108979 403.562502 
L 559.406067 400.782102 
L 559.703233 400.102261 
L 560.000027 401.395987 
L 560.296948 405.095727 
L 561.188137 424.552619 
L 561.782502 441.520205 
L 562.376972 457.108257 
L 562.673816 458.959674 
L 562.970745 457.006928 
L 563.267992 450.798006 
L 564.15933 425.147486 
L 564.753126 414.591653 
L 565.050446 410.926124 
L 565.347428 409.017472 
L 565.644594 409.467751 
L 565.94202 412.53906 
L 566.535681 425.012069 
L 567.427005 447.486527 
L 568.021575 458.606632 
L 568.318529 459.217192 
L 568.615712 455.035981 
L 570.1008 418.082694 
L 570.398071 414.817704 
L 570.695299 413.988711 
L 570.992353 415.086648 
L 571.289553 417.740281 
L 571.586486 422.626537 
L 573.071545 460.848697 
L 573.369106 462.797884 
L 573.665999 460.421868 
L 574.259872 444.235952 
L 574.854233 429.511767 
L 575.151174 426.454126 
L 575.44853 426.712692 
L 575.745256 430.334731 
L 576.339566 445.292641 
L 576.934158 460.07195 
L 577.52796 469.567974 
L 577.825255 470.268023 
L 578.122434 465.59853 
L 579.310398 438.362837 
L 579.607929 435.058377 
L 579.904974 434.487002 
L 580.201745 437.323171 
L 580.79598 450.314792 
L 581.687191 470.92604 
L 581.984468 474.504552 
L 582.281391 472.314269 
L 583.766699 441.619886 
L 584.063904 440.414621 
L 584.36124 442.082335 
L 584.955349 453.95754 
L 585.846407 475.07733 
L 586.143428 478.028281 
L 586.440419 475.307796 
L 587.034546 463.262773 
L 587.628961 449.670485 
L 587.926153 446.373008 
L 588.223373 447.196243 
L 588.817448 456.062762 
L 589.41138 469.809481 
L 589.708343 477.467034 
L 590.005454 481.589793 
L 590.30287 481.225776 
L 590.599709 477.039785 
L 591.491004 456.595255 
L 592.085134 452.497483 
L 592.382162 454.942789 
L 593.570769 483.117022 
L 593.867529 484.826227 
L 594.164712 482.392109 
L 595.056082 462.677805 
L 595.352936 459.203038 
L 595.650376 457.458773 
L 595.947416 459.833979 
L 596.541587 472.022638 
L 597.135596 486.13211 
L 597.43262 487.851456 
L 597.729973 484.284282 
L 598.323708 471.849901 
L 598.621273 464.874012 
L 598.917885 461.608453 
L 599.215041 462.447818 
L 599.512614 466.66492 
L 600.106751 481.108285 
L 600.403648 488.110006 
L 600.700571 490.440345 
L 600.997973 488.64531 
L 601.295053 484.311457 
L 601.888719 469.847833 
L 602.186335 466.448386 
L 602.482985 466.607672 
L 602.78015 470.64694 
L 603.671359 490.879682 
L 603.968777 493.695925 
L 604.265854 492.541668 
L 605.454215 470.907311 
L 605.751064 472.185212 
L 606.048016 477.009061 
L 606.939205 495.668741 
L 607.236502 497.176432 
L 607.533458 493.159162 
L 608.425002 476.04895 
L 608.721984 475.432696 
L 609.018987 478.897883 
L 609.612986 491.059878 
L 609.910014 497.63568 
L 610.207505 500.315787 
L 610.504267 498.335357 
L 611.395636 481.361734 
L 611.692994 479.895621 
L 611.989924 480.844947 
L 612.287064 485.471645 
L 612.880855 499.307041 
L 613.178232 502.53925 
L 613.475583 501.722241 
L 614.366614 485.211903 
L 614.663933 482.260129 
L 614.960551 484.025252 
L 616.1493 505.236354 
L 616.446366 502.374987 
L 617.337145 486.250204 
L 617.634475 485.968002 
L 617.931717 489.498424 
L 618.822948 506.821679 
L 619.120057 506.539165 
L 619.417155 503.052596 
L 620.011175 490.950377 
L 620.308127 489.275953 
L 620.605294 490.665551 
L 621.496517 507.938391 
L 621.79377 509.701634 
L 622.091058 506.762363 
L 622.685241 495.488292 
L 622.982212 492.322509 
L 623.279403 492.865218 
L 623.873505 503.951975 
L 624.170615 509.748988 
L 624.467321 511.900457 
L 624.76467 509.193394 
L 625.655724 494.913244 
L 625.953058 495.656043 
L 626.249804 500.072969 
L 626.843924 512.023917 
L 627.141274 513.645678 
L 627.438592 511.384242 
L 628.032612 500.297121 
L 628.329771 497.741042 
L 628.626852 498.776603 
L 629.518011 514.59447 
L 629.814871 515.802755 
L 630.112041 512.280018 
L 630.706489 501.998128 
L 631.003539 500.171417 
L 631.300262 502.42201 
L 632.191559 517.352939 
L 632.488674 516.795448 
L 632.785704 512.729141 
L 633.379746 503.199968 
L 633.677006 502.881229 
L 633.974351 506.441128 
L 634.568622 517.41557 
L 634.865289 519.444589 
L 635.162421 517.086801 
L 635.756949 507.090183 
L 636.053983 504.784817 
L 636.350756 506.696286 
L 637.241836 520.903222 
L 637.538939 520.097333 
L 637.836066 516.188634 
L 638.430494 507.401361 
L 638.727817 507.728596 
L 639.02449 511.378727 
L 639.618833 521.482876 
L 639.915976 522.465239 
L 640.213124 519.395458 
L 640.80692 510.20919 
L 641.104124 509.153959 
L 641.401373 512.135248 
L 641.995182 522.218818 
L 642.292286 524.153266 
L 642.589416 521.853889 
L 643.183727 512.649239 
L 643.480935 511.034604 
L 643.778209 513.147276 
L 644.371931 523.103986 
L 644.669061 525.427838 
L 644.966184 523.953374 
L 645.560483 514.897608 
L 645.857644 512.895896 
L 646.154899 514.463285 
L 647.045747 526.749189 
L 647.342834 525.491197 
L 647.937086 516.846373 
L 648.234259 514.555006 
L 648.531489 516.102079 
L 649.422291 527.903564 
L 649.719406 526.774798 
L 650.31364 518.280547 
L 650.610774 516.302572 
L 650.907974 517.648618 
L 651.799355 529.126864 
L 652.096448 527.816997 
L 652.690656 519.602284 
L 652.987788 517.728262 
L 653.284388 519.500912 
L 653.878623 528.276165 
L 654.175701 530.204088 
L 654.472775 528.587166 
L 655.067028 520.540435 
L 655.364129 519.265743 
L 655.661267 521.307964 
L 656.255519 529.804217 
L 656.552591 531.249499 
L 656.849634 529.068044 
L 657.443879 521.423313 
L 657.740988 520.744537 
L 658.038122 523.375514 
L 658.632274 531.430295 
L 658.92939 531.966213 
L 659.226411 529.29285 
L 659.820639 522.23543 
L 660.11775 522.378221 
L 660.414857 525.54665 
L 661.008991 532.778285 
L 661.306111 532.478603 
L 662.197292 523.155654 
L 662.494443 524.214605 
L 663.385626 533.906494 
L 663.682718 532.542282 
L 664.276909 525.390234 
L 664.573974 524.300369 
L 664.87101 526.282934 
L 665.465197 533.738612 
L 665.762253 534.583758 
L 666.059307 532.300353 
L 666.653468 525.740834 
L 666.950551 525.745371 
L 667.841754 535.205235 
L 668.138797 534.750678 
L 669.03003 526.385221 
L 669.327093 527.598198 
L 669.921207 534.677501 
L 670.218262 536.083804 
L 670.515891 534.457245 
L 671.110006 528.011352 
L 671.407075 527.493937 
L 671.704185 529.837892 
L 672.298292 536.337706 
L 672.595307 536.33795 
L 673.486502 528.314406 
L 673.783565 529.152171 
L 674.377657 535.768831 
L 674.674729 537.30967 
L 674.97173 535.982028 
L 675.565842 529.851317 
L 675.862881 529.212377 
L 676.159986 531.305261 
L 676.754653 537.471875 
L 677.05168 537.534111 
L 677.942855 529.982796 
L 678.239879 530.776626 
L 678.833976 536.997535 
L 679.131024 538.387917 
L 679.428032 537.041433 
L 680.022094 531.293119 
L 680.319157 530.827961 
L 680.616228 532.915239 
L 681.210877 538.595682 
L 681.507885 538.442781 
L 682.39903 531.426543 
L 682.69607 532.422947 
L 683.290143 538.292331 
L 683.587164 539.304368 
L 683.884171 537.730283 
L 684.478817 532.442406 
L 684.775874 532.377308 
L 685.072938 534.61515 
L 685.369948 537.719575 
L 685.666967 539.634456 
L 685.963977 539.073981 
L 686.558016 533.77053 
L 686.855086 532.738211 
L 687.152112 534.105037 
L 687.746764 539.548099 
L 688.043767 539.993787 
L 688.340769 538.091965 
L 688.934818 533.447398 
L 689.23186 533.922246 
L 690.122916 540.487893 
L 690.420529 539.40235 
L 691.014559 534.4413 
L 691.311619 534.035365 
L 691.608625 535.847481 
L 692.202664 540.635168 
L 692.499663 540.394115 
L 693.391307 534.448534 
L 693.688347 535.527982 
L 694.282372 540.518239 
L 694.579371 541.05736 
L 694.876369 539.434106 
L 695.471011 535.102986 
L 695.768029 535.426407 
L 696.659063 541.432974 
L 696.95606 540.468659 
L 697.550074 535.928412 
L 697.847694 535.566486 
L 698.144736 537.219472 
L 698.738726 541.551959 
L 699.035731 541.271965 
L 699.629735 536.877671 
L 699.926764 535.896603 
L 700.224364 536.967046 
L 700.818385 541.476549 
L 701.115383 541.839597 
L 701.412374 540.244585 
L 701.709373 537.870806 
L 702.006384 536.406391 
L 702.303415 536.870199 
L 702.898011 541.26828 
L 703.195009 542.188098 
L 703.491998 541.120036 
L 704.086018 537.047437 
L 704.383026 536.931632 
L 704.680624 538.628855 
L 704.977635 540.967021 
L 705.274623 542.353512 
L 705.571614 541.825466 
L 706.165608 537.772304 
L 706.462621 537.151712 
L 706.760237 538.378259 
L 707.354224 542.360628 
L 707.651217 542.363553 
L 708.542211 537.489388 
L 708.839815 538.245891 
L 709.433814 542.253752 
L 709.730798 542.738255 
L 710.027786 541.448374 
L 710.621781 537.939945 
L 710.919398 538.219434 
L 711.81037 542.966854 
L 712.107355 542.098018 
L 712.701362 538.464165 
L 712.998955 538.302338 
L 713.295955 539.759139 
L 713.592955 541.825844 
L 713.889938 543.072673 
L 714.186922 542.627442 
L 714.781502 539.0392 
L 715.078513 538.486973 
L 715.375513 539.575207 
L 715.969497 543.071329 
L 716.266478 543.038788 
L 717.158053 538.750771 
L 717.455057 539.473794 
L 718.049041 542.993987 
L 718.346024 543.335939 
L 718.643603 542.122537 
L 719.237592 539.092779 
L 719.534599 539.439865 
L 720.128578 542.855552 
L 720.425556 543.531769 
L 720.723132 542.640918 
L 721.317123 539.481873 
L 721.614114 539.486343 
L 722.505683 543.638101 
L 722.802661 543.0774 
L 723.396636 539.915651 
L 723.693645 539.597209 
L 723.990632 540.7112 
L 724.585201 543.667248 
L 724.882178 543.429217 
L 725.476153 540.369822 
L 725.773144 539.769991 
L 726.070742 540.603367 
L 726.664706 543.636299 
L 726.961685 543.701213 
L 727.853247 539.995998 
L 728.150239 540.539032 
L 728.74421 543.554151 
L 729.041185 543.89891 
L 729.338162 542.897013 
L 729.932737 540.261577 
L 730.229732 540.530083 
L 730.823699 543.439169 
L 731.120679 544.02798 
L 731.418253 543.273372 
L 732.012224 540.564415 
L 732.309215 540.564562 
L 733.200758 544.098511 
L 733.497732 543.594136 
L 734.091701 540.886904 
L 734.388692 540.649127 
L 734.685686 541.629784 
L 735.280238 544.117133 
L 735.577211 543.85869 
L 736.171177 541.228727 
L 736.468168 540.769931 
L 736.76575 541.539595 
L 737.35971 544.092945 
L 737.656684 544.067576 
L 738.54823 540.92949 
L 738.845223 541.478544 
L 739.439179 544.034756 
L 739.736152 544.2251 
L 740.033723 543.284736 
L 740.330703 541.919045 
L 740.627696 541.116424 
L 740.92468 541.451887 
L 741.51864 543.948599 
L 741.816211 544.334689 
L 742.113183 543.581978 
L 742.707147 541.328576 
L 743.004141 541.459159 
L 743.895666 544.401782 
L 744.192641 543.839023 
L 744.786606 541.559373 
L 745.084184 541.497253 
L 745.975121 544.431603 
L 746.272092 544.057135 
L 746.866646 541.801093 
L 747.163636 541.565213 
L 747.163636 541.565213 
" clip-path="url(#pd3bc49e6f5)" style="fill: none; stroke: #0000ff; stroke-opacity: 0.3; stroke-width: 1.5; stroke-linecap: square"/>
   </g>
   <g id="line2d_18">
    <path d="M 153.290605 567 
L 153.290605 77.76 
" clip-path="url(#pd3bc49e6f5)" style="fill: none; stroke-dasharray: 5.55,2.4; stroke-dashoffset: 0; stroke: #ff0000; stroke-width: 1.5"/>
   </g>
   <g id="line2d_19">
    <path d="M 450.37544 567 
L 450.37544 77.76 
" clip-path="url(#pd3bc49e6f5)" style="fill: none; stroke-dasharray: 5.55,2.4; stroke-dashoffset: 0; stroke: #000000; stroke-width: 1.5"/>
   </g>
   <g id="patch_3">
    <path d="M 108 567 
L 108 77.76 
" style="fill: none; stroke: #000000; stroke-width: 0.8; stroke-linejoin: miter; stroke-linecap: square"/>
   </g>
   <g id="patch_4">
    <path d="M 777.6 567 
L 777.6 77.76 
" style="fill: none; stroke: #000000; stroke-width: 0.8; stroke-linejoin: miter; stroke-linecap: square"/>
   </g>
   <g id="patch_5">
    <path d="M 108 567 
L 777.6 567 
" style="fill: none; stroke: #000000; stroke-width: 0.8; stroke-linejoin: miter; stroke-linecap: square"/>
   </g>
   <g id="patch_6">
    <path d="M 108 77.76 
L 777.6 77.76 
" style="fill: none; stroke: #000000; stroke-width: 0.8; stroke-linejoin: miter; stroke-linecap: square"/>
   </g>
   <g id="text_17">
    <!-- Pulse Start -->
    <g style="fill: #ff0000" transform="translate(153.290605 96.254744)scale(0.18 -0.18)">
     <defs>
      <path id="DejaVuSans-50" d="M 1259 4147 
L 1259 2394 
L 2053 2394 
Q 2494 2394 2734 2622 
Q 2975 2850 2975 3272 
Q 2975 3691 2734 3919 
Q 2494 4147 2053 4147 
L 1259 4147 
z
M 628 4666 
L 2053 4666 
Q 2838 4666 3239 4311 
Q 3641 3956 3641 3272 
Q 3641 2581 3239 2228 
Q 2838 1875 2053 1875 
L 1259 1875 
L 1259 0 
L 628 0 
L 628 4666 
z
" transform="scale(0.015625)"/>
      <path id="DejaVuSans-75" d="M 544 1381 
L 544 3500 
L 1119 3500 
L 1119 1403 
Q 1119 906 1312 657 
Q 1506 409 1894 409 
Q 2359 409 2629 706 
Q 2900 1003 2900 1516 
L 2900 3500 
L 3475 3500 
L 3475 0 
L 2900 0 
L 2900 538 
Q 2691 219 2414 64 
Q 2138 -91 1772 -91 
Q 1169 -91 856 284 
Q 544 659 544 1381 
z
M 1991 3584 
L 1991 3584 
z
" transform="scale(0.015625)"/>
      <path id="DejaVuSans-6c" d="M 603 4863 
L 1178 4863 
L 1178 0 
L 603 0 
L 603 4863 
z
" transform="scale(0.015625)"/>
      <path id="DejaVuSans-53" d="M 3425 4513 
L 3425 3897 
Q 3066 4069 2747 4153 
Q 2428 4238 2131 4238 
Q 1616 4238 1336 4038 
Q 1056 3838 1056 3469 
Q 1056 3159 1242 3001 
Q 1428 2844 1947 2747 
L 2328 2669 
Q 3034 2534 3370 2195 
Q 3706 1856 3706 1288 
Q 3706 609 3251 259 
Q 2797 -91 1919 -91 
Q 1588 -91 1214 -16 
Q 841 59 441 206 
L 441 856 
Q 825 641 1194 531 
Q 1563 422 1919 422 
Q 2459 422 2753 634 
Q 3047 847 3047 1241 
Q 3047 1584 2836 1778 
Q 2625 1972 2144 2069 
L 1759 2144 
Q 1053 2284 737 2584 
Q 422 2884 422 3419 
Q 422 4038 858 4394 
Q 1294 4750 2059 4750 
Q 2388 4750 2728 4690 
Q 3069 4631 3425 4513 
z
" transform="scale(0.015625)"/>
      <path id="DejaVuSans-72" d="M 2631 2963 
Q 2534 3019 2420 3045 
Q 2306 3072 2169 3072 
Q 1681 3072 1420 2755 
Q 1159 2438 1159 1844 
L 1159 0 
L 581 0 
L 581 3500 
L 1159 3500 
L 1159 2956 
Q 1341 3275 1631 3429 
Q 1922 3584 2338 3584 
Q 2397 3584 2469 3576 
Q 2541 3569 2628 3553 
L 2631 2963 
z
" transform="scale(0.015625)"/>
     </defs>
     <use xlink:href="#DejaVuSans-50"/>
     <use xlink:href="#DejaVuSans-75" x="58.552734"/>
     <use xlink:href="#DejaVuSans-6c" x="121.931641"/>
     <use xlink:href="#DejaVuSans-73" x="149.714844"/>
     <use xlink:href="#DejaVuSans-65" x="201.814453"/>
     <use xlink:href="#DejaVuSans-20" x="263.337891"/>
     <use xlink:href="#DejaVuSans-53" x="295.125"/>
     <use xlink:href="#DejaVuSans-74" x="358.601562"/>
     <use xlink:href="#DejaVuSans-61" x="397.810547"/>
     <use xlink:href="#DejaVuSans-72" x="459.089844"/>
     <use xlink:href="#DejaVuSans-74" x="500.203125"/>
    </g>
   </g>
   <g id="text_18">
    <!-- Pulse End -->
    <g transform="translate(450.37544 96.254744)scale(0.18 -0.18)">
     <defs>
      <path id="DejaVuSans-45" d="M 628 4666 
L 3578 4666 
L 3578 4134 
L 1259 4134 
L 1259 2753 
L 3481 2753 
L 3481 2222 
L 1259 2222 
L 1259 531 
L 3634 531 
L 3634 0 
L 628 0 
L 628 4666 
z
" transform="scale(0.015625)"/>
      <path id="DejaVuSans-64" d="M 2906 2969 
L 2906 4863 
L 3481 4863 
L 3481 0 
L 2906 0 
L 2906 525 
Q 2725 213 2448 61 
Q 2172 -91 1784 -91 
Q 1150 -91 751 415 
Q 353 922 353 1747 
Q 353 2572 751 3078 
Q 1150 3584 1784 3584 
Q 2172 3584 2448 3432 
Q 2725 3281 2906 2969 
z
M 947 1747 
Q 947 1113 1208 752 
Q 1469 391 1925 391 
Q 2381 391 2643 752 
Q 2906 1113 2906 1747 
Q 2906 2381 2643 2742 
Q 2381 3103 1925 3103 
Q 1469 3103 1208 2742 
Q 947 2381 947 1747 
z
" transform="scale(0.015625)"/>
     </defs>
     <use xlink:href="#DejaVuSans-50"/>
     <use xlink:href="#DejaVuSans-75" x="58.552734"/>
     <use xlink:href="#DejaVuSans-6c" x="121.931641"/>
     <use xlink:href="#DejaVuSans-73" x="149.714844"/>
     <use xlink:href="#DejaVuSans-65" x="201.814453"/>
     <use xlink:href="#DejaVuSans-20" x="263.337891"/>
     <use xlink:href="#DejaVuSans-45" x="295.125"/>
     <use xlink:href="#DejaVuSans-6e" x="358.308594"/>
     <use xlink:href="#DejaVuSans-64" x="421.6875"/>
    </g>
   </g>
   <g id="legend_1">
    <g id="patch_7">
     <path d="M 120.6 224.263125 
L 275.290312 224.263125 
Q 278.890312 224.263125 278.890312 220.663125 
L 278.890312 90.36 
Q 278.890312 86.76 275.290312 86.76 
L 120.6 86.76 
Q 117 86.76 117 90.36 
L 117 220.663125 
Q 117 224.263125 120.6 224.263125 
z
" style="fill: #ffffff; opacity: 0.8; stroke: #cccccc; stroke-linejoin: miter"/>
    </g>
    <g id="line2d_20">
     <path d="M 124.2 101.337187 
L 142.2 101.337187 
L 160.2 101.337187 
" style="fill: none; stroke: #ff0000; stroke-opacity: 0.3; stroke-width: 1.5; stroke-linecap: square"/>
    </g>
    <g id="text_19">
     <!-- mx -->
     <g transform="translate(174.6 107.637187)scale(0.18 -0.18)">
      <defs>
       <path id="DejaVuSans-78" d="M 3513 3500 
L 2247 1797 
L 3578 0 
L 2900 0 
L 1881 1375 
L 863 0 
L 184 0 
L 1544 1831 
L 300 3500 
L 978 3500 
L 1906 2253 
L 2834 3500 
L 3513 3500 
z
" transform="scale(0.015625)"/>
      </defs>
      <use xlink:href="#DejaVuSans-6d"/>
      <use xlink:href="#DejaVuSans-78" x="97.412109"/>
     </g>
    </g>
    <g id="line2d_21">
     <path d="M 124.2 127.757812 
L 142.2 127.757812 
L 160.2 127.757812 
" style="fill: none; stroke: #008000; stroke-opacity: 0.3; stroke-width: 1.5; stroke-linecap: square"/>
    </g>
    <g id="text_20">
     <!-- my -->
     <g transform="translate(174.6 134.057812)scale(0.18 -0.18)">
      <defs>
       <path id="DejaVuSans-79" d="M 2059 -325 
Q 1816 -950 1584 -1140 
Q 1353 -1331 966 -1331 
L 506 -1331 
L 506 -850 
L 844 -850 
Q 1081 -850 1212 -737 
Q 1344 -625 1503 -206 
L 1606 56 
L 191 3500 
L 800 3500 
L 1894 763 
L 2988 3500 
L 3597 3500 
L 2059 -325 
z
" transform="scale(0.015625)"/>
      </defs>
      <use xlink:href="#DejaVuSans-6d"/>
      <use xlink:href="#DejaVuSans-79" x="97.412109"/>
     </g>
    </g>
    <g id="line2d_22">
     <path d="M 124.2 154.178437 
L 142.2 154.178437 
L 160.2 154.178437 
" style="fill: none; stroke: #0000ff; stroke-opacity: 0.3; stroke-width: 1.5; stroke-linecap: square"/>
    </g>
    <g id="text_21">
     <!-- mz -->
     <g transform="translate(174.6 160.478437)scale(0.18 -0.18)">
      <use xlink:href="#DejaVuSans-6d"/>
      <use xlink:href="#DejaVuSans-7a" x="97.412109"/>
     </g>
    </g>
    <g id="line2d_23">
     <path d="M 124.2 180.599062 
L 142.2 180.599062 
L 160.2 180.599062 
" style="fill: none; stroke-dasharray: 5.55,2.4; stroke-dashoffset: 0; stroke: #ff0000; stroke-width: 1.5"/>
    </g>
    <g id="text_22">
     <!-- Pulse Start -->
     <g transform="translate(174.6 186.899062)scale(0.18 -0.18)">
      <use xlink:href="#DejaVuSans-50"/>
      <use xlink:href="#DejaVuSans-75" x="58.552734"/>
      <use xlink:href="#DejaVuSans-6c" x="121.931641"/>
      <use xlink:href="#DejaVuSans-73" x="149.714844"/>
      <use xlink:href="#DejaVuSans-65" x="201.814453"/>
      <use xlink:href="#DejaVuSans-20" x="263.337891"/>
      <use xlink:href="#DejaVuSans-53" x="295.125"/>
      <use xlink:href="#DejaVuSans-74" x="358.601562"/>
      <use xlink:href="#DejaVuSans-61" x="397.810547"/>
      <use xlink:href="#DejaVuSans-72" x="459.089844"/>
      <use xlink:href="#DejaVuSans-74" x="500.203125"/>
     </g>
    </g>
    <g id="line2d_24">
     <path d="M 124.2 207.019687 
L 142.2 207.019687 
L 160.2 207.019687 
" style="fill: none; stroke-dasharray: 5.55,2.4; stroke-dashoffset: 0; stroke: #000000; stroke-width: 1.5"/>
    </g>
    <g id="text_23">
     <!-- Pulse End -->
     <g transform="translate(174.6 213.319687)scale(0.18 -0.18)">
      <use xlink:href="#DejaVuSans-50"/>
      <use xlink:href="#DejaVuSans-75" x="58.552734"/>
      <use xlink:href="#DejaVuSans-6c" x="121.931641"/>
      <use xlink:href="#DejaVuSans-73" x="149.714844"/>
      <use xlink:href="#DejaVuSans-65" x="201.814453"/>
      <use xlink:href="#DejaVuSans-20" x="263.337891"/>
      <use xlink:href="#DejaVuSans-45" x="295.125"/>
      <use xlink:href="#DejaVuSans-6e" x="358.308594"/>
      <use xlink:href="#DejaVuSans-64" x="421.6875"/>
     </g>
    </g>
   </g>
  </g>
 </g>
 <defs>
  <clipPath id="pd3bc49e6f5">
   <rect x="108" y="77.76" width="669.6" height="489.24"/>
  </clipPath>
 </defs>
</svg>
